<svg xmlns="http://www.w3.org/2000/svg" width="100" height="100" viewBox="0 0 500 500">
  <metadata><?xpacket begin="﻿" id="W5M0MpCehiHzreSzNTczkc9d"?>
<x:xmpmeta xmlns:x="adobe:ns:meta/" x:xmptk="Adobe XMP Core 5.6-c142 79.160924, 2017/07/13-01:06:39        ">
   <rdf:RDF xmlns:rdf="http://www.w3.org/1999/02/22-rdf-syntax-ns#">
      <rdf:Description rdf:about=""/>
   </rdf:RDF>
</x:xmpmeta>
                                                                                                    
                                                                                                    
                                                                                                    
                                                                                                    
                                                                                                    
                                                                                                    
                                                                                                    
                                                                                                    
                                                                                                    
                                                                                                    
                                                                                                    
                                                                                                    
                                                                                                    
                                                                                                    
                                                                                                    
                                                                                                    
                                                                                                    
                                                                                                    
                                                                                                    
                                                                                                    
                           
<?xpacket end="w"?></metadata>
<defs>
    <style>
      .cls-1 {
        fill-rule: evenodd;
      }
    </style>
  </defs>
  <path id="HTML" class="cls-1" d="M390,460H110a15,15,0,0,1-15-15V55a15,15,0,0,1,15-15H296a9.928,9.928,0,0,1,5.837,2.149l101.01,101.01A10.354,10.354,0,0,1,405,149V445A15,15,0,0,1,390,460ZM146,76a15,15,0,0,0-15,15V409a15,15,0,0,0,15,15H354a15,15,0,0,0,15-15V186c0-3.338-3.6-7-7-7H281a15,15,0,0,1-15-15V82a6.559,6.559,0,0,0-6-6H146Zm29.313,191.253a2.293,2.293,0,0,0-.609,1.594v17.2H159.471v-17.2a2.3,2.3,0,0,0-.609-1.594,1.9,1.9,0,0,0-1.447-.671h-15.69a1.889,1.889,0,0,0-1.447.671,2.294,2.294,0,0,0-.61,1.594v54.191a2.25,2.25,0,0,0,.61,1.636,1.944,1.944,0,0,0,1.447.629h15.69a1.892,1.892,0,0,0,1.447-.671,2.29,2.29,0,0,0,.609-1.594V305.17H174.7v17.868a2.286,2.286,0,0,0,.609,1.594,1.889,1.889,0,0,0,1.447.671h15.69a1.892,1.892,0,0,0,1.447-.671,2.291,2.291,0,0,0,.61-1.594V268.847a2.3,2.3,0,0,0-.61-1.594,1.9,1.9,0,0,0-1.447-.671H176.76A1.892,1.892,0,0,0,175.313,267.253Zm21.173,0a2.293,2.293,0,0,0-.609,1.594v13.506a2.286,2.286,0,0,0,.609,1.594,1.889,1.889,0,0,0,1.447.671h16.376v38.42a2.286,2.286,0,0,0,.609,1.594,1.889,1.889,0,0,0,1.447.671h15.69a1.892,1.892,0,0,0,1.447-.671,2.291,2.291,0,0,0,.61-1.594v-38.42h16.375a1.892,1.892,0,0,0,1.447-.671,2.29,2.29,0,0,0,.609-1.594V268.847a2.3,2.3,0,0,0-.609-1.594,1.9,1.9,0,0,0-1.447-.671H197.933A1.892,1.892,0,0,0,196.486,267.253Zm97.824,1.594-9.977,20.133-9.978-20.133a3.562,3.562,0,0,0-3.275-2.265H257.142a1.892,1.892,0,0,0-1.447.671,2.293,2.293,0,0,0-.609,1.594v54.191a2.286,2.286,0,0,0,.609,1.594,1.889,1.889,0,0,0,1.447.671h13.786a1.892,1.892,0,0,0,1.447-.671,2.29,2.29,0,0,0,.609-1.594v-26l5.56,12.08a3.889,3.889,0,0,0,1.067,1.342,3.058,3.058,0,0,0,2.132.755h5.179a3.534,3.534,0,0,0,1.828-.545,3.38,3.38,0,0,0,1.371-1.552l5.56-12.08v26a2.287,2.287,0,0,0,.61,1.594,1.886,1.886,0,0,0,1.447.671h13.786a1.892,1.892,0,0,0,1.447-.671,2.29,2.29,0,0,0,.609-1.594V268.847a2.3,2.3,0,0,0-.609-1.594,1.9,1.9,0,0,0-1.447-.671H297.585a3.562,3.562,0,0,0-3.275,2.265h0Zm43,0a2.3,2.3,0,0,0-.609-1.594,1.9,1.9,0,0,0-1.447-.671H318.805a1.892,1.892,0,0,0-1.447.671,2.293,2.293,0,0,0-.609,1.594v54.191a2.286,2.286,0,0,0,.609,1.594,1.889,1.889,0,0,0,1.447.671h44.48a1.892,1.892,0,0,0,1.447-.671,2.291,2.291,0,0,0,.61-1.594V310.371a2.3,2.3,0,0,0-.61-1.594,1.9,1.9,0,0,0-1.447-.671H337.313V268.847Z"/>
</svg>
