<svg xmlns="http://www.w3.org/2000/svg" width="100" height="100" viewBox="0 0 500 500">
  <metadata><?xpacket begin="﻿" id="W5M0MpCehiHzreSzNTczkc9d"?>
<x:xmpmeta xmlns:x="adobe:ns:meta/" x:xmptk="Adobe XMP Core 5.6-c142 79.160924, 2017/07/13-01:06:39        ">
   <rdf:RDF xmlns:rdf="http://www.w3.org/1999/02/22-rdf-syntax-ns#">
      <rdf:Description rdf:about=""/>
   </rdf:RDF>
</x:xmpmeta>
                                                                                                    
                                                                                                    
                                                                                                    
                                                                                                    
                                                                                                    
                                                                                                    
                                                                                                    
                                                                                                    
                                                                                                    
                                                                                                    
                                                                                                    
                                                                                                    
                                                                                                    
                                                                                                    
                                                                                                    
                                                                                                    
                                                                                                    
                                                                                                    
                                                                                                    
                                                                                                    
                           
<?xpacket end="w"?></metadata>
<defs>
    <style>
      .cls-1 {
        fill: #fff;
        fill-rule: evenodd;
      }
    </style>
  </defs>
  <path id="filled" class="cls-1" d="M425,440H76a15,15,0,0,1-15-15V76A15,15,0,0,1,76,61H425a15,15,0,0,1,15,15V425A15,15,0,0,1,425,440Zm-45.742-88.526a5.148,5.148,0,0,1-4.154,2.243H339.909q-5.247,0-8.744-5.889L283.594,270v0.649q0,42.923-21.533,63.131T203.8,354q-36.726,0-58.258-20.215t-21.533-63.131V164.88a8.216,8.216,0,0,1,1.749-5.258,5.166,5.166,0,0,1,4.153-2.218H175.6a5.189,5.189,0,0,1,4.154,2.2,8.192,8.192,0,0,1,1.749,5.237V274.491q0,11.3,6.011,17.357t16.286,6.06q10.274,0,16.287-6.06t6.011-17.357V164.845a8.169,8.169,0,0,1,1.749-5.237A5.177,5.177,0,0,1,232,157.4h45.688a5.176,5.176,0,0,1,4.154,2.218,8,8,0,0,1,1.65,3.933l45.046,83.873V222.193a8.409,8.409,0,0,1,1.749-5.329,5.149,5.149,0,0,1,4.154-2.243H375.1a5.158,5.158,0,0,1,4.154,2.243,8.426,8.426,0,0,1,1.749,5.329V346.145A8.409,8.409,0,0,1,379.258,351.474ZM333.685,153h41.729a5,5,0,0,1,5,5v41.813a5,5,0,0,1-5,5H333.685a5,5,0,0,1-5-5V158A5,5,0,0,1,333.685,153Z"/>
</svg>
