<svg xmlns="http://www.w3.org/2000/svg" width="100" height="100" viewBox="0 0 500 500">
  <metadata><?xpacket begin="﻿" id="W5M0MpCehiHzreSzNTczkc9d"?>
<x:xmpmeta xmlns:x="adobe:ns:meta/" x:xmptk="Adobe XMP Core 5.6-c142 79.160924, 2017/07/13-01:06:39        ">
   <rdf:RDF xmlns:rdf="http://www.w3.org/1999/02/22-rdf-syntax-ns#">
      <rdf:Description rdf:about=""/>
   </rdf:RDF>
</x:xmpmeta>
                                                                                                    
                                                                                                    
                                                                                                    
                                                                                                    
                                                                                                    
                                                                                                    
                                                                                                    
                                                                                                    
                                                                                                    
                                                                                                    
                                                                                                    
                                                                                                    
                                                                                                    
                                                                                                    
                                                                                                    
                                                                                                    
                                                                                                    
                                                                                                    
                                                                                                    
                                                                                                    
                           
<?xpacket end="w"?></metadata>
<defs>
    <style>
      .cls-1 {
        fill-rule: evenodd;
      }
    </style>
  </defs>
  <path id="regular" class="cls-1" d="M425,440H76a15,15,0,0,1-15-15V76A15,15,0,0,1,76,61H425a15,15,0,0,1,15,15V425A15,15,0,0,1,425,440ZM405,112a15,15,0,0,0-15-15H112a15,15,0,0,0-15,15V390a15,15,0,0,0,15,15H390a15,15,0,0,0,15-15V112ZM369.915,344.847a4.775,4.775,0,0,1-3.853,2.078H333.413q-4.868,0-8.112-5.455l-44.129-72.089v0.6q0,39.759-19.975,58.479t-54.043,18.724q-34.07,0-54.044-18.724t-19.975-58.479V172.005a7.607,7.607,0,0,1,1.622-4.871,4.8,4.8,0,0,1,3.854-2.054h42.383a4.813,4.813,0,0,1,3.853,2.041,7.579,7.579,0,0,1,1.622,4.851V273.538q0,10.465,5.577,16.078t15.108,5.613q9.53,0,15.108-5.613t5.576-16.078V171.972a7.557,7.557,0,0,1,1.623-4.851,4.8,4.8,0,0,1,3.853-2.041H275.7a4.8,4.8,0,0,1,3.853,2.054,7.4,7.4,0,0,1,1.531,3.643l41.787,77.692V225.094a7.782,7.782,0,0,1,1.622-4.936,4.779,4.779,0,0,1,3.853-2.078h37.719a4.786,4.786,0,0,1,3.853,2.078,7.794,7.794,0,0,1,1.623,4.936V339.911A7.778,7.778,0,0,1,369.915,344.847ZM328,161h38a5,5,0,0,1,5,5v38a5,5,0,0,1-5,5H328a5,5,0,0,1-5-5V166A5,5,0,0,1,328,161Z"/>
</svg>
