<svg xmlns="http://www.w3.org/2000/svg" width="100" height="100" viewBox="0 0 500 500">
  <metadata><?xpacket begin="﻿" id="W5M0MpCehiHzreSzNTczkc9d"?>
<x:xmpmeta xmlns:x="adobe:ns:meta/" x:xmptk="Adobe XMP Core 5.6-c142 79.160924, 2017/07/13-01:06:39        ">
   <rdf:RDF xmlns:rdf="http://www.w3.org/1999/02/22-rdf-syntax-ns#">
      <rdf:Description rdf:about=""/>
   </rdf:RDF>
</x:xmpmeta>
                                                                                                    
                                                                                                    
                                                                                                    
                                                                                                    
                                                                                                    
                                                                                                    
                                                                                                    
                                                                                                    
                                                                                                    
                                                                                                    
                                                                                                    
                                                                                                    
                                                                                                    
                                                                                                    
                                                                                                    
                                                                                                    
                                                                                                    
                                                                                                    
                                                                                                    
                                                                                                    
                           
<?xpacket end="w"?></metadata>
<defs>
    <style>
      .cls-1 {
        fill: #fff;
        fill-rule: evenodd;
      }
    </style>
  </defs>
  <path id="filled" class="cls-1" d="M287.312,263.3c-3.191,4.534-39.785,56.446-44.817,63.57-1.2,1.534-3.933,1.9-3.423-1.393,1.77-11.41,5.1-32.661,7.585-48.476H214c-2.885,0-4.759-1.747-1.564-6.251s39.835-56.074,44.874-63.151c1.2-1.524,3.937-1.887,3.426,1.384-1.766,11.3-5.089,32.327-7.573,48.025H285.75C288.632,257,290.5,258.761,287.312,263.3ZM319,423H182a30,30,0,0,1-30-30V143.607a30,30,0,0,1,30-30h9V97a20,20,0,0,1,20-20h77a20,20,0,0,1,20,20v16.607h11a30,30,0,0,1,30,30V393A30,30,0,0,1,319,423Zm-6-252a20,20,0,0,0-20-20H208a20,20,0,0,0-20,20V364a20,20,0,0,0,20,20h85a20,20,0,0,0,20-20V171Z"/>
  <path id="regular" class="cls-1" d="M287.312,263.3c-3.191,4.534-39.785,56.446-44.817,63.57-1.2,1.534-3.933,1.9-3.423-1.393,1.77-11.41,5.1-32.661,7.585-48.476H214c-2.885,0-4.759-1.747-1.564-6.251s39.835-56.074,44.874-63.151c1.2-1.524,3.937-1.887,3.426,1.384-1.766,11.3-5.089,32.327-7.573,48.025H285.75C288.632,257,290.5,258.761,287.312,263.3ZM319,423H182a30,30,0,0,1-30-30V143.607a30,30,0,0,1,30-30h9V97a20,20,0,0,1,20-20h77a20,20,0,0,1,20,20v16.607h11a30,30,0,0,1,30,30V393A30,30,0,0,1,319,423Zm-6-252a20,20,0,0,0-20-20H208a20,20,0,0,0-20,20V364a20,20,0,0,0,20,20h85a20,20,0,0,0,20-20V171Z"/>
</svg>
