<svg xmlns="http://www.w3.org/2000/svg" width="100" height="100" viewBox="0 0 500 500">
  <metadata><?xpacket begin="﻿" id="W5M0MpCehiHzreSzNTczkc9d"?>
<x:xmpmeta xmlns:x="adobe:ns:meta/" x:xmptk="Adobe XMP Core 5.6-c142 79.160924, 2017/07/13-01:06:39        ">
   <rdf:RDF xmlns:rdf="http://www.w3.org/1999/02/22-rdf-syntax-ns#">
      <rdf:Description rdf:about=""/>
   </rdf:RDF>
</x:xmpmeta>
                                                                                                    
                                                                                                    
                                                                                                    
                                                                                                    
                                                                                                    
                                                                                                    
                                                                                                    
                                                                                                    
                                                                                                    
                                                                                                    
                                                                                                    
                                                                                                    
                                                                                                    
                                                                                                    
                                                                                                    
                                                                                                    
                                                                                                    
                                                                                                    
                                                                                                    
                                                                                                    
                           
<?xpacket end="w"?></metadata>
<defs>
    <style>
      .cls-1 {
        fill: #fff;
        fill-rule: evenodd;
      }
    </style>
  </defs>
  <path id="filled" class="cls-1" d="M390,460H110a15,15,0,0,1-15-15V55a15,15,0,0,1,15-15H296a9.928,9.928,0,0,1,5.837,2.149l101.01,101.01A10.354,10.354,0,0,1,405,149V445A15,15,0,0,1,390,460ZM293,61l91,91a15,15,0,0,1-15,15H293a15,15,0,0,1-15-15V76A15,15,0,0,1,293,61Zm49.313,186.238L327.9,261.676l-7.372,7.387-0.67.671-33.512-33.576,0.67-.672,7.373-7.387,14.41-14.438a5.68,5.68,0,0,1,8.043,0l25.468,25.519A5.705,5.705,0,0,1,342.313,247.238ZM301.429,288.2L196.537,393.3a2.36,2.36,0,0,1-2.06.662,2.456,2.456,0,0,1-1.07.44L160.01,399c-1.073.148-3.164-1.947-3.016-3.021l4.6-33.462a2.617,2.617,0,0,1,.768-1.464,2.361,2.361,0,0,1,.667-1.337l104.891-105.1,6.368-6.38,1.675-1.678,33.512,33.576-1.676,1.679Z"/>
</svg>
