<svg xmlns="http://www.w3.org/2000/svg" width="100" height="100" viewBox="0 0 500 500">
  <metadata><?xpacket begin="﻿" id="W5M0MpCehiHzreSzNTczkc9d"?>
<x:xmpmeta xmlns:x="adobe:ns:meta/" x:xmptk="Adobe XMP Core 5.6-c142 79.160924, 2017/07/13-01:06:39        ">
   <rdf:RDF xmlns:rdf="http://www.w3.org/1999/02/22-rdf-syntax-ns#">
      <rdf:Description rdf:about=""/>
   </rdf:RDF>
</x:xmpmeta>
                                                                                                    
                                                                                                    
                                                                                                    
                                                                                                    
                                                                                                    
                                                                                                    
                                                                                                    
                                                                                                    
                                                                                                    
                                                                                                    
                                                                                                    
                                                                                                    
                                                                                                    
                                                                                                    
                                                                                                    
                                                                                                    
                                                                                                    
                                                                                                    
                                                                                                    
                                                                                                    
                           
<?xpacket end="w"?></metadata>
<defs>
    <style>
      .cls-1 {
        fill: #fff;
        fill-rule: evenodd;
      }
    </style>
  </defs>
  <path id="filled" class="cls-1" d="M379,392H122a15,15,0,0,1-15-15V120a15,15,0,0,1,15-15H379a15,15,0,0,1,15,15V377A15,15,0,0,1,379,392ZM247.764,357C186.274,357,181,311.991,181,298.665h32.145c0,10.6,8.3,28.547,30.91,28.547s37.09-10.761,37.09-31.03V273.841s-6.293,18.618-38.327,18.618S181,280.2,181,217.988,224.555,146,240.345,146c38.008,0,40.8,24.824,40.8,24.824v-21.1H317V294.941C317,321.449,309.253,357,247.764,357Zm3.091-178.729c-17.412,0-31.528,19.449-31.528,43.441s14.116,43.441,31.528,43.441,31.527-19.449,31.527-43.441S268.267,178.271,250.855,178.271Z"/>
</svg>
