<svg xmlns="http://www.w3.org/2000/svg" width="100" height="100" viewBox="0 0 500 500">
  <metadata><?xpacket begin="﻿" id="W5M0MpCehiHzreSzNTczkc9d"?>
<x:xmpmeta xmlns:x="adobe:ns:meta/" x:xmptk="Adobe XMP Core 5.6-c142 79.160924, 2017/07/13-01:06:39        ">
   <rdf:RDF xmlns:rdf="http://www.w3.org/1999/02/22-rdf-syntax-ns#">
      <rdf:Description rdf:about=""/>
   </rdf:RDF>
</x:xmpmeta>
                                                                                                    
                                                                                                    
                                                                                                    
                                                                                                    
                                                                                                    
                                                                                                    
                                                                                                    
                                                                                                    
                                                                                                    
                                                                                                    
                                                                                                    
                                                                                                    
                                                                                                    
                                                                                                    
                                                                                                    
                                                                                                    
                                                                                                    
                                                                                                    
                                                                                                    
                                                                                                    
                           
<?xpacket end="w"?></metadata>
<defs>
    <style>
      .cls-1 {
        fill-rule: evenodd;
      }
    </style>
  </defs>
  <path id="regular" class="cls-1" d="M379,392H122a15,15,0,0,1-15-15V120a15,15,0,0,1,15-15H379a15,15,0,0,1,15,15V377A15,15,0,0,1,379,392ZM357,146a5,5,0,0,0-5-5H148a5,5,0,0,0-5,5V350a5,5,0,0,0,5,5H352a5,5,0,0,0,5-5V146ZM248,336c-49.734,0-54-36.263-54-47h26c0,8.543,6.713,23,25,23s30-8.67,30-25V269s-5.091,15-31,15-50-9.88-50-60,35.228-58,48-58c30.741,0,33,20,33,20V169h29V286C304,307.357,297.734,336,248,336Zm2.5-144c-14.083,0-25.5,15.67-25.5,35s11.417,35,25.5,35S276,246.33,276,227,264.583,192,250.5,192Z"/>
</svg>
