<svg xmlns="http://www.w3.org/2000/svg" width="100" height="100" viewBox="0 0 500 500">
  <metadata><?xpacket begin="﻿" id="W5M0MpCehiHzreSzNTczkc9d"?>
<x:xmpmeta xmlns:x="adobe:ns:meta/" x:xmptk="Adobe XMP Core 5.6-c142 79.160924, 2017/07/13-01:06:39        ">
   <rdf:RDF xmlns:rdf="http://www.w3.org/1999/02/22-rdf-syntax-ns#">
      <rdf:Description rdf:about=""/>
   </rdf:RDF>
</x:xmpmeta>
                                                                                                    
                                                                                                    
                                                                                                    
                                                                                                    
                                                                                                    
                                                                                                    
                                                                                                    
                                                                                                    
                                                                                                    
                                                                                                    
                                                                                                    
                                                                                                    
                                                                                                    
                                                                                                    
                                                                                                    
                                                                                                    
                                                                                                    
                                                                                                    
                                                                                                    
                                                                                                    
                           
<?xpacket end="w"?></metadata>
<defs>
    <style>
      .cls-1 {
        fill: #fff;
        fill-rule: evenodd;
      }
    </style>
  </defs>
  <path id="regular" class="cls-1" d="M377,339H123a15,15,0,0,1-15-15v-9.344a15,15,0,0,1,15-15H377a15,15,0,0,1,15,15V324A15,15,0,0,1,377,339Zm0-68.828H123a15,15,0,0,1-15-15v-9.344a15,15,0,0,1,15-15H377a15,15,0,0,1,15,15v9.344A15,15,0,0,1,377,270.172Zm0-68.828H123a15,15,0,0,1-15-15V177a15,15,0,0,1,15-15H377a15,15,0,0,1,15,15v9.344A15,15,0,0,1,377,201.344Z"/>
</svg>
