<svg xmlns="http://www.w3.org/2000/svg" width="100" height="100" viewBox="0 0 500 500">
  <metadata><?xpacket begin="﻿" id="W5M0MpCehiHzreSzNTczkc9d"?>
<x:xmpmeta xmlns:x="adobe:ns:meta/" x:xmptk="Adobe XMP Core 5.6-c142 79.160924, 2017/07/13-01:06:39        ">
   <rdf:RDF xmlns:rdf="http://www.w3.org/1999/02/22-rdf-syntax-ns#">
      <rdf:Description rdf:about=""/>
   </rdf:RDF>
</x:xmpmeta>
                                                                                                    
                                                                                                    
                                                                                                    
                                                                                                    
                                                                                                    
                                                                                                    
                                                                                                    
                                                                                                    
                                                                                                    
                                                                                                    
                                                                                                    
                                                                                                    
                                                                                                    
                                                                                                    
                                                                                                    
                                                                                                    
                                                                                                    
                                                                                                    
                                                                                                    
                                                                                                    
                           
<?xpacket end="w"?></metadata>
<defs>
    <style>
      .cls-1 {
        fill: #fff;
        fill-rule: evenodd;
      }
    </style>
  </defs>
  <path id="regular" class="cls-1" d="M119.489,299.285v32.381H22.125V169.319H54.507V299.285h64.983Zm114.062-125.34a16.038,16.038,0,0,0-11.455-4.626H157.113a16.169,16.169,0,0,0-16.3,16.081V315.366a16.552,16.552,0,0,0,16.3,16.3H222.1a16.169,16.169,0,0,0,16.081-16.3V185.4a16.038,16.038,0,0,0-4.626-11.455h0Zm-60.357,76.438V201.7h32.6v97.584h-32.6v-48.9h0ZM356.864,218V185.4a15.8,15.8,0,0,0-16.08-16.081H275.8A16.169,16.169,0,0,0,259.5,185.4V315.366a16.552,16.552,0,0,0,16.3,16.3h64.983a16.169,16.169,0,0,0,16.08-16.3V234.3H308.182v32.382h16.3v32.6h-32.6V201.7h32.6V218h32.381Zm114.062-44.056a16.038,16.038,0,0,0-11.455-4.626H394.488a16.171,16.171,0,0,0-16.3,16.081V315.366a16.553,16.553,0,0,0,16.3,16.3h64.983a16.169,16.169,0,0,0,16.081-16.3V185.4a16.038,16.038,0,0,0-4.626-11.455h0Zm-60.357,76.438V201.7h32.6v97.584h-32.6v-48.9h0Z"/>
</svg>
