<svg xmlns="http://www.w3.org/2000/svg" width="100" height="100" viewBox="0 0 500 500">
  <metadata><?xpacket begin="﻿" id="W5M0MpCehiHzreSzNTczkc9d"?>
<x:xmpmeta xmlns:x="adobe:ns:meta/" x:xmptk="Adobe XMP Core 5.6-c142 79.160924, 2017/07/13-01:06:39        ">
   <rdf:RDF xmlns:rdf="http://www.w3.org/1999/02/22-rdf-syntax-ns#">
      <rdf:Description rdf:about=""/>
   </rdf:RDF>
</x:xmpmeta>
                                                                                                    
                                                                                                    
                                                                                                    
                                                                                                    
                                                                                                    
                                                                                                    
                                                                                                    
                                                                                                    
                                                                                                    
                                                                                                    
                                                                                                    
                                                                                                    
                                                                                                    
                                                                                                    
                                                                                                    
                                                                                                    
                                                                                                    
                                                                                                    
                                                                                                    
                                                                                                    
                           
<?xpacket end="w"?></metadata>
<defs>
    <style>
      .cls-1 {
        fill-rule: evenodd;
      }
    </style>
  </defs>
  <path id="regular" class="cls-1" d="M390,460H110a15,15,0,0,1-15-15V55a15,15,0,0,1,15-15H296a9.928,9.928,0,0,1,5.837,2.149l101.01,101.01A10.354,10.354,0,0,1,405,149V445A15,15,0,0,1,390,460ZM146,76a15,15,0,0,0-15,15V409a15,15,0,0,0,15,15H354a15,15,0,0,0,15-15V186c0-3.338-3.6-7-7-7H281a15,15,0,0,1-15-15V82a6.559,6.559,0,0,0-6-6H146Zm14,293H279a10,10,0,0,1,10,10v16a10,10,0,0,1-10,10H160a10,10,0,0,1-10-10V379A10,10,0,0,1,160,369Zm0-110H340a10,10,0,0,1,10,10v16a10,10,0,0,1-10,10H160a10,10,0,0,1-10-10V269A10,10,0,0,1,160,259Zm0-54h41a10,10,0,0,1,10,10v16a10,10,0,0,1-10,10H160a10,10,0,0,1-10-10V215A10,10,0,0,1,160,205Zm77,0H340a10,10,0,0,1,10,10v16a10,10,0,0,1-10,10H237a10,10,0,0,1-10-10V215A10,10,0,0,1,237,205ZM160,95h71a10,10,0,0,1,10,10v16a10,10,0,0,1-10,10H160a10,10,0,0,1-10-10V105A10,10,0,0,1,160,95Z"/>
</svg>
