<svg xmlns="http://www.w3.org/2000/svg" width="100" height="100" viewBox="0 0 500 500">
  <metadata><?xpacket begin="﻿" id="W5M0MpCehiHzreSzNTczkc9d"?>
<x:xmpmeta xmlns:x="adobe:ns:meta/" x:xmptk="Adobe XMP Core 5.6-c142 79.160924, 2017/07/13-01:06:39        ">
   <rdf:RDF xmlns:rdf="http://www.w3.org/1999/02/22-rdf-syntax-ns#">
      <rdf:Description rdf:about=""/>
   </rdf:RDF>
</x:xmpmeta>
                                                                                                    
                                                                                                    
                                                                                                    
                                                                                                    
                                                                                                    
                                                                                                    
                                                                                                    
                                                                                                    
                                                                                                    
                                                                                                    
                                                                                                    
                                                                                                    
                                                                                                    
                                                                                                    
                                                                                                    
                                                                                                    
                                                                                                    
                                                                                                    
                                                                                                    
                                                                                                    
                           
<?xpacket end="w"?></metadata>
<defs>
    <style>
      .cls-1 {
        fill: #fff;
        fill-rule: evenodd;
      }
    </style>
  </defs>
  <path id="filled" class="cls-1" d="M390,459H136a15,15,0,0,1-15-15v-6.3a15.044,15.044,0,0,0,3,.3H369a15,15,0,0,0,15-15V69a15.051,15.051,0,0,0-.3-3H390a15,15,0,0,1,15,15V444A15,15,0,0,1,390,459Zm-35-35H110a15,15,0,0,1-15-15V55a15,15,0,0,1,15-15H355a15,15,0,0,1,15,15V409A15,15,0,0,1,355,424ZM210,185V73H128V200l41-34,41,34V185Z"/>
</svg>
