<svg xmlns="http://www.w3.org/2000/svg" width="100" height="100" viewBox="0 0 500 500">
  <metadata><?xpacket begin="﻿" id="W5M0MpCehiHzreSzNTczkc9d"?>
<x:xmpmeta xmlns:x="adobe:ns:meta/" x:xmptk="Adobe XMP Core 5.6-c142 79.160924, 2017/07/13-01:06:39        ">
   <rdf:RDF xmlns:rdf="http://www.w3.org/1999/02/22-rdf-syntax-ns#">
      <rdf:Description rdf:about=""/>
   </rdf:RDF>
</x:xmpmeta>
                                                                                                    
                                                                                                    
                                                                                                    
                                                                                                    
                                                                                                    
                                                                                                    
                                                                                                    
                                                                                                    
                                                                                                    
                                                                                                    
                                                                                                    
                                                                                                    
                                                                                                    
                                                                                                    
                                                                                                    
                                                                                                    
                                                                                                    
                                                                                                    
                                                                                                    
                                                                                                    
                           
<?xpacket end="w"?></metadata>
<defs>
    <style>
      .cls-1 {
        fill-rule: evenodd;
      }
    </style>
  </defs>
  <path id="regular" class="cls-1" d="M390,459H136a15,15,0,0,1-15-15v-6H369a15,15,0,0,0,15-15V66h6a15,15,0,0,1,15,15V444A15,15,0,0,1,390,459Zm-35-35H110a15,15,0,0,1-15-15V55a15,15,0,0,1,15-15H355a15,15,0,0,1,15,15V409A15,15,0,0,1,355,424ZM334,84a8,8,0,0,0-8-8H229.009V191.994l-41.05-33-40.956,33V76h-8a8,8,0,0,0-8,8V380a8,8,0,0,0,8,8H326a8,8,0,0,0,8-8V84Z"/>
</svg>
