<svg xmlns="http://www.w3.org/2000/svg" width="100" height="100" viewBox="0 0 500 500">
  <metadata><?xpacket begin="﻿" id="W5M0MpCehiHzreSzNTczkc9d"?>
<x:xmpmeta xmlns:x="adobe:ns:meta/" x:xmptk="Adobe XMP Core 5.6-c142 79.160924, 2017/07/13-01:06:39        ">
   <rdf:RDF xmlns:rdf="http://www.w3.org/1999/02/22-rdf-syntax-ns#">
      <rdf:Description rdf:about=""/>
   </rdf:RDF>
</x:xmpmeta>
                                                                                                    
                                                                                                    
                                                                                                    
                                                                                                    
                                                                                                    
                                                                                                    
                                                                                                    
                                                                                                    
                                                                                                    
                                                                                                    
                                                                                                    
                                                                                                    
                                                                                                    
                                                                                                    
                                                                                                    
                                                                                                    
                                                                                                    
                                                                                                    
                                                                                                    
                                                                                                    
                           
<?xpacket end="w"?></metadata>
<defs>
    <style>
      .cls-1 {
        fill: #fff;
        fill-rule: evenodd;
      }
    </style>
  </defs>
  <path id="filled" class="cls-1" d="M57,326.279H441a15,15,0,0,1,15,15V415a15,15,0,0,1-15,15H57a15,15,0,0,1-15-15V341.279A15,15,0,0,1,57,326.279Zm259.978-80.216-56.451,56.411a17.117,17.117,0,0,1-24.194,0l-56.452-56.411c-22.592-22.577-25.705-35.573,0-35.573h13.764c8.051,0,16.008,1.19,16.008-5.014V88.1A17.1,17.1,0,0,1,226.76,71h45.62a17.1,17.1,0,0,1,17.108,17.1V205.47c0,6.488,8.024,5.02,15.916,5.02h11.574C347.135,210.49,335.176,227.878,316.978,246.063Z"/>
</svg>
