<svg xmlns="http://www.w3.org/2000/svg" width="100" height="100" viewBox="0 0 500 500">
  <metadata><?xpacket begin="﻿" id="W5M0MpCehiHzreSzNTczkc9d"?>
<x:xmpmeta xmlns:x="adobe:ns:meta/" x:xmptk="Adobe XMP Core 5.6-c142 79.160924, 2017/07/13-01:06:39        ">
   <rdf:RDF xmlns:rdf="http://www.w3.org/1999/02/22-rdf-syntax-ns#">
      <rdf:Description rdf:about=""/>
   </rdf:RDF>
</x:xmpmeta>
                                                                                                    
                                                                                                    
                                                                                                    
                                                                                                    
                                                                                                    
                                                                                                    
                                                                                                    
                                                                                                    
                                                                                                    
                                                                                                    
                                                                                                    
                                                                                                    
                                                                                                    
                                                                                                    
                                                                                                    
                                                                                                    
                                                                                                    
                                                                                                    
                                                                                                    
                                                                                                    
                           
<?xpacket end="w"?></metadata>
<defs>
    <style>
      .cls-1 {
        fill: #fff;
        fill-rule: evenodd;
      }
    </style>
  </defs>
  <path id="regular" class="cls-1" d="M441,430H57a15,15,0,0,1-15-15V341.279a15,15,0,0,1,15-15H441a15,15,0,0,1,15,15V415A15,15,0,0,1,441,430Zm-19-66.625A4.662,4.662,0,0,0,417.1,359H80.9a4.662,4.662,0,0,0-4.9,4.375v32.25A4.662,4.662,0,0,0,80.9,400H417.1a4.662,4.662,0,0,0,4.9-4.375v-32.25Zm-159.945-58.07a19.433,19.433,0,0,1-27.446,0l-64.04-63.925c-25.63-25.584-29.161-40.311,0-40.311h15.613c9.134,0,18.16,1.348,18.16-5.681V71.372A19.39,19.39,0,0,1,223.749,52H275.5a19.39,19.39,0,0,1,19.407,19.372V195.381c0,7.352,9.1,5.688,18.056,5.688H326.1c34.21,0,20.644,19.7,0,40.311Zm25.494-78.728c-7.1,0-23.7.438-23.7,0.438V83.961c0-6.991-6.926-5.946-14.112-5.889-7.134.056-14.528-.927-14.528,5.889V227.015s-17.327-.438-25.36-0.438c-5.062,0-3.284,4.092-1.935,5.439l35.481,35.443c4.048,4.043,8.793,3.987,12.632.151,9.665-9.653,26.477-29.192,33.793-36.5C292.134,228.8,290.537,226.577,287.549,226.577Z"/>
</svg>
