<svg xmlns="http://www.w3.org/2000/svg" width="100" height="100" viewBox="0 0 500 500">
  <metadata><?xpacket begin="﻿" id="W5M0MpCehiHzreSzNTczkc9d"?>
<x:xmpmeta xmlns:x="adobe:ns:meta/" x:xmptk="Adobe XMP Core 5.6-c142 79.160924, 2017/07/13-01:06:39        ">
   <rdf:RDF xmlns:rdf="http://www.w3.org/1999/02/22-rdf-syntax-ns#">
      <rdf:Description rdf:about=""/>
   </rdf:RDF>
</x:xmpmeta>
                                                                                                    
                                                                                                    
                                                                                                    
                                                                                                    
                                                                                                    
                                                                                                    
                                                                                                    
                                                                                                    
                                                                                                    
                                                                                                    
                                                                                                    
                                                                                                    
                                                                                                    
                                                                                                    
                                                                                                    
                                                                                                    
                                                                                                    
                                                                                                    
                                                                                                    
                                                                                                    
                           
<?xpacket end="w"?></metadata>
<defs>
    <style>
      .cls-1 {
        fill-rule: evenodd;
      }
    </style>
  </defs>
  <path id="regular" class="cls-1" d="M390,460H257a15,15,0,0,1-15-15v-6a15,15,0,0,1,15-15h97a15,15,0,0,0,15-15V186c0-3.338-3.6-7-7-7H281a15,15,0,0,1-15-15V82a6.559,6.559,0,0,0-6-6H146a15,15,0,0,0-15,15V273h0v22a15,15,0,0,1-15,15h-6a14.989,14.989,0,0,1-14.951-14.039L95,296V55a15,15,0,0,1,15-15H296a9.928,9.928,0,0,1,5.837,2.149l101.01,101.01A10.354,10.354,0,0,1,405,149V445A15,15,0,0,1,390,460ZM147,320h36v52h52v36H183v52H147V408H95V372h52V320Z"/>
</svg>
