<svg xmlns="http://www.w3.org/2000/svg" width="100" height="100" viewBox="0 0 500 500">
  <metadata><?xpacket begin="﻿" id="W5M0MpCehiHzreSzNTczkc9d"?>
<x:xmpmeta xmlns:x="adobe:ns:meta/" x:xmptk="Adobe XMP Core 5.6-c142 79.160924, 2017/07/13-01:06:39        ">
   <rdf:RDF xmlns:rdf="http://www.w3.org/1999/02/22-rdf-syntax-ns#">
      <rdf:Description rdf:about=""/>
   </rdf:RDF>
</x:xmpmeta>
                                                                                                    
                                                                                                    
                                                                                                    
                                                                                                    
                                                                                                    
                                                                                                    
                                                                                                    
                                                                                                    
                                                                                                    
                                                                                                    
                                                                                                    
                                                                                                    
                                                                                                    
                                                                                                    
                                                                                                    
                                                                                                    
                                                                                                    
                                                                                                    
                                                                                                    
                                                                                                    
                           
<?xpacket end="w"?></metadata>
<defs>
    <style>
      .cls-1 {
        fill: #fff;
        fill-rule: evenodd;
      }
    </style>
  </defs>
  <path id="filled" class="cls-1" d="M425,357H289.768a42.726,42.726,0,0,0,2.769-30.918c21.947-25.639,67.465-82.364,60.348-89.474-7.149-7.141-64.8,38.378-90.445,60.041A42.785,42.785,0,0,0,213.042,357H76a15,15,0,0,1-15-15V332c0-.222.024-0.437,0.033-0.656C62.232,227.675,146.589,144,250.5,144s188.269,83.675,189.467,187.344c0.009,0.219.033,0.434,0.033,0.656v10A15,15,0,0,1,425,357ZM92,333.234a15.484,15.484,0,1,0,15.483-15.448A15.466,15.466,0,0,0,92,333.234Zm34.517-83.182A15.448,15.448,0,1,0,142,265.5,15.466,15.466,0,0,0,126.517,250.052ZM178.9,195.39a15.448,15.448,0,1,0,15.483,15.448A15.465,15.465,0,0,0,178.9,195.39ZM251.409,174a15.447,15.447,0,1,0,15.47,15.447A15.459,15.459,0,0,0,251.409,174Zm73.751,21.39a15.448,15.448,0,1,0,15.465,15.448A15.456,15.456,0,0,0,325.16,195.39ZM377.5,250.052A15.448,15.448,0,1,0,392.967,265.5,15.456,15.456,0,0,0,377.5,250.052Zm19.033,67.734A15.448,15.448,0,1,0,412,333.234,15.456,15.456,0,0,0,396.535,317.786ZM231.674,337.764A19.284,19.284,0,1,1,250.958,357,19.261,19.261,0,0,1,231.674,337.764Z"/>
</svg>
