<svg xmlns="http://www.w3.org/2000/svg" width="100" height="100" viewBox="0 0 500 500">
  <metadata><?xpacket begin="﻿" id="W5M0MpCehiHzreSzNTczkc9d"?>
<x:xmpmeta xmlns:x="adobe:ns:meta/" x:xmptk="Adobe XMP Core 5.6-c142 79.160924, 2017/07/13-01:06:39        ">
   <rdf:RDF xmlns:rdf="http://www.w3.org/1999/02/22-rdf-syntax-ns#">
      <rdf:Description rdf:about=""/>
   </rdf:RDF>
</x:xmpmeta>
                                                                                                    
                                                                                                    
                                                                                                    
                                                                                                    
                                                                                                    
                                                                                                    
                                                                                                    
                                                                                                    
                                                                                                    
                                                                                                    
                                                                                                    
                                                                                                    
                                                                                                    
                                                                                                    
                                                                                                    
                                                                                                    
                                                                                                    
                                                                                                    
                                                                                                    
                                                                                                    
                           
<?xpacket end="w"?></metadata>
<defs>
    <style>
      .cls-1 {
        fill: #fff;
        fill-rule: evenodd;
      }
    </style>
  </defs>
  <path id="regular" class="cls-1" d="M425,357H76a15,15,0,0,1-15-15V332c0-.222.024-0.437,0.033-0.656C62.232,227.675,146.589,144,250.5,144s188.269,83.675,189.467,187.344c0.009,0.219.033,0.434,0.033,0.656v10A15,15,0,0,1,425,357Zm-24-40h0v-3.882c0-.16-0.019-0.316-0.026-0.475C400.025,237.583,324.272,177,251.492,177S101.975,237.583,101.026,312.643c-0.007.159-.026,0.315-0.026,0.475V317h0v2a4,4,0,0,0,4,4h11.051a13,13,0,0,1,25.916,0h72.386a36.006,36.006,0,0,1,44.923-29.787c21.556-18.23,70.021-56.536,76.031-50.526,5.982,5.983-32.282,53.718-50.73,75.3A36.172,36.172,0,0,1,285.646,323h73.4a12.988,12.988,0,0,1,25.9,0H397a4,4,0,0,0,4-4v-2Zm-45-37a13,13,0,1,1,13-13A13,13,0,0,1,356,280Zm-44-46a13,13,0,1,1,13-13A13,13,0,0,1,312,234Zm-62-18a13,13,0,1,1,13-13A13,13,0,0,1,250,216Zm-60.951,18a13,13,0,1,1,13.008-13A13,13,0,0,1,189.049,234Zm-44.03,46a13,13,0,1,1,13.009-13A13,13,0,0,1,145.019,280Z"/>
</svg>
