<svg xmlns="http://www.w3.org/2000/svg" width="100" height="100" viewBox="0 0 500 500">
  <metadata><?xpacket begin="﻿" id="W5M0MpCehiHzreSzNTczkc9d"?>
<x:xmpmeta xmlns:x="adobe:ns:meta/" x:xmptk="Adobe XMP Core 5.6-c142 79.160924, 2017/07/13-01:06:39        ">
   <rdf:RDF xmlns:rdf="http://www.w3.org/1999/02/22-rdf-syntax-ns#">
      <rdf:Description rdf:about=""/>
   </rdf:RDF>
</x:xmpmeta>
                                                                                                    
                                                                                                    
                                                                                                    
                                                                                                    
                                                                                                    
                                                                                                    
                                                                                                    
                                                                                                    
                                                                                                    
                                                                                                    
                                                                                                    
                                                                                                    
                                                                                                    
                                                                                                    
                                                                                                    
                                                                                                    
                                                                                                    
                                                                                                    
                                                                                                    
                                                                                                    
                           
<?xpacket end="w"?></metadata>
<defs>
    <style>
      .cls-1 {
        fill-rule: evenodd;
      }
    </style>
  </defs>
  <path id="TXT_copia" data-name="TXT copia" class="cls-1" d="M390,460H110a15,15,0,0,1-15-15V55a15,15,0,0,1,15-15H296a9.928,9.928,0,0,1,5.837,2.149l101.01,101.01A10.354,10.354,0,0,1,405,149V445A15,15,0,0,1,390,460ZM293,61l91,91a15,15,0,0,1-15,15H293a15,15,0,0,1-15-15V76A15,15,0,0,1,293,61ZM114.5,250.943a3.849,3.849,0,0,0-.978,2.633v22.31a3.842,3.842,0,0,0,.978,2.633,2.993,2.993,0,0,0,2.322,1.108h26.273v63.465a3.838,3.838,0,0,0,.977,2.633,2.992,2.992,0,0,0,2.322,1.109h25.173a3,3,0,0,0,2.322-1.109,3.847,3.847,0,0,0,.977-2.633V279.627h26.273a3,3,0,0,0,2.322-1.108,3.852,3.852,0,0,0,.978-2.633v-22.31a3.859,3.859,0,0,0-.978-2.633,3.005,3.005,0,0,0-2.322-1.108H116.819A3,3,0,0,0,114.5,250.943Zm155.314,46.283,25.54-42.819a3.038,3.038,0,0,0,.366-1.662,2.971,2.971,0,0,0-.794-2.01,2.451,2.451,0,0,0-1.894-.9H266.756q-2.933,0-5.01,3.187l-10.265,18.014L241.95,253.3q-1.956-3.462-5.133-3.464h-26.4a2.448,2.448,0,0,0-1.894.9,2.961,2.961,0,0,0-.794,2.01,3.038,3.038,0,0,0,.366,1.662l24.074,41.017-27.006,46.837a3.041,3.041,0,0,0-.367,1.663,2.958,2.958,0,0,0,.794,2.009,2.44,2.44,0,0,0,1.894.9h26.395a5.584,5.584,0,0,0,5.011-3.187L250.5,323l11.853,20.647a5.413,5.413,0,0,0,5.01,3.187H293.64a2.443,2.443,0,0,0,1.894-.9,2.963,2.963,0,0,0,.794-2.009,3.051,3.051,0,0,0-.366-1.663Zm27.982-46.283a3.848,3.848,0,0,0-.977,2.633v22.31a3.841,3.841,0,0,0,.977,2.633,3,3,0,0,0,2.322,1.108h26.273v63.465a3.839,3.839,0,0,0,.978,2.633,2.99,2.99,0,0,0,2.321,1.109H354.86a3,3,0,0,0,2.322-1.109,3.848,3.848,0,0,0,.978-2.633V279.627h26.273a3,3,0,0,0,2.321-1.108,3.847,3.847,0,0,0,.978-2.633v-22.31a3.854,3.854,0,0,0-.978-2.633,3,3,0,0,0-2.321-1.108H300.115A3,3,0,0,0,297.793,250.943Z"/>
</svg>
