<svg xmlns="http://www.w3.org/2000/svg" width="100" height="100" viewBox="0 0 500 500">
  <metadata><?xpacket begin="﻿" id="W5M0MpCehiHzreSzNTczkc9d"?>
<x:xmpmeta xmlns:x="adobe:ns:meta/" x:xmptk="Adobe XMP Core 5.6-c142 79.160924, 2017/07/13-01:06:39        ">
   <rdf:RDF xmlns:rdf="http://www.w3.org/1999/02/22-rdf-syntax-ns#">
      <rdf:Description rdf:about=""/>
   </rdf:RDF>
</x:xmpmeta>
                                                                                                    
                                                                                                    
                                                                                                    
                                                                                                    
                                                                                                    
                                                                                                    
                                                                                                    
                                                                                                    
                                                                                                    
                                                                                                    
                                                                                                    
                                                                                                    
                                                                                                    
                                                                                                    
                                                                                                    
                                                                                                    
                                                                                                    
                                                                                                    
                                                                                                    
                                                                                                    
                           
<?xpacket end="w"?></metadata>
<defs>
    <style>
      .cls-1 {
        fill: #fff;
        fill-rule: evenodd;
      }
    </style>
  </defs>
  <path id="regular" class="cls-1" d="M398,460H103a15,15,0,0,1-15-15V92a15,15,0,0,1,15-15h74.3s7.7,0.107,7.7,7.716V103c0,10.035,0,10,10,10H305c10.035,0,10,0,10-10V84.749c0-7.632,7.7-7.749,7.7-7.749H398a15,15,0,0,1,15,15V445A15,15,0,0,1,398,460Zm-21-51V118a5,5,0,0,0-5-5H351.026A5.314,5.314,0,0,0,346,117.983V139a10,10,0,0,1-10,10H164a10,10,0,0,1-10-10V117.963A5.436,5.436,0,0,0,148.994,113H129a5,5,0,0,0-5,5V419a5,5,0,0,0,5,5H372a5,5,0,0,0,5-5V409ZM296.825,101h-91.65c-4.515,0-8.175-3.32-8.175-7.414V60.418c0-4.095,3.66-7.414,8.175-7.414L230,53a20.941,20.941,0,0,1,21.194-21A20.616,20.616,0,0,1,272,53l24.825,0C301.34,53,305,56.323,305,60.418V93.586C305,97.681,301.34,101,296.825,101ZM350,304H317a5,5,0,0,1-5-5V273a5,5,0,0,1,5-5h33a5,5,0,0,1,5,5v26A5,5,0,0,1,350,304Zm0-82H240a5,5,0,0,1-5-5V191a5,5,0,0,1,5-5H350a5,5,0,0,1,5,5v26A5,5,0,0,1,350,222ZM194,394H154a5,5,0,0,1-5-5V349a5,5,0,0,1,5-5h40a5,5,0,0,1,5,5v40A5,5,0,0,1,194,394Zm0-82H154a5,5,0,0,1-5-5V267a5,5,0,0,1,5-5h40a5,5,0,0,1,5,5v40A5,5,0,0,1,194,312Zm0-83H154a5,5,0,0,1-5-5V184a5,5,0,0,1,5-5h40a5,5,0,0,1,5,5v40A5,5,0,0,1,194,229Zm46,40h53a5,5,0,0,1,5,5v26a5,5,0,0,1-5,5H240a5,5,0,0,1-5-5V274A5,5,0,0,1,240,269Zm0,82H350a5,5,0,0,1,5,5v26a5,5,0,0,1-5,5H240a5,5,0,0,1-5-5V356A5,5,0,0,1,240,351Z"/>
</svg>
