<svg xmlns="http://www.w3.org/2000/svg" width="200" height="200" viewBox="0 0 500 500">
  <metadata><?xpacket begin="﻿" id="W5M0MpCehiHzreSzNTczkc9d"?>
<x:xmpmeta xmlns:x="adobe:ns:meta/" x:xmptk="Adobe XMP Core 5.6-c142 79.160924, 2017/07/13-01:06:39        ">
   <rdf:RDF xmlns:rdf="http://www.w3.org/1999/02/22-rdf-syntax-ns#">
      <rdf:Description rdf:about=""/>
   </rdf:RDF>
</x:xmpmeta>
                                                                                                    
                                                                                                    
                                                                                                    
                                                                                                    
                                                                                                    
                                                                                                    
                                                                                                    
                                                                                                    
                                                                                                    
                                                                                                    
                                                                                                    
                                                                                                    
                                                                                                    
                                                                                                    
                                                                                                    
                                                                                                    
                                                                                                    
                                                                                                    
                                                                                                    
                                                                                                    
                           
<?xpacket end="w"?></metadata>
<defs>
    <style>
      .cls-1 {
        fill-rule: evenodd;
      }
    </style>
  </defs>
  <path id="filled" class="cls-1" d="M402,469H95a15,15,0,0,1-15-15V37A15,15,0,0,1,95,22h95a15,15,0,0,1,15,15V222c0,9.432,8.713,20,19,20H402a15,15,0,0,1,15,15V454A15,15,0,0,1,402,469ZM250,270a73,73,0,1,0,73,73A73,73,0,0,0,250,270Zm22.92,73.707,23.5-23.5a51.461,51.461,0,0,1-.141,46.868Zm-45.991-45.991a51.493,51.493,0,0,1,47.8.338L251,321.787Zm-21.875,70.017a51.508,51.508,0,0,1-.14-48.192l24.166,24.166Zm69.405,21.353a51.477,51.477,0,0,1-47.256.339l23.8-23.8ZM391.331,213H254.521A20.532,20.532,0,0,1,234,192.457V56.875c0-7.912,6.04-11.179,13.557-3.654,7.088,7.095,23.584,24.4,71.265,72.131C360.2,166.774,382.18,187.11,391.9,196.839S398.419,213,391.331,213Z"/>
</svg>
