<svg xmlns="http://www.w3.org/2000/svg" width="200" height="200" viewBox="0 0 500 500">
  <metadata><?xpacket begin="﻿" id="W5M0MpCehiHzreSzNTczkc9d"?>
<x:xmpmeta xmlns:x="adobe:ns:meta/" x:xmptk="Adobe XMP Core 5.6-c142 79.160924, 2017/07/13-01:06:39        ">
   <rdf:RDF xmlns:rdf="http://www.w3.org/1999/02/22-rdf-syntax-ns#">
      <rdf:Description rdf:about=""/>
   </rdf:RDF>
</x:xmpmeta>
                                                                                                    
                                                                                                    
                                                                                                    
                                                                                                    
                                                                                                    
                                                                                                    
                                                                                                    
                                                                                                    
                                                                                                    
                                                                                                    
                                                                                                    
                                                                                                    
                                                                                                    
                                                                                                    
                                                                                                    
                                                                                                    
                                                                                                    
                                                                                                    
                                                                                                    
                                                                                                    
                           
<?xpacket end="w"?></metadata>
<defs>
    <style>
      .cls-1 {
        fill-rule: evenodd;
      }
    </style>
  </defs>
  <path id="regular" class="cls-1" d="M427,463a15,15,0,0,1-15,15H88a15,15,0,0,1-15-15V37A15,15,0,0,1,88,22H216c5.331,0,8.963.963,12,4L423,224a14.859,14.859,0,0,1,4,11V463ZM241,93.829V191a15,15,0,0,0,15,15h97.816ZM381,242H220a15,15,0,0,1-15-15V66c0-3.948-4.619-8-9-8H120.949C114.35,58,109,63.655,109,70.632V429.368c0,6.977,5.35,12.632,11.949,12.632h258.1c6.6,0,11.949-5.655,11.949-12.632V253C391,247.805,386.515,242,381,242ZM250.5,416A72.5,72.5,0,1,1,323,343.5,72.5,72.5,0,0,1,250.5,416Zm-40.015-92.234a44.629,44.629,0,0,0,0,39.468L230.219,343.5ZM250.5,298.885a44.408,44.408,0,0,0-19.734,4.6L250.5,323.219l19.734-19.734A44.408,44.408,0,0,0,250.5,298.885Zm0,64.9-19.734,19.734a44.629,44.629,0,0,0,39.468,0Zm40.015-40.015L270.781,343.5l19.734,19.734A44.629,44.629,0,0,0,290.515,323.766Z"/>
</svg>
