<svg xmlns="http://www.w3.org/2000/svg" width="100" height="100" viewBox="0 0 500 500">
  <metadata><?xpacket begin="﻿" id="W5M0MpCehiHzreSzNTczkc9d"?>
<x:xmpmeta xmlns:x="adobe:ns:meta/" x:xmptk="Adobe XMP Core 5.6-c142 79.160924, 2017/07/13-01:06:39        ">
   <rdf:RDF xmlns:rdf="http://www.w3.org/1999/02/22-rdf-syntax-ns#">
      <rdf:Description rdf:about=""/>
   </rdf:RDF>
</x:xmpmeta>
                                                                                                    
                                                                                                    
                                                                                                    
                                                                                                    
                                                                                                    
                                                                                                    
                                                                                                    
                                                                                                    
                                                                                                    
                                                                                                    
                                                                                                    
                                                                                                    
                                                                                                    
                                                                                                    
                                                                                                    
                                                                                                    
                                                                                                    
                                                                                                    
                                                                                                    
                                                                                                    
                           
<?xpacket end="w"?></metadata>
<defs>
    <style>
      .cls-1 {
        fill: #fff;
        fill-rule: evenodd;
      }
    </style>
  </defs>
  <path id="regular" class="cls-1" d="M297.684,247.421c-2.488,3.544-31.014,44.124-34.937,49.692-0.936,1.2-3.066,1.486-2.668-1.089,1.379-8.919,3.977-25.53,5.913-37.893H240.537c-2.25,0-3.71-1.365-1.219-4.886s31.053-43.833,34.981-49.364c0.936-1.192,3.069-1.476,2.671,1.082-1.377,8.835-3.967,25.269-5.9,37.54h25.4C298.713,242.5,300.172,243.877,297.684,247.421ZM394,349H144.594a30,30,0,0,1-30-30v-9H98a20,20,0,0,1-20-20V213a20,20,0,0,1,20-20h16.594V182a30,30,0,0,1,30-30H394a30,30,0,0,1,30,30V319A30,30,0,0,1,394,349Zm-9-141a20,20,0,0,0-20-20H172a20,20,0,0,0-20,20v85a20,20,0,0,0,20,20H365a20,20,0,0,0,20-20V208Z"/>
</svg>
