<svg xmlns="http://www.w3.org/2000/svg" width="100" height="100" viewBox="0 0 500 500">
  <metadata><?xpacket begin="﻿" id="W5M0MpCehiHzreSzNTczkc9d"?>
<x:xmpmeta xmlns:x="adobe:ns:meta/" x:xmptk="Adobe XMP Core 5.6-c142 79.160924, 2017/07/13-01:06:39        ">
   <rdf:RDF xmlns:rdf="http://www.w3.org/1999/02/22-rdf-syntax-ns#">
      <rdf:Description rdf:about=""/>
   </rdf:RDF>
</x:xmpmeta>
                                                                                                    
                                                                                                    
                                                                                                    
                                                                                                    
                                                                                                    
                                                                                                    
                                                                                                    
                                                                                                    
                                                                                                    
                                                                                                    
                                                                                                    
                                                                                                    
                                                                                                    
                                                                                                    
                                                                                                    
                                                                                                    
                                                                                                    
                                                                                                    
                                                                                                    
                                                                                                    
                           
<?xpacket end="w"?></metadata>
<defs>
    <style>
      .cls-1 {
        fill-rule: evenodd;
      }
    </style>
  </defs>
  <path id="p_df_copia" data-name="p df copia" class="cls-1" d="M390,460H110a15,15,0,0,1-15-15V55a15,15,0,0,1,15-15H296a9.928,9.928,0,0,1,5.837,2.149l101.01,101.01A10.354,10.354,0,0,1,405,149V445A15,15,0,0,1,390,460ZM191.1,257.165Q181,247.013,163.74,247.013H118.269a2.916,2.916,0,0,0-2.31,1.177,4.249,4.249,0,0,0-.972,2.8v95.049a4.242,4.242,0,0,0,.972,2.8,2.907,2.907,0,0,0,2.31,1.177h26.14a2.912,2.912,0,0,0,2.31-1.177,4.248,4.248,0,0,0,.973-2.8v-28.25H163.74q20.426,0,28.936-9.343t8.511-25.233Q201.187,267.317,191.1,257.165Zm58.992-10.152H211.3a2.915,2.915,0,0,0-2.31,1.177,4.245,4.245,0,0,0-.973,2.8v95.049a4.238,4.238,0,0,0,.973,2.8,2.906,2.906,0,0,0,2.31,1.177h38.784q20.061,0,32.1-9.71,13.131-10.738,13.131-34.283V291.006q0-15.153-6.079-25.307A34.333,34.333,0,0,0,273.31,251.28Q263.461,247.014,250.088,247.013ZM293,61a15,15,0,0,0-15,15v76a15,15,0,0,0,15,15h76a15,15,0,0,0,15-15Zm93.013,189.985a4.26,4.26,0,0,0-.972-2.8,2.92,2.92,0,0,0-2.31-1.177H305.406a2.915,2.915,0,0,0-2.31,1.177,4.245,4.245,0,0,0-.973,2.8v95.049a4.238,4.238,0,0,0,.973,2.8,2.906,2.906,0,0,0,2.31,1.177h26.261a2.912,2.912,0,0,0,2.31-1.177,4.248,4.248,0,0,0,.973-2.8V316.9h39.878a2.915,2.915,0,0,0,2.31-1.177,4.248,4.248,0,0,0,.973-2.8V290.711a4.256,4.256,0,0,0-.973-2.8,2.92,2.92,0,0,0-2.31-1.177H334.95v-9.417h47.781a2.915,2.915,0,0,0,2.31-1.177,4.253,4.253,0,0,0,.972-2.795V250.985Zm-126.259,67.02q-3.346,3.31-9.058,3.31H239.632V275.7H250.7q5.713,0,9.058,3.31t3.343,9.343v20.3Q263.1,314.7,259.754,318.005Zm-96.5-27.441H147.813V274.38h15.441a5.41,5.41,0,0,1,4.62,2.354,10.051,10.051,0,0,1,1.7,6.032,8.555,8.555,0,0,1-1.763,5.738A5.718,5.718,0,0,1,163.254,290.564Z"/>
</svg>
