<svg xmlns="http://www.w3.org/2000/svg" width="100" height="100" viewBox="0 0 500 500">
  <metadata><?xpacket begin="﻿" id="W5M0MpCehiHzreSzNTczkc9d"?>
<x:xmpmeta xmlns:x="adobe:ns:meta/" x:xmptk="Adobe XMP Core 5.6-c142 79.160924, 2017/07/13-01:06:39        ">
   <rdf:RDF xmlns:rdf="http://www.w3.org/1999/02/22-rdf-syntax-ns#">
      <rdf:Description rdf:about=""/>
   </rdf:RDF>
</x:xmpmeta>
                                                                                                    
                                                                                                    
                                                                                                    
                                                                                                    
                                                                                                    
                                                                                                    
                                                                                                    
                                                                                                    
                                                                                                    
                                                                                                    
                                                                                                    
                                                                                                    
                                                                                                    
                                                                                                    
                                                                                                    
                                                                                                    
                                                                                                    
                                                                                                    
                                                                                                    
                                                                                                    
                           
<?xpacket end="w"?></metadata>
<defs>
    <style>
      .cls-1 {
        fill-rule: evenodd;
      }
    </style>
  </defs>
  <path id="regular" class="cls-1" d="M390,460H110a15,15,0,0,1-15-15V55a15,15,0,0,1,15-15H296a9.928,9.928,0,0,1,5.837,2.149l101.01,101.01A10.354,10.354,0,0,1,405,149V445A15,15,0,0,1,390,460ZM369,186c0-3.338-3.6-7-7-7H281a15,15,0,0,1-15-15V82a6.559,6.559,0,0,0-6-6H146a15,15,0,0,0-15,15V409a15,15,0,0,0,15,15H354a15,15,0,0,0,15-15V186Zm-8.685,89.17a2.454,2.454,0,0,1-1.889.89H319.343v7.122h32.619a2.459,2.459,0,0,1,1.889.891,3.071,3.071,0,0,1,.8,2.114v16.805a3.066,3.066,0,0,1-.8,2.114,2.451,2.451,0,0,1-1.889.89H319.343v22.035a3.067,3.067,0,0,1-.8,2.115,2.455,2.455,0,0,1-1.89.89h-21.48a2.45,2.45,0,0,1-1.89-.89,3.061,3.061,0,0,1-.795-2.115V256.139a3.068,3.068,0,0,1,.795-2.114,2.454,2.454,0,0,1,1.89-.89h63.249a2.458,2.458,0,0,1,1.889.89,3.073,3.073,0,0,1,.8,2.114v16.916A3.068,3.068,0,0,1,360.315,275.17Zm-84.132,48.521q-9.846,7.346-26.254,7.345H218.205a2.45,2.45,0,0,1-1.89-.89,3.061,3.061,0,0,1-.795-2.115V256.139a3.068,3.068,0,0,1,.795-2.114,2.454,2.454,0,0,1,1.89-.89h31.724a50.936,50.936,0,0,1,18.994,3.227,27.451,27.451,0,0,1,13.028,10.906q4.971,7.679,4.972,19.142v11.351Q286.923,315.568,276.183,323.691ZM260.57,284.406a9.1,9.1,0,0,0-2.735-7.066,10.552,10.552,0,0,0-7.409-2.5h-9.05v34.5h9.05a10.556,10.556,0,0,0,7.409-2.5,9.1,9.1,0,0,0,2.735-7.067V284.406Zm-57.6,15.191q-6.963,7.07-23.669,7.067H166.172v21.367a3.067,3.067,0,0,1-.8,2.115,2.453,2.453,0,0,1-1.889.89H142.106a2.45,2.45,0,0,1-1.89-.89,3.062,3.062,0,0,1-.8-2.115V256.139a3.068,3.068,0,0,1,.8-2.114,2.454,2.454,0,0,1,1.89-.89H179.3q14.121,0,22.376,7.678t8.254,19.7Q209.929,292.53,202.968,299.6ZM182.68,275.615a4.545,4.545,0,0,0-3.779-1.781h-12.63v12.242H178.9a4.848,4.848,0,0,0,3.73-1.558,6.151,6.151,0,0,0,1.442-4.34A7.191,7.191,0,0,0,182.68,275.615Z"/>
</svg>
