<svg xmlns="http://www.w3.org/2000/svg" width="100" height="100" viewBox="0 0 500 500">
  <metadata><?xpacket begin="﻿" id="W5M0MpCehiHzreSzNTczkc9d"?>
<x:xmpmeta xmlns:x="adobe:ns:meta/" x:xmptk="Adobe XMP Core 5.6-c142 79.160924, 2017/07/13-01:06:39        ">
   <rdf:RDF xmlns:rdf="http://www.w3.org/1999/02/22-rdf-syntax-ns#">
      <rdf:Description rdf:about=""/>
   </rdf:RDF>
</x:xmpmeta>
                                                                                                    
                                                                                                    
                                                                                                    
                                                                                                    
                                                                                                    
                                                                                                    
                                                                                                    
                                                                                                    
                                                                                                    
                                                                                                    
                                                                                                    
                                                                                                    
                                                                                                    
                                                                                                    
                                                                                                    
                                                                                                    
                                                                                                    
                                                                                                    
                                                                                                    
                                                                                                    
                           
<?xpacket end="w"?></metadata>
<defs>
    <style>
      .cls-1 {
        fill: #fff;
        fill-rule: evenodd;
      }
    </style>
  </defs>
  <path id="filled" class="cls-1" d="M250.5,315.824c-99.135,0-179.5-37.508-179.5-83.776V146.776C71,100.508,151.365,63,250.5,63S430,100.508,430,146.776v85.272C430,278.316,349.635,315.824,250.5,315.824ZM139.06,268.7c4.957,0,8.975-7.368,8.975-16.456s-4.018-16.456-8.975-16.456-8.975,7.368-8.975,16.456S134.1,268.7,139.06,268.7ZM250.126,86.188c-84.471,0-152.949,27.126-152.949,60.588s68.478,60.588,152.949,60.588,152.949-27.126,152.949-60.588S334.6,86.188,250.126,86.188ZM73.658,272.584c2.394-.885,4.711,2.411,7.391,6.6,24.5,32.661,91.108,56.088,169.451,56.088s144.968-23.433,169.46-56.1H420c2.653-4.187,4.954-7.451,7.331-6.562,1.721,0.643,2.45,3.4,2.667,6.562h0v73.3h-0.02c0,0.25.02,0.5,0.02,0.748C430,399.492,349.635,437,250.5,437S71,399.492,71,353.224c0-.25.016-0.5,0.02-0.748H71v-73.3h0C71.208,276,71.921,273.227,73.658,272.584Zm65.4,118.04c4.957,0,8.975-7.368,8.975-16.456s-4.018-16.456-8.975-16.456-8.975,7.368-8.975,16.456S134.1,390.624,139.06,390.624Z"/>
</svg>
