<svg xmlns="http://www.w3.org/2000/svg" width="100" height="100" viewBox="0 0 500 500">
  <metadata><?xpacket begin="﻿" id="W5M0MpCehiHzreSzNTczkc9d"?>
<x:xmpmeta xmlns:x="adobe:ns:meta/" x:xmptk="Adobe XMP Core 5.6-c142 79.160924, 2017/07/13-01:06:39        ">
   <rdf:RDF xmlns:rdf="http://www.w3.org/1999/02/22-rdf-syntax-ns#">
      <rdf:Description rdf:about=""/>
   </rdf:RDF>
</x:xmpmeta>
                                                                                                    
                                                                                                    
                                                                                                    
                                                                                                    
                                                                                                    
                                                                                                    
                                                                                                    
                                                                                                    
                                                                                                    
                                                                                                    
                                                                                                    
                                                                                                    
                                                                                                    
                                                                                                    
                                                                                                    
                                                                                                    
                                                                                                    
                                                                                                    
                                                                                                    
                                                                                                    
                           
<?xpacket end="w"?></metadata>
<defs>
    <style>
      .cls-1 {
        fill: #fff;
        fill-rule: evenodd;
      }
    </style>
  </defs>
  <path id="regular" class="cls-1" d="M250,500C117.452,500,10,449.856,10,388V112C10,50.144,117.452,0,250,0S490,50.144,490,112V388C490,449.856,382.548,500,250,500ZM45,388h1c0,44.735,91.334,81,204,81s204-36.265,204-81h1V308.266C412.856,340.489,336.813,362,250,362S87.144,340.489,45,308.266V388Zm1-138c0,44.735,91.334,81,204,81s204-36.265,204-81h1V170.266C412.856,202.489,336.813,224,250,224S87.144,202.489,45,170.266V250h1ZM250,31C137.334,31,46,67.265,46,112s91.334,81,204,81,204-36.265,204-81S362.666,31,250,31ZM101,231c5.523,0,10,8.507,10,19s-4.477,19-10,19-10-8.507-10-19S95.477,231,101,231Zm0,139c5.523,0,10,8.507,10,19s-4.477,19-10,19-10-8.507-10-19S95.477,370,101,370Z"/>
</svg>
