<svg xmlns="http://www.w3.org/2000/svg" width="100" height="100" viewBox="0 0 500 500">
  <metadata><?xpacket begin="﻿" id="W5M0MpCehiHzreSzNTczkc9d"?>
<x:xmpmeta xmlns:x="adobe:ns:meta/" x:xmptk="Adobe XMP Core 5.6-c142 79.160924, 2017/07/13-01:06:39        ">
   <rdf:RDF xmlns:rdf="http://www.w3.org/1999/02/22-rdf-syntax-ns#">
      <rdf:Description rdf:about=""/>
   </rdf:RDF>
</x:xmpmeta>
                                                                                                    
                                                                                                    
                                                                                                    
                                                                                                    
                                                                                                    
                                                                                                    
                                                                                                    
                                                                                                    
                                                                                                    
                                                                                                    
                                                                                                    
                                                                                                    
                                                                                                    
                                                                                                    
                                                                                                    
                                                                                                    
                                                                                                    
                                                                                                    
                                                                                                    
                                                                                                    
                           
<?xpacket end="w"?></metadata>
<defs>
    <style>
      .cls-1 {
        fill: #fff;
        fill-rule: evenodd;
      }
    </style>
  </defs>
  <path id="regular" class="cls-1" d="M250,445c-99.411,0-180-38.056-180-85V148c0-46.944,80.589-85,180-85s180,38.056,180,85V360C430,406.944,349.411,445,250,445Zm0-30c79.529,0,144-27.938,144-55V305.005c-32.84,20.642-85.116,34-144,34s-111.16-13.353-144-34v55h0C106,387.062,170.471,415,250,415ZM394,250V199.005c-32.84,20.642-85.116,34-144,34s-111.16-13.353-144-34v55h0c0,27.062,64.471,55,144,55s144-27.938,144-55v-4ZM250,92c-79.529,0-144,28.938-144,56s64.471,55,144,55,144-27.938,144-55S329.529,92,250,92ZM147.5,237c5.247,0,9.5,7.835,9.5,17.5s-4.253,17.5-9.5,17.5-9.5-7.835-9.5-17.5S142.253,237,147.5,237Zm0,105c5.247,0,9.5,7.835,9.5,17.5s-4.253,17.5-9.5,17.5-9.5-7.835-9.5-17.5S142.253,342,147.5,342Z"/>
</svg>
