<svg xmlns="http://www.w3.org/2000/svg" width="100" height="100" viewBox="0 0 500 500">
  <metadata><?xpacket begin="﻿" id="W5M0MpCehiHzreSzNTczkc9d"?>
<x:xmpmeta xmlns:x="adobe:ns:meta/" x:xmptk="Adobe XMP Core 5.6-c142 79.160924, 2017/07/13-01:06:39        ">
   <rdf:RDF xmlns:rdf="http://www.w3.org/1999/02/22-rdf-syntax-ns#">
      <rdf:Description rdf:about=""/>
   </rdf:RDF>
</x:xmpmeta>
                                                                                                    
                                                                                                    
                                                                                                    
                                                                                                    
                                                                                                    
                                                                                                    
                                                                                                    
                                                                                                    
                                                                                                    
                                                                                                    
                                                                                                    
                                                                                                    
                                                                                                    
                                                                                                    
                                                                                                    
                                                                                                    
                                                                                                    
                                                                                                    
                                                                                                    
                                                                                                    
                           
<?xpacket end="w"?></metadata>
<defs>
    <style>
      .cls-1 {
        fill: #fff;
        fill-rule: evenodd;
      }
    </style>
  </defs>
  <path id="regular" class="cls-1" d="M390,460H110a15,15,0,0,1-15-15V55a15,15,0,0,1,15-15H296a9.928,9.928,0,0,1,5.837,2.149l101.01,101.01A10.354,10.354,0,0,1,405,149V445A15,15,0,0,1,390,460ZM146,76a15,15,0,0,0-15,15V409a15,15,0,0,0,15,15H354a15,15,0,0,0,15-15V186c0-3.338-3.6-7-7-7H281a15,15,0,0,1-15-15V82a6.559,6.559,0,0,0-6-6H146Zm68.355,176.406-17.077,31.287L180.2,252.406a6.125,6.125,0,0,0-5.606-3.52H150.739a3.562,3.562,0,0,0-3.52,3.52v84.213a3.562,3.562,0,0,0,3.52,3.52h23.6a3.562,3.562,0,0,0,3.52-3.52V296.207l9.516,18.772a6.169,6.169,0,0,0,1.825,2.086,5.576,5.576,0,0,0,3.651,1.173h8.864a6.506,6.506,0,0,0,3.129-.847,5.462,5.462,0,0,0,2.346-2.412l9.517-18.772v40.412a3.562,3.562,0,0,0,3.52,3.52h23.6a3.562,3.562,0,0,0,3.52-3.52V252.406a3.562,3.562,0,0,0-3.52-3.52H219.961a6.123,6.123,0,0,0-5.606,3.52h0Zm45.365-2.477a3.382,3.382,0,0,0-1.043,2.477v84.213a3.562,3.562,0,0,0,3.52,3.52h41.585q21.51,0,34.416-8.6,14.079-9.515,14.079-30.374v-13.3q0-13.425-6.518-22.422a35.31,35.31,0,0,0-17.078-12.775q-10.558-3.78-24.9-3.781H262.2A3.381,3.381,0,0,0,259.72,249.929Zm44.714,24.378q6.126,0,9.712,2.933a10.1,10.1,0,0,1,3.585,8.278v17.99a10.1,10.1,0,0,1-3.585,8.278q-3.587,2.932-9.712,2.933H292.571V274.307h11.863Z"/>
</svg>
