<svg xmlns="http://www.w3.org/2000/svg" width="100" height="100" viewBox="0 0 500 500">
  <metadata><?xpacket begin="﻿" id="W5M0MpCehiHzreSzNTczkc9d"?>
<x:xmpmeta xmlns:x="adobe:ns:meta/" x:xmptk="Adobe XMP Core 5.6-c142 79.160924, 2017/07/13-01:06:39        ">
   <rdf:RDF xmlns:rdf="http://www.w3.org/1999/02/22-rdf-syntax-ns#">
      <rdf:Description rdf:about=""/>
   </rdf:RDF>
</x:xmpmeta>
                                                                                                    
                                                                                                    
                                                                                                    
                                                                                                    
                                                                                                    
                                                                                                    
                                                                                                    
                                                                                                    
                                                                                                    
                                                                                                    
                                                                                                    
                                                                                                    
                                                                                                    
                                                                                                    
                                                                                                    
                                                                                                    
                                                                                                    
                                                                                                    
                                                                                                    
                                                                                                    
                           
<?xpacket end="w"?></metadata>
<defs>
    <style>
      .cls-1 {
        fill: #fff;
        fill-rule: evenodd;
      }
    </style>
  </defs>
  <path id="regular" class="cls-1" d="M393.4,196.821L297.937,292.28a64.452,64.452,0,0,1-98.611-8.869l26.432-26.432a28.5,28.5,0,0,0,46.723,9.845l95.459-95.459a28.5,28.5,0,1,0-40.305-40.305l-39.553,39.553c-12.17-9.1-27.784-10.232-43.166-7.746L302.179,105.6A64.5,64.5,0,1,1,393.4,196.821Zm-98.057,13.2L269.754,235.61a28.506,28.506,0,0,0-43.235-3.434L131.06,327.635a28.5,28.5,0,1,0,40.305,40.305l41.53-41.53c13.814,9.257,28.735,10.911,43.377,7.535L196.821,393.4A64.5,64.5,0,1,1,105.6,302.179l95.459-95.459a64.5,64.5,0,0,1,91.217,0C293.351,207.791,294.359,208.9,295.339,210.025Z"/>
</svg>
