<svg xmlns="http://www.w3.org/2000/svg" width="100" height="100" viewBox="0 0 500 500">
  <metadata><?xpacket begin="﻿" id="W5M0MpCehiHzreSzNTczkc9d"?>
<x:xmpmeta xmlns:x="adobe:ns:meta/" x:xmptk="Adobe XMP Core 5.6-c142 79.160924, 2017/07/13-01:06:39        ">
   <rdf:RDF xmlns:rdf="http://www.w3.org/1999/02/22-rdf-syntax-ns#">
      <rdf:Description rdf:about=""/>
   </rdf:RDF>
</x:xmpmeta>
                                                                                                    
                                                                                                    
                                                                                                    
                                                                                                    
                                                                                                    
                                                                                                    
                                                                                                    
                                                                                                    
                                                                                                    
                                                                                                    
                                                                                                    
                                                                                                    
                                                                                                    
                                                                                                    
                                                                                                    
                                                                                                    
                                                                                                    
                                                                                                    
                                                                                                    
                                                                                                    
                           
<?xpacket end="w"?></metadata>
<defs>
    <style>
      .cls-1 {
        fill: #fff;
        fill-rule: evenodd;
      }
    </style>
  </defs>
  <path id="regular" class="cls-1" d="M319,423H182a30,30,0,0,1-30-30V143.607a30,30,0,0,1,30-30h9V97a20,20,0,0,1,20-20h77a20,20,0,0,1,20,20v16.607h11a30,30,0,0,1,30,30V393A30,30,0,0,1,319,423Zm-6-252a20,20,0,0,0-20-20H208a20,20,0,0,0-20,20V364a20,20,0,0,0,20,20h85a20,20,0,0,0,20-20V171ZM260.686,276.848v7.761a11.123,11.123,0,0,1-11.035,11.21h-1.7a11.123,11.123,0,0,1-11.034-11.21V268.225c0-5.326,5.957-11.51,11.709-11.51,12.128,0,15.453-9.079,15.453-13.5s-2.164-12.934-13.012-12.934c-11.617,0-15.108,7.565-16.644,9.466a11.467,11.467,0,0,1-20.433-7.742,13.562,13.562,0,0,1,1.73-6.678A38.486,38.486,0,0,1,248.8,207c21.1,0,38.2,16.408,38.2,36.649C287,263.271,275.962,272.053,260.686,276.848ZM248.8,301.855a12.074,12.074,0,1,1-11.883,12.073A11.979,11.979,0,0,1,248.8,301.855Z"/>
</svg>
