<svg xmlns="http://www.w3.org/2000/svg" width="100" height="100" viewBox="0 0 500 500">
  <metadata><?xpacket begin="﻿" id="W5M0MpCehiHzreSzNTczkc9d"?>
<x:xmpmeta xmlns:x="adobe:ns:meta/" x:xmptk="Adobe XMP Core 5.6-c142 79.160924, 2017/07/13-01:06:39        ">
   <rdf:RDF xmlns:rdf="http://www.w3.org/1999/02/22-rdf-syntax-ns#">
      <rdf:Description rdf:about=""/>
   </rdf:RDF>
</x:xmpmeta>
                                                                                                    
                                                                                                    
                                                                                                    
                                                                                                    
                                                                                                    
                                                                                                    
                                                                                                    
                                                                                                    
                                                                                                    
                                                                                                    
                                                                                                    
                                                                                                    
                                                                                                    
                                                                                                    
                                                                                                    
                                                                                                    
                                                                                                    
                                                                                                    
                                                                                                    
                                                                                                    
                           
<?xpacket end="w"?></metadata>
<defs>
    <style>
      .cls-1 {
        fill: #fff;
        fill-rule: evenodd;
      }
    </style>
  </defs>
  <path id="filled" class="cls-1" d="M380,372a110.718,110.718,0,0,1-82.727-37H201.727A111,111,0,1,1,119,150H380A111,111,0,0,1,380,372ZM169,247a4,4,0,0,0-4-4H138V216a4,4,0,0,0-4-4H105a4,4,0,0,0-4,4v27H75a4,4,0,0,0-4,4v29a4,4,0,0,0,4,4h26v26a4,4,0,0,0,4,4h29a4,4,0,0,0,4-4V280h27a4,4,0,0,0,4-4V247Zm210-41a17.956,17.956,0,0,0-13.984,6.677c-0.709.581-1.406,1.19-2.072,1.856L333.9,243.579a27.827,27.827,0,0,0-2.03,2.293,17.986,17.986,0,1,0,25.476,24.97c0.687-.566,1.362-1.16,2.009-1.807L388.4,239.989c0.579-.579,1.121-1.177,1.635-1.789A17.986,17.986,0,0,0,379,206Zm38,38a17.956,17.956,0,0,0-13.984,6.677c-0.709.581-1.406,1.189-2.072,1.856L371.9,281.579a28.014,28.014,0,0,0-2.03,2.293,17.986,17.986,0,1,0,25.476,24.97c0.687-.566,1.362-1.16,2.009-1.807L426.4,277.989c0.579-.579,1.121-1.177,1.635-1.789A17.986,17.986,0,0,0,417,244Z"/>
</svg>
