<svg xmlns="http://www.w3.org/2000/svg" width="100" height="100" viewBox="0 0 500 500">
  <metadata><?xpacket begin="﻿" id="W5M0MpCehiHzreSzNTczkc9d"?>
<x:xmpmeta xmlns:x="adobe:ns:meta/" x:xmptk="Adobe XMP Core 5.6-c142 79.160924, 2017/07/13-01:06:39        ">
   <rdf:RDF xmlns:rdf="http://www.w3.org/1999/02/22-rdf-syntax-ns#">
      <rdf:Description rdf:about=""/>
   </rdf:RDF>
</x:xmpmeta>
                                                                                                    
                                                                                                    
                                                                                                    
                                                                                                    
                                                                                                    
                                                                                                    
                                                                                                    
                                                                                                    
                                                                                                    
                                                                                                    
                                                                                                    
                                                                                                    
                                                                                                    
                                                                                                    
                                                                                                    
                                                                                                    
                                                                                                    
                                                                                                    
                                                                                                    
                                                                                                    
                           
<?xpacket end="w"?></metadata>
<defs>
    <style>
      .cls-1 {
        fill: #fff;
        fill-rule: evenodd;
      }
    </style>
  </defs>
  <path id="regular" class="cls-1" d="M380,372a110.718,110.718,0,0,1-82.727-37H201.727A111,111,0,1,1,119,150H380A111,111,0,0,1,380,372Zm0-186H119a75,75,0,1,0,64.654,113H315.346A75,75,0,1,0,380,186Zm46.577,91.879-29.7,29.7a18,18,0,0,1-25.456-25.456l29.7-29.7A18,18,0,0,1,426.577,277.879Zm-67.7-8.3a18,18,0,0,1-25.456-25.456l29.7-29.7a18,18,0,0,1,25.456,25.456ZM163,278.24H136.24V305a3,3,0,0,1-3,3H105.76a3,3,0,0,1-3-3V278.24H76a3,3,0,0,1-3-3V247.76a3,3,0,0,1,3-3h26.76V218a3,3,0,0,1,3-3h27.48a3,3,0,0,1,3,3v26.76H163a3,3,0,0,1,3,3v27.48A3,3,0,0,1,163,278.24Z"/>
</svg>
