<svg xmlns="http://www.w3.org/2000/svg" width="100" height="100" viewBox="0 0 500 500">
  <metadata><?xpacket begin="﻿" id="W5M0MpCehiHzreSzNTczkc9d"?>
<x:xmpmeta xmlns:x="adobe:ns:meta/" x:xmptk="Adobe XMP Core 5.6-c142 79.160924, 2017/07/13-01:06:39        ">
   <rdf:RDF xmlns:rdf="http://www.w3.org/1999/02/22-rdf-syntax-ns#">
      <rdf:Description rdf:about=""/>
   </rdf:RDF>
</x:xmpmeta>
                                                                                                    
                                                                                                    
                                                                                                    
                                                                                                    
                                                                                                    
                                                                                                    
                                                                                                    
                                                                                                    
                                                                                                    
                                                                                                    
                                                                                                    
                                                                                                    
                                                                                                    
                                                                                                    
                                                                                                    
                                                                                                    
                                                                                                    
                                                                                                    
                                                                                                    
                                                                                                    
                           
<?xpacket end="w"?></metadata>
<defs>
    <style>
      .cls-1 {
        fill: #fff;
        fill-rule: evenodd;
      }
    </style>
  </defs>
  <path id="regular" class="cls-1" d="M390.073,285.9H360.7a115.134,115.134,0,0,1-7.168,16.835l20.915,20.915a17.956,17.956,0,0,1,0,25.392L349.055,374.43a17.953,17.953,0,0,1-25.391,0l-21.489-21.489a114.943,114.943,0,0,1-16.266,6.567v30.537A17.955,17.955,0,0,1,267.955,408h-35.91a17.954,17.954,0,0,1-17.954-17.955V358.9a115.175,115.175,0,0,1-15.647-6.562l-22.08,22.08a17.955,17.955,0,0,1-25.391,0l-25.392-25.392a17.956,17.956,0,0,1,0-25.392l22.08-22.079A115.039,115.039,0,0,1,141.1,285.9H109.983a17.954,17.954,0,0,1-17.955-17.954V232.034a17.955,17.955,0,0,1,17.955-17.955H140.5a115.117,115.117,0,0,1,6.564-16.254l-21.45-21.449a17.956,17.956,0,0,1,0-25.392L151,125.593a17.953,17.953,0,0,1,25.391,0l20.876,20.875a115.084,115.084,0,0,1,16.823-7.164v-29.35A17.954,17.954,0,0,1,232.045,92h35.91a17.954,17.954,0,0,1,17.954,17.954V138.7a114.91,114.91,0,0,1,17.442,7.17l20.284-20.285a17.956,17.956,0,0,1,25.392,0l25.392,25.392a17.955,17.955,0,0,1,0,25.391l-20.285,20.285a114.961,114.961,0,0,1,7.166,17.43h28.773a17.955,17.955,0,0,1,17.955,17.955v35.909A17.954,17.954,0,0,1,390.073,285.9ZM287.705,249.1a38.6,38.6,0,1,0-38.6,38.6A38.6,38.6,0,0,0,287.705,249.1Z"/>
</svg>
