<svg xmlns="http://www.w3.org/2000/svg" width="100" height="100" viewBox="0 0 500 500">
  <metadata><?xpacket begin="﻿" id="W5M0MpCehiHzreSzNTczkc9d"?>
<x:xmpmeta xmlns:x="adobe:ns:meta/" x:xmptk="Adobe XMP Core 5.6-c142 79.160924, 2017/07/13-01:06:39        ">
   <rdf:RDF xmlns:rdf="http://www.w3.org/1999/02/22-rdf-syntax-ns#">
      <rdf:Description rdf:about=""/>
   </rdf:RDF>
</x:xmpmeta>
                                                                                                    
                                                                                                    
                                                                                                    
                                                                                                    
                                                                                                    
                                                                                                    
                                                                                                    
                                                                                                    
                                                                                                    
                                                                                                    
                                                                                                    
                                                                                                    
                                                                                                    
                                                                                                    
                                                                                                    
                                                                                                    
                                                                                                    
                                                                                                    
                                                                                                    
                                                                                                    
                           
<?xpacket end="w"?></metadata>
<defs>
    <style>
      .cls-1 {
        fill: #fff;
        fill-rule: evenodd;
      }
    </style>
  </defs>
  <path id="filled" class="cls-1" d="M390,460H110a15,15,0,0,1-15-15V55a15,15,0,0,1,15-15H296a9.928,9.928,0,0,1,5.837,2.149l101.01,101.01A10.354,10.354,0,0,1,405,149V445A15,15,0,0,1,390,460ZM293,61l91,91a15,15,0,0,1-15,15H293a15,15,0,0,1-15-15V76A15,15,0,0,1,293,61ZM159.132,258.91a3.423,3.423,0,0,0-.737,2.2v23.722H139.969V261.109a3.434,3.434,0,0,0-.737-2.2,2.188,2.188,0,0,0-1.751-.926H118.5a2.179,2.179,0,0,0-1.75.926,3.418,3.418,0,0,0-.738,2.2v74.754a3.355,3.355,0,0,0,.738,2.256,2.224,2.224,0,0,0,1.75.868h18.979a2.183,2.183,0,0,0,1.751-.926,3.423,3.423,0,0,0,.737-2.2V311.215H158.4v24.648a3.412,3.412,0,0,0,.737,2.2,2.177,2.177,0,0,0,1.751.926h18.979a2.179,2.179,0,0,0,1.75-.926,3.418,3.418,0,0,0,.737-2.2V261.109a3.428,3.428,0,0,0-.737-2.2,2.185,2.185,0,0,0-1.75-.926H160.883A2.183,2.183,0,0,0,159.132,258.91Zm25.612,0a3.417,3.417,0,0,0-.737,2.2v18.63a3.411,3.411,0,0,0,.737,2.2,2.179,2.179,0,0,0,1.75.926H206.3v53a3.407,3.407,0,0,0,.738,2.2,2.174,2.174,0,0,0,1.75.926h18.979a2.183,2.183,0,0,0,1.751-.926,3.423,3.423,0,0,0,.737-2.2v-53h19.808a2.182,2.182,0,0,0,1.75-.926,3.423,3.423,0,0,0,.737-2.2v-18.63a3.428,3.428,0,0,0-.737-2.2,2.185,2.185,0,0,0-1.75-.926H186.494A2.182,2.182,0,0,0,184.744,258.91Zm118.7,2.2-12.07,27.772-12.069-27.772q-1.381-3.124-3.962-3.125h-16.86a2.182,2.182,0,0,0-1.75.926,3.423,3.423,0,0,0-.737,2.2v74.754a3.412,3.412,0,0,0,.737,2.2,2.177,2.177,0,0,0,1.75.926h16.676a2.183,2.183,0,0,0,1.751-.926,3.418,3.418,0,0,0,.737-2.2V299.99l6.725,16.663a5.346,5.346,0,0,0,1.29,1.852,3.444,3.444,0,0,0,2.58,1.041h6.265a3.9,3.9,0,0,0,2.211-.752,4.528,4.528,0,0,0,1.658-2.141l6.726-16.663v35.873a3.412,3.412,0,0,0,.737,2.2,2.177,2.177,0,0,0,1.75.926h16.676a2.183,2.183,0,0,0,1.751-.926,3.418,3.418,0,0,0,.737-2.2V261.109a3.428,3.428,0,0,0-.737-2.2,2.188,2.188,0,0,0-1.751-.926h-16.86q-2.58,0-3.961,3.125h0Zm51.646,0a3.428,3.428,0,0,0-.737-2.2,2.185,2.185,0,0,0-1.751-.926h-19.9a2.182,2.182,0,0,0-1.75.926,3.417,3.417,0,0,0-.737,2.2v74.754a3.407,3.407,0,0,0,.737,2.2,2.177,2.177,0,0,0,1.75.926H386.51a2.179,2.179,0,0,0,1.75-.926,3.418,3.418,0,0,0,.737-2.2V318.389a3.426,3.426,0,0,0-.737-2.2,2.185,2.185,0,0,0-1.75-.926H355.093V261.109Z"/>
</svg>
