<svg xmlns="http://www.w3.org/2000/svg" width="100" height="100" viewBox="0 0 500 500">
  <metadata><?xpacket begin="﻿" id="W5M0MpCehiHzreSzNTczkc9d"?>
<x:xmpmeta xmlns:x="adobe:ns:meta/" x:xmptk="Adobe XMP Core 5.6-c142 79.160924, 2017/07/13-01:06:39        ">
   <rdf:RDF xmlns:rdf="http://www.w3.org/1999/02/22-rdf-syntax-ns#">
      <rdf:Description rdf:about=""/>
   </rdf:RDF>
</x:xmpmeta>
                                                                                                    
                                                                                                    
                                                                                                    
                                                                                                    
                                                                                                    
                                                                                                    
                                                                                                    
                                                                                                    
                                                                                                    
                                                                                                    
                                                                                                    
                                                                                                    
                                                                                                    
                                                                                                    
                                                                                                    
                                                                                                    
                                                                                                    
                                                                                                    
                                                                                                    
                                                                                                    
                           
<?xpacket end="w"?></metadata>
<defs>
    <style>
      .cls-1 {
        fill-rule: evenodd;
      }
    </style>
  </defs>
  <path id="filled" class="cls-1" d="M249.5,378A105.5,105.5,0,1,1,355,272.5,105.5,105.5,0,0,1,249.5,378Zm15.1-119.533a20.143,20.143,0,0,0-13.347-6.317c-5.366-.37-46.675-36.772-50.924-32.858-4.039,3.72,29.619,46.848,29.4,51.907a19.778,19.778,0,0,0,5.372,14.438,20.274,20.274,0,0,0,28.463,1.025A19.818,19.818,0,0,0,264.6,258.467ZM226,127h47a5,5,0,0,1,5,5v16a5,5,0,0,1-5,5H226a5,5,0,0,1-5-5V132A5,5,0,0,1,226,127Zm118.311,72.794a120.175,120.175,0,0,0-22.424-22.355l10.019-8.805c1.6-1.406,4.344-1.054,6.152.763l14.365,14.435c1.8,1.807,2.126,4.532.71,6.112Z"/>
</svg>
