<svg xmlns="http://www.w3.org/2000/svg" width="100" height="100" viewBox="0 0 500 500">
  <metadata><?xpacket begin="﻿" id="W5M0MpCehiHzreSzNTczkc9d"?>
<x:xmpmeta xmlns:x="adobe:ns:meta/" x:xmptk="Adobe XMP Core 5.6-c142 79.160924, 2017/07/13-01:06:39        ">
   <rdf:RDF xmlns:rdf="http://www.w3.org/1999/02/22-rdf-syntax-ns#">
      <rdf:Description rdf:about=""/>
   </rdf:RDF>
</x:xmpmeta>
                                                                                                    
                                                                                                    
                                                                                                    
                                                                                                    
                                                                                                    
                                                                                                    
                                                                                                    
                                                                                                    
                                                                                                    
                                                                                                    
                                                                                                    
                                                                                                    
                                                                                                    
                                                                                                    
                                                                                                    
                                                                                                    
                                                                                                    
                                                                                                    
                                                                                                    
                                                                                                    
                           
<?xpacket end="w"?></metadata>
<defs>
    <style>
      .cls-1 {
        fill: #fff;
        fill-rule: evenodd;
      }
    </style>
  </defs>
  <path id="filled" class="cls-1" d="M387.5,174.276a174.056,174.056,0,0,0-32.519-32.331l14.53-12.733c2.319-2.033,6.3-1.525,8.921,1.1l20.833,20.876c2.608,2.614,3.082,6.555,1.03,8.84ZM284.081,106.6H215.919a7.242,7.242,0,0,1-7.251-7.231V76.231A7.241,7.241,0,0,1,215.919,69h68.162a7.241,7.241,0,0,1,7.251,7.231V99.371A7.242,7.242,0,0,1,284.081,106.6ZM403,279.424C403,363.69,334.5,432,250,432S97,363.69,97,279.424s68.5-152.575,153-152.575S403,195.159,403,279.424Zm-224.3-76.95c-5.858,5.38,42.955,67.753,42.638,75.069a28.559,28.559,0,0,0,7.791,20.88,29.461,29.461,0,0,0,41.279,1.483,28.607,28.607,0,0,0,1.5-40.777,29.259,29.259,0,0,0-19.357-9.136C244.767,249.459,184.858,196.813,178.7,202.474Z"/>
</svg>
