<svg xmlns="http://www.w3.org/2000/svg" width="100" height="100" viewBox="0 0 500 500">
  <metadata><?xpacket begin="﻿" id="W5M0MpCehiHzreSzNTczkc9d"?>
<x:xmpmeta xmlns:x="adobe:ns:meta/" x:xmptk="Adobe XMP Core 5.6-c142 79.160924, 2017/07/13-01:06:39        ">
   <rdf:RDF xmlns:rdf="http://www.w3.org/1999/02/22-rdf-syntax-ns#">
      <rdf:Description rdf:about=""/>
   </rdf:RDF>
</x:xmpmeta>
                                                                                                    
                                                                                                    
                                                                                                    
                                                                                                    
                                                                                                    
                                                                                                    
                                                                                                    
                                                                                                    
                                                                                                    
                                                                                                    
                                                                                                    
                                                                                                    
                                                                                                    
                                                                                                    
                                                                                                    
                                                                                                    
                                                                                                    
                                                                                                    
                                                                                                    
                                                                                                    
                           
<?xpacket end="w"?></metadata>
<defs>
    <style>
      .cls-1 {
        fill: #fff;
        fill-rule: evenodd;
      }
    </style>
  </defs>
  <path id="regular" class="cls-1" d="M372.5,191.294a152.464,152.464,0,1,1-151.187-59.8V108.6h-5.782a7.23,7.23,0,0,1-7.228-7.232V78.231A7.23,7.23,0,0,1,215.531,71h67.938a7.23,7.23,0,0,1,7.228,7.231V101.37a7.23,7.23,0,0,1-7.228,7.232h-5.782v22.891a151.753,151.753,0,0,1,61.32,26.455L362.836,137c2.312-2.033,6.278-1.525,8.892,1.1l20.766,20.876c2.6,2.613,3.072,6.555,1.026,8.84ZM250,171.007a111,111,0,1,0,111,111A111,111,0,0,0,250,171.007Zm17.433,130.4a26.021,26.021,0,0,1-43.713-20.177c0.282-6.6-43.2-62.877-37.984-67.731,5.49-5.107,58.859,42.392,65.79,42.874A26.034,26.034,0,0,1,267.437,301.41Z"/>
</svg>
