<svg xmlns="http://www.w3.org/2000/svg" width="100" height="100" viewBox="0 0 500 500">
  <metadata><?xpacket begin="﻿" id="W5M0MpCehiHzreSzNTczkc9d"?>
<x:xmpmeta xmlns:x="adobe:ns:meta/" x:xmptk="Adobe XMP Core 5.6-c142 79.160924, 2017/07/13-01:06:39        ">
   <rdf:RDF xmlns:rdf="http://www.w3.org/1999/02/22-rdf-syntax-ns#">
      <rdf:Description rdf:about=""/>
   </rdf:RDF>
</x:xmpmeta>
                                                                                                    
                                                                                                    
                                                                                                    
                                                                                                    
                                                                                                    
                                                                                                    
                                                                                                    
                                                                                                    
                                                                                                    
                                                                                                    
                                                                                                    
                                                                                                    
                                                                                                    
                                                                                                    
                                                                                                    
                                                                                                    
                                                                                                    
                                                                                                    
                                                                                                    
                                                                                                    
                           
<?xpacket end="w"?></metadata>
<defs>
    <style>
      .cls-1 {
        fill: #fff;
        fill-rule: evenodd;
      }
    </style>
  </defs>
  <path id="regular" class="cls-1" d="M334.592,210.179A105.485,105.485,0,1,1,230,168.829V153h-4a5,5,0,0,1-5-5V132a5,5,0,0,1,5-5h47a5,5,0,0,1,5,5v16a5,5,0,0,1-5,5h-4v15.829a105,105,0,0,1,42.421,18.292l16.485-14.487c1.6-1.406,4.344-1.054,6.152.763l14.365,14.435c1.8,1.807,2.126,4.532.71,6.112ZM250,203a70,70,0,1,0,70,70A70,70,0,0,0,250,203Zm11.909,83.319a18,18,0,0,1-30.241-13.952c0.195-4.564-29.887-43.476-26.277-46.832,3.8-3.532,40.718,29.312,45.513,29.645A18,18,0,0,1,261.909,286.319Z"/>
</svg>
