<svg xmlns="http://www.w3.org/2000/svg" width="50" height="50" viewBox="0 0 500 500">
  <metadata><?xpacket begin="﻿" id="W5M0MpCehiHzreSzNTczkc9d"?>
<x:xmpmeta xmlns:x="adobe:ns:meta/" x:xmptk="Adobe XMP Core 5.6-c142 79.160924, 2017/07/13-01:06:39        ">
   <rdf:RDF xmlns:rdf="http://www.w3.org/1999/02/22-rdf-syntax-ns#">
      <rdf:Description rdf:about=""/>
   </rdf:RDF>
</x:xmpmeta>
                                                                                                    
                                                                                                    
                                                                                                    
                                                                                                    
                                                                                                    
                                                                                                    
                                                                                                    
                                                                                                    
                                                                                                    
                                                                                                    
                                                                                                    
                                                                                                    
                                                                                                    
                                                                                                    
                                                                                                    
                                                                                                    
                                                                                                    
                                                                                                    
                                                                                                    
                                                                                                    
                           
<?xpacket end="w"?></metadata>
<defs>
    <style>
      .cls-1 {
        fill-rule: evenodd;
      }
    </style>
  </defs>
  <path id="filled" class="cls-1" d="M490,388c0,61.856-107.452,112-240,112S10,449.856,10,388c0-.334.021-0.666,0.027-1H10V289h0.143c0.279-4.237,1.088-7.948,3.411-8.807,3.2-1.184,6.3,3.223,9.882,8.822C56.192,332.68,145.251,364,250,364s193.829-31.327,226.576-75h0.056c3.548-5.6,6.624-9.961,9.8-8.773,2.3,0.86,3.122,4.542,3.411,8.773H490v98h-0.027C489.979,387.334,490,387.666,490,388ZM250,338C117.452,338,10,287.856,10,226V112C10,50.144,117.452,0,250,0S490,50.144,490,112V226C490,287.856,382.548,338,250,338ZM249.5,31C362.442,31,454,67.265,454,112s-91.558,81-204.5,81S45,156.735,45,112,136.558,31,249.5,31ZM101,231c6.627,0,12,9.85,12,22s-5.373,22-12,22-12-9.85-12-22S94.373,231,101,231Zm0,163c6.627,0,12,9.85,12,22s-5.373,22-12,22-12-9.85-12-22S94.373,394,101,394Z"/>
</svg>
