<svg xmlns="http://www.w3.org/2000/svg" width="100" height="100" viewBox="0 0 500 500">
  <metadata><?xpacket begin="﻿" id="W5M0MpCehiHzreSzNTczkc9d"?>
<x:xmpmeta xmlns:x="adobe:ns:meta/" x:xmptk="Adobe XMP Core 5.6-c142 79.160924, 2017/07/13-01:06:39        ">
   <rdf:RDF xmlns:rdf="http://www.w3.org/1999/02/22-rdf-syntax-ns#">
      <rdf:Description rdf:about=""/>
   </rdf:RDF>
</x:xmpmeta>
                                                                                                    
                                                                                                    
                                                                                                    
                                                                                                    
                                                                                                    
                                                                                                    
                                                                                                    
                                                                                                    
                                                                                                    
                                                                                                    
                                                                                                    
                                                                                                    
                                                                                                    
                                                                                                    
                                                                                                    
                                                                                                    
                                                                                                    
                                                                                                    
                                                                                                    
                                                                                                    
                           
<?xpacket end="w"?></metadata>
<defs>
    <style>
      .cls-1 {
        fill: #fff;
        fill-rule: evenodd;
      }
    </style>
  </defs>
  <path id="Forma_1" data-name="Forma 1" class="cls-1" d="M405.08,319.075A13.92,13.92,0,0,1,419,332.994V344.13a13.92,13.92,0,0,1-13.92,13.92H384.665v1.856a41.759,41.759,0,0,1-41.759,41.759h-2.784V422.08A13.92,13.92,0,0,1,326.2,436H315.066a13.92,13.92,0,0,1-13.919-13.92V401.665H270.524V422.08A13.92,13.92,0,0,1,256.6,436H245.468a13.92,13.92,0,0,1-13.92-13.92V401.665H200.925V422.08A13.92,13.92,0,0,1,187.006,436H175.87a13.92,13.92,0,0,1-13.92-13.92V401.665h-3.712a41.759,41.759,0,0,1-41.759-41.759V358.05H97.92A13.92,13.92,0,0,1,84,344.13V332.994a13.919,13.919,0,0,1,13.92-13.919h18.559V288.452H97.92A13.92,13.92,0,0,1,84,274.532V263.4a13.92,13.92,0,0,1,13.92-13.92h18.559V218.853H97.92A13.919,13.919,0,0,1,84,204.934V193.8a13.92,13.92,0,0,1,13.92-13.92h18.559v-2.784a41.759,41.759,0,0,1,41.759-41.759h3.712V114.92A13.92,13.92,0,0,1,175.87,101h11.136a13.92,13.92,0,0,1,13.919,13.92v20.415h30.623V114.92A13.92,13.92,0,0,1,245.468,101H256.6a13.92,13.92,0,0,1,13.92,13.92v20.415h30.623V114.92A13.92,13.92,0,0,1,315.066,101H326.2a13.92,13.92,0,0,1,13.92,13.92v20.415h2.784a41.759,41.759,0,0,1,41.759,41.759v2.784H405.08A13.92,13.92,0,0,1,419,193.8v11.136a13.92,13.92,0,0,1-13.92,13.919H384.665v30.623H405.08A13.92,13.92,0,0,1,419,263.4v11.136a13.92,13.92,0,0,1-13.92,13.92H384.665v30.623H405.08Z"/>
</svg>
