<svg xmlns="http://www.w3.org/2000/svg" width="100" height="100" viewBox="0 0 500 500">
  <metadata><?xpacket begin="﻿" id="W5M0MpCehiHzreSzNTczkc9d"?>
<x:xmpmeta xmlns:x="adobe:ns:meta/" x:xmptk="Adobe XMP Core 5.6-c142 79.160924, 2017/07/13-01:06:39        ">
   <rdf:RDF xmlns:rdf="http://www.w3.org/1999/02/22-rdf-syntax-ns#">
      <rdf:Description rdf:about=""/>
   </rdf:RDF>
</x:xmpmeta>
                                                                                                    
                                                                                                    
                                                                                                    
                                                                                                    
                                                                                                    
                                                                                                    
                                                                                                    
                                                                                                    
                                                                                                    
                                                                                                    
                                                                                                    
                                                                                                    
                                                                                                    
                                                                                                    
                                                                                                    
                                                                                                    
                                                                                                    
                                                                                                    
                                                                                                    
                                                                                                    
                           
<?xpacket end="w"?></metadata>
<defs>
    <style>
      .cls-1 {
        fill: #fff;
        fill-rule: evenodd;
      }
    </style>
  </defs>
  <path id="regular" class="cls-1" d="M417,365H392V323h25a15,15,0,0,1,15,15v12A15,15,0,0,1,417,365Zm0-75H392V248h25a15,15,0,0,1,15,15v12A15,15,0,0,1,417,290Zm0-75H392V173h25a15,15,0,0,1,15,15v12A15,15,0,0,1,417,215ZM332,393H169a45,45,0,0,1-45-45V187a45,45,0,0,1,45-45H332a45,45,0,0,1,45,45V348A45,45,0,0,1,332,393Zm8-190.308A22.693,22.693,0,0,0,317.308,180H185.692A22.693,22.693,0,0,0,163,202.692V334.308A22.693,22.693,0,0,0,185.692,357H317.308A22.693,22.693,0,0,0,340,334.308V202.692ZM305,103a15,15,0,0,1,15-15h12a15,15,0,0,1,15,15v25H305V103Zm-75,0a15,15,0,0,1,15-15h12a15,15,0,0,1,15,15v25H230V103Zm-75,0a15,15,0,0,1,15-15h12a15,15,0,0,1,15,15v25H155V103ZM71,350V338a15,15,0,0,1,15-15h24v42H86A15,15,0,0,1,71,350Zm0-75V263a15,15,0,0,1,15-15h24v42H86A15,15,0,0,1,71,275Zm0-75V188a15,15,0,0,1,15-15h24v42H86A15,15,0,0,1,71,200ZM197,434a15,15,0,0,1-15,15H170a15,15,0,0,1-15-15V408h42v26Zm75,0a15,15,0,0,1-15,15H245a15,15,0,0,1-15-15V408h42v26Zm75,0a15,15,0,0,1-15,15H320a15,15,0,0,1-15-15V408h42v26Z"/>
</svg>
