<svg xmlns="http://www.w3.org/2000/svg" width="100" height="100" viewBox="0 0 500 500">
  <metadata><?xpacket begin="﻿" id="W5M0MpCehiHzreSzNTczkc9d"?>
<x:xmpmeta xmlns:x="adobe:ns:meta/" x:xmptk="Adobe XMP Core 5.6-c142 79.160924, 2017/07/13-01:06:39        ">
   <rdf:RDF xmlns:rdf="http://www.w3.org/1999/02/22-rdf-syntax-ns#">
      <rdf:Description rdf:about=""/>
   </rdf:RDF>
</x:xmpmeta>
                                                                                                    
                                                                                                    
                                                                                                    
                                                                                                    
                                                                                                    
                                                                                                    
                                                                                                    
                                                                                                    
                                                                                                    
                                                                                                    
                                                                                                    
                                                                                                    
                                                                                                    
                                                                                                    
                                                                                                    
                                                                                                    
                                                                                                    
                                                                                                    
                                                                                                    
                                                                                                    
                           
<?xpacket end="w"?></metadata>
<defs>
    <style>
      .cls-1 {
        fill: #fff;
        fill-rule: evenodd;
      }
    </style>
  </defs>
  <path id="regular" class="cls-1" d="M250,377A127,127,0,1,1,377,250,127,127,0,0,1,250,377Zm-0.5-218A90.5,90.5,0,1,0,340,249.5,90.5,90.5,0,0,0,249.5,159Zm20.815,135.607-29.76-29.733a14.919,14.919,0,0,1-3.952-7.038,14.909,14.909,0,0,1-1.6-6.718V180a15,15,0,0,1,15-15h0.062a15,15,0,0,1,15,15v66.882l26.51,26.487A15.024,15.024,0,1,1,270.315,294.607Z"/>
</svg>
