<svg xmlns="http://www.w3.org/2000/svg" width="100" height="100" viewBox="0 0 500 500">
  <metadata><?xpacket begin="﻿" id="W5M0MpCehiHzreSzNTczkc9d"?>
<x:xmpmeta xmlns:x="adobe:ns:meta/" x:xmptk="Adobe XMP Core 5.6-c142 79.160924, 2017/07/13-01:06:39        ">
   <rdf:RDF xmlns:rdf="http://www.w3.org/1999/02/22-rdf-syntax-ns#">
      <rdf:Description rdf:about=""/>
   </rdf:RDF>
</x:xmpmeta>
                                                                                                    
                                                                                                    
                                                                                                    
                                                                                                    
                                                                                                    
                                                                                                    
                                                                                                    
                                                                                                    
                                                                                                    
                                                                                                    
                                                                                                    
                                                                                                    
                                                                                                    
                                                                                                    
                                                                                                    
                                                                                                    
                                                                                                    
                                                                                                    
                                                                                                    
                                                                                                    
                           
<?xpacket end="w"?></metadata>
<defs>
    <style>
      .cls-1 {
        fill-rule: evenodd;
      }
    </style>
  </defs>
  <path id="Elipse_1_copia" data-name="Elipse 1 copia" class="cls-1" d="M390,460H110a15,15,0,0,1-15-15V55a15,15,0,0,1,15-15H296a9.928,9.928,0,0,1,5.837,2.149l101.01,101.01A10.354,10.354,0,0,1,405,149V445A15,15,0,0,1,390,460ZM369,186c0-3.338-3.6-7-7-7H281a15,15,0,0,1-15-15V82a6.559,6.559,0,0,0-6-6H146a15,15,0,0,0-15,15V409a15,15,0,0,0,15,15H354a15,15,0,0,0,15-15V186ZM328.016,324.994h-16.36a64.119,64.119,0,0,1-3.993,9.376l11.649,11.649a10,10,0,0,1,0,14.142L305.17,374.3a10,10,0,0,1-14.142,0l-11.969-11.969A64.027,64.027,0,0,1,270,365.992V383a10,10,0,0,1-10,10H240a10,10,0,0,1-10-10V365.654A64.137,64.137,0,0,1,221.285,362l-12.3,12.3a10,10,0,0,1-14.142,0L180.7,360.154a10,10,0,0,1,0-14.142l12.3-12.3a64.2,64.2,0,0,1-3.657-8.721H172.016a10,10,0,0,1-10-10v-20a10,10,0,0,1,10-10H189.01a64.1,64.1,0,0,1,3.656-9.052l-11.947-11.947a10,10,0,0,1,0-14.142l14.142-14.142a10,10,0,0,1,14.142,0l11.627,11.627a64.148,64.148,0,0,1,9.37-3.991V227a10,10,0,0,1,10-10h20a10,10,0,0,1,10,10v16.008A64.081,64.081,0,0,1,279.715,247l11.3-11.3a10,10,0,0,1,14.142,0L319.3,249.846a10,10,0,0,1,0,14.142l-11.3,11.3a64.1,64.1,0,0,1,3.991,9.708h16.026a10,10,0,0,1,10,10v20A10,10,0,0,1,328.016,324.994ZM271,304.5A21.5,21.5,0,1,0,249.5,326,21.5,21.5,0,0,0,271,304.5ZM231,131H160a10,10,0,0,1-10-10V105a10,10,0,0,1,10-10h71a10,10,0,0,1,10,10v16A10,10,0,0,1,231,131Z"/>
</svg>
