<svg xmlns="http://www.w3.org/2000/svg" width="100" height="100" viewBox="0 0 500 500">
  <metadata><?xpacket begin="﻿" id="W5M0MpCehiHzreSzNTczkc9d"?>
<x:xmpmeta xmlns:x="adobe:ns:meta/" x:xmptk="Adobe XMP Core 5.6-c142 79.160924, 2017/07/13-01:06:39        ">
   <rdf:RDF xmlns:rdf="http://www.w3.org/1999/02/22-rdf-syntax-ns#">
      <rdf:Description rdf:about=""/>
   </rdf:RDF>
</x:xmpmeta>
                                                                                                    
                                                                                                    
                                                                                                    
                                                                                                    
                                                                                                    
                                                                                                    
                                                                                                    
                                                                                                    
                                                                                                    
                                                                                                    
                                                                                                    
                                                                                                    
                                                                                                    
                                                                                                    
                                                                                                    
                                                                                                    
                                                                                                    
                                                                                                    
                                                                                                    
                                                                                                    
                           
<?xpacket end="w"?></metadata>
<defs>
    <style>
      .cls-1 {
        fill: #fff;
        fill-rule: evenodd;
      }
    </style>
  </defs>
  <path id="filled" class="cls-1" d="M390,460H110a15,15,0,0,1-15-15V55a15,15,0,0,1,15-15H296a9.928,9.928,0,0,1,5.837,2.149l101.01,101.01A10.354,10.354,0,0,1,405,149V445A15,15,0,0,1,390,460ZM293,61l91,91a15,15,0,0,1-15,15H293a15,15,0,0,1-15-15V76A15,15,0,0,1,293,61ZM219.353,303.75H134.647A5.636,5.636,0,0,1,129,298.125V294a5.636,5.636,0,0,1,5.647-5.625h30.591A5.646,5.646,0,0,1,170.412,285h13.176a5.646,5.646,0,0,1,5.174,3.375h30.591A5.636,5.636,0,0,1,225,294v4.125A5.636,5.636,0,0,1,219.353,303.75ZM141.8,310.875h70.024a5.636,5.636,0,0,1,5.647,5.625V417.375A5.636,5.636,0,0,1,211.824,423H141.8a5.636,5.636,0,0,1-5.647-5.625V316.5A5.636,5.636,0,0,1,141.8,310.875Z"/>
</svg>
