<svg xmlns="http://www.w3.org/2000/svg" width="100" height="100" viewBox="0 0 500 500">
  <metadata><?xpacket begin="﻿" id="W5M0MpCehiHzreSzNTczkc9d"?>
<x:xmpmeta xmlns:x="adobe:ns:meta/" x:xmptk="Adobe XMP Core 5.6-c142 79.160924, 2017/07/13-01:06:39        ">
   <rdf:RDF xmlns:rdf="http://www.w3.org/1999/02/22-rdf-syntax-ns#">
      <rdf:Description rdf:about=""/>
   </rdf:RDF>
</x:xmpmeta>
                                                                                                    
                                                                                                    
                                                                                                    
                                                                                                    
                                                                                                    
                                                                                                    
                                                                                                    
                                                                                                    
                                                                                                    
                                                                                                    
                                                                                                    
                                                                                                    
                                                                                                    
                                                                                                    
                                                                                                    
                                                                                                    
                                                                                                    
                                                                                                    
                                                                                                    
                                                                                                    
                           
<?xpacket end="w"?></metadata>
<defs>
    <style>
      .cls-1 {
        fill-rule: evenodd;
      }
    </style>
  </defs>
  <path id="filled" class="cls-1" d="M414.822,364.97a23,23,0,0,1-31.922-6.244l-5.848-8.692a22.993,22.993,0,0,1-30.152-7.308L289.423,257.3l-63.992,32.14-39.512,68.437a23,23,0,0,1-39.838-23l38.3-66.339-0.575-1.13a44,44,0,1,1-1.028-63.789l79.53-39.523c24.558-12.271,50.749-4.851,60.626,14.942l17.171,33.68,80.96,120.334A23,23,0,0,1,414.822,364.97Zm-312.8-127.943-14.617-2.188a23,23,0,0,1,6.809-45.494l30.075,4.5A50.943,50.943,0,0,0,102,236C102,236.344,102.019,236.684,102.026,237.027Z"/>
</svg>
