<svg xmlns="http://www.w3.org/2000/svg" width="100" height="100" viewBox="0 0 500 500">
  <metadata><?xpacket begin="﻿" id="W5M0MpCehiHzreSzNTczkc9d"?>
<x:xmpmeta xmlns:x="adobe:ns:meta/" x:xmptk="Adobe XMP Core 5.6-c142 79.160924, 2017/07/13-01:06:39        ">
   <rdf:RDF xmlns:rdf="http://www.w3.org/1999/02/22-rdf-syntax-ns#">
      <rdf:Description rdf:about=""/>
   </rdf:RDF>
</x:xmpmeta>
                                                                                                    
                                                                                                    
                                                                                                    
                                                                                                    
                                                                                                    
                                                                                                    
                                                                                                    
                                                                                                    
                                                                                                    
                                                                                                    
                                                                                                    
                                                                                                    
                                                                                                    
                                                                                                    
                                                                                                    
                                                                                                    
                                                                                                    
                                                                                                    
                                                                                                    
                                                                                                    
                           
<?xpacket end="w"?></metadata>
<defs>
    <style>
      .cls-1 {
        fill-rule: evenodd;
      }
    </style>
  </defs>
  <path id="filled" class="cls-1" d="M428.5,157.435c-0.328.156-.662,0.288-0.992,0.437-8.732-5.089-19.043-9.134-30.227-9.684A58.7,58.7,0,0,0,380.86,149.8c0.656-1.159,1.33-2.3,1.979-3.468,0,0,9.841-15.767-.367-26.059a62.041,62.041,0,0,1,20.314-16.042c28.882-13.717,65.155,1.767,65.155,1.767S457.386,143.718,428.5,157.435ZM396.1,98.112a62.387,62.387,0,0,0-19.7,17.966,20.692,20.692,0,0,0-6.347-1.935c0.189-1.456.341-2.922,0.409-4.41,0.654-14.308-4.675-27.623-10.755-37.973,11.583-26.184,43.874-38.512,43.874-38.512s17,31.5,7.214,59.258A57.406,57.406,0,0,0,396.1,98.112ZM361.41,115.249c-8.751,3.453-13.72,12.837-13.616,12.53q-8.665,14.414-18.047,28.3c-0.025-.349-0.033-0.7-0.065-1.047-1.956-21.41-16.67-40.537-26.582-51.18,4.427-27.66,28.2-49.156,28.2-49.156s29.828,25.393,30.177,57.365C361.489,113.13,361.462,114.192,361.41,115.249ZM320.7,169.2q-15.954,22.56-33.624,43.711c-1.6-24.275-16.569-48.288-25.136-60.189,6.559-26.467,29.4-46.118,29.4-46.118s29.945,26.812,29.485,59.616Q320.806,167.717,320.7,169.2Zm-43.388,55.171q-20.376,23.391-42.664,44.954a66.289,66.289,0,0,0,.319-8.06c-0.506-21.517-11.752-40.482-22.064-53.444,9.846-29.034,38.4-48.586,38.4-48.586S279.443,189.921,277.312,224.368Zm-58.278,59.663q-22.167,20.286-45.851,38.8c2.5-11,3.435-22.866,1.3-34.773-2.739-15.257-11.837-32.82-22.627-49.334,10.132-25.578,29.945-43.814,29.945-43.814s38.226,31.261,39.169,71.349A70.5,70.5,0,0,1,219.034,284.031Zm-57.889,48.038q-22.827,17.187-46.793,32.734c-13.719-12.681-29.516-31.9-33.818-55.866-8.017-44.648,26.959-88.781,26.959-88.781s47.971,28.256,55.988,72.9C165.9,306.512,164.4,319.907,161.145,332.069Zm194.649-203.29a11.434,11.434,0,0,1,2.564-4.244c0.046-.076.093-0.151,0.139-0.228-0.014.047-.021,0.081-0.034,0.127a11.348,11.348,0,0,1,9.956-3.273,11.482,11.482,0,0,1,7.6,17.765c0.1-.02.195-0.028,0.291-0.049-0.22.446-.451,0.885-0.7,1.309l0.238,0.142A777.452,777.452,0,0,1,61.34,447.819l-0.131-.157a17.712,17.712,0,0,1-13.231,3.1,17.952,17.952,0,0,1-14.747-20.625c0.771-3.92,3-8.45,6.487-10.649A762.138,762.138,0,0,0,355.794,128.779ZM205.3,378.111c42.737,15.208,63.683,67.479,63.683,67.479S220.637,473.2,177.9,458c-21.761-7.743-37.859-25.091-48.432-40.259q30.981-20.244,59.939-43.388A77.819,77.819,0,0,1,205.3,378.111Zm6-8a76.674,76.674,0,0,0-12.613-3.287Q224.6,345.472,248.661,321.9c0.425-.023.845-0.065,1.271-0.081,45.331-1.7,84.147,39.094,84.147,39.094s-31.733,39.816-74.157,44.776C246.586,391.206,229.661,376.646,211.3,370.111Zm49.442-60.337q19.608-20.09,37.788-41.628c1.809-.11,3.629-0.172,5.471-0.13,40.089,0.915,72.089,39.135,72.089,39.135s-19.192,21.341-46.073,31.082C311.187,324.99,285.157,310.48,260.741,309.774ZM310,256.016c-0.49-.011-0.971.017-1.458,0.017q16.748-20.682,32.118-42.576A59.524,59.524,0,0,1,347.5,212.4c35.99-3.4,68.664,27.455,68.664,27.455S395.924,268.5,366.2,277.31C350.32,266.858,329.7,256.466,310,256.016Zm46.368-52.76a59.789,59.789,0,0,0-9.446,1.163q14.641-21.51,27.893-44.1a55.648,55.648,0,0,1,8.413-1.106c32.764-1.694,61.1,27.2,61.1,27.2s-17.7,22.588-42.951,30.615C389.343,209.527,373.439,202.592,356.368,203.256Z"/>
</svg>
