<svg xmlns="http://www.w3.org/2000/svg" width="100" height="100" viewBox="0 0 500 500">
  <metadata><?xpacket begin="﻿" id="W5M0MpCehiHzreSzNTczkc9d"?>
<x:xmpmeta xmlns:x="adobe:ns:meta/" x:xmptk="Adobe XMP Core 5.6-c142 79.160924, 2017/07/13-01:06:39        ">
   <rdf:RDF xmlns:rdf="http://www.w3.org/1999/02/22-rdf-syntax-ns#">
      <rdf:Description rdf:about=""/>
   </rdf:RDF>
</x:xmpmeta>
                                                                                                    
                                                                                                    
                                                                                                    
                                                                                                    
                                                                                                    
                                                                                                    
                                                                                                    
                                                                                                    
                                                                                                    
                                                                                                    
                                                                                                    
                                                                                                    
                                                                                                    
                                                                                                    
                                                                                                    
                                                                                                    
                                                                                                    
                                                                                                    
                                                                                                    
                                                                                                    
                           
<?xpacket end="w"?></metadata>
<defs>
    <style>
      .cls-1 {
        fill: #fff;
        fill-rule: evenodd;
      }
    </style>
  </defs>
  <path id="regular" class="cls-1" d="M428.5,156.435c-0.328.156-.662,0.288-0.992,0.437-8.733-5.089-19.043-9.134-30.228-9.684A58.7,58.7,0,0,0,380.86,148.8c0.656-1.159,1.329-2.3,1.979-3.468,0,0,9.841-15.767-.367-26.059a62.03,62.03,0,0,1,20.314-16.042c28.882-13.717,65.155,1.767,65.155,1.767S457.386,142.718,428.5,156.435ZM401,120c2.438,8.453,0,14,0,14s20.742-.56,27,6c16.628-12.749,18-26.6,18-26.6S427.658,104.883,401,120Zm-4.9-22.888a62.387,62.387,0,0,0-19.7,17.966,20.723,20.723,0,0,0-6.347-1.936c0.189-1.455.341-2.921,0.409-4.409,0.654-14.308-4.675-27.623-10.755-37.974,11.582-26.184,43.874-38.512,43.874-38.512s17,31.5,7.214,59.258A57.406,57.406,0,0,0,396.1,97.112ZM397.756,50A40.294,40.294,0,0,0,376,71c7.244,12.37,6,21,6,21s6.791-9.731,18-12C403.6,68.257,397.756,50,397.756,50ZM361.41,114.249c-8.751,3.453-13.72,12.837-13.616,12.53q-8.706,14.481-18.036,28.489c-0.028-.413-0.038-0.823-0.076-1.237-1.956-21.41-16.67-40.537-26.582-51.18,4.427-27.66,28.2-49.156,28.2-49.156s29.828,25.393,30.177,57.365C361.489,112.13,361.462,113.192,361.41,114.249ZM333,75c-2.571,1.3-12.267,16.722-14,23,3.116,3.333,15,25,15,25s5.229-11.68,14-18C346.217,94.115,336.546,78.905,333,75Zm-12.343,93.678q-15.967,22.992-33.5,44.655c-1.085-24.756-16.481-49.48-25.215-61.614,6.559-26.467,29.4-46.118,29.4-46.118s29.945,26.812,29.485,59.616C320.811,166.38,320.747,167.533,320.657,168.678ZM293,127c-4.5,3.134-16,22-16,22s13.391,15.514,17,35c0,0,12.852-17.033,15-19C308.694,161.446,305.586,138.878,293,127Zm-15.879,98.488q-20.533,24.321-42.968,46.768a67.755,67.755,0,0,0,.814-11.994c-0.506-21.517-11.752-40.482-22.064-53.444,9.846-29.034,38.4-48.586,38.4-48.586S280.583,190.191,277.121,225.488ZM251,180c-13.956,5.137-20.126,23.14-20,24s11.391,12.039,15,36l20-20S267.171,199.132,251,180ZM217.58,288.375Q196.1,308.63,173.133,327.14c-0.326-.366-0.652-0.731-0.984-1.112,3.249-12.153,4.743-25.532,2.331-38.967-2.739-15.257-11.837-32.82-22.627-49.334,10.132-25.578,29.945-43.814,29.945-43.814s38.226,31.261,39.169,71.349A73.033,73.033,0,0,1,217.58,288.375ZM185,220c-4.173,2.016-12.25,11.85-14,17,1.774,2.969,19.8,22.552,20,55l14-12S213.837,250.367,185,220ZM158.952,338.328q-19.8,15.209-40.566,29.076C103.9,354.91,85.263,334.28,80.534,307.937c-8.017-44.648,26.959-88.781,26.959-88.781s47.971,28.256,55.988,72.9C166.386,308.248,163.632,324.355,158.952,338.328ZM114,245c-33.464,41.728-12.305,80.724,7.351,98.2-1.1,1.965,21.98-16.342,26.649-20.2C150.233,304.527,149.885,266.621,114,245ZM355.794,127.779a11.434,11.434,0,0,1,2.564-4.244c0.046-.076.093-0.151,0.139-0.228-0.014.047-.021,0.081-0.034,0.127a11.348,11.348,0,0,1,9.956-3.273,11.482,11.482,0,0,1,7.6,17.765c0.1-.02.195-0.028,0.291-0.049-0.22.446-.451,0.885-0.7,1.309l0.238,0.142A777.452,777.452,0,0,1,61.34,446.819l-0.131-.157a17.712,17.712,0,0,1-13.231,3.1,17.952,17.952,0,0,1-14.747-20.625c0.771-3.92,3-8.45,6.487-10.649A762.138,762.138,0,0,0,355.794,127.779ZM205.3,377.111c42.737,15.208,63.683,67.479,63.683,67.479S220.637,472.2,177.9,457c-21.761-7.743-37.859-25.091-48.432-40.259q30.994-20.253,59.965-43.409A77.91,77.91,0,0,1,205.3,377.111ZM241,437c-6.577-27.781-45-44-45-44l-35,26S190.543,456.6,241,437Zm-29.7-67.889a76.674,76.674,0,0,0-12.613-3.287Q224.6,344.472,248.661,320.9c0.425-.023.845-0.065,1.271-0.081,45.331-1.7,84.147,39.094,84.147,39.094s-31.733,39.816-74.157,44.776C246.586,390.206,229.661,375.646,211.3,369.111ZM267,387c9.03-.742,34.226-17.727,40-25-13.112-20.021-50-25-50-25l-25,24S247.124,365.325,267,387Zm-6.259-78.226q19.608-20.09,37.788-41.628c1.809-.11,3.629-0.172,5.471-0.13,40.089,0.915,72.089,39.135,72.089,39.135s-19.192,21.341-46.073,31.082C311.187,323.99,285.157,309.48,260.741,308.774ZM355,305c-17.948-22.045-49-26-49-26s-10.392,12.221-18,21c19.313,5.072,38.488,17.318,42,22A59.6,59.6,0,0,0,355,305Zm-45-49.984c-0.481-.011-0.959-0.008-1.438-0.008q16.737-20.672,32.1-42.551A59.524,59.524,0,0,1,347.5,211.4c35.99-3.4,68.664,27.455,68.664,27.455S395.924,267.5,366.2,276.31C350.32,265.858,329.7,255.466,310,255.016ZM394,241c-15.956-15.328-43-17-43-17l-17,21s29.1,6.806,33,15C385.143,254.343,390.642,246.964,394,241Zm-37.632-38.744a59.775,59.775,0,0,0-9.446,1.163q14.641-21.51,27.893-44.1a55.648,55.648,0,0,1,8.413-1.106c32.764-1.694,61.1,27.2,61.1,27.2s-17.7,22.588-42.951,30.615C389.343,208.527,373.439,201.592,356.368,202.256ZM423,185s-13.218-15.889-39-14c-1.226,2.5-12,20-12,20s17.74,0.573,29.424,10.625A86.291,86.291,0,0,0,423,185Z"/>
</svg>
