<svg xmlns="http://www.w3.org/2000/svg" width="100" height="100" viewBox="0 0 500 500">
  <metadata><?xpacket begin="﻿" id="W5M0MpCehiHzreSzNTczkc9d"?>
<x:xmpmeta xmlns:x="adobe:ns:meta/" x:xmptk="Adobe XMP Core 5.6-c142 79.160924, 2017/07/13-01:06:39        ">
   <rdf:RDF xmlns:rdf="http://www.w3.org/1999/02/22-rdf-syntax-ns#">
      <rdf:Description rdf:about=""/>
   </rdf:RDF>
</x:xmpmeta>
                                                                                                    
                                                                                                    
                                                                                                    
                                                                                                    
                                                                                                    
                                                                                                    
                                                                                                    
                                                                                                    
                                                                                                    
                                                                                                    
                                                                                                    
                                                                                                    
                                                                                                    
                                                                                                    
                                                                                                    
                                                                                                    
                                                                                                    
                                                                                                    
                                                                                                    
                                                                                                    
                           
<?xpacket end="w"?></metadata>
<defs>
    <style>
      .cls-1 {
        fill-rule: evenodd;
      }
    </style>
  </defs>
  <path id="filled" class="cls-1" d="M250,338C117.452,338,10,287.856,10,226V112C10,50.144,117.452,0,250,0S490,50.144,490,112V226C490,287.856,382.548,338,250,338ZM101,275c6.627,0,12-9.85,12-22s-5.373-22-12-22-12,9.85-12,22S94.373,275,101,275ZM249.5,31C136.558,31,45,67.265,45,112s91.558,81,204.5,81S454,156.735,454,112,362.442,31,249.5,31ZM13.554,280.193c3.2-1.184,6.3,3.223,9.882,8.822C56.192,332.68,145.251,364,250,364s193.829-31.327,226.576-75h0.056c3.548-5.6,6.624-9.962,9.8-8.773,2.3,0.86,3.276,4.542,3.566,8.773h0v98h-0.027c0.006,0.334.027,0.666,0.027,1,0,61.856-107.452,112-240,112S10,449.856,10,388c0-.334.021-0.666,0.027-1H10V289h0C10.279,284.763,11.231,281.052,13.554,280.193ZM101,438c6.627,0,12-9.85,12-22s-5.373-22-12-22-12,9.85-12,22S94.373,438,101,438Z"/>
</svg>
