<svg xmlns="http://www.w3.org/2000/svg" width="100" height="100" viewBox="0 0 500 500">
  <metadata><?xpacket begin="﻿" id="W5M0MpCehiHzreSzNTczkc9d"?>
<x:xmpmeta xmlns:x="adobe:ns:meta/" x:xmptk="Adobe XMP Core 5.6-c142 79.160924, 2017/07/13-01:06:39        ">
   <rdf:RDF xmlns:rdf="http://www.w3.org/1999/02/22-rdf-syntax-ns#">
      <rdf:Description rdf:about=""/>
   </rdf:RDF>
</x:xmpmeta>
                                                                                                    
                                                                                                    
                                                                                                    
                                                                                                    
                                                                                                    
                                                                                                    
                                                                                                    
                                                                                                    
                                                                                                    
                                                                                                    
                                                                                                    
                                                                                                    
                                                                                                    
                                                                                                    
                                                                                                    
                                                                                                    
                                                                                                    
                                                                                                    
                                                                                                    
                                                                                                    
                           
<?xpacket end="w"?></metadata>
<defs>
    <style>
      .cls-1 {
        fill: #fff;
        fill-rule: evenodd;
      }
    </style>
  </defs>
  <path id="filled" class="cls-1" d="M389.127,401H112.873A11.873,11.873,0,0,1,101,389.127V112.873A11.873,11.873,0,0,1,112.873,101H389.127A11.873,11.873,0,0,1,401,112.873V389.127A11.873,11.873,0,0,1,389.127,401ZM341.762,188.75H293.755v94.233h0V284.4a33.434,33.434,0,0,0,33.416,33.453h0.471v0.024c0.158,0,.312-0.024.471-0.024a17.433,17.433,0,0,1,0,34.866c-0.159,0-.313-0.02-0.471-0.024v0.024a67.81,67.81,0,0,1-67.774-67.848c0-.472.014-0.941,0.023-1.41,0-.159-0.023-0.314-0.023-0.474V188.75H219.391V338.58a14.127,14.127,0,0,1-14.119,14.135h-5.648A14.127,14.127,0,0,1,185.5,338.58V188.75H161.03a14.128,14.128,0,0,1-14.12-14.135v-5.654a14.127,14.127,0,0,1,14.12-14.135H341.762a14.127,14.127,0,0,1,14.119,14.135v5.654A14.127,14.127,0,0,1,341.762,188.75Z"/>
</svg>
