<svg xmlns="http://www.w3.org/2000/svg" width="100" height="100" viewBox="0 0 500 500">
  <metadata><?xpacket begin="﻿" id="W5M0MpCehiHzreSzNTczkc9d"?>
<x:xmpmeta xmlns:x="adobe:ns:meta/" x:xmptk="Adobe XMP Core 5.6-c142 79.160924, 2017/07/13-01:06:39        ">
   <rdf:RDF xmlns:rdf="http://www.w3.org/1999/02/22-rdf-syntax-ns#">
      <rdf:Description rdf:about=""/>
   </rdf:RDF>
</x:xmpmeta>
                                                                                                    
                                                                                                    
                                                                                                    
                                                                                                    
                                                                                                    
                                                                                                    
                                                                                                    
                                                                                                    
                                                                                                    
                                                                                                    
                                                                                                    
                                                                                                    
                                                                                                    
                                                                                                    
                                                                                                    
                                                                                                    
                                                                                                    
                                                                                                    
                                                                                                    
                                                                                                    
                           
<?xpacket end="w"?></metadata>
<defs>
    <style>
      .cls-1 {
        fill: #fff;
        fill-rule: evenodd;
      }
    </style>
  </defs>
  <path id="regular" class="cls-1" d="M425,440H76a15,15,0,0,1-15-15V76A15,15,0,0,1,76,61H425a15,15,0,0,1,15,15V425A15,15,0,0,1,425,440ZM405,112a15,15,0,0,0-15-15H112a15,15,0,0,0-15,15V390a15,15,0,0,0,15,15H390a15,15,0,0,0,15-15V112Zm-58,73H296V286.5A35.5,35.5,0,0,0,331.5,322H332v0.025c0.168,0,.331-0.025.5-0.025a18.5,18.5,0,0,1,0,37c-0.169,0-.332-0.021-0.5-0.025V359a72,72,0,0,1-72-72c0-.5.015-1,0.025-1.5,0-.168-0.025-0.333-0.025-0.5V185H217V344a15,15,0,0,1-15,15h-6a15,15,0,0,1-15-15V185H155a15,15,0,0,1-15-15v-6a15,15,0,0,1,15-15H347a15,15,0,0,1,15,15v6A15,15,0,0,1,347,185Z"/>
</svg>
