<svg xmlns="http://www.w3.org/2000/svg" width="100" height="100" viewBox="0 0 500 500">
  <metadata><?xpacket begin="﻿" id="W5M0MpCehiHzreSzNTczkc9d"?>
<x:xmpmeta xmlns:x="adobe:ns:meta/" x:xmptk="Adobe XMP Core 5.6-c142 79.160924, 2017/07/13-01:06:39        ">
   <rdf:RDF xmlns:rdf="http://www.w3.org/1999/02/22-rdf-syntax-ns#">
      <rdf:Description rdf:about=""/>
   </rdf:RDF>
</x:xmpmeta>
                                                                                                    
                                                                                                    
                                                                                                    
                                                                                                    
                                                                                                    
                                                                                                    
                                                                                                    
                                                                                                    
                                                                                                    
                                                                                                    
                                                                                                    
                                                                                                    
                                                                                                    
                                                                                                    
                                                                                                    
                                                                                                    
                                                                                                    
                                                                                                    
                                                                                                    
                                                                                                    
                           
<?xpacket end="w"?></metadata>
<defs>
    <style>
      .cls-1 {
        fill: #fff;
        fill-rule: evenodd;
      }
    </style>
  </defs>
  <path id="regular" class="cls-1" d="M389.127,401H112.873A11.873,11.873,0,0,1,101,389.127V112.873A11.873,11.873,0,0,1,112.873,101H389.127A11.873,11.873,0,0,1,401,112.873V389.127A11.873,11.873,0,0,1,389.127,401ZM373.3,141.369A11.873,11.873,0,0,0,361.422,129.5H141.369A11.873,11.873,0,0,0,129.5,141.369V361.422A11.873,11.873,0,0,0,141.369,373.3H361.422A11.872,11.872,0,0,0,373.3,361.422V141.369Zm-45.91,57.784H287.016V279.5a28.1,28.1,0,0,0,28.1,28.1h0.4v0.02c0.133,0,.262-0.02.4-0.02a14.644,14.644,0,0,1,0,29.288c-0.134,0-.263-0.017-0.4-0.02v0.02a56.992,56.992,0,0,1-56.992-56.992c0-.4.012-0.79,0.02-1.185,0-.133-0.02-0.264-0.02-0.4V199.153H224.483V325.011a11.874,11.874,0,0,1-11.874,11.873H207.86a11.873,11.873,0,0,1-11.873-11.873V199.153H175.406a11.873,11.873,0,0,1-11.873-11.873v-4.75a11.873,11.873,0,0,1,11.873-11.873H327.385a11.874,11.874,0,0,1,11.874,11.873v4.75A11.874,11.874,0,0,1,327.385,199.153Z"/>
</svg>
