<svg xmlns="http://www.w3.org/2000/svg" width="100" height="100" viewBox="0 0 500 500">
  <metadata><?xpacket begin="﻿" id="W5M0MpCehiHzreSzNTczkc9d"?>
<x:xmpmeta xmlns:x="adobe:ns:meta/" x:xmptk="Adobe XMP Core 5.6-c142 79.160924, 2017/07/13-01:06:39        ">
   <rdf:RDF xmlns:rdf="http://www.w3.org/1999/02/22-rdf-syntax-ns#">
      <rdf:Description rdf:about=""/>
   </rdf:RDF>
</x:xmpmeta>
                                                                                                    
                                                                                                    
                                                                                                    
                                                                                                    
                                                                                                    
                                                                                                    
                                                                                                    
                                                                                                    
                                                                                                    
                                                                                                    
                                                                                                    
                                                                                                    
                                                                                                    
                                                                                                    
                                                                                                    
                                                                                                    
                                                                                                    
                                                                                                    
                                                                                                    
                                                                                                    
                           
<?xpacket end="w"?></metadata>
<defs>
    <style>
      .cls-1 {
        fill: #fff;
        fill-rule: evenodd;
      }
    </style>
  </defs>
  <path id="filled" class="cls-1" d="M390,459H136a15,15,0,0,1-15-15v-6.3a15.044,15.044,0,0,0,3,.3H369a15,15,0,0,0,15-15V69a15.051,15.051,0,0,0-.3-3H390a15,15,0,0,1,15,15V444A15,15,0,0,1,390,459Zm-35-35H110a15,15,0,0,1-15-15V55a15,15,0,0,1,15-15H355a15,15,0,0,1,15,15V409A15,15,0,0,1,355,424ZM210,185V73H128V200l41-34,41,34V185ZM324.839,396c-3.614,0-9.162-1.748-9.162-4.281l2.618-86.545a3.552,3.552,0,0,1,.8-2.2c-0.08-2.276.247-4.891,0.247-6.059,0,0-3.665-11.145-3.665-18.348V262.055c0-27.188,4.057-66.171,13.437-66.046,1.294,0.038,2.138,4.175,2.138,14.136,0,0-.917,62.832-0.917,86.772v5.77a3.655,3.655,0,0,1,1.047,2.487L334,391.719C334,394.252,328.453,396,324.839,396ZM285.456,260.264a26.153,26.153,0,0,0-.927,8.213c0.059,2.8,1.233,6.228,1.315,10.12,0.755,35.679,2.35,110.981,2.35,110.981,0,3.8-5.825,6.422-9.62,6.422s-9.619-2.622-9.619-6.422c0,0,1.594-75.317,2.349-110.983,0.082-3.839,1.257-7.341,1.315-10.118a25.489,25.489,0,0,0-.927-8.195c-4.589-3.956-8.234-7.648-8.234-14.741L264,219c0.493-5.512.6-10.843,4-13l0.039,31.284a1.832,1.832,0,1,0,3.664,0l1.688-32.11h2.121l1.688,32.11a1.833,1.833,0,1,0,3.665,0l1.687-32.11h2.122l1.687,32.11a1.833,1.833,0,1,0,3.665,0L290,206c2.731,2.794,2.988,9.114,3.69,12.936l0.916,26.6C294.606,252.711,290.745,255.524,285.456,260.264Z"/>
</svg>
