<svg xmlns="http://www.w3.org/2000/svg" width="99.96" height="99.96" viewBox="0 0 420 420">
  <metadata><?xpacket begin="﻿" id="W5M0MpCehiHzreSzNTczkc9d"?>
<x:xmpmeta xmlns:x="adobe:ns:meta/" x:xmptk="Adobe XMP Core 5.6-c142 79.160924, 2017/07/13-01:06:39        ">
   <rdf:RDF xmlns:rdf="http://www.w3.org/1999/02/22-rdf-syntax-ns#">
      <rdf:Description rdf:about=""/>
   </rdf:RDF>
</x:xmpmeta>
                                                                                                    
                                                                                                    
                                                                                                    
                                                                                                    
                                                                                                    
                                                                                                    
                                                                                                    
                                                                                                    
                                                                                                    
                                                                                                    
                                                                                                    
                                                                                                    
                                                                                                    
                                                                                                    
                                                                                                    
                                                                                                    
                                                                                                    
                                                                                                    
                                                                                                    
                                                                                                    
                           
<?xpacket end="w"?></metadata>
<defs>
    <style>
      .cls-1 {
        fill-rule: evenodd;
      }
    </style>
  </defs>
  <path id="bomb" class="cls-1" d="M324.662,157.856A158.533,158.533,0,0,0,210,109c-2.263,0-4.513.059-6.753,0.153l7.217-17.833c4.339-.392,8.731-0.6,13.172-0.6a144.791,144.791,0,0,1,39.136,5.358,55.737,55.737,0,0,0,.273-29.711c-7.147-28.2,1.026-44.915,25.335-54.328s23.363-.562,26.273,7.494,6.265,15.451-8.445,18.734-18.132,7.44-13.137,21.544c3.759,10.611,3.386,32.446-1.772,47.682a145.07,145.07,0,0,1,40.749,32.119ZM355,268A145,145,0,1,1,210,123,145,145,0,0,1,355,268Z"/>
</svg>
