<svg xmlns="http://www.w3.org/2000/svg" width="99.96" height="99.96" viewBox="0 0 420 420">
  <metadata><?xpacket begin="﻿" id="W5M0MpCehiHzreSzNTczkc9d"?>
<x:xmpmeta xmlns:x="adobe:ns:meta/" x:xmptk="Adobe XMP Core 5.6-c142 79.160924, 2017/07/13-01:06:39        ">
   <rdf:RDF xmlns:rdf="http://www.w3.org/1999/02/22-rdf-syntax-ns#">
      <rdf:Description rdf:about=""/>
   </rdf:RDF>
</x:xmpmeta>
                                                                                                    
                                                                                                    
                                                                                                    
                                                                                                    
                                                                                                    
                                                                                                    
                                                                                                    
                                                                                                    
                                                                                                    
                                                                                                    
                                                                                                    
                                                                                                    
                                                                                                    
                                                                                                    
                                                                                                    
                                                                                                    
                                                                                                    
                                                                                                    
                                                                                                    
                                                                                                    
                           
<?xpacket end="w"?></metadata>
<defs>
    <style>
      .cls-1 {
        fill-rule: evenodd;
      }
    </style>
  </defs>
  <path id="book" class="cls-1" d="M341.016,405H104.223a13.991,13.991,0,0,1-13.984-14v-5.88a14.007,14.007,0,0,0,2.8.281h228.4a13.991,13.991,0,0,0,13.984-14V41.062a14.108,14.108,0,0,0-.281-2.8h5.874A13.991,13.991,0,0,1,355,52.26V391A13.991,13.991,0,0,1,341.016,405Zm-32.629-32.661H79.984a13.991,13.991,0,0,1-13.984-14V28A13.991,13.991,0,0,1,79.984,14h228.4a13.991,13.991,0,0,1,13.984,14V358.341A13.991,13.991,0,0,1,308.387,372.339ZM173.21,149.31V44.795H96.765V163.308l38.223-31.728,38.223,31.728v-14Z"/>
</svg>
