<svg xmlns="http://www.w3.org/2000/svg" width="99.96" height="99.96" viewBox="0 0 420 420">
  <metadata><?xpacket begin="﻿" id="W5M0MpCehiHzreSzNTczkc9d"?>
<x:xmpmeta xmlns:x="adobe:ns:meta/" x:xmptk="Adobe XMP Core 5.6-c142 79.160924, 2017/07/13-01:06:39        ">
   <rdf:RDF xmlns:rdf="http://www.w3.org/1999/02/22-rdf-syntax-ns#">
      <rdf:Description rdf:about=""/>
   </rdf:RDF>
</x:xmpmeta>
                                                                                                    
                                                                                                    
                                                                                                    
                                                                                                    
                                                                                                    
                                                                                                    
                                                                                                    
                                                                                                    
                                                                                                    
                                                                                                    
                                                                                                    
                                                                                                    
                                                                                                    
                                                                                                    
                                                                                                    
                                                                                                    
                                                                                                    
                                                                                                    
                                                                                                    
                                                                                                    
                           
<?xpacket end="w"?></metadata>
<defs>
    <style>
      .cls-1 {
        fill-rule: evenodd;
      }
    </style>
  </defs>
  <path id="calendar" class="cls-1" d="M404.667,385H35.778a13.319,13.319,0,0,1-13.3-12.7,13.452,13.452,0,0,0,2.635.262H392.222a13.329,13.329,0,0,0,13.334-13.324V90.076a13.438,13.438,0,0,0-.263-2.633A13.317,13.317,0,0,1,418,100.736V371.675A13.33,13.33,0,0,1,404.667,385Zm-20.445-21.32H15.333A13.329,13.329,0,0,1,2,350.355V79.416A13.329,13.329,0,0,1,15.333,66.091H62.444v41.752a22.215,22.215,0,0,0,22.222,22.208H98a22.215,22.215,0,0,0,22.222-22.208V66.091H279.333v41.752a22.216,22.216,0,0,0,22.223,22.208h13.333a22.215,22.215,0,0,0,22.222-22.208V66.091h47.111a13.329,13.329,0,0,1,13.334,13.325V350.355A13.33,13.33,0,0,1,384.222,363.68ZM365.556,194.01a13.33,13.33,0,0,0-13.334-13.325H47.333A13.329,13.329,0,0,0,34,194.01V318.376A13.329,13.329,0,0,0,47.333,331.7H352.222a13.33,13.33,0,0,0,13.334-13.325V194.01ZM89,35h5.556a15,15,0,0,1,15,15v54.391a15,15,0,0,1-15,15H89a15,15,0,0,1-15-15V50A15,15,0,0,1,89,35Zm216,0h5.556a15,15,0,0,1,15,15v54.391a15,15,0,0,1-15,15H305a15,15,0,0,1-15-15V50A15,15,0,0,1,305,35Z"/>
</svg>
