<svg xmlns="http://www.w3.org/2000/svg" width="99.96" height="99.96" viewBox="0 0 420 420">
  <metadata><?xpacket begin="﻿" id="W5M0MpCehiHzreSzNTczkc9d"?>
<x:xmpmeta xmlns:x="adobe:ns:meta/" x:xmptk="Adobe XMP Core 5.6-c142 79.160924, 2017/07/13-01:06:39        ">
   <rdf:RDF xmlns:rdf="http://www.w3.org/1999/02/22-rdf-syntax-ns#">
      <rdf:Description rdf:about=""/>
   </rdf:RDF>
</x:xmpmeta>
                                                                                                    
                                                                                                    
                                                                                                    
                                                                                                    
                                                                                                    
                                                                                                    
                                                                                                    
                                                                                                    
                                                                                                    
                                                                                                    
                                                                                                    
                                                                                                    
                                                                                                    
                                                                                                    
                                                                                                    
                                                                                                    
                                                                                                    
                                                                                                    
                                                                                                    
                                                                                                    
                           
<?xpacket end="w"?></metadata>
<defs>
    <style>
      .cls-1 {
        fill-rule: evenodd;
      }
    </style>
  </defs>
  <path id="compass" class="cls-1" d="M210,403C103.409,403,17,316.591,17,210S103.409,17,210,17s193,86.409,193,193S316.591,403,210,403ZM47.768,196.014A13.986,13.986,0,1,0,61.754,210,13.986,13.986,0,0,0,47.768,196.014ZM210,386.217a13.986,13.986,0,1,0-13.986-13.985A13.985,13.985,0,0,0,210,386.217Zm0-352.434a13.986,13.986,0,1,0,13.985,13.985A13.986,13.986,0,0,0,210,33.783Zm67.85,58.827c-5.777-3.352-89.474,83-99.189,99.909s-42.289,132.919-36.512,136.271,89.475-83,99.19-99.909S283.628,95.961,277.85,92.609Zm94.382,103.4A13.986,13.986,0,1,0,386.217,210,13.986,13.986,0,0,0,372.232,196.014Z"/>
</svg>
