<svg xmlns="http://www.w3.org/2000/svg" width="99.96" height="99.96" viewBox="0 0 420 420">
  <metadata><?xpacket begin="﻿" id="W5M0MpCehiHzreSzNTczkc9d"?>
<x:xmpmeta xmlns:x="adobe:ns:meta/" x:xmptk="Adobe XMP Core 5.6-c142 79.160924, 2017/07/13-01:06:39        ">
   <rdf:RDF xmlns:rdf="http://www.w3.org/1999/02/22-rdf-syntax-ns#">
      <rdf:Description rdf:about=""/>
   </rdf:RDF>
</x:xmpmeta>
                                                                                                    
                                                                                                    
                                                                                                    
                                                                                                    
                                                                                                    
                                                                                                    
                                                                                                    
                                                                                                    
                                                                                                    
                                                                                                    
                                                                                                    
                                                                                                    
                                                                                                    
                                                                                                    
                                                                                                    
                                                                                                    
                                                                                                    
                                                                                                    
                                                                                                    
                                                                                                    
                           
<?xpacket end="w"?></metadata>
<defs>
    <style>
      .cls-1 {
        fill-rule: evenodd;
      }
    </style>
  </defs>
  <path id="filled" class="cls-1" d="M350,420H70a15,15,0,0,1-15-15V15A15,15,0,0,1,70,0H256a9.928,9.928,0,0,1,5.837,2.149l101.01,101.01A10.354,10.354,0,0,1,365,109V405A15,15,0,0,1,350,420ZM201,65a10,10,0,0,0-10-10H97A10,10,0,0,0,87,65V82.161a10,10,0,0,0,10,10h94a10,10,0,0,0,10-10V65Zm19.54,112H200.429a10.057,10.057,0,0,0-10.056,10.057v18.219a62.864,62.864,0,0,0-8.24,3.415L169.26,195.816a10.056,10.056,0,0,0-14.221,0l-14.22,14.223a10.057,10.057,0,0,0,0,14.222l12.871,12.873a63.148,63.148,0,0,0-3.417,8.246H132.067a10.056,10.056,0,0,0-10.056,10.057V275.55a10.056,10.056,0,0,0,10.056,10.057h18.2a63.108,63.108,0,0,0,3.418,8.253L140.8,306.745a10.058,10.058,0,0,0,0,14.223l14.221,14.222a10.053,10.053,0,0,0,14.22,0l12.883-12.884a62.958,62.958,0,0,0,8.246,3.418v18.219A10.057,10.057,0,0,0,200.429,354H220.54A10.056,10.056,0,0,0,230.6,343.943V325.735a63.073,63.073,0,0,0,8.264-3.421L251.74,335.2a10.056,10.056,0,0,0,14.221,0l14.22-14.223a10.057,10.057,0,0,0,0-14.222l-12.875-12.878a63.132,63.132,0,0,0,3.425-8.267h18.2a10.056,10.056,0,0,0,10.056-10.057V255.437a10.056,10.056,0,0,0-10.056-10.057H270.727a63.115,63.115,0,0,0-3.424-8.26l12.863-12.865a10.058,10.058,0,0,0,0-14.223L265.945,195.81a10.054,10.054,0,0,0-14.221,0l-12.871,12.873a63.117,63.117,0,0,0-8.258-3.418V187.057A10.056,10.056,0,0,0,220.54,177ZM251.17,41C241.844,31.674,238,36.837,238,53v59a15,15,0,0,0,15,15h61c21.309,0,15.181-7.989,11-12.17ZM182.163,265.074A27.914,27.914,0,1,1,210.077,293,27.921,27.921,0,0,1,182.163,265.074Z"/>
</svg>
