<svg xmlns="http://www.w3.org/2000/svg" width="99.96" height="99.96" viewBox="0 0 420 420">
  <metadata><?xpacket begin="﻿" id="W5M0MpCehiHzreSzNTczkc9d"?>
<x:xmpmeta xmlns:x="adobe:ns:meta/" x:xmptk="Adobe XMP Core 5.6-c142 79.160924, 2017/07/13-01:06:39        ">
   <rdf:RDF xmlns:rdf="http://www.w3.org/1999/02/22-rdf-syntax-ns#">
      <rdf:Description rdf:about=""/>
   </rdf:RDF>
</x:xmpmeta>
                                                                                                    
                                                                                                    
                                                                                                    
                                                                                                    
                                                                                                    
                                                                                                    
                                                                                                    
                                                                                                    
                                                                                                    
                                                                                                    
                                                                                                    
                                                                                                    
                                                                                                    
                                                                                                    
                                                                                                    
                                                                                                    
                                                                                                    
                                                                                                    
                                                                                                    
                                                                                                    
                           
<?xpacket end="w"?></metadata>
<defs>
    <style>
      .cls-1 {
        fill-rule: evenodd;
      }
    </style>
  </defs>
  <path id="controller" class="cls-1" d="M322.4,306a95.187,95.187,0,0,1-71.252-32H168.854A95.187,95.187,0,0,1,97.6,306C44.8,306,2,263.019,2,210s42.8-96,95.6-96H322.4c52.8,0,95.6,42.981,95.6,96S375.2,306,322.4,306ZM140.667,197.892a3.453,3.453,0,0,0-3.446-3.46H113.967V171.081a3.452,3.452,0,0,0-3.445-3.459H85.545a3.452,3.452,0,0,0-3.445,3.459v23.351H59.706a3.453,3.453,0,0,0-3.445,3.46v25.081a3.452,3.452,0,0,0,3.445,3.459H82.1v22.487a3.452,3.452,0,0,0,3.445,3.459h24.978a3.453,3.453,0,0,0,3.445-3.459V226.432h23.254a3.452,3.452,0,0,0,3.446-3.459V197.892Zm180.869-35.46a15.441,15.441,0,0,0-12.044,5.775c-0.611.5-1.211,1.029-1.785,1.605L282.69,194.933a24.125,24.125,0,0,0-1.747,1.984,15.529,15.529,0,1,0,21.941,21.6c0.592-.489,1.173-1,1.731-1.563l25.017-25.121c0.5-.5.965-1.018,1.408-1.547A15.569,15.569,0,0,0,321.536,162.432ZM354.265,195.3a15.441,15.441,0,0,0-12.044,5.775c-0.611.5-1.211,1.029-1.785,1.6L315.419,227.8a23.975,23.975,0,0,0-1.748,1.984,15.529,15.529,0,1,0,21.942,21.6c0.592-.49,1.173-1,1.731-1.563l25.017-25.121c0.5-.5.965-1.018,1.407-1.547A15.568,15.568,0,0,0,354.265,195.3Z"/>
</svg>
