<svg xmlns="http://www.w3.org/2000/svg" width="99.96" height="99.96" viewBox="0 0 420 420">
  <metadata><?xpacket begin="﻿" id="W5M0MpCehiHzreSzNTczkc9d"?>
<x:xmpmeta xmlns:x="adobe:ns:meta/" x:xmptk="Adobe XMP Core 5.6-c142 79.160924, 2017/07/13-01:06:39        ">
   <rdf:RDF xmlns:rdf="http://www.w3.org/1999/02/22-rdf-syntax-ns#">
      <rdf:Description rdf:about=""/>
   </rdf:RDF>
</x:xmpmeta>
                                                                                                    
                                                                                                    
                                                                                                    
                                                                                                    
                                                                                                    
                                                                                                    
                                                                                                    
                                                                                                    
                                                                                                    
                                                                                                    
                                                                                                    
                                                                                                    
                                                                                                    
                                                                                                    
                                                                                                    
                                                                                                    
                                                                                                    
                                                                                                    
                                                                                                    
                                                                                                    
                           
<?xpacket end="w"?></metadata>
<defs>
    <style>
      .cls-1 {
        fill-rule: evenodd;
      }
    </style>
  </defs>
  <path id="database" class="cls-1" d="M210.468,402C108.037,402,25,362.825,25,314.5V237.294c0-.235-0.134-7.5,6.035.168,26.012,32.341,94.57,56.692,175.515,57.456q1.953,0.022,3.918.023t3.917-.023c80.951-.764,149.512-25.118,175.52-57.462,6.163-7.664,6.031-.7,6.031-0.162V314.5C395.936,362.825,312.9,402,210.468,402Zm-109.22-91.618c-6.26,0-11.334,9.218-11.334,20.589s5.075,20.588,11.334,20.588,11.334-9.218,11.334-20.588S107.508,310.382,101.248,310.382Zm109.22-41.176C108.037,269.206,25,230.031,25,181.706V104.5C25,56.175,108.037,17,210.468,17s185.468,39.175,185.468,87.5v77.206C395.936,230.031,312.9,269.206,210.468,269.206Zm-109.22-44.265c6.26,0,11.334-9.218,11.334-20.588s-5.074-20.588-11.334-20.588-11.334,9.217-11.334,20.588S94.988,224.941,101.248,224.941ZM210.468,46.853c-81.945,0-148.374,29.789-148.374,57.647s66.429,56.618,148.374,56.618,148.374-28.76,148.374-56.618S292.413,46.853,210.468,46.853Z"/>
</svg>
