<svg xmlns="http://www.w3.org/2000/svg" width="99.96" height="99.96" viewBox="0 0 420 420">
  <metadata><?xpacket begin="﻿" id="W5M0MpCehiHzreSzNTczkc9d"?>
<x:xmpmeta xmlns:x="adobe:ns:meta/" x:xmptk="Adobe XMP Core 5.6-c142 79.160924, 2017/07/13-01:06:39        ">
   <rdf:RDF xmlns:rdf="http://www.w3.org/1999/02/22-rdf-syntax-ns#">
      <rdf:Description rdf:about=""/>
   </rdf:RDF>
</x:xmpmeta>
                                                                                                    
                                                                                                    
                                                                                                    
                                                                                                    
                                                                                                    
                                                                                                    
                                                                                                    
                                                                                                    
                                                                                                    
                                                                                                    
                                                                                                    
                                                                                                    
                                                                                                    
                                                                                                    
                                                                                                    
                                                                                                    
                                                                                                    
                                                                                                    
                                                                                                    
                                                                                                    
                           
<?xpacket end="w"?></metadata>
<defs>
    <style>
      .cls-1 {
        fill-rule: evenodd;
      }
    </style>
  </defs>
  <path id="download" class="cls-1" d="M377,399H43a15,15,0,0,1-15-15V310.279a15,15,0,0,1,15-15H377a15,15,0,0,1,15,15V384A15,15,0,0,1,377,399ZM223.055,274.305a19.433,19.433,0,0,1-27.446,0l-64.04-63.925C105.939,184.8,102.84,169,132,169h33l0.331-124.325,0.011-4.3A19.39,19.39,0,0,1,184.749,21H236.5a19.39,19.39,0,0,1,19.407,19.372l0,3.968L256,169h31c34.21,0,20.739,20.773.1,41.38Z"/>
</svg>
