<svg xmlns="http://www.w3.org/2000/svg" width="99.96" height="99.96" viewBox="0 0 420 420">
  <metadata><?xpacket begin="﻿" id="W5M0MpCehiHzreSzNTczkc9d"?>
<x:xmpmeta xmlns:x="adobe:ns:meta/" x:xmptk="Adobe XMP Core 5.6-c142 79.160924, 2017/07/13-01:06:39        ">
   <rdf:RDF xmlns:rdf="http://www.w3.org/1999/02/22-rdf-syntax-ns#">
      <rdf:Description rdf:about=""/>
   </rdf:RDF>
</x:xmpmeta>
                                                                                                    
                                                                                                    
                                                                                                    
                                                                                                    
                                                                                                    
                                                                                                    
                                                                                                    
                                                                                                    
                                                                                                    
                                                                                                    
                                                                                                    
                                                                                                    
                                                                                                    
                                                                                                    
                                                                                                    
                                                                                                    
                                                                                                    
                                                                                                    
                                                                                                    
                                                                                                    
                           
<?xpacket end="w"?></metadata>
<defs>
    <style>
      .cls-1 {
        fill-rule: evenodd;
      }
    </style>
  </defs>
  <path id="edit_file" class="cls-1" d="M350,420H70a15,15,0,0,1-15-15V15A15,15,0,0,1,70,0H256a9.928,9.928,0,0,1,5.837,2.149l101.01,101.01A10.354,10.354,0,0,1,365,109V405A15,15,0,0,1,350,420ZM277.409,230.927l7.1-7.111,13.871-13.9a5.494,5.494,0,0,0,0-7.757L273.861,177.6a5.467,5.467,0,0,0-7.742,0l-13.87,13.9-7.1,7.11-0.645.646,32.257,32.32Zm-44.515-20.038-6.129,6.14L125.8,318.19a2.279,2.279,0,0,0-.642,1.287,2.524,2.524,0,0,0-.739,1.409L119.994,353.1c-0.142,1.035,1.871,3.052,2.9,2.909l32.147-4.434a2.368,2.368,0,0,0,1.03-.423,2.273,2.273,0,0,0,1.983-.637L259.023,249.349l6.129-6.141,1.612-1.616-32.257-32.319ZM325,114.83L251.17,41C241.844,31.674,238,36.837,238,53v59a15,15,0,0,0,15,15h61C335.309,127,329.181,119.011,325,114.83Z"/>
</svg>
