<svg xmlns="http://www.w3.org/2000/svg" width="99.96" height="99.96" viewBox="0 0 420 420">
  <metadata><?xpacket begin="﻿" id="W5M0MpCehiHzreSzNTczkc9d"?>
<x:xmpmeta xmlns:x="adobe:ns:meta/" x:xmptk="Adobe XMP Core 5.6-c142 79.160924, 2017/07/13-01:06:39        ">
   <rdf:RDF xmlns:rdf="http://www.w3.org/1999/02/22-rdf-syntax-ns#">
      <rdf:Description rdf:about=""/>
   </rdf:RDF>
</x:xmpmeta>
                                                                                                    
                                                                                                    
                                                                                                    
                                                                                                    
                                                                                                    
                                                                                                    
                                                                                                    
                                                                                                    
                                                                                                    
                                                                                                    
                                                                                                    
                                                                                                    
                                                                                                    
                                                                                                    
                                                                                                    
                                                                                                    
                                                                                                    
                                                                                                    
                                                                                                    
                                                                                                    
                           
<?xpacket end="w"?></metadata>
<defs>
    <style>
      .cls-1 {
        fill-rule: evenodd;
      }
    </style>
  </defs>
  <path id="file_md" class="cls-1" d="M350,420H70a15,15,0,0,1-15-15V15A15,15,0,0,1,70,0H256a9.928,9.928,0,0,1,5.837,2.149l101.01,101.01A10.354,10.354,0,0,1,365,109V405A15,15,0,0,1,350,420ZM213.3,387.059a2.5,2.5,0,0,0,.648,1.725,1.991,1.991,0,0,0,1.538.727H241.3q13.355,0,21.368-5.992,8.74-6.627,8.741-21.153v-9.26q0-9.35-4.047-15.616a22.356,22.356,0,0,0-10.6-8.9,41.387,41.387,0,0,0-15.459-2.632H215.483a1.993,1.993,0,0,0-1.538.726,2.5,2.5,0,0,0-.648,1.725v58.647Zm-64.912-60.372a2.507,2.507,0,0,0-.647,1.725v58.647a2.5,2.5,0,0,0,.647,1.725,1.994,1.994,0,0,0,1.538.727h14.65a2,2,0,0,0,1.538-.727,2.5,2.5,0,0,0,.647-1.725V358.916l5.909,13.073a4.2,4.2,0,0,0,1.133,1.452,3.218,3.218,0,0,0,2.266.818h5.5a3.7,3.7,0,0,0,1.943-.591,3.642,3.642,0,0,0,1.456-1.679l5.909-13.073v28.143a2.5,2.5,0,0,0,.648,1.725,1.991,1.991,0,0,0,1.537.727h14.65a2,2,0,0,0,1.538-.727,2.505,2.505,0,0,0,.648-1.725V328.412a2.512,2.512,0,0,0-.648-1.725,2,2,0,0,0-1.538-.726H192.9a3.786,3.786,0,0,0-3.48,2.451l-10.6,21.788-10.6-21.788a3.786,3.786,0,0,0-3.48-2.451H149.923A2,2,0,0,0,148.385,326.687Zm74.456-144.769-1.768,10.8H207.407l1.608-10.156v-0.484a3.573,3.573,0,0,0-3.537-3.546H185.221q-3.219,0-3.859,3.385l-1.768,10.8H164.963a3.888,3.888,0,0,0-2.813,1.189,3.765,3.765,0,0,0-1.206,2.768V215.36a3.766,3.766,0,0,0,1.206,2.77,3.886,3.886,0,0,0,2.813,1.187h10.611l-1.768,13.218H160.783a3.888,3.888,0,0,0-2.813,1.189,3.777,3.777,0,0,0-1.206,2.773v20.286a3.769,3.769,0,0,0,1.206,2.773,3.876,3.876,0,0,0,2.813,1.189h8.843l-2.09,13.269v0.325a3.331,3.331,0,0,0,1.045,2.461,3.424,3.424,0,0,0,2.492,1.03H191.33q3.534,0,4.019-3.385l2.09-13.7h13.666l-2.09,13.269v0.325a3.331,3.331,0,0,0,1.045,2.461,3.424,3.424,0,0,0,2.492,1.03h20.257q3.534,0,4.019-3.385l2.09-13.7h15.273a3.8,3.8,0,0,0,2.894-1.189,3.907,3.907,0,0,0,1.126-2.773V236.5a3.916,3.916,0,0,0-1.126-2.773,3.815,3.815,0,0,0-2.894-1.189H243.1l1.769-13.218h13.5a3.813,3.813,0,0,0,2.894-1.187,3.9,3.9,0,0,0,1.126-2.77V196.676a3.9,3.9,0,0,0-1.126-2.768,3.815,3.815,0,0,0-2.894-1.189h-9.485l1.608-10.156v-0.484a3.573,3.573,0,0,0-3.537-3.546H226.7Q223.481,178.533,222.841,181.918ZM325,114.83L251.17,41C241.844,31.674,238,36.837,238,53v59a15,15,0,0,0,15,15h61C335.309,127,329.181,119.011,325,114.83ZM200.976,232.535l2.09-13.218H217.7l-2.09,13.218h-14.63Zm46.761,113.171a7.435,7.435,0,0,1,2.225,5.765V364a7.434,7.434,0,0,1-2.225,5.765,8.581,8.581,0,0,1-6.03,2.042h-7.366V343.664h7.366A8.581,8.581,0,0,1,247.737,345.706Z"/>
</svg>
