<svg xmlns="http://www.w3.org/2000/svg" width="99.96" height="99.96" viewBox="0 0 420 420">
  <metadata><?xpacket begin="﻿" id="W5M0MpCehiHzreSzNTczkc9d"?>
<x:xmpmeta xmlns:x="adobe:ns:meta/" x:xmptk="Adobe XMP Core 5.6-c142 79.160924, 2017/07/13-01:06:39        ">
   <rdf:RDF xmlns:rdf="http://www.w3.org/1999/02/22-rdf-syntax-ns#">
      <rdf:Description rdf:about=""/>
   </rdf:RDF>
</x:xmpmeta>
                                                                                                    
                                                                                                    
                                                                                                    
                                                                                                    
                                                                                                    
                                                                                                    
                                                                                                    
                                                                                                    
                                                                                                    
                                                                                                    
                                                                                                    
                                                                                                    
                                                                                                    
                                                                                                    
                                                                                                    
                                                                                                    
                                                                                                    
                                                                                                    
                                                                                                    
                                                                                                    
                           
<?xpacket end="w"?></metadata>
<defs>
    <style>
      .cls-1 {
        fill-rule: evenodd;
      }
    </style>
  </defs>
  <path id="file_psd" class="cls-1" d="M350,420H70a15,15,0,0,1-15-15V15A15,15,0,0,1,70,0H256a9.928,9.928,0,0,1,5.837,2.149l101.01,101.01A10.354,10.354,0,0,1,365,109V405A15,15,0,0,1,350,420ZM245.083,386.9a2.494,2.494,0,0,0,.645,1.721,1.982,1.982,0,0,0,1.533.725H273q13.311,0,21.3-5.979,8.713-6.612,8.713-21.108v-9.24q0-9.33-4.034-15.582a22.288,22.288,0,0,0-10.569-8.878A41.193,41.193,0,0,0,273,325.936H247.261a1.988,1.988,0,0,0-1.533.725,2.5,2.5,0,0,0-.645,1.721V386.9Zm-32.615-160.6,15.67-2.167a1.15,1.15,0,0,0,.5-0.207,1.107,1.107,0,0,0,.967-0.311l49.218-49.441,2.988-3,0.786-.79L266.875,154.6l-0.787.79-2.987,3-49.218,49.44a1.107,1.107,0,0,0-.313.629,1.231,1.231,0,0,0-.36.689l-2.158,15.741A1.8,1.8,0,0,0,212.468,226.308Zm-9.689,11.434a3.378,3.378,0,0,0-5.234,0l-24.013,27.516h74.544l-17.732-20.319a3.378,3.378,0,0,0-5.234,0l-8.025,9.2Zm84.7-72.247,0.314-.316,3.46-3.475,6.761-6.792a2.689,2.689,0,0,0,0-3.791l-11.95-12a2.66,2.66,0,0,0-3.774,0l-6.762,6.792-3.459,3.475-0.315.316ZM188.891,383.922q7.461,5.52,20.936,5.519t21.622-5.6q8.148-5.6,8.149-14.611t-5.608-13.517q-5.608-4.5-18.838-6.167a48.275,48.275,0,0,1-8.391-1.532q-2.1-.743-2.1-2.055,0-2.45,5.405-2.45,3.873,0,5.809,1.883a3.448,3.448,0,0,0,2.5,1.027h17.346a1.884,1.884,0,0,0,1.412-.539,1.975,1.975,0,0,0,.524-1.437q0-6.649-7.584-12.625t-19.887-5.974q-12.3,0-19.645,5.555a17.412,17.412,0,0,0-7.342,14.566q0,16.011,22.832,18.984a49.251,49.251,0,0,1,9.6,1.794q2.421,0.919,2.42,2.494,0,2.537-7.664,2.536-5.566,0-7.826-2.312a3.6,3.6,0,0,0-2.743-1.114H183.284a1.694,1.694,0,0,0-1.856,1.974Q181.428,378.4,188.891,383.922Zm-67.868-57.986a1.985,1.985,0,0,0-1.532.725,2.5,2.5,0,0,0-.646,1.721V386.9a2.491,2.491,0,0,0,.646,1.721,1.979,1.979,0,0,0,1.532.725h17.346a1.983,1.983,0,0,0,1.533-.725,2.5,2.5,0,0,0,.646-1.721V369.511H151.2q13.554,0,19.2-5.753t5.647-15.536a20.957,20.957,0,0,0-6.7-16.035q-6.7-6.251-18.153-6.251H121.023ZM160.18,171.741a6.879,6.879,0,0,0-6.876,6.882V279.557a6.878,6.878,0,0,0,6.876,6.881H260.82a6.879,6.879,0,0,0,6.876-6.881V195.536l-10.011,8.982v69.251a2.659,2.659,0,0,1-2.658,2.659H165.962a2.659,2.659,0,0,1-2.658-2.659V184.436a2.658,2.658,0,0,1,2.658-2.658h65.07l10.009-10.037H160.18ZM325,114.83L251.17,41C241.844,31.674,238,36.837,238,53v59a15,15,0,0,0,15,15h61C335.309,127,329.181,119.011,325,114.83ZM150.875,352.751H140.628v-9.965h10.247a3.682,3.682,0,0,1,3.065,1.45,5.865,5.865,0,0,1,1.13,3.714,5.018,5.018,0,0,1-1.17,3.533A3.927,3.927,0,0,1,150.875,352.751Zm128.537-7.111a7.424,7.424,0,0,1,2.218,5.752v12.5a7.423,7.423,0,0,1-2.218,5.753,8.547,8.547,0,0,1-6.011,2.038h-7.342V343.6H273.4A8.542,8.542,0,0,1,279.412,345.64Z"/>
</svg>
