<svg xmlns="http://www.w3.org/2000/svg" width="99.96" height="99.96" viewBox="0 0 420 420">
  <metadata><?xpacket begin="﻿" id="W5M0MpCehiHzreSzNTczkc9d"?>
<x:xmpmeta xmlns:x="adobe:ns:meta/" x:xmptk="Adobe XMP Core 5.6-c142 79.160924, 2017/07/13-01:06:39        ">
   <rdf:RDF xmlns:rdf="http://www.w3.org/1999/02/22-rdf-syntax-ns#">
      <rdf:Description rdf:about=""/>
   </rdf:RDF>
</x:xmpmeta>
                                                                                                    
                                                                                                    
                                                                                                    
                                                                                                    
                                                                                                    
                                                                                                    
                                                                                                    
                                                                                                    
                                                                                                    
                                                                                                    
                                                                                                    
                                                                                                    
                                                                                                    
                                                                                                    
                                                                                                    
                                                                                                    
                                                                                                    
                                                                                                    
                                                                                                    
                                                                                                    
                           
<?xpacket end="w"?></metadata>
<defs>
    <style>
      .cls-1 {
        fill-rule: evenodd;
      }
    </style>
  </defs>
  <path id="file_svg" class="cls-1" d="M350,420H70a15,15,0,0,1-15-15V15A15,15,0,0,1,70,0H256a9.928,9.928,0,0,1,5.837,2.149l101.01,101.01A10.354,10.354,0,0,1,365,109V405A15,15,0,0,1,350,420ZM241.741,362.855q0,13.6,8.35,20.094t22.066,6.492q13.715,0,22.066-6.659t8.35-20.428v-9.6a2.505,2.505,0,0,0-.646-1.721,1.989,1.989,0,0,0-1.532-.725H277a1.987,1.987,0,0,0-1.533.725,2.5,2.5,0,0,0-.646,1.721v10.056a2.5,2.5,0,0,0,.646,1.721,1.984,1.984,0,0,0,1.533.725h5a6.033,6.033,0,0,1-2.461,4.575q-2.38,1.949-6.777,1.947a10.691,10.691,0,0,1-6.817-1.926,6.46,6.46,0,0,1-2.421-5.353V349.934a5.5,5.5,0,0,1,2.461-4.624,11.281,11.281,0,0,1,6.777-1.8,8.608,8.608,0,0,1,6.817,2.848,3.014,3.014,0,0,0,2.34.8h18.234a1.647,1.647,0,0,0,1.25-.565,1.917,1.917,0,0,0,.524-1.349q0-3.741-3.953-8.614a30.663,30.663,0,0,0-5.446-5.177,27.309,27.309,0,0,0-8.552-4,41.01,41.01,0,0,0-11.819-1.609q-12.99,0-21.38,6.182a21.212,21.212,0,0,0-6.656,8.392,28.636,28.636,0,0,0-2.38,12.011v10.424ZM177.2,328.563l18.717,58.069a3.491,3.491,0,0,0,3.55,2.718h18.8q2.742,0,3.631-2.989l18.556-57.8a4.3,4.3,0,0,0,.081-0.906,1.746,1.746,0,0,0-.525-1.132,1.622,1.622,0,0,0-1.25-.589H221.734a3.456,3.456,0,0,0-3.631,2.99l-9.278,34.7-9.278-34.7a4.959,4.959,0,0,0-1.251-2.039,3.178,3.178,0,0,0-2.38-.951H178.893a1.621,1.621,0,0,0-1.25.589,1.741,1.741,0,0,0-.525,1.132A4.232,4.232,0,0,0,177.2,328.563Zm-60.186,41.76q0,8.079,7.463,13.6t20.936,5.519q13.473,0,21.622-5.6t8.149-14.611q0-9.012-5.607-13.517t-18.839-6.167a48.257,48.257,0,0,1-8.39-1.532q-2.1-.743-2.1-2.055,0-2.45,5.405-2.45,3.873,0,5.809,1.883a3.449,3.449,0,0,0,2.5,1.027H171.31a1.882,1.882,0,0,0,1.412-.539,1.976,1.976,0,0,0,.525-1.437q0-6.649-7.584-12.625t-19.888-5.974q-12.3,0-19.645,5.555a17.412,17.412,0,0,0-7.342,14.566q0,16.011,22.832,18.984a49.235,49.235,0,0,1,9.6,1.794q2.421,0.919,2.421,2.494,0,2.537-7.665,2.536-5.567,0-7.826-2.312a3.6,3.6,0,0,0-2.743-1.114H118.869A1.694,1.694,0,0,0,117.013,370.323ZM224.952,198.68a2.413,2.413,0,0,0-2.409-2.417H198.456a2.412,2.412,0,0,0-2.408,2.417v6.027a62.107,62.107,0,0,1-61.4-61.121,9.638,9.638,0,1,0-7.225.02,69.47,69.47,0,0,0,47.155,64.741H118.367a0.6,0.6,0,0,0-.6.6v2.417a0.6,0.6,0,0,0,.6.6h77.681v10.875a2.412,2.412,0,0,0,2.408,2.417h24.087a2.413,2.413,0,0,0,2.409-2.417v-7.322a3.544,3.544,0,0,0,.6.072,62.111,62.111,0,0,1,62,61.136,9.638,9.638,0,1,0,7.225-.02,69.469,69.469,0,0,0-47.155-64.741h55.012a0.6,0.6,0,0,0,.6-0.6v-2.417a0.6,0.6,0,0,0-.6-0.6H224.952V198.68ZM325,114.83L251.17,41C241.844,31.674,238,36.837,238,53v59a15,15,0,0,0,15,15h61C335.309,127,329.181,119.011,325,114.83Z"/>
</svg>
