<svg xmlns="http://www.w3.org/2000/svg" width="99.96" height="99.96" viewBox="0 0 420 420">
  <metadata><?xpacket begin="﻿" id="W5M0MpCehiHzreSzNTczkc9d"?>
<x:xmpmeta xmlns:x="adobe:ns:meta/" x:xmptk="Adobe XMP Core 5.6-c142 79.160924, 2017/07/13-01:06:39        ">
   <rdf:RDF xmlns:rdf="http://www.w3.org/1999/02/22-rdf-syntax-ns#">
      <rdf:Description rdf:about=""/>
   </rdf:RDF>
</x:xmpmeta>
                                                                                                    
                                                                                                    
                                                                                                    
                                                                                                    
                                                                                                    
                                                                                                    
                                                                                                    
                                                                                                    
                                                                                                    
                                                                                                    
                                                                                                    
                                                                                                    
                                                                                                    
                                                                                                    
                                                                                                    
                                                                                                    
                                                                                                    
                                                                                                    
                                                                                                    
                                                                                                    
                           
<?xpacket end="w"?></metadata>
<defs>
    <style>
      .cls-1 {
        fill-rule: evenodd;
      }
    </style>
  </defs>
  <path id="file_txt" class="cls-1" d="M350,420H70a15,15,0,0,1-15-15V15A15,15,0,0,1,70,0H256a9.928,9.928,0,0,1,5.837,2.149l101.01,101.01A10.354,10.354,0,0,1,365,109V405A15,15,0,0,1,350,420ZM239.117,342.967a2.5,2.5,0,0,0,.645,1.722,1.983,1.983,0,0,0,1.533.724h17.346V386.9a2.494,2.494,0,0,0,.645,1.721,1.982,1.982,0,0,0,1.533.725h16.62a1.985,1.985,0,0,0,1.533-.725,2.5,2.5,0,0,0,.645-1.721V345.413h17.346a1.987,1.987,0,0,0,1.533-.724,2.5,2.5,0,0,0,.646-1.722V328.382a2.505,2.505,0,0,0-.646-1.721,1.991,1.991,0,0,0-1.533-.725H241.3a1.987,1.987,0,0,0-1.533.725,2.5,2.5,0,0,0-.645,1.721v14.585Zm-62.243,45.794a1.614,1.614,0,0,0,1.25.589h17.427a3.69,3.69,0,0,0,3.308-2.083l7.664-13.5,7.826,13.5a3.577,3.577,0,0,0,3.308,2.083H235a1.616,1.616,0,0,0,1.25-.589,1.927,1.927,0,0,0,.525-1.313,1.978,1.978,0,0,0-.242-1.087L219.27,356.918l16.862-27.992a1.964,1.964,0,0,0,.242-1.087,1.934,1.934,0,0,0-.524-1.314,1.626,1.626,0,0,0-1.251-.589H217.253a3.939,3.939,0,0,0-3.307,2.084L207.169,339.8l-6.293-11.6a3.842,3.842,0,0,0-3.389-2.265H180.061a1.623,1.623,0,0,0-1.251.589,1.929,1.929,0,0,0-.524,1.314,1.964,1.964,0,0,0,.242,1.087l15.893,26.815-17.83,30.62a1.978,1.978,0,0,0-.242,1.087A1.918,1.918,0,0,0,176.874,388.761Zm-62.808-45.794a2.5,2.5,0,0,0,.646,1.722,1.981,1.981,0,0,0,1.533.724H133.59V386.9a2.5,2.5,0,0,0,.646,1.721,1.981,1.981,0,0,0,1.533.725h16.62a1.983,1.983,0,0,0,1.532-.725,2.5,2.5,0,0,0,.646-1.721V345.413h17.346a1.987,1.987,0,0,0,1.533-.724,2.5,2.5,0,0,0,.645-1.722V328.382a2.5,2.5,0,0,0-.645-1.721,1.991,1.991,0,0,0-1.533-.725H116.245a1.985,1.985,0,0,0-1.533.725,2.5,2.5,0,0,0-.646,1.721v14.585Zm-15.181-94.39a11.121,11.121,0,0,0,11.106,11.136H309.9a11.122,11.122,0,0,0,11.106-11.136V230.76A11.121,11.121,0,0,0,309.9,219.625H109.991A11.12,11.12,0,0,0,98.885,230.76v17.817Zm0-60.132a11.12,11.12,0,0,0,11.106,11.135h45.534a11.12,11.12,0,0,0,11.106-11.135V170.628a11.121,11.121,0,0,0-11.106-11.136H109.991a11.121,11.121,0,0,0-11.106,11.136v17.817ZM199.949,48.136A11.121,11.121,0,0,0,188.843,37H109.991A11.121,11.121,0,0,0,98.885,48.136V65.953a11.121,11.121,0,0,0,11.106,11.136h78.852a11.121,11.121,0,0,0,11.106-11.136V48.136Zm-4.442,111.356A11.121,11.121,0,0,0,184.4,170.628v17.817a11.12,11.12,0,0,0,11.106,11.135H309.9a11.121,11.121,0,0,0,11.106-11.135V170.628A11.122,11.122,0,0,0,309.9,159.492H195.507ZM325,114.83L251.17,41C241.844,31.674,238,36.837,238,53v59a15,15,0,0,0,15,15h61C335.309,127,329.181,119.011,325,114.83Z"/>
</svg>
