<svg xmlns="http://www.w3.org/2000/svg" width="99.96" height="99.96" viewBox="0 0 420 420">
  <metadata><?xpacket begin="﻿" id="W5M0MpCehiHzreSzNTczkc9d"?>
<x:xmpmeta xmlns:x="adobe:ns:meta/" x:xmptk="Adobe XMP Core 5.6-c142 79.160924, 2017/07/13-01:06:39        ">
   <rdf:RDF xmlns:rdf="http://www.w3.org/1999/02/22-rdf-syntax-ns#">
      <rdf:Description rdf:about=""/>
   </rdf:RDF>
</x:xmpmeta>
                                                                                                    
                                                                                                    
                                                                                                    
                                                                                                    
                                                                                                    
                                                                                                    
                                                                                                    
                                                                                                    
                                                                                                    
                                                                                                    
                                                                                                    
                                                                                                    
                                                                                                    
                                                                                                    
                                                                                                    
                                                                                                    
                                                                                                    
                                                                                                    
                                                                                                    
                                                                                                    
                           
<?xpacket end="w"?></metadata>
<defs>
    <style>
      .cls-1 {
        fill-rule: evenodd;
      }
    </style>
  </defs>
  <path id="file_pdf" class="cls-1" d="M350,420H70a15,15,0,0,1-15-15V15A15,15,0,0,1,70,0H256a9.928,9.928,0,0,1,5.837,2.149l101.01,101.01A10.354,10.354,0,0,1,365,109V405A15,15,0,0,1,350,420ZM245.13,386.9a2.494,2.494,0,0,0,.645,1.721,1.982,1.982,0,0,0,1.533.725h17.427a1.986,1.986,0,0,0,1.533-.725,2.5,2.5,0,0,0,.645-1.721V368.967h26.463a1.986,1.986,0,0,0,1.532-.725,2.5,2.5,0,0,0,.646-1.721V352.842a2.505,2.505,0,0,0-.646-1.721,1.989,1.989,0,0,0-1.532-.725H266.913v-5.8H298.62a1.99,1.99,0,0,0,1.533-.725,2.5,2.5,0,0,0,.645-1.721v-13.77a2.509,2.509,0,0,0-.645-1.721,1.993,1.993,0,0,0-1.533-.725H247.308a1.988,1.988,0,0,0-1.533.725,2.5,2.5,0,0,0-.645,1.721V386.9Zm-64.462,0a2.5,2.5,0,0,0,.646,1.721,1.979,1.979,0,0,0,1.533.725h25.736q13.313,0,21.3-5.979,8.714-6.612,8.714-21.108v-9.24q0-9.33-4.034-15.582a22.3,22.3,0,0,0-10.569-8.878,41.2,41.2,0,0,0-15.41-2.627H182.847a1.985,1.985,0,0,0-1.533.725,2.5,2.5,0,0,0-.646,1.721V386.9Zm-61.177-60.243a2.5,2.5,0,0,0-.646,1.721V386.9a2.491,2.491,0,0,0,.646,1.721,1.979,1.979,0,0,0,1.532.725h17.346a1.983,1.983,0,0,0,1.533-.725,2.5,2.5,0,0,0,.646-1.721V369.511H151.2q13.554,0,19.2-5.753t5.647-15.536a20.957,20.957,0,0,0-6.7-16.035q-6.7-6.251-18.153-6.251H121.023A1.985,1.985,0,0,0,119.491,326.661ZM204,190.6c5.763-16.121,5.509-40.136,5.985-49.967-4.325-8.577-30.7,3.982-35.582,8.836-3.634,18.447,12.108,42.614,13.741,47.8-0.245,7.489-13.413,44.294-19.394,51.832-37.5,15.9-46.171,41.021-46.546,46.428,1.39,1.651,9.852,6.6,18.881,9.837,10.243,3.674,22.212,3.341,22.212,3.341,14.194-3.346,22.04-42.635,23.554-49.24,17.588-9.114,53.011-9.071,53.011-9.071a101.43,101.43,0,0,1,19,6.158c24.351,10.776,33.915-1,33.915-1s5.084-22.324,4.9-25.911c-3.314-11.326-52.14-1.016-60.4.02C218.578,221.083,205.755,196.683,204,190.6ZM325,114.83L251.17,41C241.844,31.674,238,36.837,238,53v59a15,15,0,0,0,15,15h61C335.309,127,329.181,119.011,325,114.83ZM283.488,251.889c-4.385,2.686-19.124-4.425-19.124-4.425S287.872,249.2,283.488,251.889ZM201.076,220.6c0.568,3.332,7.256,10.638,12.93,14.254a83.83,83.83,0,0,0-19.394,3.887C196.491,235.391,199.048,228.139,201.076,220.6Zm-2.585-69.972c3.144,0.793,3.676-7.209-2.586,23.324C195.723,174.835,195.138,151.923,198.491,150.624ZM141.6,293.16c-2.017-.7-10.955.685,16.809-24.62C158.41,268.54,144.663,291.557,141.6,293.16Zm13.469,54.79a5.018,5.018,0,0,1-1.17,3.533,3.927,3.927,0,0,1-3.025,1.268H140.628v-9.965h10.247a3.682,3.682,0,0,1,3.065,1.45A5.865,5.865,0,0,1,155.07,347.95ZM215,345.64a7.421,7.421,0,0,1,2.219,5.752v12.5A7.42,7.42,0,0,1,215,369.647a8.547,8.547,0,0,1-6.011,2.038h-7.341V343.6h7.341A8.542,8.542,0,0,1,215,345.64Z"/>
</svg>
