<svg xmlns="http://www.w3.org/2000/svg" width="99.96" height="99.96" viewBox="0 0 420 420">
  <metadata><?xpacket begin="﻿" id="W5M0MpCehiHzreSzNTczkc9d"?>
<x:xmpmeta xmlns:x="adobe:ns:meta/" x:xmptk="Adobe XMP Core 5.6-c142 79.160924, 2017/07/13-01:06:39        ">
   <rdf:RDF xmlns:rdf="http://www.w3.org/1999/02/22-rdf-syntax-ns#">
      <rdf:Description rdf:about=""/>
   </rdf:RDF>
</x:xmpmeta>
                                                                                                    
                                                                                                    
                                                                                                    
                                                                                                    
                                                                                                    
                                                                                                    
                                                                                                    
                                                                                                    
                                                                                                    
                                                                                                    
                                                                                                    
                                                                                                    
                                                                                                    
                                                                                                    
                                                                                                    
                                                                                                    
                                                                                                    
                                                                                                    
                                                                                                    
                                                                                                    
                           
<?xpacket end="w"?></metadata>
<defs>
    <style>
      .cls-1 {
        fill-rule: evenodd;
      }
    </style>
  </defs>
  <path id="file_html" class="cls-1" d="M350,420H70a15,15,0,0,1-15-15V15A15,15,0,0,1,70,0H256a9.928,9.928,0,0,1,5.837,2.149l101.01,101.01A10.354,10.354,0,0,1,365,109V405A15,15,0,0,1,350,420ZM213.261,387.542a2.484,2.484,0,0,0,.651,1.722,2,2,0,0,0,1.545.726h14.721a2.007,2.007,0,0,0,1.545-.726,2.488,2.488,0,0,0,.651-1.722V359.431l5.937,13.058a4.213,4.213,0,0,0,1.139,1.451,3.247,3.247,0,0,0,2.277.816h5.531a3.74,3.74,0,0,0,1.952-.59,3.642,3.642,0,0,0,1.464-1.677l5.937-13.058v28.111a2.484,2.484,0,0,0,.651,1.722,2,2,0,0,0,1.545.726h14.721a2.01,2.01,0,0,0,1.546-.726,2.492,2.492,0,0,0,.65-1.722V328.963a2.5,2.5,0,0,0-.65-1.723,2.017,2.017,0,0,0-1.546-.726H258.644a3.8,3.8,0,0,0-3.5,2.449l-10.654,21.763-10.655-21.763a3.805,3.805,0,0,0-3.5-2.449H215.457a2.01,2.01,0,0,0-1.545.726,2.49,2.49,0,0,0-.651,1.723v58.579Zm42.363-143.016a10.208,10.208,0,0,0-1.413,1.012,7.942,7.942,0,0,0-1.008.809,3.249,3.249,0,0,0-.807,2.529v16.386a2.059,2.059,0,0,0,.605,1.517,1.876,1.876,0,0,0,1.362.607,2.418,2.418,0,0,0,1.261-.3l42.37-27.311q2.923-1.92,2.925-4.248v-4.249q0-2.325-2.925-4.248l-42.37-27.31a2.408,2.408,0,0,0-1.261-.3,1.88,1.88,0,0,0-1.362.607,2.059,2.059,0,0,0-.605,1.517v16.387a6.272,6.272,0,0,0,.5,2.124,10.136,10.136,0,0,0,1.261,1.264,3.179,3.179,0,0,0,1.463.961L273.278,233.4ZM150.035,343.562a2.486,2.486,0,0,0,.651,1.723,2,2,0,0,0,1.545.725h17.487v41.532a2.487,2.487,0,0,0,.65,1.722,2.005,2.005,0,0,0,1.545.726h16.755a2.007,2.007,0,0,0,1.545-.726,2.488,2.488,0,0,0,.651-1.722V346.01H208.35a2.009,2.009,0,0,0,1.546-.725,2.494,2.494,0,0,0,.65-1.723v-14.6a2.5,2.5,0,0,0-.65-1.723,2.017,2.017,0,0,0-1.546-.726H152.231a2.01,2.01,0,0,0-1.545.726,2.49,2.49,0,0,0-.651,1.723v14.6Zm-38.876-14.6a2.494,2.494,0,0,0-.651-1.723,2.013,2.013,0,0,0-1.545-.726H92.209a2.011,2.011,0,0,0-1.545.726,2.491,2.491,0,0,0-.651,1.723v58.579a2.449,2.449,0,0,0,.651,1.768,2.067,2.067,0,0,0,1.545.68h16.754a2.007,2.007,0,0,0,1.545-.726,2.488,2.488,0,0,0,.651-1.722V368.227h16.267v19.315a2.487,2.487,0,0,0,.65,1.722,2.006,2.006,0,0,0,1.546.726h16.754a2.007,2.007,0,0,0,1.545-.726,2.488,2.488,0,0,0,.651-1.722V328.963a2.494,2.494,0,0,0-.651-1.723,2.013,2.013,0,0,0-1.545-.726H129.622a2.012,2.012,0,0,0-1.546.726,2.493,2.493,0,0,0-.65,1.723v18.589H111.159V328.963Zm57.563-80.087a5.444,5.444,0,0,0-.606-2.125,5.083,5.083,0,0,0-1.16-1.264,3.207,3.207,0,0,0-1.463-.961L147.839,233.4l17.654-11.127a10.279,10.279,0,0,0,1.413-1.011,7.974,7.974,0,0,0,1.009-.81,3.254,3.254,0,0,0,.807-2.528V201.537a2.06,2.06,0,0,0-.606-1.517,1.88,1.88,0,0,0-1.362-.607,2.4,2.4,0,0,0-1.261.3l-42.369,27.31q-2.928,1.923-2.926,4.248v4.249q0,2.328,2.926,4.248l42.369,27.311a2.413,2.413,0,0,0,1.261.3,1.876,1.876,0,0,0,1.362-.607,2.06,2.06,0,0,0,.606-1.517V248.876Zm67.953-55.336a2.038,2.038,0,0,0-1.492-.628H221.412a4.121,4.121,0,0,0-4.237,2.9l-34.184,78.11a2.946,2.946,0,0,0-.193,1.111,1.811,1.811,0,0,0,.626,1.255,2.036,2.036,0,0,0,1.493.627H198.4a4.222,4.222,0,0,0,4.237-2.9l34.474-78.111a3,3,0,0,0,.192-1.11A1.813,1.813,0,0,0,236.675,193.54ZM325,114.83L251.17,41C241.844,31.674,238,36.837,238,53v59a15,15,0,0,0,15,15h61C335.309,127,329.181,119.011,325,114.83Zm6,259.019a2.5,2.5,0,0,0-.651-1.723,2.014,2.014,0,0,0-1.545-.725H301.067V328.963a2.5,2.5,0,0,0-.65-1.723,2.015,2.015,0,0,0-1.545-.726H281.3a2.012,2.012,0,0,0-1.546.726,2.493,2.493,0,0,0-.65,1.723v58.579a2.487,2.487,0,0,0,.65,1.722,2.006,2.006,0,0,0,1.546.726h47.5a2.008,2.008,0,0,0,1.545-.726,2.493,2.493,0,0,0,.651-1.722V373.849Z"/>
</svg>
