<svg xmlns="http://www.w3.org/2000/svg" width="99.96" height="99.96" viewBox="0 0 420 420">
  <metadata><?xpacket begin="﻿" id="W5M0MpCehiHzreSzNTczkc9d"?>
<x:xmpmeta xmlns:x="adobe:ns:meta/" x:xmptk="Adobe XMP Core 5.6-c142 79.160924, 2017/07/13-01:06:39        ">
   <rdf:RDF xmlns:rdf="http://www.w3.org/1999/02/22-rdf-syntax-ns#">
      <rdf:Description rdf:about=""/>
   </rdf:RDF>
</x:xmpmeta>
                                                                                                    
                                                                                                    
                                                                                                    
                                                                                                    
                                                                                                    
                                                                                                    
                                                                                                    
                                                                                                    
                                                                                                    
                                                                                                    
                                                                                                    
                                                                                                    
                                                                                                    
                                                                                                    
                                                                                                    
                                                                                                    
                                                                                                    
                                                                                                    
                                                                                                    
                                                                                                    
                           
<?xpacket end="w"?></metadata>
<defs>
    <style>
      .cls-1 {
        fill-rule: evenodd;
      }
    </style>
  </defs>
  <path id="font" class="cls-1" d="M381.718,402H38.282A20.281,20.281,0,0,1,18,381.718V38.282A20.282,20.282,0,0,1,38.282,18H381.718A20.281,20.281,0,0,1,402,38.282V381.718A20.281,20.281,0,0,1,381.718,402ZM158.027,120.016h-25.18L65.016,296.129H89.835l19.4-53.339h73.854l20.6,53.339h26.626Zm189.489,160.8q-1.386-7.987-1.386-38.142V213.839q0-14.416-1.084-19.942a33.993,33.993,0,0,0-6.747-14.716q-4.819-5.826-15.06-9.671t-26.626-3.844q-16.507,0-29.036,4.5t-19.156,12.854q-6.627,8.352-9.518,21.924l21.205,2.883q3.492-13.574,10.783-18.92t22.59-5.346q16.383,0,24.7,7.328,6.144,5.406,6.145,18.62,0,1.2-.121,5.646-12.411,4.325-38.674,7.448a155.474,155.474,0,0,0-19.277,3.244,52.771,52.771,0,0,0-15.6,7.088,35.313,35.313,0,0,0-11.205,12.433,34.824,34.824,0,0,0-4.277,17.119q0,15.978,11.325,26.249T278.9,299.012a67.2,67.2,0,0,0,23.916-4.2q11.142-4.2,23.192-14.415a45.707,45.707,0,0,0,4.338,15.737H353A47.943,47.943,0,0,1,347.516,280.812Zm-41.144-4.2a44.807,44.807,0,0,1-22.289,5.466q-12.65,0-19.216-5.766a19.072,19.072,0,0,1-3.555-24.687,18.854,18.854,0,0,1,8.554-7.028q5.541-2.4,18.916-4.324,23.612-3.362,35.421-8.169v7.928q0,14.3-3.494,21.624A33.693,33.693,0,0,1,306.372,276.607ZM135.377,172.153a224.122,224.122,0,0,0,9.518-33.636q4.093,14.3,12.53,36.519l18.433,48.774H115.98Z"/>
</svg>
