<svg xmlns="http://www.w3.org/2000/svg" width="99.96" height="99.96" viewBox="0 0 420 420">
  <metadata><?xpacket begin="﻿" id="W5M0MpCehiHzreSzNTczkc9d"?>
<x:xmpmeta xmlns:x="adobe:ns:meta/" x:xmptk="Adobe XMP Core 5.6-c142 79.160924, 2017/07/13-01:06:39        ">
   <rdf:RDF xmlns:rdf="http://www.w3.org/1999/02/22-rdf-syntax-ns#">
      <rdf:Description rdf:about=""/>
   </rdf:RDF>
</x:xmpmeta>
                                                                                                    
                                                                                                    
                                                                                                    
                                                                                                    
                                                                                                    
                                                                                                    
                                                                                                    
                                                                                                    
                                                                                                    
                                                                                                    
                                                                                                    
                                                                                                    
                                                                                                    
                                                                                                    
                                                                                                    
                                                                                                    
                                                                                                    
                                                                                                    
                                                                                                    
                                                                                                    
                           
<?xpacket end="w"?></metadata>
<defs>
    <style>
      .cls-1 {
        fill-rule: evenodd;
      }
    </style>
  </defs>
  <path id="gmod" class="cls-1" d="M378.348,398H41.652A19.651,19.651,0,0,1,22,378.348V41.652A19.652,19.652,0,0,1,41.652,22h336.7A19.651,19.651,0,0,1,398,41.652v336.7A19.651,19.651,0,0,1,378.348,398ZM296,80.827H249.336v27.3S245.7,76.01,196.24,76.01c-20.549,0-77.231,12.653-77.231,93.132s38.761,96.344,80.449,96.344S249.336,241.4,249.336,241.4v28.9c0,26.222-18.845,40.143-48.269,40.143s-40.225-23.214-40.225-36.932H119.009c0,17.24,6.864,75.47,86.885,75.47S296,302.992,296,268.7V80.827ZM209.916,230.16c-22.659,0-41.029-25.162-41.029-56.2s18.37-56.2,41.029-56.2,41.029,25.162,41.029,56.2S232.576,230.16,209.916,230.16Z"/>
</svg>
