<svg xmlns="http://www.w3.org/2000/svg" width="99.96" height="99.96" viewBox="0 0 420 420">
  <metadata><?xpacket begin="﻿" id="W5M0MpCehiHzreSzNTczkc9d"?>
<x:xmpmeta xmlns:x="adobe:ns:meta/" x:xmptk="Adobe XMP Core 5.6-c142 79.160924, 2017/07/13-01:06:39        ">
   <rdf:RDF xmlns:rdf="http://www.w3.org/1999/02/22-rdf-syntax-ns#">
      <rdf:Description rdf:about=""/>
   </rdf:RDF>
</x:xmpmeta>
                                                                                                    
                                                                                                    
                                                                                                    
                                                                                                    
                                                                                                    
                                                                                                    
                                                                                                    
                                                                                                    
                                                                                                    
                                                                                                    
                                                                                                    
                                                                                                    
                                                                                                    
                                                                                                    
                                                                                                    
                                                                                                    
                                                                                                    
                                                                                                    
                                                                                                    
                                                                                                    
                           
<?xpacket end="w"?></metadata>
<defs>
    <style>
      .cls-1 {
        fill-rule: evenodd;
      }
    </style>
  </defs>
  <path id="h_battery_unknown" class="cls-1" d="M376.971,325H85.757a35.027,35.027,0,0,1-35.029-35.025V279.467H31.353A23.351,23.351,0,0,1,8,256.117v-89.9a23.351,23.351,0,0,1,23.353-23.35H50.728V130.025A35.027,35.027,0,0,1,85.757,95H376.971A35.027,35.027,0,0,1,412,130.025v159.95A35.027,35.027,0,0,1,376.971,325ZM366.462,160.381A23.352,23.352,0,0,0,343.11,137.03H117.757A23.352,23.352,0,0,0,94.4,160.381v99.238a23.352,23.352,0,0,0,23.352,23.351H343.11a23.352,23.352,0,0,0,23.352-23.351V160.381ZM239.394,219.036v6.776a9.748,9.748,0,0,1-9.707,9.789h-1.494a9.748,9.748,0,0,1-9.707-9.789V211.506c0-4.651,5.241-10.05,10.3-10.05,10.669,0,13.594-7.928,13.594-11.786s-1.9-11.294-11.447-11.294c-10.219,0-13.291,6.6-14.642,8.265a10.1,10.1,0,0,1-17.976-6.759,11.789,11.789,0,0,1,1.522-5.832,33.915,33.915,0,0,1,29.1-16c18.559,0,33.6,14.327,33.6,32C262.543,207.181,252.833,214.849,239.394,219.036ZM228.94,240.871a10.542,10.542,0,1,1-10.454,10.542A10.5,10.5,0,0,1,228.94,240.871Z"/>
</svg>
