<svg xmlns="http://www.w3.org/2000/svg" width="99.96" height="99.96" viewBox="0 0 420 420">
  <metadata><?xpacket begin="﻿" id="W5M0MpCehiHzreSzNTczkc9d"?>
<x:xmpmeta xmlns:x="adobe:ns:meta/" x:xmptk="Adobe XMP Core 5.6-c142 79.160924, 2017/07/13-01:06:39        ">
   <rdf:RDF xmlns:rdf="http://www.w3.org/1999/02/22-rdf-syntax-ns#">
      <rdf:Description rdf:about=""/>
   </rdf:RDF>
</x:xmpmeta>
                                                                                                    
                                                                                                    
                                                                                                    
                                                                                                    
                                                                                                    
                                                                                                    
                                                                                                    
                                                                                                    
                                                                                                    
                                                                                                    
                                                                                                    
                                                                                                    
                                                                                                    
                                                                                                    
                                                                                                    
                                                                                                    
                                                                                                    
                                                                                                    
                                                                                                    
                                                                                                    
                           
<?xpacket end="w"?></metadata>
<defs>
    <style>
      .cls-1 {
        fill-rule: evenodd;
      }
    </style>
  </defs>
  <path id="h_battery_charging" class="cls-1" d="M264.51,206.405c-2.9,4.138-36.214,51.516-40.794,58.017-1.092,1.4-3.58,1.734-3.115-1.272,1.61-10.413,4.643-29.807,6.9-44.241H197.783c-2.627,0-4.332-1.594-1.424-5.7s36.259-51.176,40.845-57.634c1.094-1.391,3.585-1.722,3.119,1.263-1.608,10.316-4.632,29.5-6.893,43.829h29.658C265.711,200.663,267.414,202.267,264.51,206.405ZM376.971,325H85.757a35.027,35.027,0,0,1-35.029-35.025V279.467H31.353A23.351,23.351,0,0,1,8,256.117v-89.9a23.351,23.351,0,0,1,23.353-23.35H50.728V130.025A35.027,35.027,0,0,1,85.757,95H376.971A35.027,35.027,0,0,1,412,130.025v159.95A35.027,35.027,0,0,1,376.971,325ZM366.462,160.381A23.352,23.352,0,0,0,343.11,137.03H117.757A23.352,23.352,0,0,0,94.4,160.381v99.238a23.352,23.352,0,0,0,23.352,23.351H343.11a23.352,23.352,0,0,0,23.352-23.351V160.381Z"/>
</svg>
