<svg xmlns="http://www.w3.org/2000/svg" width="99.96" height="99.96" viewBox="0 0 420 420">
  <metadata><?xpacket begin="﻿" id="W5M0MpCehiHzreSzNTczkc9d"?>
<x:xmpmeta xmlns:x="adobe:ns:meta/" x:xmptk="Adobe XMP Core 5.6-c142 79.160924, 2017/07/13-01:06:39        ">
   <rdf:RDF xmlns:rdf="http://www.w3.org/1999/02/22-rdf-syntax-ns#">
      <rdf:Description rdf:about=""/>
   </rdf:RDF>
</x:xmpmeta>
                                                                                                    
                                                                                                    
                                                                                                    
                                                                                                    
                                                                                                    
                                                                                                    
                                                                                                    
                                                                                                    
                                                                                                    
                                                                                                    
                                                                                                    
                                                                                                    
                                                                                                    
                                                                                                    
                                                                                                    
                                                                                                    
                                                                                                    
                                                                                                    
                                                                                                    
                                                                                                    
                           
<?xpacket end="w"?></metadata>
<defs>
    <style>
      .cls-1 {
        fill-rule: evenodd;
      }
    </style>
  </defs>
  <path id="regular" class="cls-1" d="M353.4,156.821L257.937,252.28a64.452,64.452,0,0,1-98.611-8.869l26.432-26.432a28.5,28.5,0,0,0,46.723,9.845l95.459-95.459A28.5,28.5,0,1,0,287.635,91.06l-39.553,39.553c-12.17-9.105-27.784-10.232-43.166-7.746L262.179,65.6A64.5,64.5,0,1,1,353.4,156.821Zm-98.057,13.2L229.754,195.61a28.506,28.506,0,0,0-43.235-3.434L91.06,287.635a28.5,28.5,0,1,0,40.305,40.305l41.53-41.53c13.814,9.257,28.735,10.911,43.377,7.535L156.821,353.4A64.5,64.5,0,1,1,65.6,262.179l95.459-95.459a64.5,64.5,0,0,1,91.217,0C253.351,167.791,254.359,168.9,255.339,170.025Z"/>
</svg>
