<svg xmlns="http://www.w3.org/2000/svg" width="99.96" height="99.96" viewBox="0 0 420 420">
  <metadata><?xpacket begin="﻿" id="W5M0MpCehiHzreSzNTczkc9d"?>
<x:xmpmeta xmlns:x="adobe:ns:meta/" x:xmptk="Adobe XMP Core 5.6-c142 79.160924, 2017/07/13-01:06:39        ">
   <rdf:RDF xmlns:rdf="http://www.w3.org/1999/02/22-rdf-syntax-ns#">
      <rdf:Description rdf:about=""/>
   </rdf:RDF>
</x:xmpmeta>
                                                                                                    
                                                                                                    
                                                                                                    
                                                                                                    
                                                                                                    
                                                                                                    
                                                                                                    
                                                                                                    
                                                                                                    
                                                                                                    
                                                                                                    
                                                                                                    
                                                                                                    
                                                                                                    
                                                                                                    
                                                                                                    
                                                                                                    
                                                                                                    
                                                                                                    
                                                                                                    
                           
<?xpacket end="w"?></metadata>
<defs>
    <style>
      .cls-1 {
        fill-rule: evenodd;
      }
    </style>
  </defs>
  <path id="mine" class="cls-1" d="M398.482,233.8h-40A150.772,150.772,0,0,1,233.8,360.252v38.214A15.534,15.534,0,0,1,218.267,414H202.733A15.534,15.534,0,0,1,187.2,398.466V360.578A150.766,150.766,0,0,1,60.439,233.8H22.551A15.534,15.534,0,0,1,7.016,218.26V202.726a15.534,15.534,0,0,1,15.534-15.534H60.777A150.766,150.766,0,0,1,187.2,62.493V22.534A15.534,15.534,0,0,1,202.733,7h15.534A15.534,15.534,0,0,1,233.8,22.534V62.819A150.773,150.773,0,0,1,358.152,187.192h40.33a15.534,15.534,0,0,1,15.534,15.534V218.26A15.534,15.534,0,0,1,398.482,233.8Zm-59.121-119.2a163.035,163.035,0,0,0-32.953-32.954l20.527-20.527a15.535,15.535,0,0,1,21.969,0L359.888,72.1a15.534,15.534,0,0,1,0,21.969ZM80.477,113.4L61.132,94.06a15.534,15.534,0,0,1,0-21.969L72.117,61.107a15.534,15.534,0,0,1,21.969,0l19.647,19.647A163.008,163.008,0,0,0,80.477,113.4ZM79.567,308.479a162.99,162.99,0,0,0,32.954,32.954L94.065,359.888a15.533,15.533,0,0,1-21.969,0L61.112,348.9a15.535,15.535,0,0,1,0-21.969Zm260.679-1.212,19.663,19.663a15.534,15.534,0,0,1,0,21.969l-10.984,10.985a15.535,15.535,0,0,1-21.969,0L307.6,340.523A163.024,163.024,0,0,0,340.246,307.267Z"/>
</svg>
