<svg xmlns="http://www.w3.org/2000/svg" width="99.96" height="99.96" viewBox="0 0 420 420">
  <metadata><?xpacket begin="﻿" id="W5M0MpCehiHzreSzNTczkc9d"?>
<x:xmpmeta xmlns:x="adobe:ns:meta/" x:xmptk="Adobe XMP Core 5.6-c142 79.160924, 2017/07/13-01:06:39        ">
   <rdf:RDF xmlns:rdf="http://www.w3.org/1999/02/22-rdf-syntax-ns#">
      <rdf:Description rdf:about=""/>
   </rdf:RDF>
</x:xmpmeta>
                                                                                                    
                                                                                                    
                                                                                                    
                                                                                                    
                                                                                                    
                                                                                                    
                                                                                                    
                                                                                                    
                                                                                                    
                                                                                                    
                                                                                                    
                                                                                                    
                                                                                                    
                                                                                                    
                                                                                                    
                                                                                                    
                                                                                                    
                                                                                                    
                                                                                                    
                                                                                                    
                           
<?xpacket end="w"?></metadata>
<defs>
    <style>
      .cls-1 {
        fill-rule: evenodd;
      }
    </style>
  </defs>
  <path id="minecraft" class="cls-1" d="M367.871,320.9L220.72,397.578c-6.219,3.241-16.3,3.241-22.523,0L51.047,320.9C53.812,322.337,40,312.79,40,303.339V115.331C40,103.049,60.489,94.6,51.682,99.194L198.936,22.423c6.224-3.245,16.315-3.245,22.539,0L368.686,99.171c3.448,2.206,11.314,8.261,11.314,16.16V303.339C380,314.048,362.7,323.594,367.871,320.9ZM348.125,133.653c0-6.447-6.391-11.389-9.192-13.189l0.035,0.018-0.038-.02c-1.467-.943-1.945-1.021,0,0l0,0L219.324,57.827c-5.057-2.648-13.256-2.648-18.313,0L81.366,120.482c7.156-3.747-9.491,3.147-9.491,13.171v99.122c0.128,2.648.957,7.763,5.313,10.019,5.876,3.044,19.125,9.56,19.125,9.56s3.188,1.653,3.188-2.125V226.861s-0.778-5.347,5.312-2.124c6.37,3.37,18.063,9.56,18.063,9.56s4.25,3.2,4.25-2.125V209.866s-1.114-6.483,7.437-2.124,65.718,32.894,70.125,35.052,5.313,2.479,5.313,9.56V273.6s0.567,3.425,5.312,1.062c6.337-3.155,19.125-9.56,19.125-9.56s3.188-1.708,3.188-8.5V235.359s-0.89-3.4,3.187-5.311,74.375-37.177,74.375-37.177,5.313-3.185,5.313,3.187v52.047s1.139,5.245,5.312,3.187c6.676-3.292,18.01-8.863,19.125-9.56s3.118-1.978,3.188-6.373V133.653Zm20.558-34.484C366.29,97.918,366.877,98.014,368.683,99.169Zm0.047,0.025-0.044-.023,0,0Z"/>
</svg>
