<svg xmlns="http://www.w3.org/2000/svg" width="99.96" height="99.96" viewBox="0 0 420 420">
  <metadata><?xpacket begin="﻿" id="W5M0MpCehiHzreSzNTczkc9d"?>
<x:xmpmeta xmlns:x="adobe:ns:meta/" x:xmptk="Adobe XMP Core 5.6-c142 79.160924, 2017/07/13-01:06:39        ">
   <rdf:RDF xmlns:rdf="http://www.w3.org/1999/02/22-rdf-syntax-ns#">
      <rdf:Description rdf:about=""/>
   </rdf:RDF>
</x:xmpmeta>
                                                                                                    
                                                                                                    
                                                                                                    
                                                                                                    
                                                                                                    
                                                                                                    
                                                                                                    
                                                                                                    
                                                                                                    
                                                                                                    
                                                                                                    
                                                                                                    
                                                                                                    
                                                                                                    
                                                                                                    
                                                                                                    
                                                                                                    
                                                                                                    
                                                                                                    
                                                                                                    
                           
<?xpacket end="w"?></metadata>
<defs>
    <style>
      .cls-1 {
        fill-rule: evenodd;
      }
    </style>
  </defs>
  <path id="mushroom" class="cls-1" d="M327.466,325.721c-2.476,9.259-6.321,22.981-9.459,31.279-7.288,19.277-34.168,43.1-104.514,43.961,0.065,0-3.356.03-5.438,0.014C136.565,400.434,109.344,376.411,102,357c-3.092-8.173-6.87-21.6-9.351-30.854-56.124-29.7-72.569-83.116-67.8-129.8,10.1-98.929,96.372-176.077,182.04-177.33,2.1-.031,4.486-0.011,5.29,0,85.663,1.291,171.87,78.433,181.974,177.345C398.893,242.776,383.678,293.306,327.466,325.721ZM339.5,271c-12.979,0-23.5-29.1-23.5-65s10.521-65,23.5-65S363,170.1,363,206,352.479,271,339.5,271ZM209.642,374c-0.024,0-.048,0-0.071,0s-0.047,0-.071,0c-51.508,0-88.5-12.42-88.5-71,0,0-.731-31,88.5-31h0.142C298.728,272,298,303,298,303,298,361.58,261.067,374,209.642,374ZM209.49,235c-48.325,0-87.5-40.294-87.5-90s39.175-90,87.5-90,87.5,40.294,87.5,90S257.815,235,209.49,235ZM79.5,271C66.521,271,56,241.9,56,206s10.521-65,23.5-65S103,170.1,103,206,92.479,271,79.5,271Zm95.114,27a8.614,8.614,0,0,1,8.614,8.614v34.772a8.614,8.614,0,0,1-17.228,0V306.614A8.614,8.614,0,0,1,174.614,298Zm69.772,0A8.614,8.614,0,0,1,253,306.614v34.772a8.614,8.614,0,0,1-17.228,0V306.614A8.614,8.614,0,0,1,244.386,298Z"/>
</svg>
