<svg xmlns="http://www.w3.org/2000/svg" width="99.96" height="99.96" viewBox="0 0 420 420">
  <metadata><?xpacket begin="﻿" id="W5M0MpCehiHzreSzNTczkc9d"?>
<x:xmpmeta xmlns:x="adobe:ns:meta/" x:xmptk="Adobe XMP Core 5.6-c142 79.160924, 2017/07/13-01:06:39        ">
   <rdf:RDF xmlns:rdf="http://www.w3.org/1999/02/22-rdf-syntax-ns#">
      <rdf:Description rdf:about=""/>
   </rdf:RDF>
</x:xmpmeta>
                                                                                                    
                                                                                                    
                                                                                                    
                                                                                                    
                                                                                                    
                                                                                                    
                                                                                                    
                                                                                                    
                                                                                                    
                                                                                                    
                                                                                                    
                                                                                                    
                                                                                                    
                                                                                                    
                                                                                                    
                                                                                                    
                                                                                                    
                                                                                                    
                                                                                                    
                                                                                                    
                           
<?xpacket end="w"?></metadata>
<defs>
    <style>
      .cls-1 {
        fill-rule: evenodd;
      }
    </style>
  </defs>
  <path id="music" class="cls-1" d="M381.983,402H39.017A20.018,20.018,0,0,1,19,381.982V39.017A20.017,20.017,0,0,1,39.017,19H381.983A20.017,20.017,0,0,1,402,39.017V381.982A20.017,20.017,0,0,1,381.983,402ZM307.212,72.974L154.278,128.585c-9.282,3.375-16.806,14.624-16.806,25.126v17.113a18.855,18.855,0,0,0,.541,4.515V279.333c0,11.519-3.65,17.867-8.942,17.867H116.552c-22.718,0-37.558,12.986-37.558,26.8s14.84,25.015,37.558,25.015S157.686,332.954,157.686,324V190.035c0-6.051,4.238-9.191,8.4-10.6,3.614-1.225,128.487-46.726,131.811-47.925s6.441-.048,6.441,2.936v100.22c0,11.519-3.65,17.868-8.943,17.868H282.878c-22.718,0-37.557,12.985-37.557,26.8s14.839,25.015,37.557,25.015,41.135-16.064,41.135-25.015V109.589c0,4.781,0-23.712,0-23.712C324.018,75.376,316.494,69.6,307.212,72.974Z"/>
</svg>
