<svg xmlns="http://www.w3.org/2000/svg" width="99.96" height="99.96" viewBox="0 0 420 420">
  <metadata><?xpacket begin="﻿" id="W5M0MpCehiHzreSzNTczkc9d"?>
<x:xmpmeta xmlns:x="adobe:ns:meta/" x:xmptk="Adobe XMP Core 5.6-c142 79.160924, 2017/07/13-01:06:39        ">
   <rdf:RDF xmlns:rdf="http://www.w3.org/1999/02/22-rdf-syntax-ns#">
      <rdf:Description rdf:about=""/>
   </rdf:RDF>
</x:xmpmeta>
                                                                                                    
                                                                                                    
                                                                                                    
                                                                                                    
                                                                                                    
                                                                                                    
                                                                                                    
                                                                                                    
                                                                                                    
                                                                                                    
                                                                                                    
                                                                                                    
                                                                                                    
                                                                                                    
                                                                                                    
                                                                                                    
                                                                                                    
                                                                                                    
                                                                                                    
                                                                                                    
                           
<?xpacket end="w"?></metadata>
<defs>
    <style>
      .cls-1 {
        fill-rule: evenodd;
      }
    </style>
  </defs>
  <path id="pencil" class="cls-1" d="M376.943,104.881L350.82,131.054l-13.366,13.391-1.215,1.218L275.488,84.794l1.215-1.217,13.365-13.391,26.123-26.174a10.3,10.3,0,0,1,14.581,0l46.171,46.26A10.345,10.345,0,0,1,376.943,104.881Zm-74.117,74.26L112.675,369.66a4.284,4.284,0,0,1-3.736,1.2,4.458,4.458,0,0,1-1.939.8l-60.544,8.351c-1.944.268-5.735-3.53-5.468-5.478l8.335-60.661a4.738,4.738,0,0,1,1.392-2.653,4.285,4.285,0,0,1,1.209-2.425L242.075,118.272l11.543-11.565,3.037-3.044,60.751,60.869-3.037,3.044Z"/>
</svg>
