<svg xmlns="http://www.w3.org/2000/svg" width="99.96" height="99.96" viewBox="0 0 420 420">
  <metadata><?xpacket begin="﻿" id="W5M0MpCehiHzreSzNTczkc9d"?>
<x:xmpmeta xmlns:x="adobe:ns:meta/" x:xmptk="Adobe XMP Core 5.6-c142 79.160924, 2017/07/13-01:06:39        ">
   <rdf:RDF xmlns:rdf="http://www.w3.org/1999/02/22-rdf-syntax-ns#">
      <rdf:Description rdf:about=""/>
   </rdf:RDF>
</x:xmpmeta>
                                                                                                    
                                                                                                    
                                                                                                    
                                                                                                    
                                                                                                    
                                                                                                    
                                                                                                    
                                                                                                    
                                                                                                    
                                                                                                    
                                                                                                    
                                                                                                    
                                                                                                    
                                                                                                    
                                                                                                    
                                                                                                    
                                                                                                    
                                                                                                    
                                                                                                    
                                                                                                    
                           
<?xpacket end="w"?></metadata>
<defs>
    <style>
      .cls-1 {
        fill-rule: evenodd;
      }
    </style>
  </defs>
  <path id="person_yoga" class="cls-1" d="M54.25,331.92c-8.23-8.215-20.533-21.792-31.006-33-18.968-20.3-4.477-18.1,6.136-18.1H92.01l-5.583,10.216c-5.909,10.217,0,27.536,10.235,33.435s28.127,7.186,40.009-11.145l18.608-31.577,105.138-.929,12.1,18.575c5.923,9.877,16.486,18.554,33.5,13l3.722,5.572c6.6,9.789,24.752,13.539,36.287,5.573,9.719-6.712,16.714-17.838,10.234-34.363l-5.582-8.359s4.762-1.107,9.305,3.428c7.85,7.835,26.474,29.255,39.852,42.608,12.631,12.608,3.686,13.4-7.246,13.4H77.657C65.311,340.265,60.825,338.483,54.25,331.92Zm288.809-13.044a21.424,21.424,0,0,1-29.7-5.8l-5.44-8.072a21.416,21.416,0,0,1-28.055-6.788l-53.478-79.34-59.54,29.849-36.763,63.559a21.39,21.39,0,0,1-37.065-21.361l35.637-61.611-0.535-1.049a40.864,40.864,0,1,1-.958-59.243l74-36.706c22.849-11.4,47.218-4.5,56.408,13.877l15.976,31.28,75.327,111.757A21.337,21.337,0,0,1,343.059,318.876ZM52.026,200.051l-13.6-2.032a21.362,21.362,0,1,1,6.336-42.251l27.982,4.181A47.289,47.289,0,0,0,52,199.1C52,199.418,52.02,199.733,52.026,200.051Z"/>
</svg>
