<svg xmlns="http://www.w3.org/2000/svg" width="99.96" height="99.96" viewBox="0 0 420 420">
  <metadata><?xpacket begin="﻿" id="W5M0MpCehiHzreSzNTczkc9d"?>
<x:xmpmeta xmlns:x="adobe:ns:meta/" x:xmptk="Adobe XMP Core 5.6-c142 79.160924, 2017/07/13-01:06:39        ">
   <rdf:RDF xmlns:rdf="http://www.w3.org/1999/02/22-rdf-syntax-ns#">
      <rdf:Description rdf:about=""/>
   </rdf:RDF>
</x:xmpmeta>
                                                                                                    
                                                                                                    
                                                                                                    
                                                                                                    
                                                                                                    
                                                                                                    
                                                                                                    
                                                                                                    
                                                                                                    
                                                                                                    
                                                                                                    
                                                                                                    
                                                                                                    
                                                                                                    
                                                                                                    
                                                                                                    
                                                                                                    
                                                                                                    
                                                                                                    
                                                                                                    
                           
<?xpacket end="w"?></metadata>
<defs>
    <style>
      .cls-1 {
        fill-rule: evenodd;
      }
    </style>
  </defs>
  <path id="person_lift" class="cls-1" d="M326.525,228.536a21.427,21.427,0,0,1-29.232-7.815l-16.824-29.073v66.679c0,0.105-.013.206-0.015,0.31,0.006,0.206.015,0.412,0.015,0.619V384.635a21.4,21.4,0,0,1-42.8,0V272.258H217.2V384.635a21.4,21.4,0,0,1-42.8,0V259.256c0-.207.01-0.413,0.015-0.619,0-.1-0.015-0.2-0.015-0.31v-33.9h0V144.37l-39.456-10.553c-9.983-2.71-18.609-8.494-19.9-18.575l-0.139-1.643c-0.018-.361-0.054-0.717-0.054-1.082a36.282,36.282,0,0,0-.434-4.708l-3.352-39.776c0-.051,0-0.1,0-0.152l-5.027.627,2.978,25.219a3.285,3.285,0,0,1-2.844,3.661l-9.689,1.175a3.261,3.261,0,0,1-3.616-2.878L89.891,70.49a6.958,6.958,0,0,1-1.628-13.783L85.337,31.933a3.285,3.285,0,0,1,2.844-3.661L97.87,27.1a3.26,3.26,0,0,1,3.615,2.878l2.917,24.7,11-1.37a21.351,21.351,0,0,1,30.287-3.774l11.4-1.421-2.9-24.532a3.285,3.285,0,0,1,2.843-3.661l9.689-1.175a3.261,3.261,0,0,1,3.616,2.878l2.89,24.478,1.372-.171a6.966,6.966,0,1,1,1.729,13.824l-1.467.183,3,25.437a3.285,3.285,0,0,1-2.843,3.661L165.333,90.2a3.261,3.261,0,0,1-3.616-2.878l-3-25.384-5.254.655c0.1,0.61.2,1.226,0.251,1.855l2.6,30.853,29.962,8.014c6.731,0.563,12.339,1.153,16.985,1.769h63.249c0.076,0,.15.01,0.226,0.011a21.4,21.4,0,0,1,19.237,10.662l48.382,83.61A21.323,21.323,0,0,1,326.525,228.536ZM239.531,98.586A41.793,41.793,0,1,1,281.4,56.793,41.832,41.832,0,0,1,239.531,98.586Z"/>
</svg>
