<svg xmlns="http://www.w3.org/2000/svg" width="99.96" height="99.96" viewBox="0 0 420 420">
  <metadata><?xpacket begin="﻿" id="W5M0MpCehiHzreSzNTczkc9d"?>
<x:xmpmeta xmlns:x="adobe:ns:meta/" x:xmptk="Adobe XMP Core 5.6-c142 79.160924, 2017/07/13-01:06:39        ">
   <rdf:RDF xmlns:rdf="http://www.w3.org/1999/02/22-rdf-syntax-ns#">
      <rdf:Description rdf:about=""/>
   </rdf:RDF>
</x:xmpmeta>
                                                                                                    
                                                                                                    
                                                                                                    
                                                                                                    
                                                                                                    
                                                                                                    
                                                                                                    
                                                                                                    
                                                                                                    
                                                                                                    
                                                                                                    
                                                                                                    
                                                                                                    
                                                                                                    
                                                                                                    
                                                                                                    
                                                                                                    
                                                                                                    
                                                                                                    
                                                                                                    
                           
<?xpacket end="w"?></metadata>
<defs>
    <style>
      .cls-1 {
        fill-rule: evenodd;
      }
    </style>
  </defs>
  <path id="pi_symbol" class="cls-1" d="M382.2,397H37.8A14.8,14.8,0,0,1,23,382.2V37.8A14.8,14.8,0,0,1,37.8,23H382.2A14.8,14.8,0,0,1,397,37.8V382.2A14.8,14.8,0,0,1,382.2,397ZM334.01,113.656a16.632,16.632,0,0,0-16.622-16.643H104.633a16.632,16.632,0,0,0-16.621,16.643v6.657a16.632,16.632,0,0,0,16.621,16.642h28.811V313.367a16.632,16.632,0,0,0,16.621,16.642h6.649a16.631,16.631,0,0,0,16.621-16.642V136.955h47.649V247.906c0,0.188.022,0.371,0.028,0.558-0.011.553-.028,1.1-0.028,1.661a79.833,79.833,0,0,0,79.783,79.884v-0.028c0.186,0,.367.028,0.554,0.028a20.526,20.526,0,0,0,0-41.051c-0.187,0-.368.023-0.554,0.028v-0.028h-0.554a39.363,39.363,0,0,1-39.338-39.388V136.955h56.513a16.632,16.632,0,0,0,16.622-16.642v-6.657Z"/>
</svg>
