<svg xmlns="http://www.w3.org/2000/svg" width="99.96" height="99.96" viewBox="0 0 420 420">
  <metadata><?xpacket begin="﻿" id="W5M0MpCehiHzreSzNTczkc9d"?>
<x:xmpmeta xmlns:x="adobe:ns:meta/" x:xmptk="Adobe XMP Core 5.6-c142 79.160924, 2017/07/13-01:06:39        ">
   <rdf:RDF xmlns:rdf="http://www.w3.org/1999/02/22-rdf-syntax-ns#">
      <rdf:Description rdf:about=""/>
   </rdf:RDF>
</x:xmpmeta>
                                                                                                    
                                                                                                    
                                                                                                    
                                                                                                    
                                                                                                    
                                                                                                    
                                                                                                    
                                                                                                    
                                                                                                    
                                                                                                    
                                                                                                    
                                                                                                    
                                                                                                    
                                                                                                    
                                                                                                    
                                                                                                    
                                                                                                    
                                                                                                    
                                                                                                    
                                                                                                    
                           
<?xpacket end="w"?></metadata>
<defs>
    <style>
      .cls-1 {
        fill-rule: evenodd;
      }
    </style>
  </defs>
  <path id="remove_file" class="cls-1" d="M350,420H70a15,15,0,0,1-15-15V15A15,15,0,0,1,70,0H256a9.928,9.928,0,0,1,5.837,2.149l101.01,101.01A10.354,10.354,0,0,1,365,109V405A15,15,0,0,1,350,420ZM153.835,335.255A7.755,7.755,0,0,0,161.6,343h96.282a7.754,7.754,0,0,0,7.765-7.745V196.37a7.754,7.754,0,0,0-7.765-7.745H161.6a7.755,7.755,0,0,0-7.765,7.745V335.255ZM219.059,153H200.941a7.764,7.764,0,0,0-7.114,4.647H151.765A7.754,7.754,0,0,0,144,165.391v5.68a7.754,7.754,0,0,0,7.765,7.744h116.47A7.754,7.754,0,0,0,276,171.071v-5.68a7.754,7.754,0,0,0-7.765-7.744H226.173A7.765,7.765,0,0,0,219.059,153ZM325,114.83L251.17,41C241.844,31.674,238,36.837,238,53v59a15,15,0,0,0,15,15h61C335.309,127,329.181,119.011,325,114.83Z"/>
</svg>
