<svg xmlns="http://www.w3.org/2000/svg" width="99.96" height="99.96" viewBox="0 0 420 420">
  <metadata><?xpacket begin="﻿" id="W5M0MpCehiHzreSzNTczkc9d"?>
<x:xmpmeta xmlns:x="adobe:ns:meta/" x:xmptk="Adobe XMP Core 5.6-c142 79.160924, 2017/07/13-01:06:39        ">
   <rdf:RDF xmlns:rdf="http://www.w3.org/1999/02/22-rdf-syntax-ns#">
      <rdf:Description rdf:about=""/>
   </rdf:RDF>
</x:xmpmeta>
                                                                                                    
                                                                                                    
                                                                                                    
                                                                                                    
                                                                                                    
                                                                                                    
                                                                                                    
                                                                                                    
                                                                                                    
                                                                                                    
                                                                                                    
                                                                                                    
                                                                                                    
                                                                                                    
                                                                                                    
                                                                                                    
                                                                                                    
                                                                                                    
                                                                                                    
                                                                                                    
                           
<?xpacket end="w"?></metadata>
<defs>
    <style>
      .cls-1 {
        fill-rule: evenodd;
      }
    </style>
  </defs>
  <path id="square_checkbox_false" class="cls-1" d="M382.2,397H37.8A14.8,14.8,0,0,1,23,382.2V37.8A14.8,14.8,0,0,1,37.8,23H382.2A14.8,14.8,0,0,1,397,37.8V382.2A14.8,14.8,0,0,1,382.2,397ZM314.31,150.9a32.124,32.124,0,1,0-45.391-45.47l-58.8,58.9-58.8-58.9a32.124,32.124,0,0,0-45.39,45.47l58.8,58.9-58.8,58.9a32.124,32.124,0,1,0,45.39,45.469l58.8-58.9,58.8,58.9a32.124,32.124,0,1,0,45.391-45.469l-58.8-58.9Z"/>
</svg>
