<svg xmlns="http://www.w3.org/2000/svg" width="99.96" height="99.96" viewBox="0 0 420 420">
  <metadata><?xpacket begin="﻿" id="W5M0MpCehiHzreSzNTczkc9d"?>
<x:xmpmeta xmlns:x="adobe:ns:meta/" x:xmptk="Adobe XMP Core 5.6-c142 79.160924, 2017/07/13-01:06:39        ">
   <rdf:RDF xmlns:rdf="http://www.w3.org/1999/02/22-rdf-syntax-ns#">
      <rdf:Description rdf:about=""/>
   </rdf:RDF>
</x:xmpmeta>
                                                                                                    
                                                                                                    
                                                                                                    
                                                                                                    
                                                                                                    
                                                                                                    
                                                                                                    
                                                                                                    
                                                                                                    
                                                                                                    
                                                                                                    
                                                                                                    
                                                                                                    
                                                                                                    
                                                                                                    
                                                                                                    
                                                                                                    
                                                                                                    
                                                                                                    
                                                                                                    
                           
<?xpacket end="w"?></metadata>
<defs>
    <style>
      .cls-1 {
        fill-rule: evenodd;
      }
    </style>
  </defs>
  <path id="tachometer" class="cls-1" d="M385,317H249.768a42.726,42.726,0,0,0,2.769-30.918c21.947-25.639,67.465-82.364,60.348-89.474-7.149-7.141-64.8,38.378-90.445,60.041A42.785,42.785,0,0,0,173.042,317H36a15,15,0,0,1-15-15V292c0-.222.024-0.437,0.033-0.656C22.232,187.675,106.589,104,210.5,104s188.269,83.675,189.467,187.344c0.009,0.219.033,0.434,0.033,0.656v10A15,15,0,0,1,385,317ZM52,293.234a15.483,15.483,0,1,0,15.483-15.448A15.466,15.466,0,0,0,52,293.234Zm34.517-83.182A15.448,15.448,0,1,0,102,225.5,15.465,15.465,0,0,0,86.517,210.052ZM138.9,155.39a15.448,15.448,0,1,0,15.483,15.448A15.465,15.465,0,0,0,138.9,155.39ZM211.409,134a15.447,15.447,0,1,0,15.47,15.447A15.459,15.459,0,0,0,211.409,134Zm73.751,21.39a15.448,15.448,0,1,0,15.465,15.448A15.456,15.456,0,0,0,285.16,155.39ZM337.5,210.052A15.448,15.448,0,1,0,352.967,225.5,15.456,15.456,0,0,0,337.5,210.052Zm19.033,67.734A15.448,15.448,0,1,0,372,293.234,15.456,15.456,0,0,0,356.535,277.786ZM191.674,297.764A19.284,19.284,0,1,1,210.958,317,19.261,19.261,0,0,1,191.674,297.764Z"/>
</svg>
