<svg xmlns="http://www.w3.org/2000/svg" width="99.96" height="99.96" viewBox="0 0 420 420">
  <metadata><?xpacket begin="﻿" id="W5M0MpCehiHzreSzNTczkc9d"?>
<x:xmpmeta xmlns:x="adobe:ns:meta/" x:xmptk="Adobe XMP Core 5.6-c142 79.160924, 2017/07/13-01:06:39        ">
   <rdf:RDF xmlns:rdf="http://www.w3.org/1999/02/22-rdf-syntax-ns#">
      <rdf:Description rdf:about=""/>
   </rdf:RDF>
</x:xmpmeta>
                                                                                                    
                                                                                                    
                                                                                                    
                                                                                                    
                                                                                                    
                                                                                                    
                                                                                                    
                                                                                                    
                                                                                                    
                                                                                                    
                                                                                                    
                                                                                                    
                                                                                                    
                                                                                                    
                                                                                                    
                                                                                                    
                                                                                                    
                                                                                                    
                                                                                                    
                                                                                                    
                           
<?xpacket end="w"?></metadata>
<defs>
    <style>
      .cls-1 {
        fill-rule: evenodd;
      }
    </style>
  </defs>
  <path id="timer" class="cls-1" d="M366.522,123.616a196.151,196.151,0,0,0-36.664-36.427L346.24,72.842c2.616-2.29,7.1-1.718,10.058,1.243l23.489,23.522c2.94,2.944,3.475,7.385,1.161,9.959Zm-116.6-76.249H173.076a8.162,8.162,0,0,1-8.176-8.148V13.147A8.162,8.162,0,0,1,173.076,5h76.848a8.162,8.162,0,0,1,8.176,8.147V39.219A8.162,8.162,0,0,1,249.924,47.367ZM384,242.09C384,337.033,306.769,414,211.5,414S39,337.033,39,242.09,116.231,70.179,211.5,70.179,384,147.146,384,242.09Zm-252.892-86.7c-6.6,6.061,48.43,76.339,48.073,84.582a32.166,32.166,0,0,0,8.784,23.526,33.231,33.231,0,0,0,46.539,1.671,32.217,32.217,0,0,0,1.693-45.944,32.994,32.994,0,0,0-21.825-10.294C205.6,208.327,138.056,149.01,131.108,155.388Z"/>
</svg>
