<svg xmlns="http://www.w3.org/2000/svg" width="99.96" height="99.96" viewBox="0 0 420 420">
  <metadata><?xpacket begin="﻿" id="W5M0MpCehiHzreSzNTczkc9d"?>
<x:xmpmeta xmlns:x="adobe:ns:meta/" x:xmptk="Adobe XMP Core 5.6-c142 79.160924, 2017/07/13-01:06:39        ">
   <rdf:RDF xmlns:rdf="http://www.w3.org/1999/02/22-rdf-syntax-ns#">
      <rdf:Description rdf:about=""/>
   </rdf:RDF>
</x:xmpmeta>
                                                                                                    
                                                                                                    
                                                                                                    
                                                                                                    
                                                                                                    
                                                                                                    
                                                                                                    
                                                                                                    
                                                                                                    
                                                                                                    
                                                                                                    
                                                                                                    
                                                                                                    
                                                                                                    
                                                                                                    
                                                                                                    
                                                                                                    
                                                                                                    
                                                                                                    
                                                                                                    
                           
<?xpacket end="w"?></metadata>
<defs>
    <style>
      .cls-1 {
        fill-rule: evenodd;
      }
    </style>
  </defs>
  <path id="triforce" class="cls-1" d="M405.755,357.139c-0.045.368-.108,0.728-0.166,1.093a31.545,31.545,0,0,1-1.236,5.17c-0.044.128-.094,0.252-0.139,0.379A31.518,31.518,0,0,1,374.475,385h-126.1c-0.112,0-.216-0.032-0.327-0.033-0.221,0-.444-0.039-0.665-0.046-0.507-.015-1.008-0.064-1.512-0.1a30.922,30.922,0,0,1-4.549-.676c-0.118-.027-0.239-0.042-0.356-0.071-0.25-.06-0.5-0.081-0.751-0.148-0.289-.078-0.536-0.227-0.821-0.312a31.523,31.523,0,0,1-4.55-1.731c-0.447-.213-0.875-0.444-1.309-0.677a31.642,31.642,0,0,1-4.028-2.55c-0.339-.255-0.664-0.516-0.991-0.783a31.554,31.554,0,0,1-3.653-3.477c-0.179-.2-0.352-0.407-0.526-0.615a31.244,31.244,0,0,1-3.145-4.428c-0.077-.132-0.148-0.265-0.223-0.4-0.181-.319-0.29-0.687-0.461-1.013-0.317-.512-0.555-1.082-0.844-1.614-0.345-.636-0.7-1.257-1-1.913a34.279,34.279,0,0,1-2.848-11.274c-0.006-.106.014-0.208,0.009-0.313a31.588,31.588,0,0,1,.229-5.874c0.032-.233.117-0.45,0.154-0.682a31.483,31.483,0,0,1,3.751-10.847l63.05-109.592c0.056-.1.135-0.171,0.192-0.267a31.573,31.573,0,0,1,4.818-6.285c0.317-.318.692-0.534,1.019-0.835,0.55-.511,1.159-0.961,1.751-1.436a31.426,31.426,0,0,1,3.286-2.369c0.2-.125.364-0.293,0.572-0.413a31.679,31.679,0,0,1,3.381-1.675c0.34-.144.682-0.27,1.026-0.4a31.226,31.226,0,0,1,5.08-1.511c0.132-.026.264-0.044,0.4-0.069a31.47,31.47,0,0,1,33.181,15.237L400.761,335.4c0.056,0.1.08,0.2,0.135,0.3,0.2,0.358.355,0.75,0.544,1.117l0.364,0.632c0.056,0.1.081,0.2,0.135,0.3,0.134,0.239.2,0.522,0.33,0.766,0.117,0.264.229,0.529,0.342,0.8,0.016,0.039.034,0.076,0.049,0.114,0.036,0.086.076,0.17,0.11,0.257a34.39,34.39,0,0,1,1.653,3.84c0.062,0.189.134,0.373,0.192,0.563,0.1,0.337.247,0.651,0.338,0.994,0.08,0.3.074,0.593,0.145,0.891a31.553,31.553,0,0,1,.768,4.737c0.043,0.527.062,1.045,0.079,1.569,0.013,0.365.055,0.723,0.055,1.091A31.981,31.981,0,0,1,405.755,357.139ZM304.689,183.214a31.443,31.443,0,0,1-1.236,5.17c-0.043.128-.093,0.251-0.138,0.379a31.52,31.52,0,0,1-29.739,21.219h-126.1c-0.112,0-.215-0.032-0.327-0.033-0.22,0-.443-0.039-0.664-0.046-0.508-.015-1.008-0.065-1.512-0.1a30.8,30.8,0,0,1-4.55-.677c-0.117-.027-0.238-0.041-0.355-0.07-0.251-.06-0.5-0.081-0.751-0.148-0.289-.078-0.536-0.227-0.821-0.312a31.6,31.6,0,0,1-4.55-1.731c-0.448-.213-0.875-0.444-1.309-0.677a31.572,31.572,0,0,1-4.028-2.55c-0.339-.255-0.664-0.516-0.991-0.783a31.479,31.479,0,0,1-3.653-3.478c-0.18-.2-0.352-0.406-0.527-0.614a31.277,31.277,0,0,1-3.145-4.429c-0.077-.131-0.148-0.264-0.223-0.4-0.181-.319-0.29-0.687-0.461-1.014-0.316-.511-0.555-1.081-0.844-1.614-0.344-.635-0.7-1.256-1-1.912a34.279,34.279,0,0,1-2.848-11.274c-0.006-.106.014-0.208,0.008-0.313a31.588,31.588,0,0,1,.23-5.874c0.032-.233.116-0.45,0.153-0.682a31.5,31.5,0,0,1,3.751-10.848L182.109,50.812c0.056-.1.134-0.171,0.192-0.268a31.552,31.552,0,0,1,4.817-6.284c0.318-.318.693-0.534,1.02-0.836,0.55-.511,1.159-0.961,1.751-1.435a31.414,31.414,0,0,1,3.286-2.369c0.2-.125.364-0.292,0.572-0.413a31.793,31.793,0,0,1,3.38-1.675c0.341-.145.682-0.27,1.027-0.4a31.225,31.225,0,0,1,5.08-1.511c0.132-.026.263-0.045,0.4-0.069a31.471,31.471,0,0,1,33.181,15.237l63.05,109.592c0.056,0.1.081,0.2,0.135,0.3,0.2,0.358.356,0.75,0.545,1.117l0.364,0.632c0.056,0.1.08,0.2,0.135,0.3,0.134,0.239.2,0.522,0.33,0.766,0.117,0.264.229,0.529,0.341,0.795,0.016,0.038.034,0.076,0.05,0.114,0.036,0.086.075,0.17,0.11,0.257a34.577,34.577,0,0,1,1.653,3.84c0.062,0.189.133,0.373,0.192,0.563,0.1,0.337.246,0.651,0.338,0.994,0.079,0.3.074,0.593,0.144,0.891a31.554,31.554,0,0,1,.769,4.737c0.043,0.527.062,1.045,0.079,1.569,0.012,0.365.055,0.722,0.055,1.091a31.981,31.981,0,0,1-.245,3.775C304.81,182.489,304.748,182.849,304.689,183.214ZM135.912,225.805L198.962,335.4c0.056,0.1.08,0.2,0.135,0.3,0.2,0.358.355,0.75,0.544,1.117l0.364,0.632c0.056,0.1.081,0.2,0.135,0.3,0.134,0.239.2,0.522,0.33,0.766,0.117,0.264.229,0.529,0.342,0.8,0.016,0.039.034,0.076,0.049,0.114,0.036,0.086.076,0.17,0.111,0.257a34.766,34.766,0,0,1,1.653,3.84c0.061,0.189.133,0.373,0.191,0.563,0.1,0.337.247,0.651,0.339,0.994,0.079,0.3.074,0.593,0.144,0.891a31.553,31.553,0,0,1,.768,4.737c0.044,0.527.063,1.045,0.079,1.569,0.013,0.365.055,0.723,0.055,1.091a31.981,31.981,0,0,1-.245,3.775c-0.045.368-.108,0.728-0.166,1.093a31.545,31.545,0,0,1-1.236,5.17c-0.044.128-.093,0.252-0.138,0.379A31.52,31.52,0,0,1,172.676,385H46.576c-0.112,0-.215-0.032-0.327-0.033-0.22,0-.444-0.039-0.664-0.046-0.508-.015-1.008-0.064-1.512-0.1a30.916,30.916,0,0,1-4.55-.676c-0.118-.027-0.239-0.042-0.356-0.071-0.25-.06-0.5-0.081-0.751-0.148-0.289-.078-0.536-0.227-0.821-0.312a31.494,31.494,0,0,1-4.55-1.731c-0.447-.213-0.875-0.444-1.309-0.677a31.6,31.6,0,0,1-4.028-2.55c-0.339-.255-0.664-0.516-0.992-0.783a31.55,31.55,0,0,1-3.652-3.477c-0.18-.2-0.352-0.407-0.527-0.615a31.325,31.325,0,0,1-3.145-4.428c-0.077-.132-0.148-0.265-0.223-0.4-0.181-.319-0.29-0.687-0.461-1.013-0.316-.512-0.555-1.082-0.844-1.614-0.344-.636-0.7-1.257-1-1.913a34.293,34.293,0,0,1-2.847-11.274c-0.006-.106.014-0.208,0.008-0.313a31.562,31.562,0,0,1,.229-5.874c0.032-.233.117-0.45,0.154-0.682a31.478,31.478,0,0,1,3.751-10.847L81.209,225.83c0.056-.1.135-0.171,0.192-0.267a31.557,31.557,0,0,1,4.818-6.285c0.317-.318.692-0.534,1.019-0.835,0.55-.511,1.159-0.961,1.751-1.436a31.331,31.331,0,0,1,3.286-2.369c0.2-.125.364-0.293,0.572-0.413a31.652,31.652,0,0,1,3.38-1.675c0.341-.144.682-0.27,1.027-0.4a31.208,31.208,0,0,1,5.079-1.511c0.132-.026.264-0.044,0.4-0.069A31.471,31.471,0,0,1,135.912,225.805Z"/>
</svg>
