<svg xmlns="http://www.w3.org/2000/svg" width="99.96" height="99.96" viewBox="0 0 420 420">
  <metadata><?xpacket begin="﻿" id="W5M0MpCehiHzreSzNTczkc9d"?>
<x:xmpmeta xmlns:x="adobe:ns:meta/" x:xmptk="Adobe XMP Core 5.6-c142 79.160924, 2017/07/13-01:06:39        ">
   <rdf:RDF xmlns:rdf="http://www.w3.org/1999/02/22-rdf-syntax-ns#">
      <rdf:Description rdf:about=""/>
   </rdf:RDF>
</x:xmpmeta>
                                                                                                    
                                                                                                    
                                                                                                    
                                                                                                    
                                                                                                    
                                                                                                    
                                                                                                    
                                                                                                    
                                                                                                    
                                                                                                    
                                                                                                    
                                                                                                    
                                                                                                    
                                                                                                    
                                                                                                    
                                                                                                    
                                                                                                    
                                                                                                    
                                                                                                    
                                                                                                    
                           
<?xpacket end="w"?></metadata>
<defs>
    <style>
      .cls-1 {
        fill-rule: evenodd;
      }
    </style>
  </defs>
  <path id="unicode" class="cls-1" d="M385,398H36a15,15,0,0,1-15-15V34A15,15,0,0,1,36,19H385a15,15,0,0,1,15,15V383A15,15,0,0,1,385,398ZM353.369,107a5,5,0,0,0-5-5H301.391a5,5,0,0,0-5,5v46.975a5,5,0,0,0,5,5h46.978a5,5,0,0,0,5-5V107Zm0.639,71.078a9.259,9.259,0,0,0-1.926-5.859,5.683,5.683,0,0,0-4.574-2.467H302.734a5.672,5.672,0,0,0-4.574,2.467,9.235,9.235,0,0,0-1.926,5.859v27.746l-49.6-92.219a8.8,8.8,0,0,0-1.817-4.325,5.7,5.7,0,0,0-4.574-2.437H189.929a5.7,5.7,0,0,0-4.574,2.423,8.971,8.971,0,0,0-1.926,5.758V235.58q0,12.423-6.619,19.084t-17.934,6.663q-11.318,0-17.934-6.663t-6.62-19.084V115.024a8.988,8.988,0,0,0-1.926-5.758,5.709,5.709,0,0,0-4.573-2.423H77.512a5.692,5.692,0,0,0-4.574,2.437,9.028,9.028,0,0,0-1.926,5.782v116.3q0,47.191,23.711,69.413T158.876,323q40.441,0,64.152-22.225t23.711-69.413v-0.713l52.384,85.568q3.848,6.474,9.629,6.475h38.756a5.67,5.67,0,0,0,4.574-2.467,9.239,9.239,0,0,0,1.926-5.859V178.078Z"/>
</svg>
