<svg xmlns="http://www.w3.org/2000/svg" width="99.96" height="99.96" viewBox="0 0 420 420">
  <metadata><?xpacket begin="﻿" id="W5M0MpCehiHzreSzNTczkc9d"?>
<x:xmpmeta xmlns:x="adobe:ns:meta/" x:xmptk="Adobe XMP Core 5.6-c142 79.160924, 2017/07/13-01:06:39        ">
   <rdf:RDF xmlns:rdf="http://www.w3.org/1999/02/22-rdf-syntax-ns#">
      <rdf:Description rdf:about=""/>
   </rdf:RDF>
</x:xmpmeta>
                                                                                                    
                                                                                                    
                                                                                                    
                                                                                                    
                                                                                                    
                                                                                                    
                                                                                                    
                                                                                                    
                                                                                                    
                                                                                                    
                                                                                                    
                                                                                                    
                                                                                                    
                                                                                                    
                                                                                                    
                                                                                                    
                                                                                                    
                                                                                                    
                                                                                                    
                                                                                                    
                           
<?xpacket end="w"?></metadata>
<defs>
    <style>
      .cls-1 {
        fill-rule: evenodd;
      }
    </style>
  </defs>
  <path id="upload" class="cls-1" d="M377,399H43a15,15,0,0,1-15-15V310.279a15,15,0,0,1,15-15H377a15,15,0,0,1,15,15V384A15,15,0,0,1,377,399ZM196,26.7a19.479,19.479,0,0,1,27.485,0L287.621,90.62c25.666,25.584,28.77,41.38-.432,41.38H254.142l-0.331,124.325-0.012,4.3A19.4,19.4,0,0,1,234.364,280H182.538A19.4,19.4,0,0,1,163.1,260.628l0-3.968L163.012,132H131.967c-34.259,0-20.768-20.773-.094-41.38Z"/>
</svg>
