<svg xmlns="http://www.w3.org/2000/svg" width="99.96" height="99.96" viewBox="0 0 420 420">
  <metadata><?xpacket begin="﻿" id="W5M0MpCehiHzreSzNTczkc9d"?>
<x:xmpmeta xmlns:x="adobe:ns:meta/" x:xmptk="Adobe XMP Core 5.6-c142 79.160924, 2017/07/13-01:06:39        ">
   <rdf:RDF xmlns:rdf="http://www.w3.org/1999/02/22-rdf-syntax-ns#">
      <rdf:Description rdf:about=""/>
   </rdf:RDF>
</x:xmpmeta>
                                                                                                    
                                                                                                    
                                                                                                    
                                                                                                    
                                                                                                    
                                                                                                    
                                                                                                    
                                                                                                    
                                                                                                    
                                                                                                    
                                                                                                    
                                                                                                    
                                                                                                    
                                                                                                    
                                                                                                    
                                                                                                    
                                                                                                    
                                                                                                    
                                                                                                    
                                                                                                    
                           
<?xpacket end="w"?></metadata>
<defs>
    <style>
      .cls-1 {
        fill-rule: evenodd;
      }
    </style>
  </defs>
  <path id="v_battery_warning" class="cls-1" d="M289.975,412H130.025A35.027,35.027,0,0,1,95,376.971V85.773a35.027,35.027,0,0,1,35.025-35.029h10.508V31.353A23.351,23.351,0,0,1,163.883,8h89.9a23.351,23.351,0,0,1,23.35,23.353V50.744h12.843A35.027,35.027,0,0,1,325,85.773v291.2A35.027,35.027,0,0,1,289.975,412Zm-7-294.243A23.352,23.352,0,0,0,259.619,94.4H160.381a23.352,23.352,0,0,0-23.351,23.352V343.11a23.352,23.352,0,0,0,23.351,23.352h99.238A23.352,23.352,0,0,0,282.97,343.11V117.757Zm-72.386,152.96a14.01,14.01,0,0,1-14.01-14.012v-75.9a14.01,14.01,0,1,1,28.02,0v75.9A14.011,14.011,0,0,1,210.584,270.717Zm-0.231,6.836a14.1,14.1,0,1,1-13.874,14.1A13.986,13.986,0,0,1,210.353,277.553Z"/>
</svg>
