<svg xmlns="http://www.w3.org/2000/svg" width="99.96" height="99.96" viewBox="0 0 420 420">
  <metadata><?xpacket begin="﻿" id="W5M0MpCehiHzreSzNTczkc9d"?>
<x:xmpmeta xmlns:x="adobe:ns:meta/" x:xmptk="Adobe XMP Core 5.6-c142 79.160924, 2017/07/13-01:06:39        ">
   <rdf:RDF xmlns:rdf="http://www.w3.org/1999/02/22-rdf-syntax-ns#">
      <rdf:Description rdf:about=""/>
   </rdf:RDF>
</x:xmpmeta>
                                                                                                    
                                                                                                    
                                                                                                    
                                                                                                    
                                                                                                    
                                                                                                    
                                                                                                    
                                                                                                    
                                                                                                    
                                                                                                    
                                                                                                    
                                                                                                    
                                                                                                    
                                                                                                    
                                                                                                    
                                                                                                    
                                                                                                    
                                                                                                    
                                                                                                    
                                                                                                    
                           
<?xpacket end="w"?></metadata>
<defs>
    <style>
      .cls-1 {
        fill-rule: evenodd;
      }
    </style>
  </defs>
  <path id="v_battery_half" class="cls-1" d="M95,376.971V85.757a35.027,35.027,0,0,1,35.025-35.029h10.508V31.353A23.351,23.351,0,0,1,163.883,8h89.9a23.351,23.351,0,0,1,23.35,23.353V50.728h12.843A35.027,35.027,0,0,1,325,85.757V376.971A35.027,35.027,0,0,1,289.975,412H130.025A35.027,35.027,0,0,1,95,376.971Zm164.619-10.509A23.352,23.352,0,0,0,282.97,343.11V117.757A23.352,23.352,0,0,0,259.619,94.4H160.381a23.351,23.351,0,0,0-23.35,23.352V343.11a23.351,23.351,0,0,0,23.35,23.352h99.238ZM152.208,333.769V239.191a9.341,9.341,0,0,1,9.34-9.341h96.9a9.341,9.341,0,0,1,9.34,9.341v94.578a17.513,17.513,0,0,1-17.513,17.514H169.721A17.513,17.513,0,0,1,152.208,333.769Z"/>
</svg>
