<svg xmlns="http://www.w3.org/2000/svg" width="99.96" height="99.96" viewBox="0 0 420 420">
  <metadata><?xpacket begin="﻿" id="W5M0MpCehiHzreSzNTczkc9d"?>
<x:xmpmeta xmlns:x="adobe:ns:meta/" x:xmptk="Adobe XMP Core 5.6-c142 79.160924, 2017/07/13-01:06:39        ">
   <rdf:RDF xmlns:rdf="http://www.w3.org/1999/02/22-rdf-syntax-ns#">
      <rdf:Description rdf:about=""/>
   </rdf:RDF>
</x:xmpmeta>
                                                                                                    
                                                                                                    
                                                                                                    
                                                                                                    
                                                                                                    
                                                                                                    
                                                                                                    
                                                                                                    
                                                                                                    
                                                                                                    
                                                                                                    
                                                                                                    
                                                                                                    
                                                                                                    
                                                                                                    
                                                                                                    
                                                                                                    
                                                                                                    
                                                                                                    
                                                                                                    
                           
<?xpacket end="w"?></metadata>
<defs>
    <style>
      .cls-1 {
        fill-rule: evenodd;
      }
    </style>
  </defs>
  <path id="weight" class="cls-1" d="M385.231,191.307L360,216.541a16.222,16.222,0,0,1-22.94,0L203.434,82.917a16.22,16.22,0,0,1,0-22.94l25.233-25.234a16.221,16.221,0,0,1,22.94,0L385.231,168.367A16.222,16.222,0,0,1,385.231,191.307Zm-41.779-86.516L314.778,76.117l28.579-28.579c9.072-9.073,22.846-10.008,30.764-2.09s6.983,21.692-2.09,30.765Zm-69.847,69.848-98.849,98.848-28.674-28.674,98.848-98.849ZM216.534,360L191.3,385.237a16.22,16.22,0,0,1-22.94,0L34.738,251.613a16.22,16.22,0,0,1,0-22.939L59.971,203.44a16.222,16.222,0,0,1,22.94,0L216.534,337.064A16.219,16.219,0,0,1,216.534,360ZM76.234,314.66l28.675,28.675-28.57,28.57c-9.073,9.072-22.846,10.008-30.765,2.09s-6.983-21.692,2.09-30.765Z"/>
</svg>
