<svg xmlns="http://www.w3.org/2000/svg" width="99.96" height="99.96" viewBox="0 0 420 420">
  <metadata><?xpacket begin="﻿" id="W5M0MpCehiHzreSzNTczkc9d"?>
<x:xmpmeta xmlns:x="adobe:ns:meta/" x:xmptk="Adobe XMP Core 5.6-c142 79.160924, 2017/07/13-01:06:39        ">
   <rdf:RDF xmlns:rdf="http://www.w3.org/1999/02/22-rdf-syntax-ns#">
      <rdf:Description rdf:about=""/>
   </rdf:RDF>
</x:xmpmeta>
                                                                                                    
                                                                                                    
                                                                                                    
                                                                                                    
                                                                                                    
                                                                                                    
                                                                                                    
                                                                                                    
                                                                                                    
                                                                                                    
                                                                                                    
                                                                                                    
                                                                                                    
                                                                                                    
                                                                                                    
                                                                                                    
                                                                                                    
                                                                                                    
                                                                                                    
                                                                                                    
                           
<?xpacket end="w"?></metadata>
<defs>
    <style>
      .cls-1 {
        fill-rule: evenodd;
      }
    </style>
  </defs>
  <path id="wheat" class="cls-1" d="M365.547,130.474c-0.287.136-.578,0.252-0.867,0.382-7.63-4.445-16.637-7.979-26.41-8.459a51.269,51.269,0,0,0-14.348,1.405c0.572-1.013,1.161-2.014,1.728-3.03,0,0,8.6-13.772-.32-22.762A54.2,54.2,0,0,1,343.078,84C368.312,72.016,400,85.541,400,85.541S390.781,118.493,365.547,130.474ZM337.233,78.656A54.5,54.5,0,0,0,320.022,94.35a18.073,18.073,0,0,0-5.545-1.691c0.165-1.271.3-2.552,0.357-3.852,0.571-12.5-4.084-24.128-9.4-33.169C315.557,32.766,343.77,22,343.77,22s14.855,27.517,6.3,51.761A50.16,50.16,0,0,0,337.233,78.656ZM306.928,93.625c-7.646,3.016-11.987,11.213-11.9,10.945q-7.57,12.59-15.768,24.719c-0.022-.3-0.028-0.609-0.056-0.915-1.709-18.7-14.565-35.408-23.225-44.7,3.868-24.161,24.639-42.937,24.639-42.937s26.06,22.181,26.365,50.108C307,91.775,306.974,92.7,306.928,93.625Zm-35.567,47.124q-13.94,19.706-29.377,38.181c-1.394-21.2-14.477-42.18-21.962-52.575,5.731-23.119,25.689-40.283,25.689-40.283s26.163,23.419,25.76,52.073C271.459,139.019,271.42,139.886,271.361,140.749ZM233.453,188.94q-17.8,20.432-37.276,39.267a57.7,57.7,0,0,0,.279-7.041c-0.442-18.795-10.267-35.361-19.277-46.683,8.6-25.36,33.554-42.439,33.554-42.439S235.315,158.85,233.453,188.94Zm-50.917,52.114q-19.367,17.721-40.059,33.894a76.247,76.247,0,0,0,1.132-30.373c-2.393-13.327-10.342-28.668-19.768-43.093C132.693,179.14,150,163.211,150,163.211s33.4,27.306,34.222,62.323A61.585,61.585,0,0,1,182.536,241.054Zm-50.577,41.962q-19.944,15.011-40.882,28.592c-11.987-11.077-25.788-27.869-29.547-48.8-7-39,23.553-77.55,23.553-77.55S127,209.942,134,248.942C136.109,260.691,134.8,272.392,131.959,283.016ZM302.021,105.443a9.973,9.973,0,0,1,2.241-3.706l0.121-.2c-0.012.042-.019,0.071-0.03,0.112a9.915,9.915,0,0,1,8.7-2.86,10.029,10.029,0,0,1,6.635,15.518c0.085-.017.171-0.025,0.254-0.043-0.191.39-.393,0.773-0.614,1.143l0.208,0.125A679.183,679.183,0,0,1,44.76,384.122l-0.114-.137a15.483,15.483,0,0,1-11.56,2.7A15.681,15.681,0,0,1,20.2,368.673c0.674-3.424,2.62-7.381,5.667-9.3A665.813,665.813,0,0,0,302.021,105.443ZM170.535,323.233c37.339,13.284,55.64,58.942,55.64,58.942S183.936,406.3,146.6,393.01c-19.012-6.764-33.077-21.916-42.315-35.166q27.068-17.682,52.368-37.9A68.013,68.013,0,0,1,170.535,323.233Zm5.242-6.988a67.006,67.006,0,0,0-11.019-2.872q22.639-18.651,43.663-39.241c0.371-.02.738-0.057,1.11-0.071,39.6-1.487,73.518,34.148,73.518,34.148s-27.724,34.779-64.79,39.112C206.607,334.671,191.821,321.953,175.777,316.245Zm43.2-52.7q17.131-17.548,33.014-36.362c1.581-.1,3.172-0.15,4.781-0.114,35.025,0.8,62.983,34.185,62.983,34.185S302.986,279.891,279.5,288.4C263.049,276.832,240.307,264.157,218.975,263.541Zm43.037-46.957c-0.428-.01-0.849.014-1.274,0.015q14.632-18.066,28.061-37.19a52.055,52.055,0,0,1,5.979-.925c31.443-2.971,59.991,23.981,59.991,23.981s-17.686,25.019-43.653,32.718C297.239,226.054,279.227,216.976,262.012,216.584ZM302.523,170.5a52.47,52.47,0,0,0-8.253,1.016q12.792-18.789,24.37-38.522a48.641,48.641,0,0,1,7.35-.965c28.626-1.48,53.381,23.758,53.381,23.758s-15.463,19.73-37.526,26.742C331.333,175.976,317.438,169.918,302.523,170.5Z"/>
</svg>
