<svg xmlns="http://www.w3.org/2000/svg" width="99.96" height="99.96" viewBox="0 0 420 420">
  <metadata><?xpacket begin="﻿" id="W5M0MpCehiHzreSzNTczkc9d"?>
<x:xmpmeta xmlns:x="adobe:ns:meta/" x:xmptk="Adobe XMP Core 5.6-c142 79.160924, 2017/07/13-01:06:39        ">
   <rdf:RDF xmlns:rdf="http://www.w3.org/1999/02/22-rdf-syntax-ns#">
      <rdf:Description rdf:about=""/>
   </rdf:RDF>
</x:xmpmeta>
                                                                                                    
                                                                                                    
                                                                                                    
                                                                                                    
                                                                                                    
                                                                                                    
                                                                                                    
                                                                                                    
                                                                                                    
                                                                                                    
                                                                                                    
                                                                                                    
                                                                                                    
                                                                                                    
                                                                                                    
                                                                                                    
                                                                                                    
                                                                                                    
                                                                                                    
                                                                                                    
                           
<?xpacket end="w"?></metadata>
<defs>
    <style>
      .cls-1 {
        fill-rule: evenodd;
      }
    </style>
  </defs>
  <path id="written_file" class="cls-1" d="M350,420H70a15,15,0,0,1-15-15V15A15,15,0,0,1,70,0H256a9.928,9.928,0,0,1,5.837,2.149l101.01,101.01A10.354,10.354,0,0,1,365,109V405A15,15,0,0,1,350,420ZM251.17,41C241.844,31.674,238,36.837,238,53v59a15,15,0,0,0,15,15h61c21.309,0,15.181-7.989,11-12.17ZM312,259.871H108a10,10,0,0,1-10-10v-20.3a10,10,0,0,1,10-10H312a10,10,0,0,1,10,10v20.3A10,10,0,0,1,312,259.871Zm0-60.445H194.24a10,10,0,0,1-10-10v-20.3a10,10,0,0,1,10-10H312a10,10,0,0,1,10,10v20.3A10,10,0,0,1,312,199.426ZM189.92,76.3H108a10,10,0,0,1-10-10V46a10,10,0,0,1,10-10h81.92a10,10,0,0,1,10,10V66.3A10,10,0,0,1,189.92,76.3ZM108,159.129h48.32a10,10,0,0,1,10,10v20.3a10,10,0,0,1-10,10H108a10,10,0,0,1-10-10v-20.3A10,10,0,0,1,108,159.129ZM108,342.7H243.68a10,10,0,0,1,10,10V373a10,10,0,0,1-10,10H108a10,10,0,0,1-10-10V352.7A10,10,0,0,1,108,342.7Z"/>
</svg>
