<svg xmlns="http://www.w3.org/2000/svg" width="100" height="100" viewBox="0 0 500 500">
  <metadata><?xpacket begin="﻿" id="W5M0MpCehiHzreSzNTczkc9d"?>
<x:xmpmeta xmlns:x="adobe:ns:meta/" x:xmptk="Adobe XMP Core 5.6-c142 79.160924, 2017/07/13-01:06:39        ">
   <rdf:RDF xmlns:rdf="http://www.w3.org/1999/02/22-rdf-syntax-ns#">
      <rdf:Description rdf:about=""/>
   </rdf:RDF>
</x:xmpmeta>
                                                                                                    
                                                                                                    
                                                                                                    
                                                                                                    
                                                                                                    
                                                                                                    
                                                                                                    
                                                                                                    
                                                                                                    
                                                                                                    
                                                                                                    
                                                                                                    
                                                                                                    
                                                                                                    
                                                                                                    
                                                                                                    
                                                                                                    
                                                                                                    
                                                                                                    
                                                                                                    
                           
<?xpacket end="w"?></metadata>
<defs>
    <style>
      .cls-1 {
        fill-rule: evenodd;
      }
    </style>
  </defs>
  <path id="MD_copia" data-name="MD copia" class="cls-1" d="M390,460H110a15,15,0,0,1-15-15V55a15,15,0,0,1,15-15H296a9.928,9.928,0,0,1,5.837,2.149l101.01,101.01A10.354,10.354,0,0,1,405,149V445A15,15,0,0,1,390,460ZM293,61l91,91a15,15,0,0,1-15,15H293a15,15,0,0,1-15-15V76A15,15,0,0,1,293,61ZM209.265,245.41l-19.653,39.075L169.958,245.41q-2.251-4.4-6.452-4.4H136.051a3.749,3.749,0,0,0-2.85,1.3,4.409,4.409,0,0,0-1.2,3.094V350.588a4.4,4.4,0,0,0,1.2,3.093,3.739,3.739,0,0,0,2.85,1.3h27.155a3.749,3.749,0,0,0,2.851-1.3,4.409,4.409,0,0,0,1.2-3.093V300.115l10.952,23.446a7.572,7.572,0,0,0,2.1,2.605,6.086,6.086,0,0,0,4.2,1.465h10.2a7.035,7.035,0,0,0,3.6-1.058,6.613,6.613,0,0,0,2.7-3.012l10.952-23.446v50.473a4.4,4.4,0,0,0,1.2,3.093,3.742,3.742,0,0,0,2.851,1.3h27.155a3.747,3.747,0,0,0,2.85-1.3,4.405,4.405,0,0,0,1.2-3.093V245.41a4.418,4.418,0,0,0-1.2-3.094,3.756,3.756,0,0,0-2.85-1.3H215.717q-4.2,0-6.452,4.4h0Zm52.209-3.094a4.408,4.408,0,0,0-1.2,3.094V350.588a4.4,4.4,0,0,0,1.2,3.093,3.743,3.743,0,0,0,2.851,1.3h47.859q24.754,0,39.608-10.746Q368,332.355,368,306.3V289.7q0-16.767-7.5-28a41.133,41.133,0,0,0-19.653-15.956q-12.153-4.719-28.656-4.721H264.325A3.752,3.752,0,0,0,261.474,242.316Zm51.46,30.447q7.05,0,11.177,3.663t4.126,10.339v22.468q0,6.678-4.126,10.339t-11.177,3.663H299.281V272.763h13.653Z"/>
</svg>
