<svg xmlns="http://www.w3.org/2000/svg" width="100" height="100" viewBox="0 0 500 500">
  <metadata><?xpacket begin="﻿" id="W5M0MpCehiHzreSzNTczkc9d"?>
<x:xmpmeta xmlns:x="adobe:ns:meta/" x:xmptk="Adobe XMP Core 5.6-c142 79.160924, 2017/07/13-01:06:39        ">
   <rdf:RDF xmlns:rdf="http://www.w3.org/1999/02/22-rdf-syntax-ns#">
      <rdf:Description rdf:about=""/>
   </rdf:RDF>
</x:xmpmeta>
                                                                                                    
                                                                                                    
                                                                                                    
                                                                                                    
                                                                                                    
                                                                                                    
                                                                                                    
                                                                                                    
                                                                                                    
                                                                                                    
                                                                                                    
                                                                                                    
                                                                                                    
                                                                                                    
                                                                                                    
                                                                                                    
                                                                                                    
                                                                                                    
                                                                                                    
                                                                                                    
                           
<?xpacket end="w"?></metadata>
<defs>
    <style>
      .cls-1 {
        fill: #fff;
        fill-rule: evenodd;
      }
    </style>
  </defs>
  <path id="filled" class="cls-1" d="M360,375H140a15,15,0,0,1-15-15V140a15,15,0,0,1,15-15H360a15,15,0,0,1,15,15V360A15,15,0,0,1,360,375ZM336.433,187.54a22.307,22.307,0,0,0-31.618,0l-79.046,79.295L194.15,235.117a22.393,22.393,0,0,0-31.618,31.718l47.428,47.577a22.307,22.307,0,0,0,31.618,0l94.855-95.154A22.478,22.478,0,0,0,336.433,187.54Z"/>
</svg>
