<svg xmlns="http://www.w3.org/2000/svg" width="100" height="100" viewBox="0 0 500 500">
  <metadata><?xpacket begin="﻿" id="W5M0MpCehiHzreSzNTczkc9d"?>
<x:xmpmeta xmlns:x="adobe:ns:meta/" x:xmptk="Adobe XMP Core 5.6-c142 79.160924, 2017/07/13-01:06:39        ">
   <rdf:RDF xmlns:rdf="http://www.w3.org/1999/02/22-rdf-syntax-ns#">
      <rdf:Description rdf:about=""/>
   </rdf:RDF>
</x:xmpmeta>
                                                                                                    
                                                                                                    
                                                                                                    
                                                                                                    
                                                                                                    
                                                                                                    
                                                                                                    
                                                                                                    
                                                                                                    
                                                                                                    
                                                                                                    
                                                                                                    
                                                                                                    
                                                                                                    
                                                                                                    
                                                                                                    
                                                                                                    
                                                                                                    
                                                                                                    
                                                                                                    
                           
<?xpacket end="w"?></metadata>
<defs>
    <style>
      .cls-1 {
        fill-rule: evenodd;
      }
    </style>
  </defs>
  <path id="regular" class="cls-1" d="M415,375H85a15,15,0,0,1-15-15V140a15,15,0,0,1,15-15H415a15,15,0,0,1,15,15V360A15,15,0,0,1,415,375ZM394,166a5,5,0,0,0-5-5H111a5,5,0,0,0-5,5V334a5,5,0,0,0,5,5H389a5,5,0,0,0,5-5V166ZM219.023,244.943a8.041,8.041,0,0,1,12.426,0L265.416,283.7l19.055-21.742a8.041,8.041,0,0,1,12.427,0L339,310H162.007Z"/>
</svg>
