<svg xmlns="http://www.w3.org/2000/svg" width="100" height="100" viewBox="0 0 500 500">
  <metadata><?xpacket begin="﻿" id="W5M0MpCehiHzreSzNTczkc9d"?>
<x:xmpmeta xmlns:x="adobe:ns:meta/" x:xmptk="Adobe XMP Core 5.6-c142 79.160924, 2017/07/13-01:06:39        ">
   <rdf:RDF xmlns:rdf="http://www.w3.org/1999/02/22-rdf-syntax-ns#">
      <rdf:Description rdf:about=""/>
   </rdf:RDF>
</x:xmpmeta>
                                                                                                    
                                                                                                    
                                                                                                    
                                                                                                    
                                                                                                    
                                                                                                    
                                                                                                    
                                                                                                    
                                                                                                    
                                                                                                    
                                                                                                    
                                                                                                    
                                                                                                    
                                                                                                    
                                                                                                    
                                                                                                    
                                                                                                    
                                                                                                    
                                                                                                    
                                                                                                    
                           
<?xpacket end="w"?></metadata>
<defs>
    <style>
      .cls-1 {
        fill: #fff;
        fill-rule: evenodd;
      }
    </style>
  </defs>
  <path id="filled" class="cls-1" d="M466.244,227.3l-31.112,31.112a20,20,0,0,1-28.285,0L242.092,93.653a20,20,0,0,1,0-28.284L273.2,34.256a20,20,0,0,1,28.285,0L466.244,199.011A20,20,0,0,1,466.244,227.3ZM414.732,120.623L379.377,85.268,414.614,50.03c11.187-11.186,28.17-12.34,37.933-2.577s8.609,26.746-2.577,37.932Zm-86.12,86.121L206.732,328.623l-35.355-35.356L293.256,171.388ZM258.244,435.3l-31.112,31.112a20,20,0,0,1-28.285,0L34.092,301.653a20,20,0,0,1,0-28.285L65.2,242.256a20,20,0,0,1,28.284,0L258.244,407.011A20,20,0,0,1,258.244,435.3ZM85.256,379.388l35.356,35.356L85.386,449.97c-11.186,11.186-28.169,12.34-37.932,2.577S38.844,425.8,50.03,414.614Z"/>
</svg>
