<svg xmlns="http://www.w3.org/2000/svg" width="100" height="100" viewBox="0 0 500 500">
  <metadata><?xpacket begin="﻿" id="W5M0MpCehiHzreSzNTczkc9d"?>
<x:xmpmeta xmlns:x="adobe:ns:meta/" x:xmptk="Adobe XMP Core 5.6-c142 79.160924, 2017/07/13-01:06:39        ">
   <rdf:RDF xmlns:rdf="http://www.w3.org/1999/02/22-rdf-syntax-ns#">
      <rdf:Description rdf:about=""/>
   </rdf:RDF>
</x:xmpmeta>
                                                                                                    
                                                                                                    
                                                                                                    
                                                                                                    
                                                                                                    
                                                                                                    
                                                                                                    
                                                                                                    
                                                                                                    
                                                                                                    
                                                                                                    
                                                                                                    
                                                                                                    
                                                                                                    
                                                                                                    
                                                                                                    
                                                                                                    
                                                                                                    
                                                                                                    
                                                                                                    
                           
<?xpacket end="w"?></metadata>
<defs>
    <style>
      .cls-1 {
        fill: #fff;
        fill-rule: evenodd;
      }
    </style>
  </defs>
  <path id="regular" class="cls-1" d="M466.244,227.3l-46.112,46.112a20,20,0,0,1-28.285,0l-64.95-64.95-118.6,118.6,64.95,64.95a20,20,0,0,1,0,28.285l-46.112,46.112a20,20,0,0,1-28.285,0l-64.95-64.95L85.386,449.97c-11.186,11.186-28.169,12.34-37.932,2.577S38.844,425.8,50.03,414.614L98.542,366.1l-64.45-64.45a20,20,0,0,1,0-28.285L80.2,227.256a20,20,0,0,1,28.285,0l64.45,64.45,118.6-118.6-64.45-64.45a20,20,0,0,1,0-28.285L273.2,34.256a20,20,0,0,1,28.285,0l64.45,64.45L414.614,50.03c11.187-11.186,28.17-12.34,37.933-2.577s8.609,26.746-2.577,37.932l-48.676,48.676,64.95,64.95A20,20,0,0,1,466.244,227.3ZM99.552,253.381a8.14,8.14,0,0,0-11.511,0L60.378,281.043a8.14,8.14,0,0,0,0,11.512l55.857,55.856,0.088-.089,35.356,35.356-0.089.088,54.843,54.844a8.14,8.14,0,0,0,11.512,0l27.663-27.663a8.142,8.142,0,0,0,0-11.512Zm340.055-47.946L293.552,59.381a8.14,8.14,0,0,0-11.512,0L254.377,87.043a8.141,8.141,0,0,0,0,11.512l55.857,55.856,0.088-.089,35.356,35.356-0.089.088,54.843,54.844a8.14,8.14,0,0,0,11.512,0l27.663-27.663A8.142,8.142,0,0,0,439.607,205.435Z"/>
</svg>
