<svg xmlns="http://www.w3.org/2000/svg" width="100" height="100" viewBox="0 0 500 500">
  <metadata><?xpacket begin="﻿" id="W5M0MpCehiHzreSzNTczkc9d"?>
<x:xmpmeta xmlns:x="adobe:ns:meta/" x:xmptk="Adobe XMP Core 5.6-c142 79.160924, 2017/07/13-01:06:39        ">
   <rdf:RDF xmlns:rdf="http://www.w3.org/1999/02/22-rdf-syntax-ns#">
      <rdf:Description rdf:about=""/>
   </rdf:RDF>
</x:xmpmeta>
                                                                                                    
                                                                                                    
                                                                                                    
                                                                                                    
                                                                                                    
                                                                                                    
                                                                                                    
                                                                                                    
                                                                                                    
                                                                                                    
                                                                                                    
                                                                                                    
                                                                                                    
                                                                                                    
                                                                                                    
                                                                                                    
                                                                                                    
                                                                                                    
                                                                                                    
                                                                                                    
                           
<?xpacket end="w"?></metadata>
<defs>
    <style>
      .cls-1 {
        fill: #fff;
        fill-rule: evenodd;
      }
    </style>
  </defs>
  <path id="filled" class="cls-1" d="M58,326.279H442a15,15,0,0,1,15,15V415a15,15,0,0,1-15,15H58a15,15,0,0,1-15-15V341.279A15,15,0,0,1,58,326.279ZM180.465,133.307l56.563-56.292a17.2,17.2,0,0,1,24.241,0l56.564,56.292c22.637,22.529,25.756,35.5,0,35.5H304.042c-8.067,0-16.04-1.188-16.04,5V290.941A17.1,17.1,0,0,1,270.861,308h-45.71a17.1,17.1,0,0,1-17.141-17.059V173.814c0-6.474-8.041-5.009-15.949-5.009h-11.6C150.248,168.805,162.231,151.454,180.465,133.307Z"/>
</svg>
