<svg xmlns="http://www.w3.org/2000/svg" width="100" height="100" viewBox="0 0 500 500">
  <metadata><?xpacket begin="﻿" id="W5M0MpCehiHzreSzNTczkc9d"?>
<x:xmpmeta xmlns:x="adobe:ns:meta/" x:xmptk="Adobe XMP Core 5.6-c142 79.160924, 2017/07/13-01:06:39        ">
   <rdf:RDF xmlns:rdf="http://www.w3.org/1999/02/22-rdf-syntax-ns#">
      <rdf:Description rdf:about=""/>
   </rdf:RDF>
</x:xmpmeta>
                                                                                                    
                                                                                                    
                                                                                                    
                                                                                                    
                                                                                                    
                                                                                                    
                                                                                                    
                                                                                                    
                                                                                                    
                                                                                                    
                                                                                                    
                                                                                                    
                                                                                                    
                                                                                                    
                                                                                                    
                                                                                                    
                                                                                                    
                                                                                                    
                                                                                                    
                                                                                                    
                           
<?xpacket end="w"?></metadata>
<defs>
    <style>
      .cls-1 {
        fill-rule: evenodd;
      }
    </style>
  </defs>
  <path id="regular" class="cls-1" d="M444,430H60a15,15,0,0,1-15-15V341.279a15,15,0,0,1,15-15H444a15,15,0,0,1,15,15V415A15,15,0,0,1,444,430Zm-19-66.625A4.662,4.662,0,0,0,420.1,359H83.9a4.662,4.662,0,0,0-4.9,4.375v32.25A4.662,4.662,0,0,0,83.9,400H420.1a4.662,4.662,0,0,0,4.9-4.375v-32.25ZM237.945,57.7a19.432,19.432,0,0,1,27.446,0l64.04,63.925c25.63,25.584,29.161,40.311,0,40.311H313.818c-9.134,0-18.16-1.348-18.16,5.681V291.628A19.39,19.39,0,0,1,276.251,311H224.5a19.39,19.39,0,0,1-19.407-19.372V167.619c0-7.352-9.1-5.688-18.056-5.688h-13.13c-34.21,0-20.644-19.7,0-40.311Zm-25.494,78.728c7.1,0,23.7-.438,23.7-0.438V279.039c0,6.991,6.926,5.946,14.112,5.889,7.134-.056,14.528.927,14.528-5.889V135.985s17.327,0.438,25.36.438c5.062,0,3.284-4.092,1.935-5.439L256.607,95.541c-4.048-4.043-8.793-3.987-12.632-.152-9.665,9.654-26.477,29.192-33.793,36.5C207.866,134.2,209.463,136.423,212.451,136.423Z"/>
</svg>
