<svg xmlns="http://www.w3.org/2000/svg" width="100" height="100" viewBox="0 0 500 500">
  <metadata><?xpacket begin="﻿" id="W5M0MpCehiHzreSzNTczkc9d"?>
<x:xmpmeta xmlns:x="adobe:ns:meta/" x:xmptk="Adobe XMP Core 5.6-c142 79.160924, 2017/07/13-01:06:39        ">
   <rdf:RDF xmlns:rdf="http://www.w3.org/1999/02/22-rdf-syntax-ns#">
      <rdf:Description rdf:about=""/>
   </rdf:RDF>
</x:xmpmeta>
                                                                                                    
                                                                                                    
                                                                                                    
                                                                                                    
                                                                                                    
                                                                                                    
                                                                                                    
                                                                                                    
                                                                                                    
                                                                                                    
                                                                                                    
                                                                                                    
                                                                                                    
                                                                                                    
                                                                                                    
                                                                                                    
                                                                                                    
                                                                                                    
                                                                                                    
                                                                                                    
                           
<?xpacket end="w"?></metadata>
<defs>
    <style>
      .cls-1 {
        fill-rule: evenodd;
      }
    </style>
  </defs>
  <path id="regular" class="cls-1" d="M358.5,276.922a23.006,23.006,0,0,1-31.419-8.415L309,237.2V309c0,0.113-.014.222-0.017,0.334,0.006,0.222.017,0.443,0.017,0.666V445a23,23,0,0,1-46,0V324H241V445a23,23,0,0,1-46,0V310c0-.223.011-0.444,0.017-0.666,0-.112-0.017-0.221-0.017-0.334V237.215l-18.081,31.318a23,23,0,0,1-39.838-23l52-90.066A22.984,22.984,0,0,1,210.011,144H294c0.082,0,.161.011,0.243,0.012a22.994,22.994,0,0,1,20.676,11.481l52,90.025A22.983,22.983,0,0,1,358.5,276.922ZM285,177.586A4.557,4.557,0,0,0,280.473,173H222.527A4.557,4.557,0,0,0,218,177.586V290.414A4.557,4.557,0,0,0,222.527,295h57.946A4.557,4.557,0,0,0,285,290.414V177.586ZM251,133a45,45,0,1,1,45-45A45,45,0,0,1,251,133Zm0-68a23,23,0,1,0,23,23A23,23,0,0,0,251,65Z"/>
</svg>
