<svg xmlns="http://www.w3.org/2000/svg" width="100" height="100" viewBox="0 0 500 500">
  <metadata><?xpacket begin="﻿" id="W5M0MpCehiHzreSzNTczkc9d"?>
<x:xmpmeta xmlns:x="adobe:ns:meta/" x:xmptk="Adobe XMP Core 5.6-c142 79.160924, 2017/07/13-01:06:39        ">
   <rdf:RDF xmlns:rdf="http://www.w3.org/1999/02/22-rdf-syntax-ns#">
      <rdf:Description rdf:about=""/>
   </rdf:RDF>
</x:xmpmeta>
                                                                                                    
                                                                                                    
                                                                                                    
                                                                                                    
                                                                                                    
                                                                                                    
                                                                                                    
                                                                                                    
                                                                                                    
                                                                                                    
                                                                                                    
                                                                                                    
                                                                                                    
                                                                                                    
                                                                                                    
                                                                                                    
                                                                                                    
                                                                                                    
                                                                                                    
                                                                                                    
                           
<?xpacket end="w"?></metadata>
<defs>
    <style>
      .cls-1 {
        fill-rule: evenodd;
      }
    </style>
  </defs>
  <path id="filled" class="cls-1" d="M360,375H140a15,15,0,0,1-15-15V140a15,15,0,0,1,15-15H360a15,15,0,0,1,15,15V360A15,15,0,0,1,360,375ZM313.1,221.3a23.6,23.6,0,1,0-33.38-33.379l-29.207,29.207L221.3,187.924A23.6,23.6,0,1,0,187.924,221.3l29.207,29.208-29.207,29.207A23.6,23.6,0,1,0,221.3,313.1l29.208-29.208L279.718,313.1a23.6,23.6,0,0,0,33.38-33.38L283.89,250.511Z"/>
</svg>
