<svg xmlns="http://www.w3.org/2000/svg" width="100" height="100" viewBox="0 0 500 500">
  <metadata><?xpacket begin="﻿" id="W5M0MpCehiHzreSzNTczkc9d"?>
<x:xmpmeta xmlns:x="adobe:ns:meta/" x:xmptk="Adobe XMP Core 5.6-c142 79.160924, 2017/07/13-01:06:39        ">
   <rdf:RDF xmlns:rdf="http://www.w3.org/1999/02/22-rdf-syntax-ns#">
      <rdf:Description rdf:about=""/>
   </rdf:RDF>
</x:xmpmeta>
                                                                                                    
                                                                                                    
                                                                                                    
                                                                                                    
                                                                                                    
                                                                                                    
                                                                                                    
                                                                                                    
                                                                                                    
                                                                                                    
                                                                                                    
                                                                                                    
                                                                                                    
                                                                                                    
                                                                                                    
                                                                                                    
                                                                                                    
                                                                                                    
                                                                                                    
                                                                                                    
                           
<?xpacket end="w"?></metadata>
<defs>
    <style>
      .cls-1 {
        fill-rule: evenodd;
      }
    </style>
  </defs>
  <path id="regular" class="cls-1" d="M360,375H140a15,15,0,0,1-15-15V140a15,15,0,0,1,15-15H360a15,15,0,0,1,15,15V360A15,15,0,0,1,360,375ZM338,166a5,5,0,0,0-5-5H166a5,5,0,0,0-5,5V333a5,5,0,0,0,5,5H333a5,5,0,0,0,5-5V166ZM303.033,303.033a20,20,0,0,1-28.284,0L250,278.284l-24.749,24.749a20,20,0,0,1-28.284-28.284L221.716,250l-24.749-24.749a20,20,0,0,1,28.284-28.284L250,221.716l24.749-24.749a20,20,0,0,1,28.284,28.284L278.284,250l24.749,24.749A20,20,0,0,1,303.033,303.033Z"/>
</svg>
