<svg xmlns="http://www.w3.org/2000/svg" width="100" height="100" viewBox="0 0 500 500">
  <metadata><?xpacket begin="﻿" id="W5M0MpCehiHzreSzNTczkc9d"?>
<x:xmpmeta xmlns:x="adobe:ns:meta/" x:xmptk="Adobe XMP Core 5.6-c142 79.160924, 2017/07/13-01:06:39        ">
   <rdf:RDF xmlns:rdf="http://www.w3.org/1999/02/22-rdf-syntax-ns#">
      <rdf:Description rdf:about=""/>
   </rdf:RDF>
</x:xmpmeta>
                                                                                                    
                                                                                                    
                                                                                                    
                                                                                                    
                                                                                                    
                                                                                                    
                                                                                                    
                                                                                                    
                                                                                                    
                                                                                                    
                                                                                                    
                                                                                                    
                                                                                                    
                                                                                                    
                                                                                                    
                                                                                                    
                                                                                                    
                                                                                                    
                                                                                                    
                                                                                                    
                           
<?xpacket end="w"?></metadata>
<defs>
    <style>
      .cls-1 {
        fill: #fff;
        fill-rule: evenodd;
      }
    </style>
  </defs>
  <path id="filled" class="cls-1" d="M250,388A138,138,0,1,1,388,250,138,138,0,0,1,250,388ZM134,240a10,10,0,1,0,10,10A10,10,0,0,0,134,240ZM250,376a10,10,0,1,0-10-10A10,10,0,0,0,250,376Zm0-252a10,10,0,1,0,10,10A10,10,0,0,0,250,124Zm48.515,42.063c-4.131-2.4-63.976,59.347-70.923,71.437s-30.238,95.041-26.107,97.437,63.976-59.347,70.923-71.437S302.646,168.459,298.515,166.063ZM366,240a10,10,0,1,0,10,10A10,10,0,0,0,366,240Z"/>
</svg>
