<svg xmlns="http://www.w3.org/2000/svg" width="100" height="100" viewBox="0 0 500 500">
  <metadata><?xpacket begin="﻿" id="W5M0MpCehiHzreSzNTczkc9d"?>
<x:xmpmeta xmlns:x="adobe:ns:meta/" x:xmptk="Adobe XMP Core 5.6-c142 79.160924, 2017/07/13-01:06:39        ">
   <rdf:RDF xmlns:rdf="http://www.w3.org/1999/02/22-rdf-syntax-ns#">
      <rdf:Description rdf:about=""/>
   </rdf:RDF>
</x:xmpmeta>
                                                                                                    
                                                                                                    
                                                                                                    
                                                                                                    
                                                                                                    
                                                                                                    
                                                                                                    
                                                                                                    
                                                                                                    
                                                                                                    
                                                                                                    
                                                                                                    
                                                                                                    
                                                                                                    
                                                                                                    
                                                                                                    
                                                                                                    
                                                                                                    
                                                                                                    
                                                                                                    
                           
<?xpacket end="w"?></metadata>
<defs>
    <style>
      .cls-1 {
        fill: #fff;
        fill-rule: evenodd;
      }
    </style>
  </defs>
  <path id="regular" class="cls-1" d="M250,388A138,138,0,1,1,388,250,138,138,0,0,1,250,388Zm8-239.619V149.5a7.5,7.5,0,0,1-15,0v-1.271A101.484,101.484,0,0,0,148.23,243h2.27a7.5,7.5,0,0,1,0,15h-2.124A101.489,101.489,0,0,0,243,350.771V350.5a7.5,7.5,0,0,1,15,0v0.119A101.49,101.49,0,0,0,350.625,258H349.5a7.5,7.5,0,0,1,0-15h1.27A101.485,101.485,0,0,0,258,148.381ZM212.5,314.952c-3.193-1.844,14.81-65.652,20.179-74.952s51.628-56.8,54.821-54.952S272.69,250.7,267.321,260,215.693,316.8,212.5,314.952Z"/>
</svg>
