<svg xmlns="http://www.w3.org/2000/svg" width="100" height="100" viewBox="0 0 500 500">
  <metadata><?xpacket begin="﻿" id="W5M0MpCehiHzreSzNTczkc9d"?>
<x:xmpmeta xmlns:x="adobe:ns:meta/" x:xmptk="Adobe XMP Core 5.6-c142 79.160924, 2017/07/13-01:06:39        ">
   <rdf:RDF xmlns:rdf="http://www.w3.org/1999/02/22-rdf-syntax-ns#">
      <rdf:Description rdf:about=""/>
   </rdf:RDF>
</x:xmpmeta>
                                                                                                    
                                                                                                    
                                                                                                    
                                                                                                    
                                                                                                    
                                                                                                    
                                                                                                    
                                                                                                    
                                                                                                    
                                                                                                    
                                                                                                    
                                                                                                    
                                                                                                    
                                                                                                    
                                                                                                    
                                                                                                    
                                                                                                    
                                                                                                    
                                                                                                    
                                                                                                    
                           
<?xpacket end="w"?></metadata>
<defs>
    <style>
      .cls-1 {
        fill: #fff;
        fill-rule: evenodd;
      }
    </style>
  </defs>
  <path id="filled" class="cls-1" d="M398,460H103a15,15,0,0,1-15-15V92a15,15,0,0,1,15-15h74.3s7.7,0.107,7.7,7.716V103c0,10.035,0,10,10,10H305c10.035,0,10,0,10-10V84.749c0-7.632,7.7-7.749,7.7-7.749H398a15,15,0,0,1,15,15V445A15,15,0,0,1,398,460ZM126,399a5,5,0,0,0,5,5h40a5,5,0,0,0,5-5V378.592l-19.438,19.64a5.853,5.853,0,0,1-8.339,0l-17.51-17.692a6,6,0,0,1,0-8.425,5.852,5.852,0,0,1,8.338,0l13.341,13.48L176,361.742V359a5,5,0,0,0-5-5H131a5,5,0,0,0-5,5v40Zm0-92a5,5,0,0,0,5,5h40a5,5,0,0,0,5-5V286.592l-19.438,19.64a5.853,5.853,0,0,1-8.339,0l-17.51-17.692a6,6,0,0,1,0-8.425,5.852,5.852,0,0,1,8.338,0l13.341,13.48L176,269.742V267a5,5,0,0,0-5-5H131a5,5,0,0,0-5,5v40Zm45-138H131a5,5,0,0,0-5,5v40a5,5,0,0,0,5,5h40a5,5,0,0,0,5-5V194.592l-19.438,19.64a5.853,5.853,0,0,1-8.339,0l-17.51-17.692a6,6,0,0,1,0-8.425,5.852,5.852,0,0,1,8.338,0l13.341,13.48L176,177.742V174A5,5,0,0,0,171,169Zm41,131a5,5,0,0,0,5,5h77a5,5,0,0,0,5-5V274a5,5,0,0,0-5-5H217a5,5,0,0,0-5,5v26ZM374,181a5,5,0,0,0-5-5H217a5,5,0,0,0-5,5v26a5,5,0,0,0,5,5H369a5,5,0,0,0,5-5V181Zm0,92a5,5,0,0,0-5-5H318a5,5,0,0,0-5,5v26a5,5,0,0,0,5,5h51a5,5,0,0,0,5-5V273Zm0,93a5,5,0,0,0-5-5H217a5,5,0,0,0-5,5v26a5,5,0,0,0,5,5H369a5,5,0,0,0,5-5V366ZM296.825,101h-91.65c-4.515,0-8.175-3.32-8.175-7.414V60.418c0-4.095,3.66-7.414,8.175-7.414L230,53a20.941,20.941,0,0,1,21.194-21A20.616,20.616,0,0,1,272,53l24.825,0C301.34,53,305,56.323,305,60.418V93.586C305,97.681,301.34,101,296.825,101Z"/>
</svg>
