<svg xmlns="http://www.w3.org/2000/svg" width="100" height="100" viewBox="0 0 500 500">
  <metadata><?xpacket begin="﻿" id="W5M0MpCehiHzreSzNTczkc9d"?>
<x:xmpmeta xmlns:x="adobe:ns:meta/" x:xmptk="Adobe XMP Core 5.6-c142 79.160924, 2017/07/13-01:06:39        ">
   <rdf:RDF xmlns:rdf="http://www.w3.org/1999/02/22-rdf-syntax-ns#">
      <rdf:Description rdf:about=""/>
   </rdf:RDF>
</x:xmpmeta>
                                                                                                    
                                                                                                    
                                                                                                    
                                                                                                    
                                                                                                    
                                                                                                    
                                                                                                    
                                                                                                    
                                                                                                    
                                                                                                    
                                                                                                    
                                                                                                    
                                                                                                    
                                                                                                    
                                                                                                    
                                                                                                    
                                                                                                    
                                                                                                    
                                                                                                    
                                                                                                    
                           
<?xpacket end="w"?></metadata>
<defs>
    <style>
      .cls-1 {
        fill-rule: evenodd;
      }
    </style>
  </defs>
  <path id="regular" class="cls-1" d="M415.407,252.347c-0.67.973-5.02,3.146-10.962,3.146H388.731V382a15,15,0,0,1-15,15H283V314a5,5,0,0,0-5-5H222a5,5,0,0,0-5,5v83H126.309a15,15,0,0,1-15-15V255.493H95.595c-6.953,0-10.478-2.389-11.191-3.49a14.513,14.513,0,0,1,2.627-18.871L237.976,95.55a18.223,18.223,0,0,1,24.087,0L413.01,233.132A14.513,14.513,0,0,1,415.407,252.347ZM352,233a14.932,14.932,0,0,0-3.352-9.443,9.367,9.367,0,0,0-1.634-2.021L256.708,138.72a10.854,10.854,0,0,0-14.411,0l-90.306,82.816a9.362,9.362,0,0,0-1.62,2A14.935,14.935,0,0,0,147,233V346a15,15,0,0,0,15,15h19V278a5,5,0,0,1,5-5H313a5,5,0,0,1,5,5v83h19a15,15,0,0,0,15-15V233Z"/>
</svg>
