<svg xmlns="http://www.w3.org/2000/svg" width="100" height="100" viewBox="0 0 500 500">
  <metadata><?xpacket begin="﻿" id="W5M0MpCehiHzreSzNTczkc9d"?>
<x:xmpmeta xmlns:x="adobe:ns:meta/" x:xmptk="Adobe XMP Core 5.6-c142 79.160924, 2017/07/13-01:06:39        ">
   <rdf:RDF xmlns:rdf="http://www.w3.org/1999/02/22-rdf-syntax-ns#">
      <rdf:Description rdf:about=""/>
   </rdf:RDF>
</x:xmpmeta>
                                                                                                    
                                                                                                    
                                                                                                    
                                                                                                    
                                                                                                    
                                                                                                    
                                                                                                    
                                                                                                    
                                                                                                    
                                                                                                    
                                                                                                    
                                                                                                    
                                                                                                    
                                                                                                    
                                                                                                    
                                                                                                    
                                                                                                    
                                                                                                    
                                                                                                    
                                                                                                    
                           
<?xpacket end="w"?></metadata>
<defs>
    <style>
      .cls-1 {
        fill: #fff;
        fill-rule: evenodd;
      }
    </style>
  </defs>
  <path id="filled" class="cls-1" d="M394,349H144.594a30,30,0,0,1-30-30v-9H98a20,20,0,0,1-20-20V213a20,20,0,0,1,20-20h16.594V182a30,30,0,0,1,30-30H394a30,30,0,0,1,30,30V319A30,30,0,0,1,394,349Zm-9-141a20,20,0,0,0-20-20H172a20,20,0,0,0-20,20v85a20,20,0,0,0,20,20H365a20,20,0,0,0,20-20V208ZM276.174,258.239v5.8a8.349,8.349,0,0,1-8.314,8.385h-1.279a8.35,8.35,0,0,1-8.314-8.385V251.79c0-3.983,4.489-8.609,8.823-8.609,9.137,0,11.643-6.789,11.643-10.094s-1.631-9.674-9.8-9.674c-8.752,0-11.383,5.658-12.54,7.08a8.65,8.65,0,0,1-15.4-5.79,10.1,10.1,0,0,1,1.3-5A29.045,29.045,0,0,1,267.221,206C283.115,206,296,218.272,296,233.409,296,248.085,287.683,254.653,276.174,258.239Zm-8.953,18.7a9.029,9.029,0,1,1-8.954,9.029A8.991,8.991,0,0,1,267.221,276.942Z"/>
</svg>
