<svg xmlns="http://www.w3.org/2000/svg" width="100" height="100" viewBox="0 0 500 500">
  <metadata><?xpacket begin="﻿" id="W5M0MpCehiHzreSzNTczkc9d"?>
<x:xmpmeta xmlns:x="adobe:ns:meta/" x:xmptk="Adobe XMP Core 5.6-c142 79.160924, 2017/07/13-01:06:39        ">
   <rdf:RDF xmlns:rdf="http://www.w3.org/1999/02/22-rdf-syntax-ns#">
      <rdf:Description rdf:about=""/>
   </rdf:RDF>
</x:xmpmeta>
                                                                                                    
                                                                                                    
                                                                                                    
                                                                                                    
                                                                                                    
                                                                                                    
                                                                                                    
                                                                                                    
                                                                                                    
                                                                                                    
                                                                                                    
                                                                                                    
                                                                                                    
                                                                                                    
                                                                                                    
                                                                                                    
                                                                                                    
                                                                                                    
                                                                                                    
                                                                                                    
                           
<?xpacket end="w"?></metadata>
<defs>
    <style>
      .cls-1 {
        fill: #fff;
        fill-rule: evenodd;
      }
    </style>
  </defs>
  <path id="filled" class="cls-1" d="M407.871,359.9L260.72,436.578c-6.219,3.241-16.3,3.241-22.523,0L91.047,359.9C93.812,361.337,80,351.79,80,342.339V154.331c0-12.282,20.489-20.728,11.682-16.137L238.936,61.423c6.224-3.245,16.315-3.245,22.539,0l147.211,76.748c3.448,2.206,11.314,8.261,11.314,16.16V342.339C420,353.048,402.7,362.594,407.871,359.9ZM388.125,172.653c0-6.447-6.391-11.389-9.192-13.189l0.035,0.018-0.038-.02c-1.467-.943-1.945-1.021,0,0l0,0L259.324,96.827c-5.057-2.648-13.256-2.648-18.313,0L121.366,159.482c7.156-3.747-9.491,3.147-9.491,13.171v99.122c0.128,2.648.956,7.763,5.313,10.019,5.876,3.044,19.124,9.56,19.124,9.56s3.188,1.653,3.188-2.125V265.861s-0.778-5.347,5.312-2.124c6.37,3.37,18.063,9.56,18.063,9.56s4.25,3.2,4.25-2.125V248.866s-1.114-6.483,7.437-2.124,65.718,32.894,70.125,35.052,5.313,2.479,5.313,9.56V312.6s0.567,3.425,5.312,1.062c6.337-3.155,19.125-9.56,19.125-9.56s3.188-1.708,3.188-8.5V274.359s-0.89-3.4,3.187-5.311,74.375-37.177,74.375-37.177,5.313-3.185,5.313,3.187v52.047s1.139,5.245,5.312,3.187c6.676-3.292,18.01-8.863,19.125-9.56s3.118-1.978,3.188-6.373V172.653Zm20.558-34.484C406.29,136.918,406.877,137.014,408.683,138.169Zm0.047,0.025-0.044-.023,0,0Z"/>
</svg>
