<svg xmlns="http://www.w3.org/2000/svg" width="100" height="100" viewBox="0 0 500 500">
  <metadata><?xpacket begin="﻿" id="W5M0MpCehiHzreSzNTczkc9d"?>
<x:xmpmeta xmlns:x="adobe:ns:meta/" x:xmptk="Adobe XMP Core 5.6-c142 79.160924, 2017/07/13-01:06:39        ">
   <rdf:RDF xmlns:rdf="http://www.w3.org/1999/02/22-rdf-syntax-ns#">
      <rdf:Description rdf:about=""/>
   </rdf:RDF>
</x:xmpmeta>
                                                                                                    
                                                                                                    
                                                                                                    
                                                                                                    
                                                                                                    
                                                                                                    
                                                                                                    
                                                                                                    
                                                                                                    
                                                                                                    
                                                                                                    
                                                                                                    
                                                                                                    
                                                                                                    
                                                                                                    
                                                                                                    
                                                                                                    
                                                                                                    
                                                                                                    
                                                                                                    
                           
<?xpacket end="w"?></metadata>
<defs>
    <style>
      .cls-1 {
        fill: #fff;
        fill-rule: evenodd;
      }
    </style>
  </defs>
  <path id="regular" class="cls-1" d="M398.584,353.554l-138.494,72.2c-5.854,3.052-15.345,3.052-21.2,0L100.4,353.554C103,354.91,90,345.921,90,337.023V160.008c0-11.564,19.283-19.517,10.994-15.193L239.587,72.532c5.858-3.055,15.356-3.055,21.213,0l138.552,72.261C402.6,146.87,410,152.571,410,160.008V337.023C410,347.106,393.713,356.093,398.584,353.554ZM120,321.727c0,7.262,10.562,14.6,8.448,13.492l112.526,58.923c4.757,2.491,12.468,2.491,17.224,0l112.527-58.923c-3.958,2.072,9.275-5.262,9.275-13.492V303.02s-0.6-8.61-4.528-6.566C361.2,303.886,334,318.021,334,318.021s-6,3.592-6-7v-45s0.018-5.846-6-3c-7.378,3.489-17,8-17,8s-3,1.159-3,7v17s1.779,7.308-8,12-32.244,15.623-37,18-9.08,2.624-14,0l-15-8s-4-1.091-4-9v-17s0.815-4.807-6-8-14-7-14-7-6-4.122-6,3v16s0.589,8.108-8,4-12-6-12-6-6-4.012-6,3v14s0.377,10.7-9,6c-10.687-5.352-38-19-38-19s-5-3.129-5,3v21.707ZM380,177.258c0-6.069-6.015-10.723-8.652-12.418l0.034,0.018-0.036-.019c-1.381-.888-1.83-0.961,0,0h0L258.775,105.866c-4.759-2.494-12.476-2.494-17.235,0L128.933,164.858c6.735-3.528-8.933,2.962-8.933,12.4v80.325c0.121,2.494.9,7.31,5,9.434,5.531,2.866,18,9,18,9s3,1.556,3-2v-22s-0.732-5.035,5-2l17,9s4,3.013,4-2v-21s-1.049-6.1,7-2,61.852,30.971,66,33,5,2.334,5,9v20s0.534,3.225,5,1c5.963-2.971,18-9,18-9s3-1.608,3-8v-20s-0.838-3.206,3-5,70-35,70-35,5-3,5,3v49s1.072,4.938,5,3c6.283-3.1,16.95-8.345,18-9s2.934-1.862,3-6V177.258Zm19.349-32.467C397.1,143.613,397.649,143.7,399.349,144.791Zm0.044,0.024-0.041-.022,0,0Z"/>
</svg>
