<svg xmlns="http://www.w3.org/2000/svg" width="100" height="100" viewBox="0 0 500 500">
  <metadata><?xpacket begin="﻿" id="W5M0MpCehiHzreSzNTczkc9d"?>
<x:xmpmeta xmlns:x="adobe:ns:meta/" x:xmptk="Adobe XMP Core 5.6-c142 79.160924, 2017/07/13-01:06:39        ">
   <rdf:RDF xmlns:rdf="http://www.w3.org/1999/02/22-rdf-syntax-ns#">
      <rdf:Description rdf:about=""/>
   </rdf:RDF>
</x:xmpmeta>
                                                                                                    
                                                                                                    
                                                                                                    
                                                                                                    
                                                                                                    
                                                                                                    
                                                                                                    
                                                                                                    
                                                                                                    
                                                                                                    
                                                                                                    
                                                                                                    
                                                                                                    
                                                                                                    
                                                                                                    
                                                                                                    
                                                                                                    
                                                                                                    
                                                                                                    
                                                                                                    
                           
<?xpacket end="w"?></metadata>
<defs>
    <style>
      .cls-1 {
        fill-rule: evenodd;
      }
    </style>
  </defs>
  <path id="Elipse_1_copia_2" data-name="Elipse 1 copia 2" class="cls-1" d="M390,460H110a15,15,0,0,1-15-15V55a15,15,0,0,1,15-15H296a9.928,9.928,0,0,1,5.837,2.149l101.01,101.01A10.354,10.354,0,0,1,405,149V445A15,15,0,0,1,390,460ZM241,105a10,10,0,0,0-10-10H137a10,10,0,0,0-10,10v17.161a10,10,0,0,0,10,10h94a10,10,0,0,0,10-10V105Zm19.54,112H240.429a10.057,10.057,0,0,0-10.056,10.057v18.219a62.921,62.921,0,0,0-8.24,3.415L209.26,235.816a10.056,10.056,0,0,0-14.221,0l-14.22,14.223a10.057,10.057,0,0,0,0,14.222l12.871,12.873a63.148,63.148,0,0,0-3.417,8.246H172.067a10.056,10.056,0,0,0-10.056,10.057V315.55a10.056,10.056,0,0,0,10.056,10.057h18.2a63.108,63.108,0,0,0,3.418,8.253L180.8,346.745a10.058,10.058,0,0,0,0,14.223l14.221,14.222a10.053,10.053,0,0,0,14.22,0l12.883-12.884a62.958,62.958,0,0,0,8.246,3.418v18.219A10.057,10.057,0,0,0,240.429,394H260.54A10.056,10.056,0,0,0,270.6,383.943V365.735a63.073,63.073,0,0,0,8.264-3.421L291.74,375.2a10.056,10.056,0,0,0,14.221,0l14.22-14.223a10.057,10.057,0,0,0,0-14.222l-12.875-12.878a63.132,63.132,0,0,0,3.425-8.267h18.2a10.056,10.056,0,0,0,10.056-10.057V295.437a10.056,10.056,0,0,0-10.056-10.057H310.727a63.115,63.115,0,0,0-3.424-8.26l12.863-12.865a10.058,10.058,0,0,0,0-14.223L305.945,235.81a10.054,10.054,0,0,0-14.221,0l-12.871,12.873a63.117,63.117,0,0,0-8.258-3.418V227.057A10.056,10.056,0,0,0,260.54,217ZM293,61a15,15,0,0,0-15,15v76a15,15,0,0,0,15,15h76a15,15,0,0,0,15-15ZM222.164,305.074A27.913,27.913,0,1,1,250.077,333,27.92,27.92,0,0,1,222.164,305.074Z"/>
</svg>
