<svg xmlns="http://www.w3.org/2000/svg" width="100" height="100" viewBox="0 0 500 500">
  <metadata><?xpacket begin="﻿" id="W5M0MpCehiHzreSzNTczkc9d"?>
<x:xmpmeta xmlns:x="adobe:ns:meta/" x:xmptk="Adobe XMP Core 5.6-c142 79.160924, 2017/07/13-01:06:39        ">
   <rdf:RDF xmlns:rdf="http://www.w3.org/1999/02/22-rdf-syntax-ns#">
      <rdf:Description rdf:about=""/>
   </rdf:RDF>
</x:xmpmeta>
                                                                                                    
                                                                                                    
                                                                                                    
                                                                                                    
                                                                                                    
                                                                                                    
                                                                                                    
                                                                                                    
                                                                                                    
                                                                                                    
                                                                                                    
                                                                                                    
                                                                                                    
                                                                                                    
                                                                                                    
                                                                                                    
                                                                                                    
                                                                                                    
                                                                                                    
                                                                                                    
                           
<?xpacket end="w"?></metadata>
<defs>
    <style>
      .cls-1 {
        fill-rule: evenodd;
      }
    </style>
  </defs>
  <path id="cog_copia" data-name="cog copia" class="cls-1" d="M390,460H110a15,15,0,0,1-15-15V55a15,15,0,0,1,15-15H296a9.928,9.928,0,0,1,5.837,2.149l101.01,101.01A10.354,10.354,0,0,1,405,149V445A15,15,0,0,1,390,460ZM241,105a10,10,0,0,0-10-10H137a10,10,0,0,0-10,10v17.161a10,10,0,0,0,10,10h94a10,10,0,0,0,10-10V105Zm52-44a15,15,0,0,0-15,15v76a15,15,0,0,0,15,15h76a15,15,0,0,0,15-15Zm35.933,264.607H304.167c-0.46,1.228-.975,2.427-1.515,3.613l17.529,17.532a10.057,10.057,0,0,1,0,14.222L305.961,375.2a10.056,10.056,0,0,1-14.221,0l-17.527-17.529c-1.187.541-2.388,1.057-3.618,1.518v24.757A10.056,10.056,0,0,1,260.54,394H240.429a10.057,10.057,0,0,1-10.056-10.057V359.186c-1.228-.46-2.433-0.967-3.619-1.508l-17.51,17.512a10.053,10.053,0,0,1-14.22,0L180.8,360.968a10.058,10.058,0,0,1,0-14.223l17.5-17.5c-0.542-1.188-1.028-2.406-1.49-3.636H172.067a10.056,10.056,0,0,1-10.056-10.057V295.437a10.056,10.056,0,0,1,10.056-10.057h24.74c0.46-1.227.975-2.427,1.516-3.612l-17.5-17.507a10.057,10.057,0,0,1,0-14.222l14.22-14.223a10.056,10.056,0,0,1,14.221,0l17.508,17.51c1.183-.539,2.38-1.053,3.6-1.512V227.057A10.057,10.057,0,0,1,240.429,217H260.54A10.056,10.056,0,0,1,270.6,227.057v24.757c1.228,0.46,2.433.967,3.62,1.508l17.509-17.512a10.054,10.054,0,0,1,14.221,0l14.221,14.222a10.058,10.058,0,0,1,0,14.223l-17.5,17.5c0.539,1.184,1.025,2.4,1.484,3.623h24.783a10.056,10.056,0,0,1,10.056,10.057V315.55A10.056,10.056,0,0,1,328.933,325.607Zm-78.856-48.461a27.928,27.928,0,1,0,27.913,27.928A27.92,27.92,0,0,0,250.077,277.146Z"/>
</svg>
