<svg xmlns="http://www.w3.org/2000/svg" width="100" height="100" viewBox="0 0 500 500">
  <metadata><?xpacket begin="﻿" id="W5M0MpCehiHzreSzNTczkc9d"?>
<x:xmpmeta xmlns:x="adobe:ns:meta/" x:xmptk="Adobe XMP Core 5.6-c142 79.160924, 2017/07/13-01:06:39        ">
   <rdf:RDF xmlns:rdf="http://www.w3.org/1999/02/22-rdf-syntax-ns#">
      <rdf:Description rdf:about=""/>
   </rdf:RDF>
</x:xmpmeta>
                                                                                                    
                                                                                                    
                                                                                                    
                                                                                                    
                                                                                                    
                                                                                                    
                                                                                                    
                                                                                                    
                                                                                                    
                                                                                                    
                                                                                                    
                                                                                                    
                                                                                                    
                                                                                                    
                                                                                                    
                                                                                                    
                                                                                                    
                                                                                                    
                                                                                                    
                                                                                                    
                           
<?xpacket end="w"?></metadata>
<defs>
    <style>
      .cls-1 {
        fill-rule: evenodd;
      }
    </style>
  </defs>
  <path id="regular" class="cls-1" d="M390,460H110a15,15,0,0,1-15-15V55a15,15,0,0,1,15-15H296a9.928,9.928,0,0,1,5.837,2.149l101.01,101.01A10.354,10.354,0,0,1,405,149V445A15,15,0,0,1,390,460ZM369,186c0-3.338-3.6-7-7-7H281a15,15,0,0,1-15-15V82a6.559,6.559,0,0,0-6-6H146a15,15,0,0,0-15,15V409a15,15,0,0,0,15,15H354a15,15,0,0,0,15-15V186ZM328.016,324.994h-24.63c-0.457,1.22-.97,2.413-1.507,3.592l17.433,17.433a10,10,0,0,1,0,14.142L305.17,374.3a10,10,0,0,1-14.142,0l-17.43-17.43c-1.181.538-2.375,1.052-3.6,1.51V383a10,10,0,0,1-10,10H240a10,10,0,0,1-10-10V358.383c-1.221-.458-2.42-0.962-3.6-1.5L208.988,374.3a10,10,0,0,1-14.142,0L180.7,360.154a10,10,0,0,1,0-14.142l17.4-17.4c-0.539-1.182-1.023-2.392-1.481-3.615h-24.61a10,10,0,0,1-10-10v-20a10,10,0,0,1,10-10h24.6c0.458-1.221.97-2.413,1.508-3.592l-17.408-17.408a10,10,0,0,1,0-14.142l14.142-14.142a10,10,0,0,1,14.142,0l17.411,17.411c1.177-.536,2.368-1.047,3.586-1.5V227a10,10,0,0,1,10-10h20a10,10,0,0,1,10,10v24.617c1.221,0.458,2.42.962,3.6,1.5L291.012,235.7a10,10,0,0,1,14.142,0L319.3,249.846a10,10,0,0,1,0,14.142l-17.4,17.4c0.537,1.178,1.019,2.384,1.477,3.6h24.646a10,10,0,0,1,10,10v20A10,10,0,0,1,328.016,324.994ZM249.5,283A21.5,21.5,0,1,0,271,304.5,21.5,21.5,0,0,0,249.5,283ZM231,131H160a10,10,0,0,1-10-10V105a10,10,0,0,1,10-10h71a10,10,0,0,1,10,10v16A10,10,0,0,1,231,131Z"/>
</svg>
