<svg xmlns="http://www.w3.org/2000/svg" width="100" height="100" viewBox="0 0 500 500">
  <metadata><?xpacket begin="﻿" id="W5M0MpCehiHzreSzNTczkc9d"?>
<x:xmpmeta xmlns:x="adobe:ns:meta/" x:xmptk="Adobe XMP Core 5.6-c142 79.160924, 2017/07/13-01:06:39        ">
   <rdf:RDF xmlns:rdf="http://www.w3.org/1999/02/22-rdf-syntax-ns#">
      <rdf:Description rdf:about=""/>
   </rdf:RDF>
</x:xmpmeta>
                                                                                                    
                                                                                                    
                                                                                                    
                                                                                                    
                                                                                                    
                                                                                                    
                                                                                                    
                                                                                                    
                                                                                                    
                                                                                                    
                                                                                                    
                                                                                                    
                                                                                                    
                                                                                                    
                                                                                                    
                                                                                                    
                                                                                                    
                                                                                                    
                                                                                                    
                                                                                                    
                           
<?xpacket end="w"?></metadata>
<defs>
    <style>
      .cls-1 {
        fill-rule: evenodd;
      }
    </style>
  </defs>
  <path id="regular" class="cls-1" d="M122.954,99.034l85.41,318.756a10,10,0,0,1-19.318,5.176L103.636,104.21A10,10,0,0,1,122.954,99.034Zm167.881,141C248.628,197.823,217.564,184.969,171,228c-5.459-20.231-25.128-97.615-33.333-128.9,47.029-47.981,82.313-31.761,126,11.926C316.766,164.127,363,87,363,87l33.333,128.9S338.349,287.544,290.835,240.03ZM352,129c-12.794,19.582-54.629,35.707-83,10-30.749-27.862-67.784-65.375-108-28,5.741,21.984,18.727,68.5,22.547,82.714C219.521,168.434,251.579,176.251,282,205c35.334,33.391,51.7,40.673,91,5C368.3,193.812,354.611,138.661,352,129Z"/>
</svg>
