<svg xmlns="http://www.w3.org/2000/svg" width="100" height="100" viewBox="0 0 500 500">
  <metadata><?xpacket begin="﻿" id="W5M0MpCehiHzreSzNTczkc9d"?>
<x:xmpmeta xmlns:x="adobe:ns:meta/" x:xmptk="Adobe XMP Core 5.6-c142 79.160924, 2017/07/13-01:06:39        ">
   <rdf:RDF xmlns:rdf="http://www.w3.org/1999/02/22-rdf-syntax-ns#">
      <rdf:Description rdf:about=""/>
   </rdf:RDF>
</x:xmpmeta>
                                                                                                    
                                                                                                    
                                                                                                    
                                                                                                    
                                                                                                    
                                                                                                    
                                                                                                    
                                                                                                    
                                                                                                    
                                                                                                    
                                                                                                    
                                                                                                    
                                                                                                    
                                                                                                    
                                                                                                    
                                                                                                    
                                                                                                    
                                                                                                    
                                                                                                    
                                                                                                    
                           
<?xpacket end="w"?></metadata>
<defs>
    <style>
      .cls-1 {
        fill: #fff;
        fill-rule: evenodd;
      }
    </style>
  </defs>
  <path id="Aa" class="cls-1" d="M377,392H123a15,15,0,0,1-15-15V123a15,15,0,0,1,15-15H377a15,15,0,0,1,15,15V377A15,15,0,0,1,377,392ZM157.013,314.343l14.97-41.283h57l15.9,41.283h20.549L209.639,178.035H190.207L137.859,314.343h19.154Zm35.146-95.955a173.807,173.807,0,0,0,7.346-26.034q3.159,11.065,9.669,28.266L223.4,258.369H177.19Zm150.467,95.955h17.48a37.2,37.2,0,0,1-4.231-11.855q-1.07-6.181-1.069-29.521V250.652q0-11.157-.837-15.434a26.336,26.336,0,0,0-5.207-11.39q-3.72-4.509-11.622-7.485t-20.548-2.976a65.946,65.946,0,0,0-22.408,3.487q-9.672,3.487-14.784,9.949t-7.346,16.969L288.419,246q2.7-10.506,8.321-14.644t17.434-4.138q12.644,0,19.061,5.672,4.741,4.183,4.742,14.412,0,0.93-.093,4.37-9.577,3.346-29.847,5.765a119.754,119.754,0,0,0-14.876,2.51,40.678,40.678,0,0,0-12.041,5.486,27.3,27.3,0,0,0-8.647,9.623,27.015,27.015,0,0,0-3.3,13.25q0,12.366,8.74,20.316t25.012,7.949a51.735,51.735,0,0,0,18.456-3.254q8.6-3.253,17.9-11.157a35.454,35.454,0,0,0,3.347,12.18h0Zm-4.742-43.421q0,11.065-2.7,16.736a26.05,26.05,0,0,1-11.064,11.576,34.509,34.509,0,0,1-17.2,4.23q-9.764,0-14.83-4.463a14.791,14.791,0,0,1-2.743-19.107,14.556,14.556,0,0,1,6.6-5.439q4.276-1.858,14.6-3.347,18.222-2.6,27.336-6.323v6.137Z"/>
</svg>
