<svg xmlns="http://www.w3.org/2000/svg" width="100" height="100" viewBox="0 0 500 500">
  <metadata><?xpacket begin="﻿" id="W5M0MpCehiHzreSzNTczkc9d"?>
<x:xmpmeta xmlns:x="adobe:ns:meta/" x:xmptk="Adobe XMP Core 5.6-c142 79.160924, 2017/07/13-01:06:39        ">
   <rdf:RDF xmlns:rdf="http://www.w3.org/1999/02/22-rdf-syntax-ns#">
      <rdf:Description rdf:about=""/>
   </rdf:RDF>
</x:xmpmeta>
                                                                                                    
                                                                                                    
                                                                                                    
                                                                                                    
                                                                                                    
                                                                                                    
                                                                                                    
                                                                                                    
                                                                                                    
                                                                                                    
                                                                                                    
                                                                                                    
                                                                                                    
                                                                                                    
                                                                                                    
                                                                                                    
                                                                                                    
                                                                                                    
                                                                                                    
                                                                                                    
                           
<?xpacket end="w"?></metadata>
<defs>
    <style>
      .cls-1 {
        fill: #fff;
        fill-rule: evenodd;
      }
    </style>
  </defs>
  <path id="regular" class="cls-1" d="M377,392H123a15,15,0,0,1-15-15V123a15,15,0,0,1,15-15H377a15,15,0,0,1,15,15V377A15,15,0,0,1,377,392ZM356,149a5,5,0,0,0-5-5H149a5,5,0,0,0-5,5V351a5,5,0,0,0,5,5H351a5,5,0,0,0,5-5V149ZM324.747,295.764a52,52,0,0,1-14.932,9.309,43.175,43.175,0,0,1-15.4,2.715q-13.575,0-20.866-6.633a21.886,21.886,0,0,1-7.292-16.949,22.533,22.533,0,0,1,2.754-11.054,22.779,22.779,0,0,1,7.214-8.028,33.933,33.933,0,0,1,10.045-4.577,99.9,99.9,0,0,1,12.411-2.094q16.911-2.016,24.9-4.81,0.076-2.868.077-3.645,0-8.534-3.956-12.024-5.352-4.731-15.9-4.732-9.852,0-14.544,3.452t-6.943,12.218l-13.652-1.862q1.861-8.765,6.128-14.157t12.333-8.3a55.016,55.016,0,0,1,18.695-2.909q10.548,0,17.143,2.483t9.7,6.244a21.982,21.982,0,0,1,4.344,9.5,78.566,78.566,0,0,1,.7,12.877v18.617q0,19.471.893,24.629a31,31,0,0,0,3.529,9.89H327.54A29.565,29.565,0,0,1,324.747,295.764Zm-1.163-31.183q-7.6,3.1-22.806,5.275-8.61,1.24-12.179,2.792a12.145,12.145,0,0,0-5.507,4.538,12.34,12.34,0,0,0,2.288,15.941q4.227,3.723,12.373,3.723a28.785,28.785,0,0,0,14.35-3.529,21.736,21.736,0,0,0,9.231-9.658q2.249-4.731,2.25-13.962v-5.12Zm-90.857,6.9H185.176l-12.489,34.441h-15.98L200.38,192.207h16.212l46.542,113.719H245.991ZM216.2,227.735q-5.43-14.351-8.067-23.582a145.082,145.082,0,0,1-6.128,21.72L189.52,259.228h38.552Z"/>
</svg>
