<svg xmlns="http://www.w3.org/2000/svg" width="100" height="100" viewBox="0 0 500 500">
  <metadata><?xpacket begin="﻿" id="W5M0MpCehiHzreSzNTczkc9d"?>
<x:xmpmeta xmlns:x="adobe:ns:meta/" x:xmptk="Adobe XMP Core 5.6-c142 79.160924, 2017/07/13-01:06:39        ">
   <rdf:RDF xmlns:rdf="http://www.w3.org/1999/02/22-rdf-syntax-ns#">
      <rdf:Description rdf:about=""/>
   </rdf:RDF>
</x:xmpmeta>
                                                                                                    
                                                                                                    
                                                                                                    
                                                                                                    
                                                                                                    
                                                                                                    
                                                                                                    
                                                                                                    
                                                                                                    
                                                                                                    
                                                                                                    
                                                                                                    
                                                                                                    
                                                                                                    
                                                                                                    
                                                                                                    
                                                                                                    
                                                                                                    
                                                                                                    
                                                                                                    
                           
<?xpacket end="w"?></metadata>
<defs>
    <style>
      .cls-1 {
        fill-rule: evenodd;
      }
    </style>
  </defs>
  <path id="filled" class="cls-1" d="M390,460H110a15,15,0,0,1-15-15V55a15,15,0,0,1,15-15H296a9.928,9.928,0,0,1,5.837,2.149l101.01,101.01A10.354,10.354,0,0,1,405,149V445A15,15,0,0,1,390,460ZM293,61l91,91a15,15,0,0,1-15,15H293a15,15,0,0,1-15-15V76A15,15,0,0,1,293,61ZM250,407A102,102,0,1,1,352,305,102,102,0,0,1,250,407Zm0-30.026a71.607,71.607,0,0,0,38.353-11.082L250,327.539l-38.353,38.353A71.607,71.607,0,0,0,250,376.974Zm-60.892-33.621L227.461,305l-38.353-38.353A71.908,71.908,0,0,0,189.108,343.353ZM250,233.026a71.607,71.607,0,0,0-38.353,11.082L250,282.461l38.353-38.353A71.607,71.607,0,0,0,250,233.026Zm60.892,33.621L272.539,305l38.353,38.353A71.908,71.908,0,0,0,310.892,266.647Z"/>
</svg>
