<svg xmlns="http://www.w3.org/2000/svg" width="100" height="100" viewBox="0 0 500 500">
  <metadata><?xpacket begin="﻿" id="W5M0MpCehiHzreSzNTczkc9d"?>
<x:xmpmeta xmlns:x="adobe:ns:meta/" x:xmptk="Adobe XMP Core 5.6-c142 79.160924, 2017/07/13-01:06:39        ">
   <rdf:RDF xmlns:rdf="http://www.w3.org/1999/02/22-rdf-syntax-ns#">
      <rdf:Description rdf:about=""/>
   </rdf:RDF>
</x:xmpmeta>
                                                                                                    
                                                                                                    
                                                                                                    
                                                                                                    
                                                                                                    
                                                                                                    
                                                                                                    
                                                                                                    
                                                                                                    
                                                                                                    
                                                                                                    
                                                                                                    
                                                                                                    
                                                                                                    
                                                                                                    
                                                                                                    
                                                                                                    
                                                                                                    
                                                                                                    
                                                                                                    
                           
<?xpacket end="w"?></metadata>
<defs>
    <style>
      .cls-1 {
        fill-rule: evenodd;
      }
    </style>
  </defs>
  <path id="regular" class="cls-1" d="M458,376H22.474a142.669,142.669,0,0,1,88.6-112.035,80,80,0,1,1,105.542.271A142.671,142.671,0,0,1,264.4,295.914a121.3,121.3,0,0,1,28.305-15.944,68.355,68.355,0,1,1,90.177.232A122.223,122.223,0,0,1,458,376ZM164,160a44,44,0,1,0,44,44A44,44,0,0,0,164,160Zm-1,130a105.863,105.863,0,0,0-89.964,50H252.964A105.864,105.864,0,0,0,163,290Zm174.927-99.143a37.715,37.715,0,1,0,37.595,37.714A37.654,37.654,0,0,0,337.927,190.857Zm-0.854,111.429a89.836,89.836,0,0,0-53.457,17.546,141.99,141.99,0,0,1,12.822,25.311h117.5A90.391,90.391,0,0,0,337.073,302.286Z"/>
</svg>
