<svg xmlns="http://www.w3.org/2000/svg" width="100" height="100" viewBox="0 0 500 500">
  <metadata><?xpacket begin="﻿" id="W5M0MpCehiHzreSzNTczkc9d"?>
<x:xmpmeta xmlns:x="adobe:ns:meta/" x:xmptk="Adobe XMP Core 5.6-c142 79.160924, 2017/07/13-01:06:39        ">
   <rdf:RDF xmlns:rdf="http://www.w3.org/1999/02/22-rdf-syntax-ns#">
      <rdf:Description rdf:about=""/>
   </rdf:RDF>
</x:xmpmeta>
                                                                                                    
                                                                                                    
                                                                                                    
                                                                                                    
                                                                                                    
                                                                                                    
                                                                                                    
                                                                                                    
                                                                                                    
                                                                                                    
                                                                                                    
                                                                                                    
                                                                                                    
                                                                                                    
                                                                                                    
                                                                                                    
                                                                                                    
                                                                                                    
                                                                                                    
                                                                                                    
                           
<?xpacket end="w"?></metadata>
<defs>
    <style>
      .cls-1 {
        fill: #fff;
        fill-rule: evenodd;
      }
    </style>
  </defs>
  <path id="regular" class="cls-1" d="M468.248,162.778a17.93,17.93,0,0,1-12.807,5.172H400.763v72.657h-36.2V59.087h90.883a17.668,17.668,0,0,1,17.979,17.98v72.657A18.221,18.221,0,0,1,468.248,162.778Zm-31.033-37.437V95.293H400.763v36.452h36.452v-6.4ZM437.644,269.5a16.691,16.691,0,0,1,16.985,16.985V440.974h-34.2V303.7H385.992V440.974h-34.2V269.5h85.855ZM304.511,95.293H268.059V240.607H231.853V95.293H195.4V240.607H159.2V77.067a18.078,18.078,0,0,1,18.226-17.98h54.431a18.078,18.078,0,0,1,18.226,17.98,17.668,17.668,0,0,1,17.98-17.98h54.677a17.668,17.668,0,0,1,17.98,17.98v163.54h-36.2V95.293ZM99.149,240.607H62.7V95.293H26.492V59.087H135.354V95.293H99.149V240.607ZM78.543,398.163v42.811h-34.2V269.5h34.2V398.163ZM118.283,269.5H186.92a16.691,16.691,0,0,1,16.985,16.985v34.434H169.7V303.7H135.268V406.771H169.7V389.554h34.2v34.2a17.079,17.079,0,0,1-16.985,17.218H118.283a17.482,17.482,0,0,1-17.217-17.218V286.482A17.077,17.077,0,0,1,118.283,269.5Zm125.362,0h68.637a16.691,16.691,0,0,1,16.985,16.985V423.756a17.079,17.079,0,0,1-16.985,17.218H243.645a17.484,17.484,0,0,1-17.218-17.218V286.482A17.079,17.079,0,0,1,243.645,269.5Zm16.985,85.622v51.652h34.435V303.7H260.63v51.42Z"/>
</svg>
