<svg xmlns="http://www.w3.org/2000/svg" width="100" height="100" viewBox="0 0 500 500">
  <metadata><?xpacket begin="﻿" id="W5M0MpCehiHzreSzNTczkc9d"?>
<x:xmpmeta xmlns:x="adobe:ns:meta/" x:xmptk="Adobe XMP Core 5.6-c142 79.160924, 2017/07/13-01:06:39        ">
   <rdf:RDF xmlns:rdf="http://www.w3.org/1999/02/22-rdf-syntax-ns#">
      <rdf:Description rdf:about=""/>
   </rdf:RDF>
</x:xmpmeta>
                                                                                                    
                                                                                                    
                                                                                                    
                                                                                                    
                                                                                                    
                                                                                                    
                                                                                                    
                                                                                                    
                                                                                                    
                                                                                                    
                                                                                                    
                                                                                                    
                                                                                                    
                                                                                                    
                                                                                                    
                                                                                                    
                                                                                                    
                                                                                                    
                                                                                                    
                                                                                                    
                           
<?xpacket end="w"?></metadata>
<defs>
    <style>
      .cls-1 {
        fill: #fff;
        fill-rule: evenodd;
      }
    </style>
  </defs>
  <path id="filled" class="cls-1" d="M379,394H122a15,15,0,0,1-15-15V122a15,15,0,0,1,15-15H379a15,15,0,0,1,15,15V379A15,15,0,0,1,379,394ZM332,183.453V302.945c0,6.3-13,17.61-29.044,17.61s-26.518-7.884-26.518-17.61,10.478-18.867,26.518-18.867h8.84c3.736,0,6.313-4.469,6.313-12.578V200.949c0-2.1-2.2-2.911-4.547-2.067s-90.516,32.876-93.068,33.738c-2.94.994-5.932,3.2-5.932,7.464v94.307c0,6.3-13,17.609-29.044,17.609S159,344.117,159,334.391s10.478-18.868,26.518-18.868h8.84c3.736,0,6.314-4.469,6.314-12.578V229.738a13.178,13.178,0,0,1-.383-3.178V214.513c0-7.393,5.313-15.312,11.866-17.687l107.983-39.148C326.691,155.3,332,159.369,332,166.761,332,166.761,332,186.819,332,183.453Z"/>
</svg>
