<svg xmlns="http://www.w3.org/2000/svg" width="100" height="100" viewBox="0 0 500 500">
  <metadata><?xpacket begin="﻿" id="W5M0MpCehiHzreSzNTczkc9d"?>
<x:xmpmeta xmlns:x="adobe:ns:meta/" x:xmptk="Adobe XMP Core 5.6-c142 79.160924, 2017/07/13-01:06:39        ">
   <rdf:RDF xmlns:rdf="http://www.w3.org/1999/02/22-rdf-syntax-ns#">
      <rdf:Description rdf:about=""/>
   </rdf:RDF>
</x:xmpmeta>
                                                                                                    
                                                                                                    
                                                                                                    
                                                                                                    
                                                                                                    
                                                                                                    
                                                                                                    
                                                                                                    
                                                                                                    
                                                                                                    
                                                                                                    
                                                                                                    
                                                                                                    
                                                                                                    
                                                                                                    
                                                                                                    
                                                                                                    
                                                                                                    
                                                                                                    
                                                                                                    
                           
<?xpacket end="w"?></metadata>
<defs>
    <style>
      .cls-1 {
        fill: #fff;
        fill-rule: evenodd;
      }
    </style>
  </defs>
  <path id="regular" class="cls-1" d="M379,394H122a15,15,0,0,1-15-15V122a15,15,0,0,1,15-15H379a15,15,0,0,1,15,15V379A15,15,0,0,1,379,394ZM357,148a5,5,0,0,0-5-5H148a5,5,0,0,0-5,5V352a5,5,0,0,0,5,5H352a5,5,0,0,0,5-5V148Zm-43,41.655V291.989c0,5.4-11.124,15.081-24.847,15.081s-22.686-6.751-22.686-15.081,8.964-16.158,22.686-16.158h7.562c3.2,0,5.4-3.828,5.4-10.772v-60.42c0-1.8-1.882-2.494-3.89-1.771s-77.436,28.155-79.619,28.894c-2.516.851-5.075,2.744-5.075,6.392v80.765c0,5.4-11.124,15.081-24.847,15.081S166,327.249,166,318.919s8.964-16.158,22.686-16.158h7.562c3.2,0,5.4-3.827,5.4-10.772V229.294a11.318,11.318,0,0,1-.327-2.722V216.255c0-6.331,4.545-13.113,10.151-15.148l92.378-33.527c5.606-2.034,10.151,1.448,10.151,7.779C314,175.359,314,192.537,314,189.655Z"/>
</svg>
