<svg xmlns="http://www.w3.org/2000/svg" width="100" height="100" viewBox="0 0 500 500">
  <metadata><?xpacket begin="﻿" id="W5M0MpCehiHzreSzNTczkc9d"?>
<x:xmpmeta xmlns:x="adobe:ns:meta/" x:xmptk="Adobe XMP Core 5.6-c142 79.160924, 2017/07/13-01:06:39        ">
   <rdf:RDF xmlns:rdf="http://www.w3.org/1999/02/22-rdf-syntax-ns#">
      <rdf:Description rdf:about=""/>
   </rdf:RDF>
</x:xmpmeta>
                                                                                                    
                                                                                                    
                                                                                                    
                                                                                                    
                                                                                                    
                                                                                                    
                                                                                                    
                                                                                                    
                                                                                                    
                                                                                                    
                                                                                                    
                                                                                                    
                                                                                                    
                                                                                                    
                                                                                                    
                                                                                                    
                                                                                                    
                                                                                                    
                                                                                                    
                                                                                                    
                           
<?xpacket end="w"?></metadata>
<defs>
    <style>
      .cls-1 {
        fill-rule: evenodd;
      }
    </style>
  </defs>
  <path id="filled" class="cls-1" d="M425,440H76a15,15,0,0,1-15-15V76A15,15,0,0,1,76,61H425a15,15,0,0,1,15,15V425A15,15,0,0,1,425,440ZM365.162,171.857H304.514V290.9h0v1.785a42.238,42.238,0,0,0,42.216,42.262h0.594v0.03c0.2-.005.394-0.03,0.595-0.03a22.024,22.024,0,0,1,0,44.048c-0.2,0-.395-0.025-0.595-0.03V379A85.668,85.668,0,0,1,261.7,293.286c0-.6.018-1.189,0.03-1.782-0.007-.2-0.03-0.4-0.03-0.6V171.857H210.568V361.143A17.848,17.848,0,0,1,192.73,379H185.6a17.847,17.847,0,0,1-17.838-17.857V171.857H136.838A17.847,17.847,0,0,1,119,154v-7.143A17.847,17.847,0,0,1,136.838,129H365.162A17.847,17.847,0,0,1,383,146.857V154A17.847,17.847,0,0,1,365.162,171.857Z"/>
</svg>
