<svg xmlns="http://www.w3.org/2000/svg" width="100" height="100" viewBox="0 0 500 500">
  <metadata><?xpacket begin="﻿" id="W5M0MpCehiHzreSzNTczkc9d"?>
<x:xmpmeta xmlns:x="adobe:ns:meta/" x:xmptk="Adobe XMP Core 5.6-c142 79.160924, 2017/07/13-01:06:39        ">
   <rdf:RDF xmlns:rdf="http://www.w3.org/1999/02/22-rdf-syntax-ns#">
      <rdf:Description rdf:about=""/>
   </rdf:RDF>
</x:xmpmeta>
                                                                                                    
                                                                                                    
                                                                                                    
                                                                                                    
                                                                                                    
                                                                                                    
                                                                                                    
                                                                                                    
                                                                                                    
                                                                                                    
                                                                                                    
                                                                                                    
                                                                                                    
                                                                                                    
                                                                                                    
                                                                                                    
                                                                                                    
                                                                                                    
                                                                                                    
                                                                                                    
                           
<?xpacket end="w"?></metadata>
<defs>
    <style>
      .cls-1 {
        fill-rule: evenodd;
      }
    </style>
  </defs>
  <path id="filled" class="cls-1" d="M387.506,162.763l-21.579,21.618-11.041,11.061-1,1L303.7,146.172l1-1,11.04-11.061,21.579-21.618a8.505,8.505,0,0,1,12.044,0l38.14,38.209A8.543,8.543,0,0,1,387.506,162.763ZM326.282,224.1L169.207,381.46a3.535,3.535,0,0,1-3.086.991,3.682,3.682,0,0,1-1.6.658l-50.012,6.9c-1.606.221-4.738-2.916-4.516-4.525l6.885-50.1a3.913,3.913,0,0,1,1.149-2.191,3.535,3.535,0,0,1,1-2L276.1,173.823l9.535-9.552,2.509-2.514,50.184,50.276-2.509,2.513Z"/>
</svg>
