<svg xmlns="http://www.w3.org/2000/svg" width="100" height="100" viewBox="0 0 500 500">
  <metadata><?xpacket begin="﻿" id="W5M0MpCehiHzreSzNTczkc9d"?>
<x:xmpmeta xmlns:x="adobe:ns:meta/" x:xmptk="Adobe XMP Core 5.6-c142 79.160924, 2017/07/13-01:06:39        ">
   <rdf:RDF xmlns:rdf="http://www.w3.org/1999/02/22-rdf-syntax-ns#">
      <rdf:Description rdf:about=""/>
   </rdf:RDF>
</x:xmpmeta>
                                                                                                    
                                                                                                    
                                                                                                    
                                                                                                    
                                                                                                    
                                                                                                    
                                                                                                    
                                                                                                    
                                                                                                    
                                                                                                    
                                                                                                    
                                                                                                    
                                                                                                    
                                                                                                    
                                                                                                    
                                                                                                    
                                                                                                    
                                                                                                    
                                                                                                    
                                                                                                    
                           
<?xpacket end="w"?></metadata>
<defs>
    <style>
      .cls-1 {
        fill: #fff;
        fill-rule: evenodd;
      }
    </style>
  </defs>
  <path id="regular" class="cls-1" d="M418.789,360.962c-0.039.318-.093,0.628-0.144,0.944a27.169,27.169,0,0,1-1.065,4.46c-0.038.111-.081,0.217-0.12,0.327A27.179,27.179,0,0,1,391.818,385H283.088c-0.1,0-.185-0.027-0.282-0.029-0.19,0-.382-0.033-0.572-0.039-0.438-.013-0.87-0.056-1.3-0.09a26.679,26.679,0,0,1-3.923-.583c-0.1-.024-0.206-0.037-0.307-0.061-0.216-.052-0.431-0.07-0.647-0.128-0.249-.067-0.462-0.2-0.708-0.27a27.17,27.17,0,0,1-3.923-1.492c-0.386-.185-0.755-0.384-1.129-0.585a27.255,27.255,0,0,1-3.473-2.2c-0.292-.219-0.573-0.445-0.855-0.675a27.2,27.2,0,0,1-3.149-3c-0.155-.175-0.3-0.351-0.454-0.529a27.006,27.006,0,0,1-2.712-3.822c-0.066-.113-0.128-0.227-0.192-0.342-0.156-.275-0.25-0.593-0.4-0.874-0.272-.442-0.478-0.933-0.728-1.393-0.3-.548-0.6-1.083-0.862-1.65a27.027,27.027,0,0,1-1.268-3.41,27.378,27.378,0,0,1-1.188-6.317c-0.005-.091.012-0.179,0.007-0.27a27.324,27.324,0,0,1,.2-5.068c0.028-.2.1-0.388,0.133-0.587a27.17,27.17,0,0,1,3.234-9.36l54.365-94.552c0.048-.084.116-0.147,0.165-0.231a27.214,27.214,0,0,1,4.155-5.421c0.273-.275.6-0.461,0.879-0.721,0.474-.441,1-0.829,1.509-1.239a27.063,27.063,0,0,1,2.834-2.044c0.176-.108.314-0.252,0.493-0.356a27.305,27.305,0,0,1,2.915-1.445c0.293-.125.588-0.233,0.885-0.347a26.786,26.786,0,0,1,4.38-1.3c0.114-.023.227-0.039,0.341-0.06a27.131,27.131,0,0,1,28.611,13.145L414.482,342.2c0.049,0.084.07,0.175,0.117,0.26,0.173,0.309.306,0.647,0.469,0.964l0.314,0.545c0.048,0.084.07,0.175,0.117,0.26,0.115,0.206.174,0.45,0.284,0.661,0.1,0.227.2,0.456,0.295,0.685,0.013,0.034.029,0.066,0.042,0.1,0.031,0.074.066,0.146,0.095,0.221a29.922,29.922,0,0,1,1.426,3.314c0.053,0.163.115,0.321,0.165,0.485,0.089,0.291.213,0.562,0.292,0.858,0.068,0.256.063,0.512,0.124,0.768a27.247,27.247,0,0,1,.663,4.088c0.037,0.454.053,0.9,0.068,1.353,0.01,0.315.047,0.624,0.047,0.941A27.55,27.55,0,0,1,418.789,360.962ZM337,273.01l-46.01,80h92.02Zm-5.358-62.1a27.169,27.169,0,0,1-1.065,4.46c-0.038.111-.081,0.217-0.12,0.327A27.179,27.179,0,0,1,304.818,234H196.088c-0.1,0-.185-0.027-0.282-0.029-0.19,0-.382-0.033-0.572-0.039-0.438-.013-0.87-0.056-1.3-0.09a26.679,26.679,0,0,1-3.923-.583c-0.1-.024-0.206-0.037-0.307-0.061-0.216-.052-0.431-0.07-0.647-0.128-0.249-.067-0.462-0.2-0.708-0.27a27.17,27.17,0,0,1-3.923-1.492c-0.386-.185-0.755-0.384-1.129-0.585a27.255,27.255,0,0,1-3.473-2.2c-0.292-.219-0.573-0.445-0.855-0.675a27.2,27.2,0,0,1-3.149-3c-0.155-.175-0.3-0.351-0.454-0.529a27.006,27.006,0,0,1-2.712-3.822c-0.066-.113-0.128-0.227-0.192-0.342-0.156-.275-0.25-0.593-0.4-0.874-0.272-.442-0.478-0.933-0.728-1.393-0.3-.548-0.6-1.083-0.862-1.65a27.027,27.027,0,0,1-1.268-3.41,27.378,27.378,0,0,1-1.188-6.317c-0.005-.091.012-0.179,0.007-0.27a27.324,27.324,0,0,1,.2-5.068c0.028-.2.1-0.388,0.133-0.587a27.17,27.17,0,0,1,3.234-9.36l54.365-94.551c0.048-.084.116-0.148,0.165-0.231a27.22,27.22,0,0,1,4.155-5.422c0.273-.275.6-0.46,0.879-0.721,0.474-.441,1-0.829,1.509-1.239a27.154,27.154,0,0,1,2.834-2.044c0.176-.107.314-0.252,0.493-0.356a27.191,27.191,0,0,1,2.915-1.445c0.293-.125.588-0.233,0.885-0.347a26.916,26.916,0,0,1,4.38-1.3c0.114-.023.227-0.038,0.341-0.06a27.131,27.131,0,0,1,28.611,13.146L327.482,191.2c0.049,0.084.07,0.175,0.117,0.26,0.173,0.309.306,0.647,0.469,0.964l0.314,0.545c0.048,0.084.07,0.175,0.117,0.26,0.115,0.206.174,0.45,0.284,0.661,0.1,0.227.2,0.456,0.295,0.685,0.013,0.034.029,0.066,0.042,0.1,0.031,0.074.066,0.146,0.095,0.221a29.922,29.922,0,0,1,1.426,3.314c0.053,0.163.115,0.321,0.165,0.485,0.089,0.291.213,0.562,0.292,0.858,0.068,0.256.063,0.512,0.124,0.768a27.247,27.247,0,0,1,.663,4.088c0.037,0.454.053,0.9,0.068,1.353,0.01,0.315.047,0.624,0.047,0.941a27.55,27.55,0,0,1-.211,3.257C331.75,210.28,331.7,210.59,331.645,210.906ZM250,122.01l-46.01,80h92.02ZM186.118,247.651L240.482,342.2c0.049,0.084.07,0.175,0.117,0.26,0.173,0.309.306,0.647,0.469,0.964l0.314,0.545c0.048,0.084.07,0.175,0.117,0.26,0.115,0.206.174,0.45,0.284,0.661,0.1,0.227.2,0.456,0.3,0.685,0.013,0.034.029,0.066,0.042,0.1,0.031,0.074.066,0.146,0.095,0.221a29.922,29.922,0,0,1,1.426,3.314c0.053,0.163.115,0.321,0.165,0.485,0.089,0.291.213,0.562,0.292,0.858,0.068,0.256.063,0.512,0.124,0.768a27.247,27.247,0,0,1,.663,4.088c0.037,0.454.053,0.9,0.068,1.353,0.01,0.315.047,0.624,0.047,0.941a27.55,27.55,0,0,1-.211,3.257c-0.039.318-.093,0.628-0.144,0.944a27.169,27.169,0,0,1-1.065,4.46c-0.038.111-.081,0.217-0.12,0.327A27.179,27.179,0,0,1,217.818,385H109.088c-0.1,0-.185-0.027-0.282-0.029-0.19,0-.382-0.033-0.572-0.039-0.438-.013-0.87-0.056-1.3-0.09a26.679,26.679,0,0,1-3.923-.583c-0.1-.024-0.206-0.037-0.307-0.061-0.216-.052-0.431-0.07-0.647-0.128-0.249-.067-0.462-0.2-0.708-0.27a27.158,27.158,0,0,1-3.923-1.492c-0.386-.185-0.755-0.384-1.129-0.585a27.262,27.262,0,0,1-3.473-2.2c-0.292-.219-0.573-0.445-0.855-0.675a27.218,27.218,0,0,1-3.149-3c-0.155-.175-0.3-0.351-0.454-0.529A27.062,27.062,0,0,1,85.65,371.5c-0.066-.113-0.128-0.227-0.192-0.342-0.156-.275-0.25-0.593-0.4-0.874-0.273-.442-0.479-0.933-0.728-1.393-0.3-.548-0.6-1.083-0.863-1.65a29.615,29.615,0,0,1-2.455-9.727c-0.005-.091.012-0.179,0.007-0.27a27.255,27.255,0,0,1,.2-5.068c0.028-.2.1-0.388,0.132-0.587a27.177,27.177,0,0,1,3.234-9.36l54.365-94.552c0.048-.084.116-0.147,0.165-0.231a27.214,27.214,0,0,1,4.155-5.421c0.273-.275.6-0.461,0.879-0.721,0.474-.441,1-0.829,1.509-1.239a27.063,27.063,0,0,1,2.834-2.044c0.176-.108.314-0.252,0.493-0.356a27.305,27.305,0,0,1,2.915-1.445c0.293-.125.588-0.233,0.885-0.347a26.786,26.786,0,0,1,4.38-1.3c0.114-.023.227-0.039,0.341-0.06A27.131,27.131,0,0,1,186.118,247.651ZM116.993,353.006h92.02l-46.01-80Z"/>
</svg>
