<svg xmlns="http://www.w3.org/2000/svg" width="100" height="100" viewBox="0 0 500 500">
  <metadata><?xpacket begin="﻿" id="W5M0MpCehiHzreSzNTczkc9d"?>
<x:xmpmeta xmlns:x="adobe:ns:meta/" x:xmptk="Adobe XMP Core 5.6-c142 79.160924, 2017/07/13-01:06:39        ">
   <rdf:RDF xmlns:rdf="http://www.w3.org/1999/02/22-rdf-syntax-ns#">
      <rdf:Description rdf:about=""/>
   </rdf:RDF>
</x:xmpmeta>
                                                                                                    
                                                                                                    
                                                                                                    
                                                                                                    
                                                                                                    
                                                                                                    
                                                                                                    
                                                                                                    
                                                                                                    
                                                                                                    
                                                                                                    
                                                                                                    
                                                                                                    
                                                                                                    
                                                                                                    
                                                                                                    
                                                                                                    
                                                                                                    
                                                                                                    
                                                                                                    
                           
<?xpacket end="w"?></metadata>
<defs>
    <style>
      .cls-1 {
        fill-rule: evenodd;
      }
    </style>
  </defs>
  <path id="TXT" class="cls-1" d="M390,460H110a15,15,0,0,1-15-15V55a15,15,0,0,1,15-15H296a9.928,9.928,0,0,1,5.837,2.149l101.01,101.01A10.354,10.354,0,0,1,405,149V445A15,15,0,0,1,390,460ZM146,76a15,15,0,0,0-15,15V409a15,15,0,0,0,15,15H354a15,15,0,0,0,15-15V186c0-3.338-3.6-7-7-7H281a15,15,0,0,1-15-15V82a6.559,6.559,0,0,0-6-6H146Zm-9.377,182.621a2.642,2.642,0,0,0-.815,1.935v16.4a2.783,2.783,0,0,0,2.75,2.75h21.9v46.649a2.783,2.783,0,0,0,2.75,2.75h20.982a2.783,2.783,0,0,0,2.75-2.75V279.7h21.9a2.783,2.783,0,0,0,2.75-2.75v-16.4a2.783,2.783,0,0,0-2.75-2.75H138.558A2.642,2.642,0,0,0,136.623,258.621Zm129.454,34.018,21.288-31.472a2.2,2.2,0,0,0-.357-2.7,2.156,2.156,0,0,0-1.578-.662h-21.9a5.08,5.08,0,0,0-4.176,2.342L250.8,273.389l-7.945-13.037a4.91,4.91,0,0,0-4.278-2.546h-22a2.157,2.157,0,0,0-1.579.662,2.044,2.044,0,0,0-.662,1.477,2.02,2.02,0,0,0,.306,1.222l20.065,30.148L212.2,325.742a2.2,2.2,0,0,0,.357,2.7,2.151,2.151,0,0,0,1.578.662h22a4.745,4.745,0,0,0,4.176-2.343l9.676-15.176,9.879,15.176a4.6,4.6,0,0,0,4.176,2.343h21.9a2.156,2.156,0,0,0,1.579-.662,2.049,2.049,0,0,0,.662-1.477,2.024,2.024,0,0,0-.306-1.222ZM289.4,258.621a2.642,2.642,0,0,0-.815,1.935v16.4a2.783,2.783,0,0,0,2.75,2.75h21.9v46.649a2.783,2.783,0,0,0,2.751,2.75h20.981a2.783,2.783,0,0,0,2.75-2.75V279.7h21.9a2.783,2.783,0,0,0,2.75-2.75v-16.4a2.783,2.783,0,0,0-2.75-2.75H291.336A2.642,2.642,0,0,0,289.4,258.621Z"/>
</svg>
