<svg xmlns="http://www.w3.org/2000/svg" width="100" height="100" viewBox="0 0 500 500">
  <metadata><?xpacket begin="﻿" id="W5M0MpCehiHzreSzNTczkc9d"?>
<x:xmpmeta xmlns:x="adobe:ns:meta/" x:xmptk="Adobe XMP Core 5.6-c142 79.160924, 2017/07/13-01:06:39        ">
   <rdf:RDF xmlns:rdf="http://www.w3.org/1999/02/22-rdf-syntax-ns#">
      <rdf:Description rdf:about=""/>
   </rdf:RDF>
</x:xmpmeta>
                                                                                                    
                                                                                                    
                                                                                                    
                                                                                                    
                                                                                                    
                                                                                                    
                                                                                                    
                                                                                                    
                                                                                                    
                                                                                                    
                                                                                                    
                                                                                                    
                                                                                                    
                                                                                                    
                                                                                                    
                                                                                                    
                                                                                                    
                                                                                                    
                                                                                                    
                                                                                                    
                           
<?xpacket end="w"?></metadata>
<defs>
    <style>
      .cls-1 {
        fill: #fff;
        fill-rule: evenodd;
      }
    </style>
  </defs>
  <path id="regular" class="cls-1" d="M407.871,360.871L260.72,437.546c-6.219,3.24-16.3,3.24-22.523,0L91.047,360.871C93.812,362.312,80,352.765,80,343.315V155.324c0-12.281,20.489-20.727,11.682-16.136L238.936,62.424c6.224-3.245,16.315-3.245,22.539,0l147.211,76.741c3.448,2.206,11.314,8.261,11.314,16.159V343.315C420,354.024,402.7,363.568,407.871,360.871ZM233,274.11V249.573c0-13.8,1.72-20.038,17-28.1,1.382-.73,6.908-3.63,15-7.871l-28.431-15c-15.255,8-24.968,13.086-25.854,13.552-4.828,2.537-6.711,6.267-6.711,10.241v36.417Zm-29,5.048v44.258l29,15.305V294.463Zm80.341-75.7,33.517-17.569-28.423-15-33.52,17.567ZM233,359.073l-29-15.3v41.15s13.04,6.911,21.666,11.34c4.879,2.5,7.334-1.419,7.334-5.868V359.073Zm-75-39.581v41.351l29,15.179V334.8Zm29-5.048V270.186l-29-15.3v44.258Zm-29-79.916,29,15.305v-25.26c0-13.8,1.72-20.038,17-28.1,1.779-.939,6.81-3.581,14.305-7.512l-29.379-15.5c-14.309,7.5-23.361,12.244-24.215,12.693-4.828,2.537-6.711,6.267-6.711,10.241v38.14Zm32.011-80.854L223.528,136.1l-27.7-14.62-33.534,17.559Zm18.265,9.639,29.373,15.5c9.754-5.114,21.127-11.075,33.518-17.569l-29.37-15.5ZM290.517,151.1l35.267-18.48L296.3,117.185l-35.15,18.42Zm18.269,9.642,28.422,15c10.714-5.616,20.866-10.777,29.139-15.271,3.521-1.913,4.549-4.276-1.288-7.285-8.482-4.371-20.936-10.963-20.936-10.963ZM120.851,341.4L141,351.945V310.52l-29-15.305V327C112,334.712,123.1,342.575,120.851,341.4ZM141,290.167V245.91l-29-15.305v44.257ZM121.366,160.475l0.829-.434C118.185,162.135,112,164.4,112,174v36.252l29,15.3V198.573c0-13.8,1.72-20.038,17-28.1,1.646-.869,6.079-3.2,12.667-6.653l-27.733-14.637L122.2,160.041l0.088-.057c1.282-.7,1.032-0.65,0,0C122.033,160.121,121.739,160.279,121.366,160.475ZM259.324,97.824c-5.057-2.648-13.256-2.648-18.313,0l-25.827,13.524,27.695,14.616c11.282-5.913,23.1-12.108,35.079-18.382Zm149.359,41.339C406.29,137.912,406.877,138.008,408.683,139.163Zm0.047,0.025-0.044-.023,0,0Z"/>
</svg>
