<svg xmlns="http://www.w3.org/2000/svg" width="100" height="100" viewBox="0 0 500 500">
  <metadata><?xpacket begin="﻿" id="W5M0MpCehiHzreSzNTczkc9d"?>
<x:xmpmeta xmlns:x="adobe:ns:meta/" x:xmptk="Adobe XMP Core 5.6-c142 79.160924, 2017/07/13-01:06:39        ">
   <rdf:RDF xmlns:rdf="http://www.w3.org/1999/02/22-rdf-syntax-ns#">
      <rdf:Description rdf:about=""/>
   </rdf:RDF>
</x:xmpmeta>
                                                                                                    
                                                                                                    
                                                                                                    
                                                                                                    
                                                                                                    
                                                                                                    
                                                                                                    
                                                                                                    
                                                                                                    
                                                                                                    
                                                                                                    
                                                                                                    
                                                                                                    
                                                                                                    
                                                                                                    
                                                                                                    
                                                                                                    
                                                                                                    
                                                                                                    
                                                                                                    
                           
<?xpacket end="w"?></metadata>
<defs>
    <style>
      .cls-1 {
        fill: #fff;
        fill-rule: evenodd;
      }
    </style>
  </defs>
  <path id="filled" class="cls-1" d="M309.663,330V298.418H190.337V330H52.986V227.191l19.622-22.806,5.048,6.722,6-6.722h129l5-5.965h12.976V150h38.736V198.42h12.976l5,5.965h129l6,6.722,5.048-6.722,19.622,22.806V330H309.663Zm-109.657-72.63v-31.48a2.125,2.125,0,0,0-.668-1.565,2.181,2.181,0,0,0-1.586-.66H180.307a2.186,2.186,0,0,0-1.586.656,2.108,2.108,0,0,0-.667,1.558V258.51a6.184,6.184,0,0,1-2.3,5.166,11.625,11.625,0,0,1-12.437,0,6.181,6.181,0,0,1-2.295-5.166V225.876a2.113,2.113,0,0,0-.668-1.558,2.189,2.189,0,0,0-1.586-.656H141.328a2.176,2.176,0,0,0-1.586.66,2.121,2.121,0,0,0-.668,1.565v31.48q0,12.776,8.222,18.79t22.244,6.016q14.022,0,22.244-6.016t8.222-18.79h0Zm53.419-11.95a55.6,55.6,0,0,1-8.681-1.411q-2.172-.685-2.17-1.894,0-2.257,5.592-2.257,4.006,0,6.01,1.734a3.8,3.8,0,0,0,2.587.947h17.946a2.084,2.084,0,0,0,1.461-.5,1.709,1.709,0,0,0,.542-1.324q0-6.126-7.846-11.632t-20.575-5.5q-12.729,0-20.324,5.119t-7.6,13.42q0,14.753,23.622,17.492a56.494,56.494,0,0,1,9.932,1.653q2.5,0.846,2.5,2.3,0,2.337-7.929,2.337-5.76,0-8.1-2.131a3.964,3.964,0,0,0-2.838-1.027H220.455a1.654,1.654,0,0,0-1.92,1.82q0,7.443,7.721,12.529t21.66,5.085q13.938,0,22.369-5.158t8.43-13.462q0-8.3-5.8-12.454t-19.489-5.682h0Zm85.637-19.5-10.934,20.033-10.934-20.033a3.922,3.922,0,0,0-3.59-2.253H298.33a2.281,2.281,0,0,0-2.254,2.253v53.921a2.281,2.281,0,0,0,2.254,2.254h15.107a2.281,2.281,0,0,0,2.254-2.254V253.961l6.093,12.019a3.951,3.951,0,0,0,1.169,1.336,3.565,3.565,0,0,0,2.337.751h5.676a4.159,4.159,0,0,0,2-.543,3.49,3.49,0,0,0,1.5-1.544l6.094-12.019v25.875a2.279,2.279,0,0,0,2.253,2.254h15.108a2.281,2.281,0,0,0,2.254-2.254V225.915a2.281,2.281,0,0,0-2.254-2.253H342.651a3.921,3.921,0,0,0-3.589,2.253h0Z"/>
</svg>
