<svg xmlns="http://www.w3.org/2000/svg" width="100" height="100" viewBox="0 0 500 500">
  <metadata><?xpacket begin="﻿" id="W5M0MpCehiHzreSzNTczkc9d"?>
<x:xmpmeta xmlns:x="adobe:ns:meta/" x:xmptk="Adobe XMP Core 5.6-c142 79.160924, 2017/07/13-01:06:39        ">
   <rdf:RDF xmlns:rdf="http://www.w3.org/1999/02/22-rdf-syntax-ns#">
      <rdf:Description rdf:about=""/>
   </rdf:RDF>
</x:xmpmeta>
                                                                                                    
                                                                                                    
                                                                                                    
                                                                                                    
                                                                                                    
                                                                                                    
                                                                                                    
                                                                                                    
                                                                                                    
                                                                                                    
                                                                                                    
                                                                                                    
                                                                                                    
                                                                                                    
                                                                                                    
                                                                                                    
                                                                                                    
                                                                                                    
                                                                                                    
                                                                                                    
                           
<?xpacket end="w"?></metadata>
<defs>
    <style>
      .cls-1 {
        fill: #fff;
        fill-rule: evenodd;
      }
    </style>
  </defs>
  <path id="filled" class="cls-1" d="M82.416,379.015c-8.846-8.846-22.068-23.465-33.324-35.531C28.7,321.63,44.28,324,55.686,324H123l-6,11c-6.351,11,0,29.649,11,36s30.229,7.738,43-12l20-34,113-1,13,20c6.365,10.635,17.719,19.978,36,14l4,6c7.091,10.539,26.6,14.577,39,6,10.446-7.227,17.964-19.207,11-37l-6-9s5.118-1.193,10,3.691c8.436,8.436,28.453,31.5,42.831,45.878C467.408,387.144,457.8,388,446.045,388H107.574C94.3,388,89.482,386.081,82.416,379.015ZM392.822,364.97a23,23,0,0,1-31.922-6.244l-5.848-8.692a22.993,22.993,0,0,1-30.152-7.308L267.423,257.3l-63.992,32.14-39.512,68.437a23,23,0,1,1-39.838-23l38.3-66.339-0.575-1.13a44,44,0,1,1-1.028-63.789l79.53-39.523c24.558-12.271,50.749-4.851,60.626,14.942l17.171,33.68,80.96,120.334A23,23,0,0,1,392.822,364.97ZM80.026,237.027l-14.617-2.188a23,23,0,0,1,6.809-45.494l30.075,4.5A50.942,50.942,0,0,0,80,236C80,236.344,80.019,236.684,80.026,237.027Z"/>
</svg>
