<svg xmlns="http://www.w3.org/2000/svg" width="100" height="100" viewBox="0 0 500 500">
  <metadata><?xpacket begin="﻿" id="W5M0MpCehiHzreSzNTczkc9d"?>
<x:xmpmeta xmlns:x="adobe:ns:meta/" x:xmptk="Adobe XMP Core 5.6-c142 79.160924, 2017/07/13-01:06:39        ">
   <rdf:RDF xmlns:rdf="http://www.w3.org/1999/02/22-rdf-syntax-ns#">
      <rdf:Description rdf:about=""/>
   </rdf:RDF>
</x:xmpmeta>
                                                                                                    
                                                                                                    
                                                                                                    
                                                                                                    
                                                                                                    
                                                                                                    
                                                                                                    
                                                                                                    
                                                                                                    
                                                                                                    
                                                                                                    
                                                                                                    
                                                                                                    
                                                                                                    
                                                                                                    
                                                                                                    
                                                                                                    
                                                                                                    
                                                                                                    
                                                                                                    
                           
<?xpacket end="w"?></metadata>
<defs>
    <style>
      .cls-1 {
        fill: #fff;
        fill-rule: evenodd;
      }
    </style>
  </defs>
  <path id="regular" class="cls-1" d="M358.5,276.922a23.006,23.006,0,0,1-31.419-8.415L309,237.2V309c0,0.113-.014.222-0.017,0.334,0.006,0.222.017,0.442,0.017,0.666V445a23,23,0,0,1-46,0V324H241V445a23,23,0,0,1-46,0V310c0-.224.01-0.444,0.017-0.666,0-.112-0.017-0.221-0.017-0.334V272.5h0V186.3l-42.407-11.363c-10.728-2.917-20-9.145-21.385-20l-0.149-1.769c-0.02-.388-0.059-0.772-0.059-1.165a39.193,39.193,0,0,0-.466-5.069l-3.6-42.829c0-.055,0-0.108-0.006-0.163l-5.4.675,3.2,27.153a3.536,3.536,0,0,1-3.056,3.942l-10.413,1.265a3.505,3.505,0,0,1-3.886-3.1l-3.2-27.127a7.493,7.493,0,0,1-1.749-14.841L99.277,65.233a3.536,3.536,0,0,1,3.057-3.942l10.413-1.265a3.506,3.506,0,0,1,3.886,3.1l3.135,26.592,11.817-1.475a22.919,22.919,0,0,1,32.551-4.064l12.255-1.53-3.113-26.414a3.535,3.535,0,0,1,3.056-3.942l10.413-1.265a3.506,3.506,0,0,1,3.886,3.1l3.107,26.357,1.474-.184a7.5,7.5,0,0,1,1.858,14.885l-1.576.2,3.228,27.389a3.536,3.536,0,0,1-3.056,3.942l-10.413,1.265a3.505,3.505,0,0,1-3.886-3.1l-3.222-27.332-5.646.7c0.113,0.657.213,1.32,0.27,2l2.794,33.221,32.2,8.628C215,142.7,221.028,143.337,226.022,144H294c0.082,0,.161.011,0.243,0.012a22.994,22.994,0,0,1,20.676,11.481l52,90.025A22.983,22.983,0,0,1,358.5,276.922ZM285,177.549A4.538,4.538,0,0,0,280.473,173H222.527A4.538,4.538,0,0,0,218,177.549v111.9A4.538,4.538,0,0,0,222.527,294h57.946A4.538,4.538,0,0,0,285,289.451v-111.9ZM265,137a45,45,0,1,1,45-45A45,45,0,0,1,265,137Zm0-68a23,23,0,1,0,23,23A23,23,0,0,0,265,69Z"/>
</svg>
