<svg xmlns="http://www.w3.org/2000/svg" width="100" height="100" viewBox="0 0 500 500">
  <metadata><?xpacket begin="﻿" id="W5M0MpCehiHzreSzNTczkc9d"?>
<x:xmpmeta xmlns:x="adobe:ns:meta/" x:xmptk="Adobe XMP Core 5.6-c142 79.160924, 2017/07/13-01:06:39        ">
   <rdf:RDF xmlns:rdf="http://www.w3.org/1999/02/22-rdf-syntax-ns#">
      <rdf:Description rdf:about=""/>
   </rdf:RDF>
</x:xmpmeta>
                                                                                                    
                                                                                                    
                                                                                                    
                                                                                                    
                                                                                                    
                                                                                                    
                                                                                                    
                                                                                                    
                                                                                                    
                                                                                                    
                                                                                                    
                                                                                                    
                                                                                                    
                                                                                                    
                                                                                                    
                                                                                                    
                                                                                                    
                                                                                                    
                                                                                                    
                                                                                                    
                           
<?xpacket end="w"?></metadata>
<defs>
    <style>
      .cls-1 {
        fill: #fff;
        fill-rule: evenodd;
      }
    </style>
  </defs>
  <path id="regular" class="cls-1" d="M367.466,361.721c-2.476,9.259-6.321,22.981-9.459,31.279-7.288,19.277-34.168,43.1-104.514,43.961,0.065,0-3.356.03-5.438,0.014C176.565,436.434,149.344,412.411,142,393c-3.092-8.173-6.87-21.6-9.351-30.854-56.124-29.7-72.569-83.116-67.8-129.8,10.1-98.929,96.372-176.077,182.04-177.33,2.1-.031,4.486-0.011,5.29,0,85.663,1.291,171.87,78.433,181.974,177.345C438.893,278.776,423.678,329.306,367.466,361.721ZM379.5,307c-12.979,0-23.5-29.1-23.5-65s10.521-65,23.5-65S403,206.1,403,242,392.479,307,379.5,307ZM249.642,410c-0.024,0-.048,0-0.071,0s-0.047,0-.071,0c-51.508,0-88.5-12.42-88.5-71,0,0-.731-31,88.5-31h0.142C338.728,308,338,339,338,339,338,397.58,301.067,410,249.642,410ZM249.49,271c-48.325,0-87.5-40.294-87.5-90s39.175-90,87.5-90,87.5,40.294,87.5,90S297.815,271,249.49,271ZM119.5,307C106.521,307,96,277.9,96,242s10.521-65,23.5-65S143,206.1,143,242,132.479,307,119.5,307Zm95.114,27a8.614,8.614,0,0,1,8.614,8.614v34.772a8.614,8.614,0,0,1-17.228,0V342.614A8.614,8.614,0,0,1,214.614,334Zm69.772,0A8.614,8.614,0,0,1,293,342.614v34.772a8.614,8.614,0,1,1-17.228,0V342.614A8.614,8.614,0,0,1,284.386,334Z"/>
</svg>
