<svg xmlns="http://www.w3.org/2000/svg" width="99.96" height="99.96" viewBox="0 0 420 420">
  <metadata><?xpacket begin="﻿" id="W5M0MpCehiHzreSzNTczkc9d"?>
<x:xmpmeta xmlns:x="adobe:ns:meta/" x:xmptk="Adobe XMP Core 5.6-c142 79.160924, 2017/07/13-01:06:39        ">
   <rdf:RDF xmlns:rdf="http://www.w3.org/1999/02/22-rdf-syntax-ns#">
      <rdf:Description rdf:about=""/>
   </rdf:RDF>
</x:xmpmeta>
                                                                                                    
                                                                                                    
                                                                                                    
                                                                                                    
                                                                                                    
                                                                                                    
                                                                                                    
                                                                                                    
                                                                                                    
                                                                                                    
                                                                                                    
                                                                                                    
                                                                                                    
                                                                                                    
                                                                                                    
                                                                                                    
                                                                                                    
                                                                                                    
                                                                                                    
                                                                                                    
                           
<?xpacket end="w"?></metadata>
<defs>
    <style>
      .cls-1 {
        fill-rule: evenodd;
      }
    </style>
  </defs>
  <path id="bomb" class="cls-1" d="M318.82,172.291A143.534,143.534,0,0,1,355,267.751C355,347.417,290.305,412,210.5,412S66,347.417,66,267.751c0-75.186,57.626-136.926,131.19-143.634l13.274-32.8c4.339-.392,8.731-0.6,13.172-0.6a144.795,144.795,0,0,1,39.136,5.358,55.737,55.737,0,0,0,.273-29.711c-7.147-28.2,1.026-44.915,25.335-54.328s23.363-.561,26.273,7.494,6.265,15.451-8.445,18.734-18.132,7.44-13.137,21.544c3.759,10.611,3.386,32.446-1.772,47.682a145.07,145.07,0,0,1,40.749,32.119Zm-13.744,33.961q-1.262-1.881-2.6-3.7c-0.083-.115-0.164-0.23-0.248-0.344q-1.284-1.745-2.635-3.435c-0.136-.171-0.273-0.34-0.409-0.51q-1.35-1.674-2.759-3.3c-0.1-.119-0.209-0.235-0.313-0.353q-1.374-1.565-2.8-3.077c-0.093-.1-0.185-0.2-0.279-0.3q-1.44-1.512-2.94-2.964c-0.212-.207-0.424-0.415-0.638-0.62a112.968,112.968,0,0,0-10.648-9.036l11.883-29.36a112.663,112.663,0,0,0-58.594-22.525L220,156.607q-4.239-.318-8.561-0.321c-0.761,0-1.518.021-2.276,0.036-0.738.015-1.475,0.033-2.209,0.061-0.239.01-.478,0.024-0.717,0.035q-2.171.1-4.319,0.28c-0.293.024-.587,0.044-0.879,0.071-0.651.06-1.3,0.13-1.946,0.2q-0.656.072-1.307,0.149-0.907.11-1.812,0.232c-0.5.069-1,.145-1.5,0.22-0.547.083-1.095,0.162-1.639,0.252q-1.445.24-2.877,0.516c-0.453.088-.9,0.185-1.353,0.277-0.614.127-1.228,0.255-1.839,0.392-0.46.1-.92,0.209-1.379,0.318q-0.93.221-1.855,0.457A112.511,112.511,0,1,0,305.076,206.25v0Z"/>
</svg>
