<svg xmlns="http://www.w3.org/2000/svg" width="99.96" height="99.96" viewBox="0 0 420 420">
  <metadata><?xpacket begin="﻿" id="W5M0MpCehiHzreSzNTczkc9d"?>
<x:xmpmeta xmlns:x="adobe:ns:meta/" x:xmptk="Adobe XMP Core 5.6-c142 79.160924, 2017/07/13-01:06:39        ">
   <rdf:RDF xmlns:rdf="http://www.w3.org/1999/02/22-rdf-syntax-ns#">
      <rdf:Description rdf:about=""/>
   </rdf:RDF>
</x:xmpmeta>
                                                                                                    
                                                                                                    
                                                                                                    
                                                                                                    
                                                                                                    
                                                                                                    
                                                                                                    
                                                                                                    
                                                                                                    
                                                                                                    
                                                                                                    
                                                                                                    
                                                                                                    
                                                                                                    
                                                                                                    
                                                                                                    
                                                                                                    
                                                                                                    
                                                                                                    
                                                                                                    
                           
<?xpacket end="w"?></metadata>
<defs>
    <style>
      .cls-1 {
        fill-rule: evenodd;
      }
    </style>
  </defs>
  <path id="book" class="cls-1" d="M341.016,406H104.223a14.009,14.009,0,0,1-13.984-14.033v-5.614h231.2a14.009,14.009,0,0,0,13.984-14.033v-334h5.593A14.009,14.009,0,0,1,355,52.358V391.967A14.009,14.009,0,0,1,341.016,406Zm-32.629-32.745H79.984A14.009,14.009,0,0,1,66,359.222V28.033A14.009,14.009,0,0,1,79.984,14h228.4a14.009,14.009,0,0,1,13.984,14.033V359.222A14.009,14.009,0,0,1,308.387,373.255ZM288.81,55.165a7.471,7.471,0,0,0-7.458-7.485H190.931V156.2l-38.269-30.87L114.48,156.2V47.68h-7.461a7.471,7.471,0,0,0-7.458,7.485V332.091a7.471,7.471,0,0,0,7.458,7.484H281.352a7.471,7.471,0,0,0,7.458-7.484V55.165Z"/>
</svg>
