<svg xmlns="http://www.w3.org/2000/svg" width="99.96" height="99.96" viewBox="0 0 420 420">
  <metadata><?xpacket begin="﻿" id="W5M0MpCehiHzreSzNTczkc9d"?>
<x:xmpmeta xmlns:x="adobe:ns:meta/" x:xmptk="Adobe XMP Core 5.6-c142 79.160924, 2017/07/13-01:06:39        ">
   <rdf:RDF xmlns:rdf="http://www.w3.org/1999/02/22-rdf-syntax-ns#">
      <rdf:Description rdf:about=""/>
   </rdf:RDF>
</x:xmpmeta>
                                                                                                    
                                                                                                    
                                                                                                    
                                                                                                    
                                                                                                    
                                                                                                    
                                                                                                    
                                                                                                    
                                                                                                    
                                                                                                    
                                                                                                    
                                                                                                    
                                                                                                    
                                                                                                    
                                                                                                    
                                                                                                    
                                                                                                    
                                                                                                    
                                                                                                    
                                                                                                    
                           
<?xpacket end="w"?></metadata>
<defs>
    <style>
      .cls-1 {
        fill-rule: evenodd;
      }
    </style>
  </defs>
  <path id="calendar" class="cls-1" d="M404.667,385H35.778a13.319,13.319,0,0,1-13.3-12.7,13.454,13.454,0,0,0,2.635.262H392.222a13.329,13.329,0,0,0,13.334-13.324V90.076a13.438,13.438,0,0,0-.263-2.633A13.317,13.317,0,0,1,418,100.736V371.675A13.33,13.33,0,0,1,404.667,385Zm-20.445-20.431H15.333A13.329,13.329,0,0,1,2,351.244V80.3A13.329,13.329,0,0,1,15.333,66.98H74V48.325A13.329,13.329,0,0,1,87.333,35h8.889a13.329,13.329,0,0,1,13.334,13.325V66.98H290V48.325A13.329,13.329,0,0,1,303.333,35h8.889a13.33,13.33,0,0,1,13.334,13.325V66.98h58.666A13.329,13.329,0,0,1,397.556,80.3v270.94A13.33,13.33,0,0,1,384.222,364.569ZM365.556,112.284a13.329,13.329,0,0,0-13.334-13.325H325.556v7.107a13.33,13.33,0,0,1-13.334,13.325h-8.889A13.33,13.33,0,0,1,290,106.066V98.959H109.556v7.107a13.33,13.33,0,0,1-13.334,13.325H87.333A13.329,13.329,0,0,1,74,106.066V98.959H47.333A13.329,13.329,0,0,0,34,112.284v23.985a13.329,13.329,0,0,0,13.333,13.325H352.222a13.33,13.33,0,0,0,13.334-13.325V112.284Zm0,82.614a13.329,13.329,0,0,0-13.334-13.324H47.333A13.328,13.328,0,0,0,34,194.9V319.264a13.329,13.329,0,0,0,13.333,13.325H352.222a13.33,13.33,0,0,0,13.334-13.325V194.9Z"/>
</svg>
