<svg xmlns="http://www.w3.org/2000/svg" width="99.96" height="99.96" viewBox="0 0 420 420">
  <metadata><?xpacket begin="﻿" id="W5M0MpCehiHzreSzNTczkc9d"?>
<x:xmpmeta xmlns:x="adobe:ns:meta/" x:xmptk="Adobe XMP Core 5.6-c142 79.160924, 2017/07/13-01:06:39        ">
   <rdf:RDF xmlns:rdf="http://www.w3.org/1999/02/22-rdf-syntax-ns#">
      <rdf:Description rdf:about=""/>
   </rdf:RDF>
</x:xmpmeta>
                                                                                                    
                                                                                                    
                                                                                                    
                                                                                                    
                                                                                                    
                                                                                                    
                                                                                                    
                                                                                                    
                                                                                                    
                                                                                                    
                                                                                                    
                                                                                                    
                                                                                                    
                                                                                                    
                                                                                                    
                                                                                                    
                                                                                                    
                                                                                                    
                                                                                                    
                                                                                                    
                           
<?xpacket end="w"?></metadata>
<defs>
    <style>
      .cls-1 {
        fill-rule: evenodd;
      }
    </style>
  </defs>
  <path id="circle_checkbox_false" class="cls-1" d="M210,397C106.723,397,23,313.277,23,210S106.723,23,210,23s187,83.723,187,187S313.277,397,210,397ZM209.5,63A146.5,146.5,0,1,0,356,209.5,146.5,146.5,0,0,0,209.5,63Zm83.22,229.462a25.461,25.461,0,0,1-36.07,0l-46.726-46.84L163.2,292.462a25.536,25.536,0,1,1-36.069-36.157l46.726-46.84-46.726-46.84A25.536,25.536,0,0,1,163.2,126.468l46.726,46.84,46.726-46.84a25.536,25.536,0,0,1,36.07,36.157l-46.726,46.84,46.726,46.84A25.611,25.611,0,0,1,292.72,292.462Z"/>
</svg>
