<svg xmlns="http://www.w3.org/2000/svg" width="99.96" height="99.96" viewBox="0 0 420 420">
  <metadata><?xpacket begin="﻿" id="W5M0MpCehiHzreSzNTczkc9d"?>
<x:xmpmeta xmlns:x="adobe:ns:meta/" x:xmptk="Adobe XMP Core 5.6-c142 79.160924, 2017/07/13-01:06:39        ">
   <rdf:RDF xmlns:rdf="http://www.w3.org/1999/02/22-rdf-syntax-ns#">
      <rdf:Description rdf:about=""/>
   </rdf:RDF>
</x:xmpmeta>
                                                                                                    
                                                                                                    
                                                                                                    
                                                                                                    
                                                                                                    
                                                                                                    
                                                                                                    
                                                                                                    
                                                                                                    
                                                                                                    
                                                                                                    
                                                                                                    
                                                                                                    
                                                                                                    
                                                                                                    
                                                                                                    
                                                                                                    
                                                                                                    
                                                                                                    
                                                                                                    
                           
<?xpacket end="w"?></metadata>
<defs>
    <style>
      .cls-1 {
        fill-rule: evenodd;
      }
    </style>
  </defs>
  <path id="clock" class="cls-1" d="M210,396C107.275,396,24,312.725,24,210S107.275,24,210,24s186,83.275,186,186S312.725,396,210,396ZM209.45,65.822A143.627,143.627,0,1,0,353.077,209.45,143.628,143.628,0,0,0,209.45,65.822Zm28.437,211.567L194.91,234.408a21.573,21.573,0,0,1-5.708-10.173,21.578,21.578,0,0,1-2.315-9.712v-102.8A21.673,21.673,0,0,1,208.55,90.035h0.089A21.673,21.673,0,0,1,230.3,111.719V208.4l38.284,38.288A21.707,21.707,0,0,1,237.887,277.389Z"/>
</svg>
