<svg xmlns="http://www.w3.org/2000/svg" width="99.96" height="99.96" viewBox="0 0 420 420">
  <metadata><?xpacket begin="﻿" id="W5M0MpCehiHzreSzNTczkc9d"?>
<x:xmpmeta xmlns:x="adobe:ns:meta/" x:xmptk="Adobe XMP Core 5.6-c142 79.160924, 2017/07/13-01:06:39        ">
   <rdf:RDF xmlns:rdf="http://www.w3.org/1999/02/22-rdf-syntax-ns#">
      <rdf:Description rdf:about=""/>
   </rdf:RDF>
</x:xmpmeta>
                                                                                                    
                                                                                                    
                                                                                                    
                                                                                                    
                                                                                                    
                                                                                                    
                                                                                                    
                                                                                                    
                                                                                                    
                                                                                                    
                                                                                                    
                                                                                                    
                                                                                                    
                                                                                                    
                                                                                                    
                                                                                                    
                                                                                                    
                                                                                                    
                                                                                                    
                                                                                                    
                           
<?xpacket end="w"?></metadata>
<defs>
    <style>
      .cls-1 {
        fill-rule: evenodd;
      }
    </style>
  </defs>
  <path id="compass" class="cls-1" d="M210.5,404C103.633,404,17,317.367,17,210.5S103.633,17,210.5,17,404,103.633,404,210.5,317.367,404,210.5,404ZM221.4,61.774V63.4a10.922,10.922,0,0,1-21.844,0V61.552A147.783,147.783,0,0,0,61.554,199.56h3.305a10.922,10.922,0,0,1,0,21.844H61.766A147.789,147.789,0,0,0,199.56,356.5v-0.394a10.922,10.922,0,0,1,21.844,0v0.173A147.794,147.794,0,0,0,356.288,221.4h-1.639a10.922,10.922,0,0,1,0-21.844H356.5A147.783,147.783,0,0,0,221.4,61.774Zm-63.486,239.8c-4.477-2.585,20.767-92.055,28.3-105.1s72.39-79.637,76.868-77.052-20.767,92.055-28.3,105.1S162.4,304.159,157.918,301.574Z"/>
</svg>
