<svg xmlns="http://www.w3.org/2000/svg" width="99.96" height="99.96" viewBox="0 0 420 420">
  <metadata><?xpacket begin="﻿" id="W5M0MpCehiHzreSzNTczkc9d"?>
<x:xmpmeta xmlns:x="adobe:ns:meta/" x:xmptk="Adobe XMP Core 5.6-c142 79.160924, 2017/07/13-01:06:39        ">
   <rdf:RDF xmlns:rdf="http://www.w3.org/1999/02/22-rdf-syntax-ns#">
      <rdf:Description rdf:about=""/>
   </rdf:RDF>
</x:xmpmeta>
                                                                                                    
                                                                                                    
                                                                                                    
                                                                                                    
                                                                                                    
                                                                                                    
                                                                                                    
                                                                                                    
                                                                                                    
                                                                                                    
                                                                                                    
                                                                                                    
                                                                                                    
                                                                                                    
                                                                                                    
                                                                                                    
                                                                                                    
                                                                                                    
                                                                                                    
                                                                                                    
                           
<?xpacket end="w"?></metadata>
<defs>
    <style>
      .cls-1 {
        fill-rule: evenodd;
      }
    </style>
  </defs>
  <path id="config_file" class="cls-1" d="M350,420H70a15,15,0,0,1-15-15V15A15,15,0,0,1,70,0H256a9.928,9.928,0,0,1,5.837,2.149l101.01,101.01A10.354,10.354,0,0,1,365,109V405A15,15,0,0,1,350,420ZM329,146c0-3.338-3.6-7-7-7H241a15,15,0,0,1-15-15V42a6.559,6.559,0,0,0-6-6H106A15,15,0,0,0,91,51V369a15,15,0,0,0,15,15H314a15,15,0,0,0,15-15V146ZM288.016,284.993h-16.36a64.084,64.084,0,0,1-3.993,9.377l11.649,11.649a10,10,0,0,1,0,14.142L265.17,334.3a10,10,0,0,1-14.142,0l-11.969-11.969A64.027,64.027,0,0,1,230,325.992V343a10,10,0,0,1-10,10H200a10,10,0,0,1-10-10V325.654A64.137,64.137,0,0,1,181.285,322l-12.3,12.3a10,10,0,0,1-14.142,0L140.7,320.154a10,10,0,0,1,0-14.142l12.3-12.3a64.162,64.162,0,0,1-3.657-8.722H132.016a10,10,0,0,1-10-10v-20a10,10,0,0,1,10-10H149.01a64.1,64.1,0,0,1,3.656-9.052l-11.947-11.947a10,10,0,0,1,0-14.142l14.142-14.142a10,10,0,0,1,14.142,0l11.627,11.627a64.148,64.148,0,0,1,9.37-3.991V187a10,10,0,0,1,10-10h20a10,10,0,0,1,10,10v16.008A64.027,64.027,0,0,1,239.714,207l11.3-11.3a10,10,0,0,1,14.142,0L279.3,209.846a10,10,0,0,1,0,14.142l-11.3,11.3a64.1,64.1,0,0,1,3.991,9.708h16.026a10,10,0,0,1,10,10v20A10,10,0,0,1,288.016,284.993ZM231,264.5A21.5,21.5,0,1,0,209.5,286,21.5,21.5,0,0,0,231,264.5ZM191,91H120a10,10,0,0,1-10-10V65a10,10,0,0,1,10-10h71a10,10,0,0,1,10,10V81A10,10,0,0,1,191,91Z"/>
</svg>
