<svg xmlns="http://www.w3.org/2000/svg" width="99.96" height="99.96" viewBox="0 0 420 420">
  <metadata><?xpacket begin="﻿" id="W5M0MpCehiHzreSzNTczkc9d"?>
<x:xmpmeta xmlns:x="adobe:ns:meta/" x:xmptk="Adobe XMP Core 5.6-c142 79.160924, 2017/07/13-01:06:39        ">
   <rdf:RDF xmlns:rdf="http://www.w3.org/1999/02/22-rdf-syntax-ns#">
      <rdf:Description rdf:about=""/>
   </rdf:RDF>
</x:xmpmeta>
                                                                                                    
                                                                                                    
                                                                                                    
                                                                                                    
                                                                                                    
                                                                                                    
                                                                                                    
                                                                                                    
                                                                                                    
                                                                                                    
                                                                                                    
                                                                                                    
                                                                                                    
                                                                                                    
                                                                                                    
                                                                                                    
                                                                                                    
                                                                                                    
                                                                                                    
                                                                                                    
                           
<?xpacket end="w"?></metadata>
<defs>
    <style>
      .cls-1 {
        fill-rule: evenodd;
      }
    </style>
  </defs>
  <path id="controller" class="cls-1" d="M322.938,306a95.843,95.843,0,0,1-71.594-32H168.656A96.031,96.031,0,1,1,97.062,114H322.938A96,96,0,1,1,322.938,306Zm0-160.865H97.062a64.865,64.865,0,1,0,55.953,97.73h113.97A64.891,64.891,0,1,0,322.938,145.135ZM363.247,224.6l-25.7,25.685a15.573,15.573,0,1,1-22.03-22.016l25.7-25.685A15.573,15.573,0,0,1,363.247,224.6Zm-58.588-7.18a15.573,15.573,0,0,1-22.03-22.016l25.7-25.685a15.573,15.573,0,0,1,22.03,22.016ZM135.141,224.91H111.982v23.144a2.6,2.6,0,0,1-2.6,2.595H85.6a2.6,2.6,0,0,1-2.6-2.595V224.91H59.849a2.6,2.6,0,0,1-2.6-2.594V198.549a2.6,2.6,0,0,1,2.6-2.594H83.008V172.811a2.6,2.6,0,0,1,2.6-2.595h23.782a2.6,2.6,0,0,1,2.6,2.595v23.144h23.159a2.6,2.6,0,0,1,2.6,2.594v23.767A2.6,2.6,0,0,1,135.141,224.91Z"/>
</svg>
