<svg xmlns="http://www.w3.org/2000/svg" width="99.96" height="99.96" viewBox="0 0 420 420">
  <metadata><?xpacket begin="﻿" id="W5M0MpCehiHzreSzNTczkc9d"?>
<x:xmpmeta xmlns:x="adobe:ns:meta/" x:xmptk="Adobe XMP Core 5.6-c142 79.160924, 2017/07/13-01:06:39        ">
   <rdf:RDF xmlns:rdf="http://www.w3.org/1999/02/22-rdf-syntax-ns#">
      <rdf:Description rdf:about=""/>
   </rdf:RDF>
</x:xmpmeta>
                                                                                                    
                                                                                                    
                                                                                                    
                                                                                                    
                                                                                                    
                                                                                                    
                                                                                                    
                                                                                                    
                                                                                                    
                                                                                                    
                                                                                                    
                                                                                                    
                                                                                                    
                                                                                                    
                                                                                                    
                                                                                                    
                                                                                                    
                                                                                                    
                                                                                                    
                                                                                                    
                           
<?xpacket end="w"?></metadata>
<defs>
    <style>
      .cls-1 {
        fill-rule: evenodd;
      }
    </style>
  </defs>
  <path id="database" class="cls-1" d="M210,401c-99.411,0-180-38.056-180-85V104c0-46.944,80.589-85,180-85s180,38.056,180,85V316C390,362.944,309.411,401,210,401Zm0-30c79.529,0,144-27.938,144-55V261.005c-32.84,20.642-85.116,34-144,34s-111.16-13.353-144-34v55h0C66,343.062,130.471,371,210,371ZM354,206V155.005c-32.84,20.642-85.116,34-144,34s-111.16-13.353-144-34v55h0c0,27.062,64.471,55,144,55s144-27.938,144-55v-4ZM210,48C130.471,48,66,76.938,66,104s64.471,55,144,55,144-27.938,144-55S289.529,48,210,48ZM107.5,193c5.247,0,9.5,7.835,9.5,17.5s-4.253,17.5-9.5,17.5S98,220.165,98,210.5,102.253,193,107.5,193Zm0,105c5.247,0,9.5,7.835,9.5,17.5s-4.253,17.5-9.5,17.5S98,325.165,98,315.5,102.253,298,107.5,298Z"/>
</svg>
