<svg xmlns="http://www.w3.org/2000/svg" width="99.96" height="99.96" viewBox="0 0 420 420">
  <metadata><?xpacket begin="﻿" id="W5M0MpCehiHzreSzNTczkc9d"?>
<x:xmpmeta xmlns:x="adobe:ns:meta/" x:xmptk="Adobe XMP Core 5.6-c142 79.160924, 2017/07/13-01:06:39        ">
   <rdf:RDF xmlns:rdf="http://www.w3.org/1999/02/22-rdf-syntax-ns#">
      <rdf:Description rdf:about=""/>
   </rdf:RDF>
</x:xmpmeta>
                                                                                                    
                                                                                                    
                                                                                                    
                                                                                                    
                                                                                                    
                                                                                                    
                                                                                                    
                                                                                                    
                                                                                                    
                                                                                                    
                                                                                                    
                                                                                                    
                                                                                                    
                                                                                                    
                                                                                                    
                                                                                                    
                                                                                                    
                                                                                                    
                                                                                                    
                                                                                                    
                           
<?xpacket end="w"?></metadata>
<defs>
    <style>
      .cls-1 {
        fill-rule: evenodd;
      }
    </style>
  </defs>
  <path id="download" class="cls-1" d="M377,399H43a15,15,0,0,1-15-15V310.279a15,15,0,0,1,15-15H377a15,15,0,0,1,15,15V384A15,15,0,0,1,377,399Zm-19-66.625A4.662,4.662,0,0,0,353.1,328H66.9a4.662,4.662,0,0,0-4.9,4.375v32.25A4.662,4.662,0,0,0,66.9,369H353.1a4.662,4.662,0,0,0,4.9-4.375v-32.25Zm-134.945-58.07a19.433,19.433,0,0,1-27.446,0l-64.04-63.925C105.939,184.8,102.84,169,132,169h33l0.331-124.325,0.011-4.3A19.39,19.39,0,0,1,184.749,21H236.5a19.39,19.39,0,0,1,19.407,19.372l0,3.968L256,169h31c34.21,0,20.739,20.773.1,41.38Zm25.494-78.728c-7.1,0-23.7.438-23.7,0.438V52.961c0-6.992-6.926-5.946-14.112-5.889-7.134.056-14.528-.927-14.528,5.889V196.015s-17.327-.438-25.36-0.438c-5.062,0-3.284,4.092-1.935,5.439l35.481,35.443c4.048,4.043,8.793,3.987,12.632.151,9.665-9.653,26.477-29.192,33.793-36.5C253.134,197.8,251.537,195.577,248.549,195.577Z"/>
</svg>
