<svg xmlns="http://www.w3.org/2000/svg" width="99.96" height="99.96" viewBox="0 0 420 420">
  <metadata><?xpacket begin="﻿" id="W5M0MpCehiHzreSzNTczkc9d"?>
<x:xmpmeta xmlns:x="adobe:ns:meta/" x:xmptk="Adobe XMP Core 5.6-c142 79.160924, 2017/07/13-01:06:39        ">
   <rdf:RDF xmlns:rdf="http://www.w3.org/1999/02/22-rdf-syntax-ns#">
      <rdf:Description rdf:about=""/>
   </rdf:RDF>
</x:xmpmeta>
                                                                                                    
                                                                                                    
                                                                                                    
                                                                                                    
                                                                                                    
                                                                                                    
                                                                                                    
                                                                                                    
                                                                                                    
                                                                                                    
                                                                                                    
                                                                                                    
                                                                                                    
                                                                                                    
                                                                                                    
                                                                                                    
                                                                                                    
                                                                                                    
                                                                                                    
                                                                                                    
                           
<?xpacket end="w"?></metadata>
<defs>
    <style>
      .cls-1 {
        fill-rule: evenodd;
      }
    </style>
  </defs>
  <path id="edit_file" class="cls-1" d="M350,420H70a15,15,0,0,1-15-15V15A15,15,0,0,1,70,0H256a9.928,9.928,0,0,1,5.837,2.149l101.01,101.01A10.354,10.354,0,0,1,365,109V405A15,15,0,0,1,350,420ZM106,36A15,15,0,0,0,91,51V369a15,15,0,0,0,15,15H314a15,15,0,0,0,15-15V146c0-3.338-3.6-7-7-7H241a15,15,0,0,1-15-15V42a6.559,6.559,0,0,0-6-6H106ZM288.557,216.15L276.228,228.5l-6.309,6.32-0.573.574L240.673,206.67l0.573-.575,6.308-6.32,12.33-12.353a4.859,4.859,0,0,1,6.881,0l21.792,21.833A4.883,4.883,0,0,1,288.557,216.15ZM253.576,251.2L163.829,341.12a2.021,2.021,0,0,1-1.763.566,2.1,2.1,0,0,1-.916.376L132.575,346c-0.917.126-2.707-1.666-2.58-2.586l3.933-28.63a2.235,2.235,0,0,1,.657-1.252,2.022,2.022,0,0,1,.571-1.145L224.9,222.47l5.448-5.458,1.433-1.436L260.457,244.3l-1.433,1.437Z"/>
</svg>
