<svg xmlns="http://www.w3.org/2000/svg" width="99.96" height="99.96" viewBox="0 0 420 420">
  <metadata><?xpacket begin="﻿" id="W5M0MpCehiHzreSzNTczkc9d"?>
<x:xmpmeta xmlns:x="adobe:ns:meta/" x:xmptk="Adobe XMP Core 5.6-c142 79.160924, 2017/07/13-01:06:39        ">
   <rdf:RDF xmlns:rdf="http://www.w3.org/1999/02/22-rdf-syntax-ns#">
      <rdf:Description rdf:about=""/>
   </rdf:RDF>
</x:xmpmeta>
                                                                                                    
                                                                                                    
                                                                                                    
                                                                                                    
                                                                                                    
                                                                                                    
                                                                                                    
                                                                                                    
                                                                                                    
                                                                                                    
                                                                                                    
                                                                                                    
                                                                                                    
                                                                                                    
                                                                                                    
                                                                                                    
                                                                                                    
                                                                                                    
                                                                                                    
                                                                                                    
                           
<?xpacket end="w"?></metadata>
<defs>
    <style>
      .cls-1 {
        fill-rule: evenodd;
      }
    </style>
  </defs>
  <path id="file_psd" class="cls-1" d="M350,420H70a15,15,0,0,1-15-15V15A15,15,0,0,1,70,0H256a9.928,9.928,0,0,1,5.837,2.149l101.01,101.01A10.354,10.354,0,0,1,365,109V405A15,15,0,0,1,350,420ZM329,146c0-3.338-3.6-7-7-7H241a15,15,0,0,1-15-15V42a6.559,6.559,0,0,0-6-6H106A15,15,0,0,0,91,51V384H329V146ZM128.554,315.12a1.791,1.791,0,0,1,1.38-.65H157.1q10.314,0,16.345,5.613a18.8,18.8,0,0,1,6.029,14.4q0,8.787-5.085,13.952T157.1,353.6h-9.589v15.62a2.245,2.245,0,0,1-.581,1.546,1.793,1.793,0,0,1-1.381.65H129.934a1.788,1.788,0,0,1-1.38-.65,2.241,2.241,0,0,1-.581-1.546V316.666A2.244,2.244,0,0,1,128.554,315.12Zm19.033,23.43h9.225a3.542,3.542,0,0,0,2.725-1.139,4.5,4.5,0,0,0,1.053-3.173,5.264,5.264,0,0,0-1.017-3.335,3.32,3.32,0,0,0-2.761-1.3h-9.225v8.949Zm38.407,14.007h14.892a3.244,3.244,0,0,1,2.47,1q2.033,2.079,7.047,2.077,6.9,0,6.9-2.278,0-1.414-2.179-2.24a44.489,44.489,0,0,0-8.645-1.61q-20.559-2.67-20.558-17.049a15.625,15.625,0,0,1,6.61-13.08q6.609-4.988,17.689-4.989t17.907,5.366q6.827,5.365,6.828,11.337a1.767,1.767,0,0,1-.472,1.29,1.7,1.7,0,0,1-1.271.485H217.594a3.112,3.112,0,0,1-2.252-.923,7.24,7.24,0,0,0-5.23-1.691q-4.868,0-4.867,2.2,0,1.179,1.889,1.846a43.552,43.552,0,0,0,7.555,1.375q11.913,1.494,16.962,5.539T236.7,353.35q0,8.092-7.337,13.12T209.894,371.5q-12.132,0-18.851-4.956t-6.72-12.212A1.524,1.524,0,0,1,185.994,352.557ZM242.22,315.12a1.793,1.793,0,0,1,1.38-.65h23.174a37.173,37.173,0,0,1,13.875,2.359,20.052,20.052,0,0,1,9.516,7.972q3.632,5.614,3.633,13.993v8.3q0,13.017-7.846,18.955-7.192,5.37-19.178,5.369H243.6a1.79,1.79,0,0,1-1.38-.65,2.241,2.241,0,0,1-.581-1.546V316.666A2.244,2.244,0,0,1,242.22,315.12Zm18.307,40.433h6.61a7.7,7.7,0,0,0,5.412-1.831,6.651,6.651,0,0,0,2-5.166V337.33a6.654,6.654,0,0,0-2-5.166,7.705,7.705,0,0,0-5.412-1.831h-6.61v25.22ZM289.3,160.887l-6.088,6.1-3.115,3.121-0.284.283L265.65,156.206l0.283-.284,3.115-3.121,6.088-6.1a2.4,2.4,0,0,1,3.4,0l10.761,10.78A2.412,2.412,0,0,1,289.3,160.887ZM274.711,175.5l-2.69,2.695-44.316,44.4a1,1,0,0,1-.871.28,1.034,1.034,0,0,1-.452.186L212.272,225A1.624,1.624,0,0,1,211,223.725l1.943-14.136a1.1,1.1,0,0,1,.324-0.618,1,1,0,0,1,.282-0.565l44.317-44.4,2.69-2.695,0.708-.709,14.158,14.185ZM203.548,235.27l12.881,14.721,7.226-8.258a3.047,3.047,0,0,1,4.713,0l15.966,18.247h-67.12l21.621-24.71A3.047,3.047,0,0,1,203.548,235.27ZM170.4,185.013A2.39,2.39,0,0,0,168,187.4v80.223a2.39,2.39,0,0,0,2.393,2.387h80.2a2.391,2.391,0,0,0,2.393-2.387V205.434L262,197.368V272.82a6.186,6.186,0,0,1-6.191,6.18H165.191A6.186,6.186,0,0,1,159,272.82V182.18a6.186,6.186,0,0,1,6.191-6.18H238l-9.013,9.013H170.4Z"/>
</svg>
