<svg xmlns="http://www.w3.org/2000/svg" width="99.96" height="99.96" viewBox="0 0 420 420">
  <metadata><?xpacket begin="﻿" id="W5M0MpCehiHzreSzNTczkc9d"?>
<x:xmpmeta xmlns:x="adobe:ns:meta/" x:xmptk="Adobe XMP Core 5.6-c142 79.160924, 2017/07/13-01:06:39        ">
   <rdf:RDF xmlns:rdf="http://www.w3.org/1999/02/22-rdf-syntax-ns#">
      <rdf:Description rdf:about=""/>
   </rdf:RDF>
</x:xmpmeta>
                                                                                                    
                                                                                                    
                                                                                                    
                                                                                                    
                                                                                                    
                                                                                                    
                                                                                                    
                                                                                                    
                                                                                                    
                                                                                                    
                                                                                                    
                                                                                                    
                                                                                                    
                                                                                                    
                                                                                                    
                                                                                                    
                                                                                                    
                                                                                                    
                                                                                                    
                                                                                                    
                           
<?xpacket end="w"?></metadata>
<defs>
    <style>
      .cls-1 {
        fill-rule: evenodd;
      }
    </style>
  </defs>
  <path id="file_txt" class="cls-1" d="M350,420H70a15,15,0,0,1-15-15V15A15,15,0,0,1,70,0H256a9.928,9.928,0,0,1,5.837,2.149l101.01,101.01A10.354,10.354,0,0,1,365,109V405A15,15,0,0,1,350,420ZM329,146c0-3.338-3.6-7-7-7H241a15,15,0,0,1-15-15V42a6.559,6.559,0,0,0-6-6H106A15,15,0,0,0,91,51V384H329V146ZM120,55h71a10,10,0,0,1,10,10V81a10,10,0,0,1-10,10H120a10,10,0,0,1-10-10V65A10,10,0,0,1,120,55Zm0,110h41a10,10,0,0,1,10,10v16a10,10,0,0,1-10,10H120a10,10,0,0,1-10-10V175A10,10,0,0,1,120,165Zm0,54H300a10,10,0,0,1,10,10v16a10,10,0,0,1-10,10H120a10,10,0,0,1-10-10V229A10,10,0,0,1,120,219Zm4.251,96.12a1.791,1.791,0,0,1,1.38-.65h50.125a1.8,1.8,0,0,1,1.38.65,2.249,2.249,0,0,1,.581,1.546v13.1a2.245,2.245,0,0,1-.581,1.546,1.792,1.792,0,0,1-1.38.65H160.137v37.26a2.245,2.245,0,0,1-.581,1.546,1.792,1.792,0,0,1-1.38.65H143.211a1.788,1.788,0,0,1-1.38-.65,2.237,2.237,0,0,1-.582-1.546V331.96H125.631a1.788,1.788,0,0,1-1.38-.65,2.241,2.241,0,0,1-.581-1.546v-13.1A2.244,2.244,0,0,1,124.251,315.12Zm71.772,26.115-14.311-24.081a1.757,1.757,0,0,1-.218-0.976,1.728,1.728,0,0,1,.472-1.18,1.46,1.46,0,0,1,1.126-.528h15.691a3.458,3.458,0,0,1,3.051,2.033l5.666,10.414,6.1-10.576a3.547,3.547,0,0,1,2.978-1.871H232.2a1.462,1.462,0,0,1,1.126.528,1.733,1.733,0,0,1,.473,1.18,1.765,1.765,0,0,1-.218.976L218.4,342.292l15.546,26.44a1.772,1.772,0,0,1,.218.976,1.73,1.73,0,0,1-.472,1.18,1.46,1.46,0,0,1-1.126.528H216.944a3.22,3.22,0,0,1-2.978-1.871l-7.047-12.121-6.9,12.121a3.321,3.321,0,0,1-2.978,1.871H181.348a1.46,1.46,0,0,1-1.126-.528,1.725,1.725,0,0,1-.472-1.18,1.772,1.772,0,0,1,.218-0.976Zm40.825-26.115a1.793,1.793,0,0,1,1.38-.65h50.125a1.8,1.8,0,0,1,1.38.65,2.249,2.249,0,0,1,.581,1.546v13.1a2.245,2.245,0,0,1-.581,1.546,1.792,1.792,0,0,1-1.38.65H272.734v37.26a2.245,2.245,0,0,1-.581,1.546,1.792,1.792,0,0,1-1.38.65H255.808a1.79,1.79,0,0,1-1.38-.65,2.241,2.241,0,0,1-.581-1.546V331.96H238.228a1.79,1.79,0,0,1-1.38-.65,2.241,2.241,0,0,1-.581-1.546v-13.1A2.244,2.244,0,0,1,236.848,315.12ZM300,201H197a10,10,0,0,1-10-10V175a10,10,0,0,1,10-10H300a10,10,0,0,1,10,10v16A10,10,0,0,1,300,201Z"/>
</svg>
