<svg xmlns="http://www.w3.org/2000/svg" width="99.96" height="99.96" viewBox="0 0 420 420">
  <metadata><?xpacket begin="﻿" id="W5M0MpCehiHzreSzNTczkc9d"?>
<x:xmpmeta xmlns:x="adobe:ns:meta/" x:xmptk="Adobe XMP Core 5.6-c142 79.160924, 2017/07/13-01:06:39        ">
   <rdf:RDF xmlns:rdf="http://www.w3.org/1999/02/22-rdf-syntax-ns#">
      <rdf:Description rdf:about=""/>
   </rdf:RDF>
</x:xmpmeta>
                                                                                                    
                                                                                                    
                                                                                                    
                                                                                                    
                                                                                                    
                                                                                                    
                                                                                                    
                                                                                                    
                                                                                                    
                                                                                                    
                                                                                                    
                                                                                                    
                                                                                                    
                                                                                                    
                                                                                                    
                                                                                                    
                                                                                                    
                                                                                                    
                                                                                                    
                                                                                                    
                           
<?xpacket end="w"?></metadata>
<defs>
    <style>
      .cls-1 {
        fill-rule: evenodd;
      }
    </style>
  </defs>
  <path id="_" data-name="#" class="cls-1" d="M350,420H70a15,15,0,0,1-15-15V15A15,15,0,0,1,70,0H256a9.928,9.928,0,0,1,5.837,2.149l101.01,101.01A10.354,10.354,0,0,1,365,109V405A15,15,0,0,1,350,420ZM106,36A15,15,0,0,0,91,51V384H329V146c0-3.338-3.6-7-7-7H241a15,15,0,0,1-15-15V42a6.559,6.559,0,0,0-6-6H106ZM257.474,366.18q-7.215,5.38-19.239,5.38H214.986a1.792,1.792,0,0,1-1.384-.652,2.237,2.237,0,0,1-.583-1.549V316.693a2.241,2.241,0,0,1,.583-1.549,1.8,1.8,0,0,1,1.384-.652h23.249a37.331,37.331,0,0,1,13.919,2.364,20.109,20.109,0,0,1,9.547,7.989q3.643,5.626,3.644,14.023v8.316Q265.345,360.229,257.474,366.18ZM246.032,337.4a6.665,6.665,0,0,0-2-5.177,7.734,7.734,0,0,0-5.429-1.835h-6.632v25.274H238.6a7.734,7.734,0,0,0,5.429-1.835,6.662,6.662,0,0,0,2-5.177V337.4ZM256.21,217.658a3.44,3.44,0,0,1-2.606,1.066h-12.16l-1.592,11.87h9.988a3.438,3.438,0,0,1,2.606,1.068,3.511,3.511,0,0,1,1.013,2.49v18.217a3.5,3.5,0,0,1-1.013,2.49,3.431,3.431,0,0,1-2.606,1.068H236.088l-1.882,12.3a3.238,3.238,0,0,1-3.619,3.04h-18.24a3.081,3.081,0,0,1-2.243-.925,2.988,2.988,0,0,1-.941-2.21v-0.291l1.882-11.916h-12.3l-1.882,12.3a3.238,3.238,0,0,1-3.619,3.04H175a3.085,3.085,0,0,1-2.244-.925,2.992,2.992,0,0,1-.941-2.21v-0.291l1.882-11.916h-7.962a3.5,3.5,0,0,1-2.533-1.068,3.38,3.38,0,0,1-1.086-2.49V234.152a3.386,3.386,0,0,1,1.086-2.49,3.5,3.5,0,0,1,2.533-1.068H177.46l1.592-11.87H169.5a3.5,3.5,0,0,1-2.533-1.066,3.379,3.379,0,0,1-1.086-2.488V198.391a3.377,3.377,0,0,1,1.086-2.485,3.5,3.5,0,0,1,2.533-1.068h13.173l1.593-9.7a3.267,3.267,0,0,1,3.474-3.04h18.24a3.213,3.213,0,0,1,3.185,3.185v0.434l-1.448,9.12H220.02l1.592-9.7q0.578-3.041,3.474-3.04h18.24a3.213,3.213,0,0,1,3.185,3.185v0.434l-1.448,9.12H253.6a3.438,3.438,0,0,1,2.606,1.068,3.5,3.5,0,0,1,1.013,2.485V215.17A3.5,3.5,0,0,1,256.21,217.658Zm-52.4,1.066-1.882,11.87H215.1l1.882-11.87H203.807Zm-31.381,97.969,9.547,19.566,9.547-19.566a3.407,3.407,0,0,1,3.134-2.2h13.337a1.8,1.8,0,0,1,1.384.652,2.245,2.245,0,0,1,.583,1.549v52.666a2.242,2.242,0,0,1-.583,1.549,1.8,1.8,0,0,1-1.384.652H194.8a1.794,1.794,0,0,1-1.385-.652,2.242,2.242,0,0,1-.583-1.549V344.086l-5.32,11.74a3.28,3.28,0,0,1-1.312,1.508,3.344,3.344,0,0,1-1.749.53H179.5a2.9,2.9,0,0,1-2.04-.734,3.779,3.779,0,0,1-1.021-1.3l-5.32-11.74v25.273a2.242,2.242,0,0,1-.583,1.549,1.8,1.8,0,0,1-1.384.652H155.956a1.794,1.794,0,0,1-1.385-.652,2.242,2.242,0,0,1-.583-1.549V316.693a2.245,2.245,0,0,1,.583-1.549,1.8,1.8,0,0,1,1.385-.652h13.336A3.408,3.408,0,0,1,172.426,316.693Z"/>
</svg>
