<svg xmlns="http://www.w3.org/2000/svg" width="99.96" height="99.96" viewBox="0 0 420 420">
  <metadata><?xpacket begin="﻿" id="W5M0MpCehiHzreSzNTczkc9d"?>
<x:xmpmeta xmlns:x="adobe:ns:meta/" x:xmptk="Adobe XMP Core 5.6-c142 79.160924, 2017/07/13-01:06:39        ">
   <rdf:RDF xmlns:rdf="http://www.w3.org/1999/02/22-rdf-syntax-ns#">
      <rdf:Description rdf:about=""/>
   </rdf:RDF>
</x:xmpmeta>
                                                                                                    
                                                                                                    
                                                                                                    
                                                                                                    
                                                                                                    
                                                                                                    
                                                                                                    
                                                                                                    
                                                                                                    
                                                                                                    
                                                                                                    
                                                                                                    
                                                                                                    
                                                                                                    
                                                                                                    
                                                                                                    
                                                                                                    
                                                                                                    
                                                                                                    
                                                                                                    
                           
<?xpacket end="w"?></metadata>
<defs>
    <style>
      .cls-1 {
        fill-rule: evenodd;
      }
    </style>
  </defs>
  <path id="file_pdf" class="cls-1" d="M350,420H70a15,15,0,0,1-15-15V15A15,15,0,0,1,70,0H256a9.928,9.928,0,0,1,5.837,2.149l101.01,101.01A10.354,10.354,0,0,1,365,109V405A15,15,0,0,1,350,420ZM329,146c0-3.338-3.6-7-7-7H241a15,15,0,0,1-15-15V42a6.559,6.559,0,0,0-6-6H106A15,15,0,0,0,91,51V384H329V146ZM128.554,315.12a1.793,1.793,0,0,1,1.38-.65H157.1q10.314,0,16.345,5.613a18.8,18.8,0,0,1,6.029,14.4q0,8.787-5.085,13.952T157.1,353.6h-9.589v15.62a2.245,2.245,0,0,1-.581,1.546,1.792,1.792,0,0,1-1.38.65H129.934a1.79,1.79,0,0,1-1.38-.65,2.241,2.241,0,0,1-.581-1.546V316.666A2.244,2.244,0,0,1,128.554,315.12Zm19.033,23.43h9.225a3.542,3.542,0,0,0,2.725-1.139,4.5,4.5,0,0,0,1.053-3.173,5.264,5.264,0,0,0-1.017-3.335,3.32,3.32,0,0,0-2.761-1.3h-9.225v8.949Zm36.633-23.43a1.793,1.793,0,0,1,1.38-.65h23.174a37.173,37.173,0,0,1,13.875,2.359,20.052,20.052,0,0,1,9.516,7.972q3.632,5.614,3.633,13.993v8.3q0,13.017-7.846,18.955-7.191,5.37-19.178,5.369H185.6a1.79,1.79,0,0,1-1.38-.65,2.241,2.241,0,0,1-.581-1.546V316.666A2.244,2.244,0,0,1,184.22,315.12Zm18.307,40.433h6.61a7.7,7.7,0,0,0,5.412-1.831,6.651,6.651,0,0,0,2-5.166V337.33a6.654,6.654,0,0,0-2-5.166,7.705,7.705,0,0,0-5.412-1.831h-6.61v25.22ZM168,299s-10.776.3-20-3c-8.129-2.908-15.749-7.351-17-8.834,0.337-4.855,8.144-27.412,41.91-41.693,5.386-6.77,17.242-39.82,17.463-46.546C188.9,194.268,174.729,172.566,178,156c4.4-4.359,28.145-15.637,32.039-7.935-0.429,8.828-.2,30.4-5.389,44.871,1.577,5.462,13.124,27.373,29.962,35.082,7.44-.93,51.4-10.188,54.388-0.018,0.165,3.222-4.413,23.269-4.413,23.269s-8.612,10.574-30.537.9a91.572,91.572,0,0,0-17.11-5.53s-31.9-.039-47.731,8.146C187.846,260.713,180.781,296,168,299Zm-19.537-13.964c2.756-1.44,15.134-22.109,15.134-22.109C138.6,285.651,146.646,284.411,148.463,285.036Zm127.756-37.062C280.167,245.561,259,244,259,244S272.272,250.386,276.219,247.974Zm-76.532-90.938c-3.019,1.167-2.492,21.742-2.329,20.946C203,150.563,202.518,157.748,199.687,157.036Zm13.97,75.637c-5.109-3.247-11.131-9.808-11.642-12.8-1.826,6.773-4.129,13.286-5.821,16.291A75.645,75.645,0,0,1,213.657,232.673Zm28.6,82.447a1.793,1.793,0,0,1,1.381-.65h46.2a1.8,1.8,0,0,1,1.381.65,2.249,2.249,0,0,1,.581,1.546v12.366a2.241,2.241,0,0,1-.581,1.545,1.792,1.792,0,0,1-1.381.651H261.3v5.207h23.827a1.8,1.8,0,0,1,1.381.651,2.245,2.245,0,0,1,.581,1.545v12.285a2.241,2.241,0,0,1-.581,1.545,1.792,1.792,0,0,1-1.381.651H261.3V369.22a2.245,2.245,0,0,1-.581,1.546,1.792,1.792,0,0,1-1.38.65H243.643a1.79,1.79,0,0,1-1.381-.65,2.241,2.241,0,0,1-.581-1.546V316.666A2.244,2.244,0,0,1,242.262,315.12Z"/>
</svg>
