<svg xmlns="http://www.w3.org/2000/svg" width="99.96" height="99.96" viewBox="0 0 420 420">
  <metadata><?xpacket begin="﻿" id="W5M0MpCehiHzreSzNTczkc9d"?>
<x:xmpmeta xmlns:x="adobe:ns:meta/" x:xmptk="Adobe XMP Core 5.6-c142 79.160924, 2017/07/13-01:06:39        ">
   <rdf:RDF xmlns:rdf="http://www.w3.org/1999/02/22-rdf-syntax-ns#">
      <rdf:Description rdf:about=""/>
   </rdf:RDF>
</x:xmpmeta>
                                                                                                    
                                                                                                    
                                                                                                    
                                                                                                    
                                                                                                    
                                                                                                    
                                                                                                    
                                                                                                    
                                                                                                    
                                                                                                    
                                                                                                    
                                                                                                    
                                                                                                    
                                                                                                    
                                                                                                    
                                                                                                    
                                                                                                    
                                                                                                    
                                                                                                    
                                                                                                    
                           
<?xpacket end="w"?></metadata>
<defs>
    <style>
      .cls-1 {
        fill-rule: evenodd;
      }
    </style>
  </defs>
  <path id="file_svg" class="cls-1" d="M285.885,365.518q-7.518,5.981-19.868,5.98t-19.868-5.83q-7.519-5.831-7.519-18.045v-9.36a25.661,25.661,0,0,1,2.143-10.787,19.054,19.054,0,0,1,5.993-7.535q7.556-5.553,19.251-5.553a37.006,37.006,0,0,1,10.642,1.446,24.622,24.622,0,0,1,7.7,3.594,27.634,27.634,0,0,1,4.9,4.649q3.558,4.376,3.56,7.736a1.719,1.719,0,0,1-.472,1.211,1.488,1.488,0,0,1-1.126.508H274.807a2.719,2.719,0,0,1-2.107-.722,7.76,7.76,0,0,0-6.138-2.558,10.173,10.173,0,0,0-6.1,1.616,4.93,4.93,0,0,0-2.216,4.152V349.1a5.8,5.8,0,0,0,2.179,4.807,9.648,9.648,0,0,0,6.139,1.73,9.416,9.416,0,0,0,6.1-1.749,5.415,5.415,0,0,0,2.216-4.108h-4.5a1.788,1.788,0,0,1-1.381-.651,2.239,2.239,0,0,1-.581-1.546v-9.03A2.244,2.244,0,0,1,269,337a1.793,1.793,0,0,1,1.381-.65h21.066a1.8,1.8,0,0,1,1.381.65,2.249,2.249,0,0,1,.581,1.546v8.623Q293.4,359.541,285.885,365.518Zm-65.125,3.214a3.24,3.24,0,0,1-3.269,2.684H200.565a3.14,3.14,0,0,1-3.2-2.44l-16.854-52.147a3.846,3.846,0,0,1-.072-0.814,1.562,1.562,0,0,1,.472-1.017,1.46,1.46,0,0,1,1.126-.528h15.328a2.866,2.866,0,0,1,2.143.854,4.439,4.439,0,0,1,1.126,1.83l8.354,31.158,8.354-31.158a3.109,3.109,0,0,1,3.269-2.684h15.328a1.463,1.463,0,0,1,1.126.528,1.572,1.572,0,0,1,.472,1.017,3.838,3.838,0,0,1-.073.814Zm-64.071-33.059q11.913,1.494,16.962,5.539T178.7,353.35q0,8.092-7.337,13.12T151.894,371.5q-12.132,0-18.851-4.956t-6.72-12.212a1.524,1.524,0,0,1,1.671-1.773h14.892a3.244,3.244,0,0,1,2.47,1q2.033,2.079,7.047,2.077,6.9,0,6.9-2.278,0-1.414-2.179-2.24a44.489,44.489,0,0,0-8.645-1.61q-20.559-2.67-20.558-17.049a15.621,15.621,0,0,1,6.61-13.079q6.609-4.989,17.689-4.99t17.907,5.366q6.827,5.365,6.828,11.337a1.767,1.767,0,0,1-.472,1.29,1.7,1.7,0,0,1-1.271.485H159.594a3.112,3.112,0,0,1-2.252-.923,7.24,7.24,0,0,0-5.23-1.691q-4.868,0-4.867,2.2,0,1.179,1.889,1.846A43.552,43.552,0,0,0,156.689,335.673ZM127.542,212.128h69.945v9.766a2.17,2.17,0,0,0,2.169,2.17h21.688a2.17,2.17,0,0,0,2.169-2.17v-6.575a3.243,3.243,0,0,0,.542.064,55.854,55.854,0,0,1,55.823,54.9,8.678,8.678,0,1,0,6.506-.018,62.4,62.4,0,0,0-42.459-58.138h49.533a0.543,0.543,0,0,0,.542-0.543v-2.17a0.543,0.543,0,0,0-.542-0.543H223.513v-8.681a2.17,2.17,0,0,0-2.169-2.17H199.656a2.17,2.17,0,0,0-2.169,2.17V205.6a55.846,55.846,0,0,1-55.28-54.887,8.679,8.679,0,1,0-6.506.018,62.4,62.4,0,0,0,42.459,58.138H127.542a0.543,0.543,0,0,0-.542.543v2.17A0.543,0.543,0,0,0,127.542,212.128ZM350,420H70a15,15,0,0,1-15-15V15A15,15,0,0,1,70,0H256a9.928,9.928,0,0,1,5.837,2.149l101.01,101.01A10.354,10.354,0,0,1,365,109V405A15,15,0,0,1,350,420ZM329,146c0-3.338-3.6-7-7-7H241a15,15,0,0,1-15-15V42a6.559,6.559,0,0,0-6-6H106A15,15,0,0,0,91,51V384H329V146Z"/>
</svg>
