<svg xmlns="http://www.w3.org/2000/svg" width="99.96" height="99.96" viewBox="0 0 420 420">
  <metadata><?xpacket begin="﻿" id="W5M0MpCehiHzreSzNTczkc9d"?>
<x:xmpmeta xmlns:x="adobe:ns:meta/" x:xmptk="Adobe XMP Core 5.6-c142 79.160924, 2017/07/13-01:06:39        ">
   <rdf:RDF xmlns:rdf="http://www.w3.org/1999/02/22-rdf-syntax-ns#">
      <rdf:Description rdf:about=""/>
   </rdf:RDF>
</x:xmpmeta>
                                                                                                    
                                                                                                    
                                                                                                    
                                                                                                    
                                                                                                    
                                                                                                    
                                                                                                    
                                                                                                    
                                                                                                    
                                                                                                    
                                                                                                    
                                                                                                    
                                                                                                    
                                                                                                    
                                                                                                    
                                                                                                    
                                                                                                    
                                                                                                    
                                                                                                    
                                                                                                    
                           
<?xpacket end="w"?></metadata>
<defs>
    <style>
      .cls-1 {
        fill-rule: evenodd;
      }
    </style>
  </defs>
  <path id="file_html" class="cls-1" d="M350,420H70a15,15,0,0,1-15-15V15A15,15,0,0,1,70,0H256a9.928,9.928,0,0,1,5.837,2.149l101.01,101.01A10.354,10.354,0,0,1,365,109V405A15,15,0,0,1,350,420ZM106,36A15,15,0,0,0,91,51V384H329V146c0-3.338-3.6-7-7-7H241a15,15,0,0,1-15-15V42a6.559,6.559,0,0,0-6-6H106Zm30.284,279.64a2.237,2.237,0,0,0-.585,1.548v16.693H121.052V317.188a2.243,2.243,0,0,0-.586-1.548,1.814,1.814,0,0,0-1.391-.651H103.989a1.813,1.813,0,0,0-1.392.651,2.237,2.237,0,0,0-.585,1.548v52.6a2.2,2.2,0,0,0,.585,1.588,1.865,1.865,0,0,0,1.392.611h15.086a1.811,1.811,0,0,0,1.391-.651,2.239,2.239,0,0,0,.586-1.548V352.447H135.7v17.345a2.234,2.234,0,0,0,.585,1.548,1.81,1.81,0,0,0,1.392.651h15.086a1.811,1.811,0,0,0,1.391-.651,2.239,2.239,0,0,0,.586-1.548v-52.6a2.243,2.243,0,0,0-.586-1.548,1.814,1.814,0,0,0-1.391-.651H137.676A1.813,1.813,0,0,0,136.284,315.64Zm20.358,0a2.237,2.237,0,0,0-.585,1.548V330.3a2.231,2.231,0,0,0,.585,1.547,1.811,1.811,0,0,0,1.392.652h15.745v37.295a2.23,2.23,0,0,0,.586,1.548,1.806,1.806,0,0,0,1.391.651h15.086a1.813,1.813,0,0,0,1.392-.651,2.238,2.238,0,0,0,.585-1.548V332.5h15.745a1.814,1.814,0,0,0,1.392-.652,2.237,2.237,0,0,0,.586-1.547v-13.11a2.243,2.243,0,0,0-.586-1.548,1.816,1.816,0,0,0-1.392-.651h-50.53A1.813,1.813,0,0,0,156.642,315.64Zm94.059,1.548-9.594,19.543-9.593-19.543a3.425,3.425,0,0,0-3.149-2.2h-13.4a1.811,1.811,0,0,0-1.391.651,2.238,2.238,0,0,0-.586,1.548v52.6a2.235,2.235,0,0,0,.586,1.548,1.808,1.808,0,0,0,1.391.651h13.256a1.811,1.811,0,0,0,1.391-.651,2.239,2.239,0,0,0,.586-1.548V344.549l5.346,11.726a3.769,3.769,0,0,0,1.025,1.3,2.932,2.932,0,0,0,2.051.732H243.6a3.372,3.372,0,0,0,1.758-.529,3.276,3.276,0,0,0,1.318-1.506l5.346-11.726v25.243a2.235,2.235,0,0,0,.586,1.548,1.808,1.808,0,0,0,1.391.651h13.256a1.811,1.811,0,0,0,1.391-.651,2.239,2.239,0,0,0,.586-1.548v-52.6a2.243,2.243,0,0,0-.586-1.548,1.814,1.814,0,0,0-1.391-.651h-13.4a3.424,3.424,0,0,0-3.149,2.2h0Zm41.347,0a2.238,2.238,0,0,0-.586-1.548,1.812,1.812,0,0,0-1.391-.651H274.253a1.813,1.813,0,0,0-1.392.651,2.238,2.238,0,0,0-.586,1.548v52.6a2.235,2.235,0,0,0,.586,1.548,1.81,1.81,0,0,0,1.392.651h42.768a1.811,1.811,0,0,0,1.391-.651,2.239,2.239,0,0,0,.586-1.548V357.5a2.24,2.24,0,0,0-.586-1.547,1.814,1.814,0,0,0-1.391-.651H292.048v-38.11Zm-2.767-80.095L251.13,261.618a2.173,2.173,0,0,1-1.135.273,1.7,1.7,0,0,1-1.227-.545,1.852,1.852,0,0,1-.545-1.363V245.268A2.914,2.914,0,0,1,248.95,243a7.158,7.158,0,0,1,.908-0.727,9.3,9.3,0,0,1,1.272-.908l15.9-9.992-15.9-9.992a2.861,2.861,0,0,1-1.317-.863,8.933,8.933,0,0,1-1.135-1.135,5.607,5.607,0,0,1-.455-1.907V202.757a1.848,1.848,0,0,1,.545-1.362A1.7,1.7,0,0,1,250,200.85a2.183,2.183,0,0,1,1.135.272l38.151,24.526q2.632,1.727,2.634,3.815v3.815Q291.915,235.368,289.281,237.093Zm-85.863,30.751a3.8,3.8,0,0,1-3.815,2.6H187.464a1.838,1.838,0,0,1-1.344-.563,1.625,1.625,0,0,1-.563-1.127,2.653,2.653,0,0,1,.173-1l30.781-70.145a3.708,3.708,0,0,1,3.815-2.6h12.4a1.84,1.84,0,0,1,1.344.563,1.629,1.629,0,0,1,.563,1.127,2.682,2.682,0,0,1-.173,1Zm-32.307-5.953a2.174,2.174,0,0,1-1.136-.273l-38.15-24.525q-2.635-1.725-2.634-3.815v-3.815q0-2.09,2.634-3.815l38.15-24.526a2.184,2.184,0,0,1,1.136-.272,1.7,1.7,0,0,1,1.226.545,1.848,1.848,0,0,1,.545,1.362v14.716a2.914,2.914,0,0,1-.727,2.27,7.011,7.011,0,0,1-.908.727,9.226,9.226,0,0,1-1.272.908l-15.9,9.992,15.9,9.992a2.885,2.885,0,0,1,1.318.863,4.591,4.591,0,0,1,1.044,1.135,4.886,4.886,0,0,1,.545,1.908v14.715a1.852,1.852,0,0,1-.545,1.363A1.7,1.7,0,0,1,171.111,261.891Z"/>
</svg>
