<svg xmlns="http://www.w3.org/2000/svg" width="99.96" height="99.96" viewBox="0 0 420 420">
  <metadata><?xpacket begin="﻿" id="W5M0MpCehiHzreSzNTczkc9d"?>
<x:xmpmeta xmlns:x="adobe:ns:meta/" x:xmptk="Adobe XMP Core 5.6-c142 79.160924, 2017/07/13-01:06:39        ">
   <rdf:RDF xmlns:rdf="http://www.w3.org/1999/02/22-rdf-syntax-ns#">
      <rdf:Description rdf:about=""/>
   </rdf:RDF>
</x:xmpmeta>
                                                                                                    
                                                                                                    
                                                                                                    
                                                                                                    
                                                                                                    
                                                                                                    
                                                                                                    
                                                                                                    
                                                                                                    
                                                                                                    
                                                                                                    
                                                                                                    
                                                                                                    
                                                                                                    
                                                                                                    
                                                                                                    
                                                                                                    
                                                                                                    
                                                                                                    
                                                                                                    
                           
<?xpacket end="w"?></metadata>
<defs>
    <style>
      .cls-1 {
        fill-rule: evenodd;
      }
    </style>
  </defs>
  <path id="flag" class="cls-1" d="M82.954,59.034l85.41,318.756a10,10,0,0,1-19.318,5.176L63.636,64.21A10,10,0,1,1,82.954,59.034Zm167.881,141C208.628,157.823,177.564,144.968,131,188c-5.459-20.231-25.128-97.615-33.333-128.9,47.029-47.981,82.313-31.761,126,11.926C276.766,124.127,323,47,323,47l33.333,128.9S298.349,247.544,250.835,200.03ZM312,89c-12.794,19.582-54.629,35.707-83,10-30.749-27.862-67.784-65.375-108-28,5.741,21.984,18.727,68.5,22.547,82.714C179.521,128.434,211.579,136.251,242,165c35.334,33.391,51.7,40.673,91,5C328.3,153.812,314.611,98.661,312,89Z"/>
</svg>
