<svg xmlns="http://www.w3.org/2000/svg" width="99.96" height="99.96" viewBox="0 0 420 420">
  <metadata><?xpacket begin="﻿" id="W5M0MpCehiHzreSzNTczkc9d"?>
<x:xmpmeta xmlns:x="adobe:ns:meta/" x:xmptk="Adobe XMP Core 5.6-c142 79.160924, 2017/07/13-01:06:39        ">
   <rdf:RDF xmlns:rdf="http://www.w3.org/1999/02/22-rdf-syntax-ns#">
      <rdf:Description rdf:about=""/>
   </rdf:RDF>
</x:xmpmeta>
                                                                                                    
                                                                                                    
                                                                                                    
                                                                                                    
                                                                                                    
                                                                                                    
                                                                                                    
                                                                                                    
                                                                                                    
                                                                                                    
                                                                                                    
                                                                                                    
                                                                                                    
                                                                                                    
                                                                                                    
                                                                                                    
                                                                                                    
                                                                                                    
                                                                                                    
                                                                                                    
                           
<?xpacket end="w"?></metadata>
<defs>
    <style>
      .cls-1 {
        fill-rule: evenodd;
      }
    </style>
  </defs>
  <path id="font" class="cls-1" d="M381.718,402H38.282A20.281,20.281,0,0,1,18,381.718V38.282A20.282,20.282,0,0,1,38.282,18H381.718A20.281,20.281,0,0,1,402,38.282V381.718A20.281,20.281,0,0,1,381.718,402ZM360.012,66.088a7.1,7.1,0,0,0-7.1-7.1H66.088a7.1,7.1,0,0,0-7.1,7.1V352.912a7.1,7.1,0,0,0,7.1,7.1H352.912a7.1,7.1,0,0,0,7.1-7.1V66.088Zm-48.945,205.79q-10.49,8.916-20.191,12.586a58.348,58.348,0,0,1-20.819,3.671q-18.356,0-28.214-8.967t-9.859-22.917a30.471,30.471,0,0,1,3.723-14.946,30.809,30.809,0,0,1,9.754-10.856,45.918,45.918,0,0,1,13.583-6.188,135.213,135.213,0,0,1,16.781-2.832q22.864-2.726,33.668-6.5,0.1-3.879.105-4.929,0-11.536-5.349-16.257-7.238-6.4-21.5-6.4-13.321,0-19.666,4.667T253.7,208.528l-18.46-2.517q2.517-11.851,8.286-19.141T260.2,175.647a74.375,74.375,0,0,1,25.277-3.933q14.262,0,23.179,3.356t13.111,8.443a29.721,29.721,0,0,1,5.873,12.849q0.945,4.826.944,17.411v25.172q0,26.326,1.206,33.3a41.953,41.953,0,0,0,4.773,13.373H314.842A39.986,39.986,0,0,1,311.067,271.878Zm-1.574-42.163q-10.28,4.2-30.836,7.132-11.641,1.679-16.466,3.776a16.418,16.418,0,0,0-7.447,6.136,16.687,16.687,0,0,0,3.094,21.553q5.715,5.035,16.729,5.035a38.927,38.927,0,0,0,19.4-4.772,29.391,29.391,0,0,0,12.482-13.059q3.04-6.4,3.041-18.879v-6.922ZM186.645,239.05H122.351l-16.887,46.568H83.858l59.05-153.76h21.921l62.93,153.76H204.58ZM164.3,179.9q-7.343-19.4-10.908-31.885a196,196,0,0,1-8.286,29.368l-16.886,45.1h52.127Z"/>
</svg>
