<svg xmlns="http://www.w3.org/2000/svg" width="99.96" height="99.96" viewBox="0 0 420 420">
  <metadata><?xpacket begin="﻿" id="W5M0MpCehiHzreSzNTczkc9d"?>
<x:xmpmeta xmlns:x="adobe:ns:meta/" x:xmptk="Adobe XMP Core 5.6-c142 79.160924, 2017/07/13-01:06:39        ">
   <rdf:RDF xmlns:rdf="http://www.w3.org/1999/02/22-rdf-syntax-ns#">
      <rdf:Description rdf:about=""/>
   </rdf:RDF>
</x:xmpmeta>
                                                                                                    
                                                                                                    
                                                                                                    
                                                                                                    
                                                                                                    
                                                                                                    
                                                                                                    
                                                                                                    
                                                                                                    
                                                                                                    
                                                                                                    
                                                                                                    
                                                                                                    
                                                                                                    
                                                                                                    
                                                                                                    
                                                                                                    
                                                                                                    
                                                                                                    
                                                                                                    
                           
<?xpacket end="w"?></metadata>
<defs>
    <style>
      .cls-1 {
        fill-rule: evenodd;
      }
    </style>
  </defs>
  <path id="gear" class="cls-1" d="M383.666,254.145h-36.53a143.1,143.1,0,0,1-8.916,20.936l26.012,26.012a22.33,22.33,0,0,1,0,31.579L332.653,364.25a22.33,22.33,0,0,1-31.579,0l-26.725-26.725a143,143,0,0,1-20.229,8.167V383.67A22.329,22.329,0,0,1,231.791,406h-44.66A22.329,22.329,0,0,1,164.8,383.67V344.937a143.181,143.181,0,0,1-19.459-8.161l-27.46,27.46a22.33,22.33,0,0,1-31.579,0L54.725,332.657a22.33,22.33,0,0,1,0-31.579l27.46-27.46a143.089,143.089,0,0,1-8.166-19.473H35.326A22.33,22.33,0,0,1,13,231.815V187.156a22.33,22.33,0,0,1,22.329-22.33H73.274a143.044,143.044,0,0,1,8.162-20.214L54.76,117.936a22.329,22.329,0,0,1,0-31.579L86.339,54.779a22.33,22.33,0,0,1,31.579,0L143.88,80.741A143.12,143.12,0,0,1,164.8,71.83V35.33A22.329,22.329,0,0,1,187.131,13h44.66A22.329,22.329,0,0,1,254.12,35.33V71.075a142.974,142.974,0,0,1,21.692,8.917l25.227-25.227a22.33,22.33,0,0,1,31.579,0L364.2,86.343a22.331,22.331,0,0,1,0,31.579L338.97,143.149a143.123,143.123,0,0,1,8.912,21.677h35.784A22.33,22.33,0,0,1,406,187.156v44.659A22.33,22.33,0,0,1,383.666,254.145ZM256.353,208.383a48.009,48.009,0,1,0-48.008,48.009A48.008,48.008,0,0,0,256.353,208.383Z"/>
</svg>
