<svg xmlns="http://www.w3.org/2000/svg" width="99.96" height="99.96" viewBox="0 0 420 420">
  <metadata><?xpacket begin="﻿" id="W5M0MpCehiHzreSzNTczkc9d"?>
<x:xmpmeta xmlns:x="adobe:ns:meta/" x:xmptk="Adobe XMP Core 5.6-c142 79.160924, 2017/07/13-01:06:39        ">
   <rdf:RDF xmlns:rdf="http://www.w3.org/1999/02/22-rdf-syntax-ns#">
      <rdf:Description rdf:about=""/>
   </rdf:RDF>
</x:xmpmeta>
                                                                                                    
                                                                                                    
                                                                                                    
                                                                                                    
                                                                                                    
                                                                                                    
                                                                                                    
                                                                                                    
                                                                                                    
                                                                                                    
                                                                                                    
                                                                                                    
                                                                                                    
                                                                                                    
                                                                                                    
                                                                                                    
                                                                                                    
                                                                                                    
                                                                                                    
                                                                                                    
                           
<?xpacket end="w"?></metadata>
<defs>
    <style>
      .cls-1 {
        fill-rule: evenodd;
      }
    </style>
  </defs>
  <path id="gmod" class="cls-1" d="M378.348,398H41.652A19.651,19.651,0,0,1,22,378.348V41.652A19.652,19.652,0,0,1,41.652,22h336.7A19.651,19.651,0,0,1,398,41.652v336.7A19.651,19.651,0,0,1,378.348,398ZM356,68.877a6.869,6.869,0,0,0-6.869-6.869H68.877a6.869,6.869,0,0,0-6.869,6.869V349.126A6.869,6.869,0,0,0,68.877,356H349.126A6.87,6.87,0,0,0,356,349.126V68.877ZM206.254,329.893c-68.323,0-74.184-49.818-74.184-64.567h35.718c0,11.736,9.222,31.6,34.344,31.6s41.213-11.91,41.213-34.344V237.85s-6.993,20.607-42.586,20.607-68.689-13.573-68.689-82.426,48.4-79.679,65.941-79.679c42.231,0,45.334,27.476,45.334,27.476V100.473h39.84V261.2C283.185,290.545,274.577,329.893,206.254,329.893Zm3.434-197.823c-19.347,0-35.031,21.527-35.031,48.082s15.684,48.082,35.031,48.082,35.031-21.527,35.031-48.082S229.035,132.07,209.688,132.07Z"/>
</svg>
