<svg xmlns="http://www.w3.org/2000/svg" width="99.96" height="99.96" viewBox="0 0 420 420">
  <metadata><?xpacket begin="﻿" id="W5M0MpCehiHzreSzNTczkc9d"?>
<x:xmpmeta xmlns:x="adobe:ns:meta/" x:xmptk="Adobe XMP Core 5.6-c142 79.160924, 2017/07/13-01:06:39        ">
   <rdf:RDF xmlns:rdf="http://www.w3.org/1999/02/22-rdf-syntax-ns#">
      <rdf:Description rdf:about=""/>
   </rdf:RDF>
</x:xmpmeta>
                                                                                                    
                                                                                                    
                                                                                                    
                                                                                                    
                                                                                                    
                                                                                                    
                                                                                                    
                                                                                                    
                                                                                                    
                                                                                                    
                                                                                                    
                                                                                                    
                                                                                                    
                                                                                                    
                                                                                                    
                                                                                                    
                                                                                                    
                                                                                                    
                                                                                                    
                                                                                                    
                           
<?xpacket end="w"?></metadata>
<defs>
    <style>
      .cls-1 {
        fill-rule: evenodd;
      }
    </style>
  </defs>
  <path id="home" class="cls-1" d="M397.067,219.436c-0.757,1.1-5.678,3.557-12.4,3.557H366.9V366.039A16.964,16.964,0,0,1,349.929,383H247.307V289.149a5.654,5.654,0,0,0-5.655-5.654H178.313a5.655,5.655,0,0,0-5.656,5.654V383H70.081a16.964,16.964,0,0,1-16.966-16.961V222.993H35.341c-7.864,0-11.851-2.7-12.658-3.946a16.408,16.408,0,0,1,2.971-21.339L196.383,42.138a20.616,20.616,0,0,1,27.244,0l170.729,155.57A16.408,16.408,0,0,1,397.067,219.436ZM325.35,197.559a16.878,16.878,0,0,0-3.791-10.678,10.571,10.571,0,0,0-1.848-2.285L217.569,90.953a12.277,12.277,0,0,0-16.3,0L99.128,184.6a10.6,10.6,0,0,0-1.831,2.255,16.885,16.885,0,0,0-3.813,10.708V325.332a16.963,16.963,0,0,0,16.966,16.961h21.49V248.442a5.655,5.655,0,0,1,5.656-5.654H281.239a5.655,5.655,0,0,1,5.655,5.654v93.851h21.49a16.963,16.963,0,0,0,16.966-16.961V197.559Z"/>
</svg>
