<svg xmlns="http://www.w3.org/2000/svg" width="99.96" height="99.96" viewBox="0 0 420 420">
  <metadata><?xpacket begin="﻿" id="W5M0MpCehiHzreSzNTczkc9d"?>
<x:xmpmeta xmlns:x="adobe:ns:meta/" x:xmptk="Adobe XMP Core 5.6-c142 79.160924, 2017/07/13-01:06:39        ">
   <rdf:RDF xmlns:rdf="http://www.w3.org/1999/02/22-rdf-syntax-ns#">
      <rdf:Description rdf:about=""/>
   </rdf:RDF>
</x:xmpmeta>
                                                                                                    
                                                                                                    
                                                                                                    
                                                                                                    
                                                                                                    
                                                                                                    
                                                                                                    
                                                                                                    
                                                                                                    
                                                                                                    
                                                                                                    
                                                                                                    
                                                                                                    
                                                                                                    
                                                                                                    
                                                                                                    
                                                                                                    
                                                                                                    
                                                                                                    
                                                                                                    
                           
<?xpacket end="w"?></metadata>
<defs>
    <style>
      .cls-1 {
        fill-rule: evenodd;
      }
    </style>
  </defs>
  <path id="image" class="cls-1" d="M377.219,400H43.781A22.76,22.76,0,0,1,21,377.26V43.74A22.76,22.76,0,0,1,43.781,21H377.219A22.76,22.76,0,0,1,400,43.74V377.26A22.76,22.76,0,0,1,377.219,400Zm-18.2-328.671a8.325,8.325,0,0,0-8.336-8.314H71.321a8.325,8.325,0,0,0-8.336,8.314V350.671a8.325,8.325,0,0,0,8.336,8.314H350.679a8.325,8.325,0,0,0,8.336-8.314V71.329ZM167.578,239.09a11.211,11.211,0,0,1,17.341,0l47.4,54.167L258.9,262.871a11.211,11.211,0,0,1,17.341,0L335,330.013H88.019Z"/>
</svg>
