<svg xmlns="http://www.w3.org/2000/svg" width="99.96" height="99.96" viewBox="0 0 420 420">
  <metadata><?xpacket begin="﻿" id="W5M0MpCehiHzreSzNTczkc9d"?>
<x:xmpmeta xmlns:x="adobe:ns:meta/" x:xmptk="Adobe XMP Core 5.6-c142 79.160924, 2017/07/13-01:06:39        ">
   <rdf:RDF xmlns:rdf="http://www.w3.org/1999/02/22-rdf-syntax-ns#">
      <rdf:Description rdf:about=""/>
   </rdf:RDF>
</x:xmpmeta>
                                                                                                    
                                                                                                    
                                                                                                    
                                                                                                    
                                                                                                    
                                                                                                    
                                                                                                    
                                                                                                    
                                                                                                    
                                                                                                    
                                                                                                    
                                                                                                    
                                                                                                    
                                                                                                    
                                                                                                    
                                                                                                    
                                                                                                    
                                                                                                    
                                                                                                    
                                                                                                    
                           
<?xpacket end="w"?></metadata>
<defs>
    <style>
      .cls-1 {
        fill-rule: evenodd;
      }
    </style>
  </defs>
  <path id="menu" class="cls-1" d="M377.246,327H42.754A19.75,19.75,0,0,1,23,307.254v-12.3a19.749,19.749,0,0,1,19.754-19.745H377.246A19.749,19.749,0,0,1,397,294.953v12.3A19.75,19.75,0,0,1,377.246,327Zm0-90.6H42.754A19.749,19.749,0,0,1,23,216.65v-12.3A19.749,19.749,0,0,1,42.754,184.6H377.246A19.75,19.75,0,0,1,397,204.35v12.3A19.75,19.75,0,0,1,377.246,236.4Zm0-90.6H42.754A19.749,19.749,0,0,1,23,126.047v-12.3A19.749,19.749,0,0,1,42.754,94H377.246A19.75,19.75,0,0,1,397,113.746v12.3A19.749,19.749,0,0,1,377.246,145.792Z"/>
</svg>
