<svg xmlns="http://www.w3.org/2000/svg" width="99.96" height="99.96" viewBox="0 0 420 420">
  <metadata><?xpacket begin="﻿" id="W5M0MpCehiHzreSzNTczkc9d"?>
<x:xmpmeta xmlns:x="adobe:ns:meta/" x:xmptk="Adobe XMP Core 5.6-c142 79.160924, 2017/07/13-01:06:39        ">
   <rdf:RDF xmlns:rdf="http://www.w3.org/1999/02/22-rdf-syntax-ns#">
      <rdf:Description rdf:about=""/>
   </rdf:RDF>
</x:xmpmeta>
                                                                                                    
                                                                                                    
                                                                                                    
                                                                                                    
                                                                                                    
                                                                                                    
                                                                                                    
                                                                                                    
                                                                                                    
                                                                                                    
                                                                                                    
                                                                                                    
                                                                                                    
                                                                                                    
                                                                                                    
                                                                                                    
                                                                                                    
                                                                                                    
                                                                                                    
                                                                                                    
                           
<?xpacket end="w"?></metadata>
<defs>
    <style>
      .cls-1 {
        fill-rule: evenodd;
      }
    </style>
  </defs>
  <path id="minecraft" class="cls-1" d="M367.871,320.871L220.72,397.546c-6.219,3.24-16.3,3.24-22.523,0L51.047,320.871C53.812,322.312,40,312.765,40,303.315V115.324C40,103.043,60.489,94.6,51.682,99.188L198.936,22.424c6.224-3.245,16.315-3.245,22.539,0L368.686,99.165c3.448,2.206,11.314,8.261,11.314,16.159V303.315C380,314.024,362.7,323.568,367.871,320.871Zm-296-33.8c0,7.712,11.222,15.5,8.976,14.328L200.41,363.976c5.054,2.645,13.247,2.645,18.3,0L338.27,301.4c-4.2,2.2,9.855-5.588,9.855-14.328V267.2s-0.64-9.144-4.811-6.973c-15.166,7.893-44.064,22.9-44.064,22.9s-6.375,3.815-6.375-7.434v-47.8s0.019-6.208-6.375-3.186c-7.839,3.705-18.063,8.5-18.063,8.5s-3.187,1.23-3.187,7.434v18.056s1.89,7.761-8.5,12.745-34.259,16.592-39.313,19.118-9.647,2.787-14.875,0l-15.937-8.5s-4.25-1.159-4.25-9.559V254.459s0.866-5.106-6.375-8.5-14.875-7.435-14.875-7.435-6.375-4.377-6.375,3.186v16.994s0.625,8.611-8.5,4.248-12.75-6.372-12.75-6.372-6.375-4.261-6.375,3.186v14.869s0.4,11.36-9.563,6.373c-11.355-5.684-40.374-20.18-40.374-20.18s-5.312-3.322-5.312,3.187v23.053Zm276.25-153.427c0-6.446-6.391-11.388-9.192-13.188l0.035,0.019-0.038-.021c-1.467-.942-1.945-1.021,0,0l0,0L219.324,57.824c-5.057-2.648-13.256-2.648-18.313,0L81.366,120.475c7.156-3.747-9.491,3.146-9.491,13.169V218.95c0.128,2.648.957,7.762,5.313,10.018,5.876,3.044,19.125,9.559,19.125,9.559S99.5,240.18,99.5,236.4V213.037s-0.778-5.347,5.312-2.124c6.37,3.37,18.063,9.559,18.063,9.559s4.25,3.2,4.25-2.125v-22.3s-1.114-6.482,7.437-2.124,65.718,32.891,70.125,35.049S210,231.447,210,238.527v21.242s0.567,3.425,5.312,1.062c6.337-3.155,19.125-9.559,19.125-9.559s3.188-1.707,3.188-8.5V221.534s-0.89-3.4,3.187-5.311,74.375-37.173,74.375-37.173,5.313-3.185,5.313,3.186v52.043s1.139,5.244,5.312,3.186c6.676-3.291,18.01-8.862,19.125-9.559s3.118-1.977,3.188-6.372v-87.89Zm20.558-34.481C366.29,97.913,366.877,98.008,368.683,99.163Zm0.047,0.025-0.044-.023,0,0Z"/>
</svg>
