<svg xmlns="http://www.w3.org/2000/svg" width="99.96" height="99.96" viewBox="0 0 420 420">
  <metadata><?xpacket begin="﻿" id="W5M0MpCehiHzreSzNTczkc9d"?>
<x:xmpmeta xmlns:x="adobe:ns:meta/" x:xmptk="Adobe XMP Core 5.6-c142 79.160924, 2017/07/13-01:06:39        ">
   <rdf:RDF xmlns:rdf="http://www.w3.org/1999/02/22-rdf-syntax-ns#">
      <rdf:Description rdf:about=""/>
   </rdf:RDF>
</x:xmpmeta>
                                                                                                    
                                                                                                    
                                                                                                    
                                                                                                    
                                                                                                    
                                                                                                    
                                                                                                    
                                                                                                    
                                                                                                    
                                                                                                    
                                                                                                    
                                                                                                    
                                                                                                    
                                                                                                    
                                                                                                    
                                                                                                    
                                                                                                    
                                                                                                    
                                                                                                    
                                                                                                    
                           
<?xpacket end="w"?></metadata>
<defs>
    <style>
      .cls-1 {
        fill-rule: evenodd;
      }
    </style>
  </defs>
  <path id="mine" class="cls-1" d="M396.355,236.379H357.561a149.121,149.121,0,0,1-24.9,59.684l27.558,27.558a17.645,17.645,0,0,1,0,24.953l-11.645,11.645a17.645,17.645,0,0,1-24.953,0l-27.558-27.558a149.121,149.121,0,0,1-59.684,24.9v38.794A17.645,17.645,0,0,1,218.734,414H202.266a17.645,17.645,0,0,1-17.645-17.645v-38.6a149.134,149.134,0,0,1-60.192-24.635l-26.3,26.3a17.623,17.623,0,0,1-24.92,0l-11.63-11.63a17.621,17.621,0,0,1,0-24.92l26.089-26.09a149.123,149.123,0,0,1-25.41-60.4H24.645A17.645,17.645,0,0,1,7,218.734V202.266a17.645,17.645,0,0,1,17.645-17.645H62.068a149.128,149.128,0,0,1,25.1-60.853L60.781,97.379a17.645,17.645,0,0,1,0-24.953L72.426,60.781a17.644,17.644,0,0,1,24.953,0L123.768,87.17a149.126,149.126,0,0,1,60.853-25.1V24.645A17.645,17.645,0,0,1,202.266,7h16.468a17.645,17.645,0,0,1,17.645,17.645V62.262a149.124,149.124,0,0,1,60.4,25.41l27.3-27.3a17.621,17.621,0,0,1,24.92,0L360.63,72a17.623,17.623,0,0,1,0,24.921l-27.509,27.509a149.134,149.134,0,0,1,24.635,60.192h38.6A17.645,17.645,0,0,1,414,202.266v16.468A17.645,17.645,0,0,1,396.355,236.379ZM331.938,340.256a5.882,5.882,0,0,0,8.318-8.318l-20.22-20.219q-3.995,4.319-8.317,8.317ZM81.52,331.173a5.874,5.874,0,1,0,8.307,8.307l18.891-18.891q-4.337-3.966-8.358-8.255Zm8.374-249.6a5.882,5.882,0,0,0-8.318,8.318L99.793,108.11q4-4.319,8.317-8.317Zm249.97,7.869a5.874,5.874,0,1,0-8.307-8.307L312.334,100.36q4.29,4.014,8.255,8.358Zm48.258,115.174H336.245a125.971,125.971,0,0,0-19.782-63.531l0,0q-1.342-2.1-2.763-4.148c-0.047-.068-0.1-0.136-0.144-0.2q-1.293-1.854-2.65-3.658-0.281-.372-0.565-0.74-1.155-1.518-2.357-3-0.427-.526-0.861-1.049-1.1-1.328-2.239-2.624a127.558,127.558,0,0,0-9.136-9.409q-1.493-1.386-3.025-2.727c-0.454-.395-0.915-0.781-1.375-1.17q-1.011-.861-2.039-1.7-1.162-.944-2.348-1.859-0.53-.411-1.062-0.817-1.52-1.15-3.072-2.258l-0.409-.289a126.728,126.728,0,0,0-66.034-22.95V32.879a5.881,5.881,0,1,0-11.763,0V82.4a125.936,125.936,0,0,0-65.456,21.044q-1.575,1.046-3.12,2.136-0.6.423-1.192,0.855-1.253.906-2.481,1.843c-0.59.45-1.177,0.9-1.759,1.361s-1.134.909-1.7,1.369c-0.762.623-1.522,1.249-2.269,1.891-0.357.306-.708,0.619-1.063,0.93a127.75,127.75,0,0,0-11.75,11.75c-0.311.355-.624,0.706-0.93,1.063-0.641.747-1.268,1.507-1.891,2.269-0.46.563-.919,1.126-1.369,1.7s-0.911,1.169-1.361,1.759q-0.935,1.23-1.843,2.481-0.43.594-.855,1.192-1.09,1.543-2.136,3.12A125.936,125.936,0,0,0,82.4,204.618H34.055a5.881,5.881,0,1,0,0,11.763H82.488a126.728,126.728,0,0,0,22.95,66.034c0.1,0.136.192,0.273,0.289,0.409q1.105,1.555,2.258,3.072,0.4,0.534.817,1.062,0.916,1.185,1.859,2.348,0.838,1.031,1.7,2.039c0.389,0.46.775,0.921,1.17,1.375q1.34,1.533,2.727,3.025a127.756,127.756,0,0,0,9.409,9.136q1.3,1.137,2.624,2.239,0.523,0.433,1.049.861,1.482,1.2,3,2.357,0.369,0.283.74,0.565,1.806,1.354,3.658,2.65l0.2,0.144q2.046,1.421,4.148,2.763l0,0a125.971,125.971,0,0,0,63.531,19.782v50.7a5.882,5.882,0,1,0,11.763,0V336.159a126.551,126.551,0,0,0,63.6-21.3c0.867-.581,1.731-1.168,2.584-1.769,0.618-.437,1.227-0.884,1.837-1.332s1.2-.88,1.789-1.329q1.212-.923,2.4-1.872,0.506-.4,1.007-0.811c0.951-.777,1.9-1.563,2.823-2.367,0.134-.116.267-0.234,0.4-0.351a127.694,127.694,0,0,0,12.21-12.21c0.117-.134.235-0.267,0.351-0.4,0.8-.928,1.59-1.872,2.367-2.823q0.408-.5.811-1.007,0.951-1.188,1.872-2.4c0.449-.592.89-1.189,1.329-1.789s0.895-1.219,1.332-1.837c0.6-.853,1.188-1.717,1.769-2.584a126.551,126.551,0,0,0,21.3-63.6h51.962A5.882,5.882,0,1,0,388.121,204.618Z"/>
</svg>
