<svg xmlns="http://www.w3.org/2000/svg" width="99.96" height="99.96" viewBox="0 0 420 420">
  <metadata><?xpacket begin="﻿" id="W5M0MpCehiHzreSzNTczkc9d"?>
<x:xmpmeta xmlns:x="adobe:ns:meta/" x:xmptk="Adobe XMP Core 5.6-c142 79.160924, 2017/07/13-01:06:39        ">
   <rdf:RDF xmlns:rdf="http://www.w3.org/1999/02/22-rdf-syntax-ns#">
      <rdf:Description rdf:about=""/>
   </rdf:RDF>
</x:xmpmeta>
                                                                                                    
                                                                                                    
                                                                                                    
                                                                                                    
                                                                                                    
                                                                                                    
                                                                                                    
                                                                                                    
                                                                                                    
                                                                                                    
                                                                                                    
                                                                                                    
                                                                                                    
                                                                                                    
                                                                                                    
                                                                                                    
                                                                                                    
                                                                                                    
                                                                                                    
                                                                                                    
                           
<?xpacket end="w"?></metadata>
<defs>
    <style>
      .cls-1 {
        fill-rule: evenodd;
      }
    </style>
  </defs>
  <path id="music" class="cls-1" d="M381.983,402H39.017A20.017,20.017,0,0,1,19,381.983V39.017A20.017,20.017,0,0,1,39.017,19H381.983A20.017,20.017,0,0,1,402,39.017V381.983A20.017,20.017,0,0,1,381.983,402ZM362,65.114a7.1,7.1,0,0,0-7.1-7.1H65.114a7.1,7.1,0,0,0-7.1,7.1V354.9a7.1,7.1,0,0,0,7.1,7.1H354.9a7.1,7.1,0,0,0,7.1-7.1V65.114Zm-61.082,59.171V269.65c0,7.666-15.8,21.423-35.295,21.423S233.4,281.483,233.4,269.65,246.129,246.7,265.622,246.7h10.742c4.541,0,7.673-5.437,7.673-15.3V145.569c0-2.556-2.673-3.542-5.526-2.515s-110,39.994-113.1,41.043c-3.574,1.209-7.21,3.9-7.21,9.08V307.9c0,7.666-15.8,21.422-35.295,21.422s-32.225-9.59-32.225-21.422,12.733-22.953,32.225-22.953H133.65c4.541,0,7.673-5.437,7.673-15.3V180.592a16.109,16.109,0,0,1-.464-3.867V162.07c0-8.994,6.456-18.627,14.42-21.518L286.5,92.928c7.964-2.89,14.42,2.057,14.42,11.05C300.922,103.978,300.917,128.379,300.917,124.285Z"/>
</svg>
