<svg xmlns="http://www.w3.org/2000/svg" width="99.96" height="99.96" viewBox="0 0 420 420">
  <metadata><?xpacket begin="﻿" id="W5M0MpCehiHzreSzNTczkc9d"?>
<x:xmpmeta xmlns:x="adobe:ns:meta/" x:xmptk="Adobe XMP Core 5.6-c142 79.160924, 2017/07/13-01:06:39        ">
   <rdf:RDF xmlns:rdf="http://www.w3.org/1999/02/22-rdf-syntax-ns#">
      <rdf:Description rdf:about=""/>
   </rdf:RDF>
</x:xmpmeta>
                                                                                                    
                                                                                                    
                                                                                                    
                                                                                                    
                                                                                                    
                                                                                                    
                                                                                                    
                                                                                                    
                                                                                                    
                                                                                                    
                                                                                                    
                                                                                                    
                                                                                                    
                                                                                                    
                                                                                                    
                                                                                                    
                                                                                                    
                                                                                                    
                                                                                                    
                                                                                                    
                           
<?xpacket end="w"?></metadata>
<defs>
    <style>
      .cls-1 {
        fill-rule: evenodd;
      }
    </style>
  </defs>
  <path id="panoramic_image" class="cls-1" d="M377.219,359H43.781A22.76,22.76,0,0,1,21,336.26V84.74A22.76,22.76,0,0,1,43.781,62H377.219A22.76,22.76,0,0,1,400,84.74V336.26A22.76,22.76,0,0,1,377.219,359Zm-18.2-246.671a8.325,8.325,0,0,0-8.336-8.314H71.321a8.325,8.325,0,0,0-8.336,8.314V309.671a8.325,8.325,0,0,0,8.336,8.314H350.679a8.325,8.325,0,0,0,8.336-8.314V112.329ZM258,296.009H82.992l56.375-64.124a7.967,7.967,0,0,1,12.288,0l33.585,38.2,18.841-21.431a7.967,7.967,0,0,1,12.287,0l15.448,17.571,24.551-49.342a7.967,7.967,0,0,1,12.288,0L337,296H257.989Z"/>
</svg>
