<svg xmlns="http://www.w3.org/2000/svg" width="99.96" height="99.96" viewBox="0 0 420 420">
  <metadata><?xpacket begin="﻿" id="W5M0MpCehiHzreSzNTczkc9d"?>
<x:xmpmeta xmlns:x="adobe:ns:meta/" x:xmptk="Adobe XMP Core 5.6-c142 79.160924, 2017/07/13-01:06:39        ">
   <rdf:RDF xmlns:rdf="http://www.w3.org/1999/02/22-rdf-syntax-ns#">
      <rdf:Description rdf:about=""/>
   </rdf:RDF>
</x:xmpmeta>
                                                                                                    
                                                                                                    
                                                                                                    
                                                                                                    
                                                                                                    
                                                                                                    
                                                                                                    
                                                                                                    
                                                                                                    
                                                                                                    
                                                                                                    
                                                                                                    
                                                                                                    
                                                                                                    
                                                                                                    
                                                                                                    
                                                                                                    
                                                                                                    
                                                                                                    
                                                                                                    
                           
<?xpacket end="w"?></metadata>
<defs>
    <style>
      .cls-1 {
        fill-rule: evenodd;
      }
    </style>
  </defs>
  <path id="person_stand" class="cls-1" d="M308.986,229.54a21.426,21.426,0,0,1-29.232-7.815L262.93,192.653v66.679c0,0.1-.013.206-0.015,0.31,0.006,0.206.015,0.411,0.015,0.619V385.639a21.4,21.4,0,0,1-42.8,0V273.263h-20.47V385.639a21.4,21.4,0,0,1-42.8,0V260.261c0-.208.01-0.413,0.016-0.619,0-.1-0.016-0.206-0.016-0.31V192.663l-16.824,29.086a21.39,21.39,0,0,1-37.065-21.361l48.382-83.647a21.394,21.394,0,0,1,19.473-10.65h78.146c0.076,0,.15.01,0.226,0.012a21.4,21.4,0,0,1,19.237,10.662l48.382,83.609A21.323,21.323,0,0,1,308.986,229.54ZM240.6,137.284a4.237,4.237,0,0,0-4.212-4.26H182.474a4.236,4.236,0,0,0-4.212,4.26V242.07a4.236,4.236,0,0,0,4.212,4.26h53.914a4.236,4.236,0,0,0,4.212-4.26V137.284ZM208.966,95.875a41.793,41.793,0,1,1,41.869-41.793A41.831,41.831,0,0,1,208.966,95.875Zm0-63.154a21.361,21.361,0,1,0,21.4,21.361A21.38,21.38,0,0,0,208.966,32.722Z"/>
</svg>
