<svg xmlns="http://www.w3.org/2000/svg" width="99.96" height="99.96" viewBox="0 0 420 420">
  <metadata><?xpacket begin="﻿" id="W5M0MpCehiHzreSzNTczkc9d"?>
<x:xmpmeta xmlns:x="adobe:ns:meta/" x:xmptk="Adobe XMP Core 5.6-c142 79.160924, 2017/07/13-01:06:39        ">
   <rdf:RDF xmlns:rdf="http://www.w3.org/1999/02/22-rdf-syntax-ns#">
      <rdf:Description rdf:about=""/>
   </rdf:RDF>
</x:xmpmeta>
                                                                                                    
                                                                                                    
                                                                                                    
                                                                                                    
                                                                                                    
                                                                                                    
                                                                                                    
                                                                                                    
                                                                                                    
                                                                                                    
                                                                                                    
                                                                                                    
                                                                                                    
                                                                                                    
                                                                                                    
                                                                                                    
                                                                                                    
                                                                                                    
                                                                                                    
                                                                                                    
                           
<?xpacket end="w"?></metadata>
<defs>
    <style>
      .cls-1 {
        fill-rule: evenodd;
      }
    </style>
  </defs>
  <path id="pi_symbol" class="cls-1" d="M382.2,397H37.8A14.8,14.8,0,0,1,23,382.2V37.8A14.8,14.8,0,0,1,37.8,23H382.2A14.8,14.8,0,0,1,397,37.8V382.2A14.8,14.8,0,0,1,382.2,397Zm-25.2-317.785a14.221,14.221,0,0,0-14.22-14.221H79.215A14.221,14.221,0,0,0,64.994,79.215V342.773a14.221,14.221,0,0,0,14.221,14.22H342.773a14.221,14.221,0,0,0,14.22-14.22V79.215Zm-54.987,69.207h-48.35v96.227a33.656,33.656,0,0,0,33.656,33.656h0.474v0.024c0.159,0,.314-0.024.474-0.024a17.539,17.539,0,0,1,0,35.078c-0.16,0-.315-0.02-0.474-0.024v0.024a68.26,68.26,0,0,1-68.26-68.26c0-.475.015-0.946,0.024-1.419-0.005-.16-0.024-0.316-0.024-0.477v-94.8H178.76v150.74a14.221,14.221,0,0,1-14.221,14.221h-5.688a14.221,14.221,0,0,1-14.221-14.221V148.422H119.981A14.22,14.22,0,0,1,105.76,134.2v-5.689a14.22,14.22,0,0,1,14.221-14.22H302.006a14.22,14.22,0,0,1,14.221,14.22V134.2A14.22,14.22,0,0,1,302.006,148.422Z"/>
</svg>
