<svg xmlns="http://www.w3.org/2000/svg" width="99.96" height="99.96" viewBox="0 0 420 420">
  <metadata><?xpacket begin="﻿" id="W5M0MpCehiHzreSzNTczkc9d"?>
<x:xmpmeta xmlns:x="adobe:ns:meta/" x:xmptk="Adobe XMP Core 5.6-c142 79.160924, 2017/07/13-01:06:39        ">
   <rdf:RDF xmlns:rdf="http://www.w3.org/1999/02/22-rdf-syntax-ns#">
      <rdf:Description rdf:about=""/>
   </rdf:RDF>
</x:xmpmeta>
                                                                                                    
                                                                                                    
                                                                                                    
                                                                                                    
                                                                                                    
                                                                                                    
                                                                                                    
                                                                                                    
                                                                                                    
                                                                                                    
                                                                                                    
                                                                                                    
                                                                                                    
                                                                                                    
                                                                                                    
                                                                                                    
                                                                                                    
                                                                                                    
                                                                                                    
                                                                                                    
                           
<?xpacket end="w"?></metadata>
<defs>
    <style>
      .cls-1 {
        fill-rule: evenodd;
      }
    </style>
  </defs>
  <path id="plus_sign" class="cls-1" d="M324.5,252H252v73.5a41.5,41.5,0,0,1-83,0V252H95.5a41.5,41.5,0,0,1,0-83H169V96.5a41.5,41.5,0,0,1,83,0V169h72.5A41.5,41.5,0,0,1,324.5,252Zm3-54H223V169h0V97.5a12.5,12.5,0,0,0-25,0V198H96.5a12.5,12.5,0,0,0,0,25H198V328.5a12.5,12.5,0,0,0,25,0V252h0V223H327.5A12.5,12.5,0,0,0,327.5,198Z"/>
</svg>
