<svg xmlns="http://www.w3.org/2000/svg" width="99.96" height="99.96" viewBox="0 0 420 420">
  <metadata><?xpacket begin="﻿" id="W5M0MpCehiHzreSzNTczkc9d"?>
<x:xmpmeta xmlns:x="adobe:ns:meta/" x:xmptk="Adobe XMP Core 5.6-c142 79.160924, 2017/07/13-01:06:39        ">
   <rdf:RDF xmlns:rdf="http://www.w3.org/1999/02/22-rdf-syntax-ns#">
      <rdf:Description rdf:about=""/>
   </rdf:RDF>
</x:xmpmeta>
                                                                                                    
                                                                                                    
                                                                                                    
                                                                                                    
                                                                                                    
                                                                                                    
                                                                                                    
                                                                                                    
                                                                                                    
                                                                                                    
                                                                                                    
                                                                                                    
                                                                                                    
                                                                                                    
                                                                                                    
                                                                                                    
                                                                                                    
                                                                                                    
                                                                                                    
                                                                                                    
                           
<?xpacket end="w"?></metadata>
<defs>
    <style>
      .cls-1 {
        fill-rule: evenodd;
      }
    </style>
  </defs>
  <path id="remove_file" class="cls-1" d="M350,420H70a15,15,0,0,1-15-15V15A15,15,0,0,1,70,0H256a9.928,9.928,0,0,1,5.837,2.149l101.01,101.01A10.354,10.354,0,0,1,365,109V405A15,15,0,0,1,350,420ZM329,146c0-3.338-3.6-7-7-7H241a15,15,0,0,1-15-15V42a6.559,6.559,0,0,0-6-6H106A15,15,0,0,0,91,51V369a15,15,0,0,0,15,15H314a15,15,0,0,0,15-15V146Zm-69.647,42.147H159.647A6.646,6.646,0,0,1,153,181.5V176.63a6.646,6.646,0,0,1,6.647-6.644h36.008a6.646,6.646,0,0,1,6.09-3.986h15.51a6.646,6.646,0,0,1,6.09,3.986h36.008A6.646,6.646,0,0,1,266,176.63V181.5A6.646,6.646,0,0,1,259.353,188.147Zm-91.286,8.415H250.49a6.646,6.646,0,0,1,6.647,6.645V322.356A6.646,6.646,0,0,1,250.49,329H168.067a6.646,6.646,0,0,1-6.647-6.644V203.207A6.646,6.646,0,0,1,168.067,196.562ZM181,301.179a5.823,5.823,0,0,0,5.833,5.814h44.333A5.823,5.823,0,0,0,237,301.179V224.821a5.823,5.823,0,0,0-5.833-5.814H186.831A5.823,5.823,0,0,0,181,224.821v76.358Z"/>
</svg>
