<svg xmlns="http://www.w3.org/2000/svg" width="99.96" height="99.96" viewBox="0 0 420 420">
  <metadata><?xpacket begin="﻿" id="W5M0MpCehiHzreSzNTczkc9d"?>
<x:xmpmeta xmlns:x="adobe:ns:meta/" x:xmptk="Adobe XMP Core 5.6-c142 79.160924, 2017/07/13-01:06:39        ">
   <rdf:RDF xmlns:rdf="http://www.w3.org/1999/02/22-rdf-syntax-ns#">
      <rdf:Description rdf:about=""/>
   </rdf:RDF>
</x:xmpmeta>
                                                                                                    
                                                                                                    
                                                                                                    
                                                                                                    
                                                                                                    
                                                                                                    
                                                                                                    
                                                                                                    
                                                                                                    
                                                                                                    
                                                                                                    
                                                                                                    
                                                                                                    
                                                                                                    
                                                                                                    
                                                                                                    
                                                                                                    
                                                                                                    
                                                                                                    
                                                                                                    
                           
<?xpacket end="w"?></metadata>
<defs>
    <style>
      .cls-1 {
        fill-rule: evenodd;
      }
    </style>
  </defs>
  <path id="rubiks_cube" class="cls-1" d="M367.871,320.871L220.72,397.546c-6.219,3.24-16.3,3.24-22.523,0L51.047,320.871C53.812,322.312,40,312.765,40,303.315V115.324C40,103.043,60.489,94.6,51.681,99.188L198.936,22.424c6.224-3.245,16.315-3.245,22.539,0L368.686,99.165c3.448,2.206,11.314,8.261,11.314,16.159V303.315C380,314.024,362.7,323.568,367.871,320.871ZM193,234.11V209.573c0-13.8,1.72-20.038,17-28.1,1.382-.73,6.908-3.63,15-7.871l-28.431-15c-15.255,8-24.968,13.086-25.854,13.552-4.828,2.537-6.711,6.267-6.711,10.241v36.417Zm-29,5.048v44.258l29,15.305V254.463Zm80.341-75.7,33.517-17.569-28.423-15-33.52,17.567ZM193,319.073l-29-15.3v41.15s13.04,6.911,21.666,11.34c4.879,2.5,7.334-1.419,7.334-5.868V319.073Zm-75-39.581v41.351l29,15.179V294.8Zm29-5.048V230.186l-29-15.305v44.258Zm-29-79.916,29,15.305v-25.26c0-13.8,1.72-20.038,17-28.1,1.779-.939,6.81-3.581,14.305-7.512l-29.379-15.5c-14.309,7.5-23.361,12.244-24.215,12.693-4.828,2.537-6.711,6.267-6.711,10.241v38.14Zm32.011-80.855L183.528,96.1l-27.7-14.62-33.534,17.56Zm18.265,9.64,29.373,15.5c9.754-5.114,21.127-11.075,33.518-17.569l-29.37-15.5Zm82.241-12.208,35.267-18.48L256.3,77.185l-35.15,18.42Zm18.269,9.642,28.422,15c10.714-5.616,20.866-10.777,29.139-15.271,3.521-1.913,4.549-4.276-1.288-7.285-8.482-4.371-20.936-10.963-20.936-10.963ZM80.851,301.4L101,311.945V270.52l-29-15.3V287C72,294.712,83.1,302.575,80.851,301.4ZM101,250.167V205.91L72,190.605v44.257ZM81.366,120.475l0.828-.434C78.185,122.135,72,124.4,72,134v36.252l29,15.3V158.573c0-13.8,1.72-20.038,17-28.1,1.646-.869,6.079-3.2,12.667-6.653l-27.733-14.637-20.739,10.86,0.089-.057c1.282-.7,1.032-0.65,0,0C82.033,120.121,81.739,120.279,81.366,120.475ZM219.324,57.824c-5.057-2.648-13.256-2.648-18.313,0L175.184,71.348l27.695,14.616,35.079-18.382ZM368.683,99.163C366.29,97.913,366.877,98.008,368.683,99.163Zm0.047,0.025-0.044-.023,0,0Z"/>
</svg>
