<svg xmlns="http://www.w3.org/2000/svg" width="99.96" height="99.96" viewBox="0 0 420 420">
  <metadata><?xpacket begin="﻿" id="W5M0MpCehiHzreSzNTczkc9d"?>
<x:xmpmeta xmlns:x="adobe:ns:meta/" x:xmptk="Adobe XMP Core 5.6-c142 79.160924, 2017/07/13-01:06:39        ">
   <rdf:RDF xmlns:rdf="http://www.w3.org/1999/02/22-rdf-syntax-ns#">
      <rdf:Description rdf:about=""/>
   </rdf:RDF>
</x:xmpmeta>
                                                                                                    
                                                                                                    
                                                                                                    
                                                                                                    
                                                                                                    
                                                                                                    
                                                                                                    
                                                                                                    
                                                                                                    
                                                                                                    
                                                                                                    
                                                                                                    
                                                                                                    
                                                                                                    
                                                                                                    
                                                                                                    
                                                                                                    
                                                                                                    
                                                                                                    
                                                                                                    
                           
<?xpacket end="w"?></metadata>
<defs>
    <style>
      .cls-1 {
        fill-rule: evenodd;
      }
    </style>
  </defs>
  <path id="square_checkbox_true" class="cls-1" d="M382.2,397H37.8A14.8,14.8,0,0,1,23,382.2V37.8A14.8,14.8,0,0,1,37.8,23H382.2A14.8,14.8,0,0,1,397,37.8V382.2A14.8,14.8,0,0,1,382.2,397Zm-25.2-317.785a14.221,14.221,0,0,0-14.22-14.221H79.215A14.221,14.221,0,0,0,64.994,79.215V342.773a14.221,14.221,0,0,0,14.221,14.22H342.773a14.221,14.221,0,0,0,14.22-14.22V79.215ZM208.934,295.571a25.461,25.461,0,0,1-36,2.311l-53.787-47.636a25.535,25.535,0,1,1,33.678-38.393l34.67,30.7,84.157-95.94a25.536,25.536,0,0,1,38.312,33.771Z"/>
</svg>
