<svg xmlns="http://www.w3.org/2000/svg" width="99.96" height="99.96" viewBox="0 0 420 420">
  <metadata><?xpacket begin="﻿" id="W5M0MpCehiHzreSzNTczkc9d"?>
<x:xmpmeta xmlns:x="adobe:ns:meta/" x:xmptk="Adobe XMP Core 5.6-c142 79.160924, 2017/07/13-01:06:39        ">
   <rdf:RDF xmlns:rdf="http://www.w3.org/1999/02/22-rdf-syntax-ns#">
      <rdf:Description rdf:about=""/>
   </rdf:RDF>
</x:xmpmeta>
                                                                                                    
                                                                                                    
                                                                                                    
                                                                                                    
                                                                                                    
                                                                                                    
                                                                                                    
                                                                                                    
                                                                                                    
                                                                                                    
                                                                                                    
                                                                                                    
                                                                                                    
                                                                                                    
                                                                                                    
                                                                                                    
                                                                                                    
                                                                                                    
                                                                                                    
                                                                                                    
                           
<?xpacket end="w"?></metadata>
<defs>
    <style>
      .cls-1 {
        fill-rule: evenodd;
      }
    </style>
  </defs>
  <path id="tachometer" class="cls-1" d="M385,317H36a15,15,0,0,1-15-15V292c0-.222.024-0.437,0.033-0.656C22.232,187.675,106.589,104,210.5,104s188.269,83.675,189.467,187.344c0.009,0.219.033,0.434,0.033,0.656v10A15,15,0,0,1,385,317Zm-24-40h0v-3.882c0-.16-0.019-0.316-0.026-0.475C360.025,197.583,284.272,137,211.492,137S61.975,197.583,61.026,272.643c-0.008.159-.026,0.315-0.026,0.475V277h0v2a4,4,0,0,0,4,4H76.051a13,13,0,0,1,25.917,0h72.386a36.006,36.006,0,0,1,44.923-29.787c21.556-18.23,70.021-56.536,76.031-50.526,5.982,5.983-32.282,53.718-50.73,75.3A36.172,36.172,0,0,1,245.646,283h73.4a12.987,12.987,0,0,1,25.9,0H357a4,4,0,0,0,4-4v-2Zm-45-37a13,13,0,1,1,13-13A13,13,0,0,1,316,240Zm-44-46a13,13,0,1,1,13-13A13,13,0,0,1,272,194Zm-62-18a13,13,0,1,1,13-13A13,13,0,0,1,210,176Zm-60.951,18a13,13,0,1,1,13.008-13A13,13,0,0,1,149.049,194Zm-44.03,46a13,13,0,1,1,13.009-13A13,13,0,0,1,105.019,240Z"/>
</svg>
