<svg xmlns="http://www.w3.org/2000/svg" width="99.96" height="99.96" viewBox="0 0 420 420">
  <metadata><?xpacket begin="﻿" id="W5M0MpCehiHzreSzNTczkc9d"?>
<x:xmpmeta xmlns:x="adobe:ns:meta/" x:xmptk="Adobe XMP Core 5.6-c142 79.160924, 2017/07/13-01:06:39        ">
   <rdf:RDF xmlns:rdf="http://www.w3.org/1999/02/22-rdf-syntax-ns#">
      <rdf:Description rdf:about=""/>
   </rdf:RDF>
</x:xmpmeta>
                                                                                                    
                                                                                                    
                                                                                                    
                                                                                                    
                                                                                                    
                                                                                                    
                                                                                                    
                                                                                                    
                                                                                                    
                                                                                                    
                                                                                                    
                                                                                                    
                                                                                                    
                                                                                                    
                                                                                                    
                                                                                                    
                                                                                                    
                                                                                                    
                                                                                                    
                                                                                                    
                           
<?xpacket end="w"?></metadata>
<defs>
    <style>
      .cls-1 {
        fill-rule: evenodd;
      }
    </style>
  </defs>
  <path id="timer" class="cls-1" d="M348.824,141.207A171.478,171.478,0,1,1,39,242.51C39,158.634,99.236,88.868,178.8,73.993V48.263h-6.5a8.128,8.128,0,0,1-8.128-8.128V14.128A8.128,8.128,0,0,1,172.3,6h76.4a8.128,8.128,0,0,1,8.128,8.128V40.135a8.128,8.128,0,0,1-8.128,8.128h-6.5v25.73a170.7,170.7,0,0,1,68.96,29.734l26.8-23.549c2.6-2.285,7.06-1.714,10,1.24l23.353,23.464c2.923,2.937,3.455,7.367,1.154,9.936ZM211.067,118.4A124.762,124.762,0,1,0,335.893,243.165,124.794,124.794,0,0,0,211.067,118.4Zm19.6,146.569a29.26,29.26,0,0,1-49.158-22.679c0.317-7.418-48.584-70.67-42.716-76.126,6.174-5.741,66.191,47.647,73.986,48.189A29.259,29.259,0,0,1,230.671,264.973Z"/>
</svg>
