<svg xmlns="http://www.w3.org/2000/svg" width="99.96" height="99.96" viewBox="0 0 420 420">
  <metadata><?xpacket begin="﻿" id="W5M0MpCehiHzreSzNTczkc9d"?>
<x:xmpmeta xmlns:x="adobe:ns:meta/" x:xmptk="Adobe XMP Core 5.6-c142 79.160924, 2017/07/13-01:06:39        ">
   <rdf:RDF xmlns:rdf="http://www.w3.org/1999/02/22-rdf-syntax-ns#">
      <rdf:Description rdf:about=""/>
   </rdf:RDF>
</x:xmpmeta>
                                                                                                    
                                                                                                    
                                                                                                    
                                                                                                    
                                                                                                    
                                                                                                    
                                                                                                    
                                                                                                    
                                                                                                    
                                                                                                    
                                                                                                    
                                                                                                    
                                                                                                    
                                                                                                    
                                                                                                    
                                                                                                    
                                                                                                    
                                                                                                    
                                                                                                    
                                                                                                    
                           
<?xpacket end="w"?></metadata>
<defs>
    <style>
      .cls-1 {
        fill-rule: evenodd;
      }
    </style>
  </defs>
  <path id="times_sign" class="cls-1" d="M261.972,320.955L210.707,269.69l-51.972,51.972a41.5,41.5,0,1,1-58.69-58.69L152.017,211l-51.972-51.972a41.5,41.5,0,0,1,58.69-58.69l51.972,51.972,51.265-51.265a41.5,41.5,0,1,1,58.69,58.69L269.4,211l51.265,51.265A41.5,41.5,0,1,1,261.972,320.955Zm40.305-36.062-53.386-53.387h0L228.385,211h0l20.506-20.506h0l50.558-50.558a12.5,12.5,0,0,0-17.678-17.678l-47.022,47.023-3.536,3.535-20.506,20.506h0L190.2,172.816h0l-51.265-51.265a12.5,12.5,0,0,0-17.678,17.678L169.7,187.665l2.828,2.829L193.029,211l-20.506,20.506-2.828,2.828L118.43,285.6a12.5,12.5,0,0,0,17.677,17.677L190.2,249.184h0l20.506-20.506h0l20.506,20.506,3.536,3.535L284.6,302.57A12.5,12.5,0,0,0,302.277,284.893Z"/>
</svg>
