<svg xmlns="http://www.w3.org/2000/svg" width="99.96" height="99.96" viewBox="0 0 420 420">
  <metadata><?xpacket begin="﻿" id="W5M0MpCehiHzreSzNTczkc9d"?>
<x:xmpmeta xmlns:x="adobe:ns:meta/" x:xmptk="Adobe XMP Core 5.6-c142 79.160924, 2017/07/13-01:06:39        ">
   <rdf:RDF xmlns:rdf="http://www.w3.org/1999/02/22-rdf-syntax-ns#">
      <rdf:Description rdf:about=""/>
   </rdf:RDF>
</x:xmpmeta>
                                                                                                    
                                                                                                    
                                                                                                    
                                                                                                    
                                                                                                    
                                                                                                    
                                                                                                    
                                                                                                    
                                                                                                    
                                                                                                    
                                                                                                    
                                                                                                    
                                                                                                    
                                                                                                    
                                                                                                    
                                                                                                    
                                                                                                    
                                                                                                    
                                                                                                    
                                                                                                    
                           
<?xpacket end="w"?></metadata>
<defs>
    <style>
      .cls-1 {
        fill-rule: evenodd;
      }
    </style>
  </defs>
  <path id="trash" class="cls-1" d="M323,76H98A15,15,0,0,1,83,61V50A15,15,0,0,1,98,35h81.256A15,15,0,0,1,193,26h35a15,15,0,0,1,13.743,9H323a15,15,0,0,1,15,15V61A15,15,0,0,1,323,76ZM117,95H303a15,15,0,0,1,15,15V379a15,15,0,0,1-15,15H117a15,15,0,0,1-15-15V110A15,15,0,0,1,117,95Zm21,248a15,15,0,0,0,15,15H267a15,15,0,0,0,15-15V146a15,15,0,0,0-15-15H153a15,15,0,0,0-15,15V343Z"/>
</svg>
