<svg xmlns="http://www.w3.org/2000/svg" width="99.96" height="99.96" viewBox="0 0 420 420">
  <metadata><?xpacket begin="﻿" id="W5M0MpCehiHzreSzNTczkc9d"?>
<x:xmpmeta xmlns:x="adobe:ns:meta/" x:xmptk="Adobe XMP Core 5.6-c142 79.160924, 2017/07/13-01:06:39        ">
   <rdf:RDF xmlns:rdf="http://www.w3.org/1999/02/22-rdf-syntax-ns#">
      <rdf:Description rdf:about=""/>
   </rdf:RDF>
</x:xmpmeta>
                                                                                                    
                                                                                                    
                                                                                                    
                                                                                                    
                                                                                                    
                                                                                                    
                                                                                                    
                                                                                                    
                                                                                                    
                                                                                                    
                                                                                                    
                                                                                                    
                                                                                                    
                                                                                                    
                                                                                                    
                                                                                                    
                                                                                                    
                                                                                                    
                                                                                                    
                                                                                                    
                           
<?xpacket end="w"?></metadata>
<defs>
    <style>
      .cls-1 {
        fill-rule: evenodd;
      }
    </style>
  </defs>
  <path id="unicode" class="cls-1" d="M385,398H36a15,15,0,0,1-15-15V34A15,15,0,0,1,36,19H385a15,15,0,0,1,15,15V383A15,15,0,0,1,385,398ZM365,70a15,15,0,0,0-15-15H72A15,15,0,0,0,57,70V348a15,15,0,0,0,15,15H350a15,15,0,0,0,15-15V70ZM329.915,302.847a4.775,4.775,0,0,1-3.853,2.078H293.413q-4.868,0-8.112-5.455l-44.129-72.089v0.6q0,39.759-19.975,58.479t-54.043,18.724q-34.07,0-54.044-18.724T93.135,227.982V130.005a7.6,7.6,0,0,1,1.622-4.871,4.794,4.794,0,0,1,3.853-2.054h42.384a4.813,4.813,0,0,1,3.853,2.041,7.579,7.579,0,0,1,1.622,4.851V231.538q0,10.465,5.577,16.078t15.108,5.613q9.53,0,15.108-5.613t5.576-16.078V129.972a7.557,7.557,0,0,1,1.623-4.851,4.8,4.8,0,0,1,3.853-2.041H235.7a4.8,4.8,0,0,1,3.853,2.054,7.4,7.4,0,0,1,1.531,3.643l41.787,77.692V183.094a7.782,7.782,0,0,1,1.622-4.936,4.779,4.779,0,0,1,3.853-2.078h37.719a4.786,4.786,0,0,1,3.853,2.078,7.794,7.794,0,0,1,1.623,4.936V297.911A7.778,7.778,0,0,1,329.915,302.847ZM288,119h38a5,5,0,0,1,5,5v38a5,5,0,0,1-5,5H288a5,5,0,0,1-5-5V124A5,5,0,0,1,288,119Z"/>
</svg>
