<svg xmlns="http://www.w3.org/2000/svg" width="99.96" height="99.96" viewBox="0 0 420 420">
  <metadata><?xpacket begin="﻿" id="W5M0MpCehiHzreSzNTczkc9d"?>
<x:xmpmeta xmlns:x="adobe:ns:meta/" x:xmptk="Adobe XMP Core 5.6-c142 79.160924, 2017/07/13-01:06:39        ">
   <rdf:RDF xmlns:rdf="http://www.w3.org/1999/02/22-rdf-syntax-ns#">
      <rdf:Description rdf:about=""/>
   </rdf:RDF>
</x:xmpmeta>
                                                                                                    
                                                                                                    
                                                                                                    
                                                                                                    
                                                                                                    
                                                                                                    
                                                                                                    
                                                                                                    
                                                                                                    
                                                                                                    
                                                                                                    
                                                                                                    
                                                                                                    
                                                                                                    
                                                                                                    
                                                                                                    
                                                                                                    
                                                                                                    
                                                                                                    
                                                                                                    
                           
<?xpacket end="w"?></metadata>
<defs>
    <style>
      .cls-1 {
        fill-rule: evenodd;
      }
    </style>
  </defs>
  <path id="upload" class="cls-1" d="M377,399H43a15,15,0,0,1-15-15V310.279a15,15,0,0,1,15-15H377a15,15,0,0,1,15,15V384A15,15,0,0,1,377,399Zm-19-66.625A4.662,4.662,0,0,0,353.1,328H66.9a4.662,4.662,0,0,0-4.9,4.375v32.25A4.662,4.662,0,0,0,66.9,369H353.1a4.662,4.662,0,0,0,4.9-4.375v-32.25ZM196,26.7a19.479,19.479,0,0,1,27.485,0L287.621,90.62c25.666,25.584,28.77,41.38-.432,41.38H254.142l-0.331,124.325-0.012,4.3A19.4,19.4,0,0,1,234.364,280H182.538A19.4,19.4,0,0,1,163.1,260.628l0-3.968L163.012,132H131.967c-34.259,0-20.768-20.773-.094-41.38Zm-25.531,78.728c7.114,0,23.737-.438,23.737-0.438V248.039c0,6.991,6.935,5.946,14.132,5.889,7.143-.056,14.548.927,14.548-5.889V104.985s17.352,0.438,25.4.438c5.069,0,3.288-4.092,1.937-5.439L214.692,64.541c-4.053-4.043-8.805-3.987-12.65-.152-9.678,9.654-26.514,29.192-33.841,36.5C165.882,103.2,167.481,105.423,170.473,105.423Z"/>
</svg>
