<svg xmlns="http://www.w3.org/2000/svg" width="99.96" height="99.96" viewBox="0 0 420 420">
  <metadata><?xpacket begin="﻿" id="W5M0MpCehiHzreSzNTczkc9d"?>
<x:xmpmeta xmlns:x="adobe:ns:meta/" x:xmptk="Adobe XMP Core 5.6-c142 79.160924, 2017/07/13-01:06:39        ">
   <rdf:RDF xmlns:rdf="http://www.w3.org/1999/02/22-rdf-syntax-ns#">
      <rdf:Description rdf:about=""/>
   </rdf:RDF>
</x:xmpmeta>
                                                                                                    
                                                                                                    
                                                                                                    
                                                                                                    
                                                                                                    
                                                                                                    
                                                                                                    
                                                                                                    
                                                                                                    
                                                                                                    
                                                                                                    
                                                                                                    
                                                                                                    
                                                                                                    
                                                                                                    
                                                                                                    
                                                                                                    
                                                                                                    
                                                                                                    
                                                                                                    
                           
<?xpacket end="w"?></metadata>
<defs>
    <style>
      .cls-1 {
        fill-rule: evenodd;
      }
    </style>
  </defs>
  <path id="users" class="cls-1" d="M417,330H4A135.307,135.307,0,0,1,88.02,223.744,75.863,75.863,0,1,1,188.1,224a135.3,135.3,0,0,1,45.313,30.043,115.025,115.025,0,0,1,26.841-15.121,64.819,64.819,0,1,1,85.512.22A115.912,115.912,0,0,1,417,330ZM138.209,125.143a41.73,41.73,0,1,0,41.724,41.73A41.727,41.727,0,0,0,138.209,125.143Zm-0.948,123.294a100.385,100.385,0,0,0-85.31,47.42h170.62A100.386,100.386,0,0,0,137.261,248.437Zm165.878-94.029a35.769,35.769,0,1,0,35.65,35.769A35.709,35.709,0,0,0,303.139,154.408Zm-0.81,105.68a85.176,85.176,0,0,0-50.692,16.642,134.641,134.641,0,0,1,12.159,24H375.219A85.712,85.712,0,0,0,302.329,260.088Z"/>
</svg>
