<svg xmlns="http://www.w3.org/2000/svg" width="99.96" height="99.96" viewBox="0 0 420 420">
  <metadata><?xpacket begin="﻿" id="W5M0MpCehiHzreSzNTczkc9d"?>
<x:xmpmeta xmlns:x="adobe:ns:meta/" x:xmptk="Adobe XMP Core 5.6-c142 79.160924, 2017/07/13-01:06:39        ">
   <rdf:RDF xmlns:rdf="http://www.w3.org/1999/02/22-rdf-syntax-ns#">
      <rdf:Description rdf:about=""/>
   </rdf:RDF>
</x:xmpmeta>
                                                                                                    
                                                                                                    
                                                                                                    
                                                                                                    
                                                                                                    
                                                                                                    
                                                                                                    
                                                                                                    
                                                                                                    
                                                                                                    
                                                                                                    
                                                                                                    
                                                                                                    
                                                                                                    
                                                                                                    
                                                                                                    
                                                                                                    
                                                                                                    
                                                                                                    
                                                                                                    
                           
<?xpacket end="w"?></metadata>
<defs>
    <style>
      .cls-1 {
        fill-rule: evenodd;
      }
    </style>
  </defs>
  <path id="v_battery_unknown" class="cls-1" d="M289.975,412H130.025A35.027,35.027,0,0,1,95,376.971V85.773a35.027,35.027,0,0,1,35.025-35.029h10.508V31.353A23.351,23.351,0,0,1,163.883,8h89.9a23.351,23.351,0,0,1,23.35,23.353V50.744h12.843A35.027,35.027,0,0,1,325,85.773v291.2A35.027,35.027,0,0,1,289.975,412Zm-7-294.243A23.352,23.352,0,0,0,259.619,94.4H160.381a23.352,23.352,0,0,0-23.351,23.352V343.11a23.352,23.352,0,0,0,23.351,23.352h99.238A23.352,23.352,0,0,0,282.97,343.11V117.757ZM221.892,241.348v9.062A12.987,12.987,0,0,1,209.009,263.5h-1.982a12.987,12.987,0,0,1-12.883-13.089V231.28c0-6.219,6.955-13.44,13.67-13.44,14.16,0,18.042-10.6,18.042-15.76s-2.526-15.1-15.191-15.1c-13.563,0-17.64,8.834-19.432,11.054s-5.659,5.056-9.983,5.056a13.987,13.987,0,0,1-13.874-14.1,15.848,15.848,0,0,1,2.02-7.8,44.934,44.934,0,0,1,38.622-21.4c24.63,0,44.6,19.159,44.6,42.792C252.614,225.5,239.727,235.749,221.892,241.348Zm-13.874,29.2a14.1,14.1,0,1,1-13.874,14.1A13.986,13.986,0,0,1,208.018,270.548Z"/>
</svg>
