<svg xmlns="http://www.w3.org/2000/svg" width="99.96" height="99.96" viewBox="0 0 420 420">
  <metadata><?xpacket begin="﻿" id="W5M0MpCehiHzreSzNTczkc9d"?>
<x:xmpmeta xmlns:x="adobe:ns:meta/" x:xmptk="Adobe XMP Core 5.6-c142 79.160924, 2017/07/13-01:06:39        ">
   <rdf:RDF xmlns:rdf="http://www.w3.org/1999/02/22-rdf-syntax-ns#">
      <rdf:Description rdf:about=""/>
   </rdf:RDF>
</x:xmpmeta>
                                                                                                    
                                                                                                    
                                                                                                    
                                                                                                    
                                                                                                    
                                                                                                    
                                                                                                    
                                                                                                    
                                                                                                    
                                                                                                    
                                                                                                    
                                                                                                    
                                                                                                    
                                                                                                    
                                                                                                    
                                                                                                    
                                                                                                    
                                                                                                    
                                                                                                    
                                                                                                    
                           
<?xpacket end="w"?></metadata>
<defs>
    <style>
      .cls-1 {
        fill-rule: evenodd;
      }
    </style>
  </defs>
  <path id="v_battery_charging" class="cls-1" d="M252.978,225.524c-3.725,5.294-46.449,65.909-52.324,74.227-1.4,1.792-4.592,2.218-4-1.627,2.066-13.323,5.956-38.135,8.855-56.6H167.391c-3.369,0-5.557-2.039-1.826-7.3s46.507-65.474,52.39-73.737c1.4-1.78,4.6-2.2,4,1.616-2.062,13.2-5.941,37.746-8.842,56.074h38.041C254.519,218.177,256.7,220.23,252.978,225.524Zm37,186.476H130.025A35.027,35.027,0,0,1,95,376.971V85.773a35.027,35.027,0,0,1,35.025-35.029h10.508V31.353A23.351,23.351,0,0,1,163.883,8h89.9a23.351,23.351,0,0,1,23.35,23.353V50.744h12.843A35.027,35.027,0,0,1,325,85.773v291.2A35.027,35.027,0,0,1,289.975,412Zm-7-294.243A23.352,23.352,0,0,0,259.619,94.4H160.381a23.352,23.352,0,0,0-23.351,23.352V343.11a23.352,23.352,0,0,0,23.351,23.352h99.238A23.352,23.352,0,0,0,282.97,343.11V117.757Z"/>
</svg>
