<svg xmlns="http://www.w3.org/2000/svg" width="99.96" height="99.96" viewBox="0 0 420 420">
  <metadata><?xpacket begin="﻿" id="W5M0MpCehiHzreSzNTczkc9d"?>
<x:xmpmeta xmlns:x="adobe:ns:meta/" x:xmptk="Adobe XMP Core 5.6-c142 79.160924, 2017/07/13-01:06:39        ">
   <rdf:RDF xmlns:rdf="http://www.w3.org/1999/02/22-rdf-syntax-ns#">
      <rdf:Description rdf:about=""/>
   </rdf:RDF>
</x:xmpmeta>
                                                                                                    
                                                                                                    
                                                                                                    
                                                                                                    
                                                                                                    
                                                                                                    
                                                                                                    
                                                                                                    
                                                                                                    
                                                                                                    
                                                                                                    
                                                                                                    
                                                                                                    
                                                                                                    
                                                                                                    
                                                                                                    
                                                                                                    
                                                                                                    
                                                                                                    
                                                                                                    
                           
<?xpacket end="w"?></metadata>
<defs>
    <style>
      .cls-1 {
        fill-rule: evenodd;
      }
    </style>
  </defs>
  <path id="weight" class="cls-1" d="M384.257,191.411L347.066,228.6a16.131,16.131,0,0,1-22.813,0l-52.384-52.384-95.657,95.657L228.6,324.26a16.129,16.129,0,0,1,0,22.812l-37.191,37.191a16.129,16.129,0,0,1-22.812,0l-52.385-52.384L77.082,371.005c-9.022,9.022-22.719,9.953-30.594,2.079s-6.944-21.572,2.078-30.594l39.126-39.126L35.711,251.382a16.13,16.13,0,0,1,0-22.812L72.9,191.379a16.13,16.13,0,0,1,22.812,0L147.7,243.36,243.354,147.7,191.372,95.721a16.131,16.131,0,0,1,0-22.812l37.192-37.191a16.13,16.13,0,0,1,22.812,0L303.357,87.7,342.616,48.44c9.022-9.022,22.719-9.953,30.594-2.078s6.943,21.572-2.079,30.594l-39.258,39.258L384.257,168.6A16.129,16.129,0,0,1,384.257,191.411ZM88.507,212.449a6.567,6.567,0,0,0-9.284,0L56.912,234.76a6.566,6.566,0,0,0,0,9.285l45.05,45.05,0.071-.072,28.516,28.515-0.072.072,44.233,44.233a6.564,6.564,0,0,0,9.284,0l22.311-22.311a6.565,6.565,0,0,0,0-9.285ZM362.773,173.78l-117.8-117.8a6.566,6.566,0,0,0-9.285,0L213.379,78.293a6.567,6.567,0,0,0,0,9.284l45.05,45.05,0.072-.072,28.515,28.516-0.072.071,44.233,44.233a6.565,6.565,0,0,0,9.285,0l22.311-22.311A6.564,6.564,0,0,0,362.773,173.78Z"/>
</svg>
