<svg xmlns="http://www.w3.org/2000/svg" width="99.96" height="99.96" viewBox="0 0 420 420">
  <metadata><?xpacket begin="﻿" id="W5M0MpCehiHzreSzNTczkc9d"?>
<x:xmpmeta xmlns:x="adobe:ns:meta/" x:xmptk="Adobe XMP Core 5.6-c142 79.160924, 2017/07/13-01:06:39        ">
   <rdf:RDF xmlns:rdf="http://www.w3.org/1999/02/22-rdf-syntax-ns#">
      <rdf:Description rdf:about=""/>
   </rdf:RDF>
</x:xmpmeta>
                                                                                                    
                                                                                                    
                                                                                                    
                                                                                                    
                                                                                                    
                                                                                                    
                                                                                                    
                                                                                                    
                                                                                                    
                                                                                                    
                                                                                                    
                                                                                                    
                                                                                                    
                                                                                                    
                                                                                                    
                                                                                                    
                                                                                                    
                                                                                                    
                                                                                                    
                                                                                                    
                           
<?xpacket end="w"?></metadata>
<defs>
    <style>
      .cls-1 {
        fill-rule: evenodd;
      }
    </style>
  </defs>
  <path id="wheat" class="cls-1" d="M365.547,131.474c-0.287.136-.578,0.252-0.867,0.382-7.63-4.445-16.637-7.979-26.41-8.459a51.269,51.269,0,0,0-14.348,1.405c0.572-1.013,1.161-2.014,1.728-3.03,0,0,8.6-13.772-.32-22.762A54.2,54.2,0,0,1,343.078,85C368.312,73.016,400,86.541,400,86.541S390.781,119.493,365.547,131.474Zm-24.03-31.825c2.131,7.383,0,12.229,0,12.229s18.122-.489,23.59,5.24c14.527-11.135,15.728-23.233,15.728-23.233S364.808,86.444,341.517,99.649Zm-4.284-19.993A54.5,54.5,0,0,0,320.022,95.35a18.076,18.076,0,0,0-5.545-1.691c0.165-1.271.3-2.552,0.357-3.852,0.571-12.5-4.084-24.128-9.4-33.169C315.557,33.766,343.77,23,343.77,23s14.855,27.517,6.3,51.761A50.16,50.16,0,0,0,337.233,79.656Zm1.45-41.153a35.2,35.2,0,0,0-19.008,18.345c6.329,10.805,5.242,18.343,5.242,18.343s5.934-8.5,15.727-10.482C343.792,54.452,338.683,38.5,338.683,38.5ZM306.928,94.625c-7.646,3.016-11.987,11.213-11.9,10.945q-7.606,12.65-15.758,24.885c-0.024-.361-0.033-0.719-0.066-1.081-1.709-18.7-14.565-35.408-23.225-44.7,3.868-24.161,24.639-42.937,24.639-42.937s26.06,22.181,26.365,50.108C307,92.774,306.974,93.7,306.928,94.625ZM282.107,60.342c-2.246,1.135-10.718,14.607-12.232,20.09,2.723,2.912,13.105,21.837,13.105,21.837s4.569-10.2,12.232-15.723C293.654,77.038,285.2,63.753,282.107,60.342Zm-10.784,81.827q-13.95,20.083-29.271,39c-0.948-21.624-14.4-43.22-22.03-53.819,5.731-23.119,25.689-40.283,25.689-40.283s26.163,23.419,25.76,52.073C271.457,140.161,271.4,141.168,271.323,142.169Zm-24.164-36.406c-3.934,2.737-13.979,19.217-13.979,19.217s11.7,13.551,14.853,30.572c0,0,11.228-14.878,13.1-16.6C260.871,135.851,258.155,116.138,247.159,105.763Zm-13.873,86.028q-17.94,21.245-37.541,40.852a59.1,59.1,0,0,0,.711-10.477c-0.442-18.795-10.267-35.361-19.277-46.683,8.6-25.36,33.554-42.439,33.554-42.439S236.311,160.959,233.286,191.791Zm-22.822-39.733c-12.193,4.488-17.584,20.212-17.474,20.964s9.953,10.516,13.106,31.445L223.569,187S224.592,168.769,210.464,152.058Zm-29.2,94.664q-18.77,17.692-38.834,33.861c-0.284-.319-0.569-0.638-0.859-0.971,2.839-10.615,4.144-22.3,2.036-34.037-2.393-13.327-10.342-28.668-19.768-43.093C132.693,180.14,150,164.211,150,164.211s33.4,27.306,34.222,62.323A63.788,63.788,0,0,1,181.266,246.722ZM152.8,187c-3.646,1.76-10.7,10.351-12.232,14.849,1.55,2.593,17.3,19.7,17.474,48.042l12.231-10.482S178,213.523,152.8,187ZM130.043,290.356q-17.3,13.284-35.442,25.4C81.943,304.84,65.662,286.82,61.53,263.81c-7-39,23.553-77.55,23.553-77.55S127,210.942,134,249.942C136.538,264.081,134.131,278.151,130.043,290.356ZM90.769,208.835c-29.237,36.449-10.751,70.511,6.422,85.776-0.959,1.716,19.2-14.275,23.283-17.644C122.425,260.831,122.121,227.72,90.769,208.835ZM302.021,106.443a9.973,9.973,0,0,1,2.241-3.706l0.121-.2c-0.012.042-.019,0.071-0.03,0.112a9.915,9.915,0,0,1,8.7-2.86,10.029,10.029,0,0,1,6.635,15.518c0.085-.017.171-0.025,0.254-0.043-0.191.39-.393,0.773-0.614,1.143l0.208,0.125A679.183,679.183,0,0,1,44.76,385.122l-0.114-.137a15.483,15.483,0,0,1-11.56,2.7A15.681,15.681,0,0,1,20.2,369.673c0.674-3.424,2.62-7.381,5.667-9.3A665.813,665.813,0,0,0,302.021,106.443ZM170.535,324.233c37.339,13.284,55.64,58.942,55.64,58.942S183.936,407.3,146.6,394.01c-19.012-6.764-33.077-21.916-42.315-35.166q27.079-17.69,52.391-37.917A68.123,68.123,0,0,1,170.535,324.233Zm31.192,52.312c-5.746-24.266-39.316-38.434-39.316-38.434l-30.579,22.711S157.644,393.662,201.727,376.545Zm-25.95-59.3a67.006,67.006,0,0,0-11.019-2.872q22.639-18.651,43.663-39.241c0.371-.02.738-0.057,1.11-0.071,39.6-1.487,73.518,34.148,73.518,34.148s-27.724,34.779-64.79,39.112C206.607,335.671,191.821,322.953,175.777,317.245Zm48.666,15.625c7.89-.648,29.9-15.484,34.948-21.837-11.456-17.488-43.685-21.837-43.685-21.837L193.864,310.16S207.078,313.938,224.443,332.87Zm-5.468-68.329q17.131-17.548,33.014-36.362c1.581-.1,3.172-0.15,4.781-0.114,35.025,0.8,62.983,34.185,62.983,34.185S302.986,280.891,279.5,289.4C263.049,277.832,240.307,265.157,218.975,264.541Zm82.353-3.3c-15.681-19.255-42.811-22.71-42.811-22.71s-9.079,10.675-15.726,18.343c16.873,4.43,33.627,15.127,36.695,19.217A52.074,52.074,0,0,0,301.328,261.244Zm-39.316-43.66c-0.421-.01-0.838-0.007-1.257-0.007q14.624-18.055,28.044-37.168a52.055,52.055,0,0,1,5.979-.925c31.443-2.971,59.991,23.981,59.991,23.981s-17.686,25.019-43.653,32.719C297.239,227.054,279.227,217.977,262.012,217.584Zm73.39-12.243c-13.941-13.389-37.569-14.849-37.569-14.849L282.98,208.835s25.423,5.945,28.832,13.1C327.663,217,332.468,210.55,335.4,205.341ZM302.523,171.5a52.47,52.47,0,0,0-8.253,1.016q12.792-18.789,24.37-38.522a48.641,48.641,0,0,1,7.35-.965c28.626-1.48,53.381,23.758,53.381,23.758s-15.463,19.73-37.526,26.742C331.333,176.976,317.438,170.918,302.523,171.5Zm58.216-15.072S349.19,142.547,326.665,144.2c-1.071,2.185-10.485,17.469-10.485,17.469s15.5,0.5,25.708,9.282A75.419,75.419,0,0,0,360.739,156.426Z"/>
</svg>
