<svg xmlns="http://www.w3.org/2000/svg" width="100" height="100" viewBox="0 0 500 500">
  <metadata><?xpacket begin="﻿" id="W5M0MpCehiHzreSzNTczkc9d"?>
<x:xmpmeta xmlns:x="adobe:ns:meta/" x:xmptk="Adobe XMP Core 5.6-c142 79.160924, 2017/07/13-01:06:39        ">
   <rdf:RDF xmlns:rdf="http://www.w3.org/1999/02/22-rdf-syntax-ns#">
      <rdf:Description rdf:about=""/>
   </rdf:RDF>
</x:xmpmeta>
                                                                                                    
                                                                                                    
                                                                                                    
                                                                                                    
                                                                                                    
                                                                                                    
                                                                                                    
                                                                                                    
                                                                                                    
                                                                                                    
                                                                                                    
                                                                                                    
                                                                                                    
                                                                                                    
                                                                                                    
                                                                                                    
                                                                                                    
                                                                                                    
                                                                                                    
                                                                                                    
                           
<?xpacket end="w"?></metadata>
<defs>
    <style>
      .cls-1 {
        fill-rule: evenodd;
      }
    </style>
  </defs>
  <path id="Rectángulo_redondeado_1_copia_5" data-name="Rectángulo redondeado 1 copia 5" class="cls-1" d="M469,461H54a14.988,14.988,0,0,1-14.964-14.3A15.077,15.077,0,0,0,42,447H455a15,15,0,0,0,15-15V129a15.071,15.071,0,0,0-.3-2.964A14.987,14.987,0,0,1,484,141V446A15,15,0,0,1,469,461Zm-23-24H31a15,15,0,0,1-15-15V117a15,15,0,0,1,15-15H84v47a25,25,0,0,0,25,25h15a25,25,0,0,0,25-25V102H328v47a25,25,0,0,0,25,25h15a25,25,0,0,0,25-25V102h53a15,15,0,0,1,15,15V422A15,15,0,0,1,446,437ZM425,246a15,15,0,0,0-15-15H67a15,15,0,0,0-15,15V386a15,15,0,0,0,15,15H410a15,15,0,0,0,15-15V246ZM112,67h10a15,15,0,0,1,15,15v65a15,15,0,0,1-15,15H112a15,15,0,0,1-15-15V82A15,15,0,0,1,112,67Zm243,0h10a15,15,0,0,1,15,15v65a15,15,0,0,1-15,15H355a15,15,0,0,1-15-15V82A15,15,0,0,1,355,67Z"/>
</svg>
