<svg xmlns="http://www.w3.org/2000/svg" width="100" height="100" viewBox="0 0 500 500">
  <metadata><?xpacket begin="﻿" id="W5M0MpCehiHzreSzNTczkc9d"?>
<x:xmpmeta xmlns:x="adobe:ns:meta/" x:xmptk="Adobe XMP Core 5.6-c142 79.160924, 2017/07/13-01:06:39        ">
   <rdf:RDF xmlns:rdf="http://www.w3.org/1999/02/22-rdf-syntax-ns#">
      <rdf:Description rdf:about=""/>
   </rdf:RDF>
</x:xmpmeta>
                                                                                                    
                                                                                                    
                                                                                                    
                                                                                                    
                                                                                                    
                                                                                                    
                                                                                                    
                                                                                                    
                                                                                                    
                                                                                                    
                                                                                                    
                                                                                                    
                                                                                                    
                                                                                                    
                                                                                                    
                                                                                                    
                                                                                                    
                                                                                                    
                                                                                                    
                                                                                                    
                           
<?xpacket end="w"?></metadata>
<defs>
    <style>
      .cls-1 {
        fill: #fff;
        fill-rule: evenodd;
      }
    </style>
  </defs>
  <path id="regular" class="cls-1" d="M469,461H54a14.988,14.988,0,0,1-14.965-14.3A15.079,15.079,0,0,0,42,447H455a15,15,0,0,0,15-15V129a15.071,15.071,0,0,0-.3-2.964A14.987,14.987,0,0,1,484,141V446A15,15,0,0,1,469,461Zm-23-23H31a15,15,0,0,1-15-15V118a15,15,0,0,1,15-15H97V82a15,15,0,0,1,15-15h10a15,15,0,0,1,15,15v21H340V82a15,15,0,0,1,15-15h10a15,15,0,0,1,15,15v21h66a15,15,0,0,1,15,15V423A15,15,0,0,1,446,438ZM425,154a15,15,0,0,0-15-15H380v8a15,15,0,0,1-15,15H355a15,15,0,0,1-15-15v-8H137v8a15,15,0,0,1-15,15H112a15,15,0,0,1-15-15v-8H67a15,15,0,0,0-15,15v27a15,15,0,0,0,15,15H410a15,15,0,0,0,15-15V154Zm0,93a15,15,0,0,0-15-15H67a15,15,0,0,0-15,15V387a15,15,0,0,0,15,15H410a15,15,0,0,0,15-15V247Z"/>
</svg>
