<svg xmlns="http://www.w3.org/2000/svg" width="100" height="100" viewBox="0 0 500 500">
  <metadata><?xpacket begin="﻿" id="W5M0MpCehiHzreSzNTczkc9d"?>
<x:xmpmeta xmlns:x="adobe:ns:meta/" x:xmptk="Adobe XMP Core 5.6-c142 79.160924, 2017/07/13-01:06:39        ">
   <rdf:RDF xmlns:rdf="http://www.w3.org/1999/02/22-rdf-syntax-ns#">
      <rdf:Description rdf:about=""/>
   </rdf:RDF>
</x:xmpmeta>
                                                                                                    
                                                                                                    
                                                                                                    
                                                                                                    
                                                                                                    
                                                                                                    
                                                                                                    
                                                                                                    
                                                                                                    
                                                                                                    
                                                                                                    
                                                                                                    
                                                                                                    
                                                                                                    
                                                                                                    
                                                                                                    
                                                                                                    
                                                                                                    
                                                                                                    
                                                                                                    
                           
<?xpacket end="w"?></metadata>
<defs>
    <style>
      .cls-1 {
        fill: #fff;
        fill-rule: evenodd;
      }
    </style>
  </defs>
  <path id="filled" class="cls-1" d="M359.614,188.876a139.263,139.263,0,0,0-104.585-47.109c-4.326,0-8.6.208-12.83,0.592l8.266-19.9c4.189-.378,8.429-0.582,12.717-0.582a139.791,139.791,0,0,1,37.781,5.172,53.79,53.79,0,0,0,.264-28.68c-6.9-27.223.991-43.355,24.458-52.441s22.555-.542,25.364,7.233S357.1,68.075,342.9,71.244s-17.5,7.181-12.682,20.8c3.628,10.243,3.269,31.319-1.711,46.025a140.059,140.059,0,0,1,39.339,31ZM390,292.761C390,369.66,327.544,432,250.5,432S111,369.66,111,292.761s62.456-139.24,139.5-139.24S390,215.861,390,292.761Z"/>
</svg>
