<svg xmlns="http://www.w3.org/2000/svg" width="100" height="100" viewBox="0 0 500 500">
  <metadata><?xpacket begin="﻿" id="W5M0MpCehiHzreSzNTczkc9d"?>
<x:xmpmeta xmlns:x="adobe:ns:meta/" x:xmptk="Adobe XMP Core 5.6-c142 79.160924, 2017/07/13-01:06:39        ">
   <rdf:RDF xmlns:rdf="http://www.w3.org/1999/02/22-rdf-syntax-ns#">
      <rdf:Description rdf:about=""/>
   </rdf:RDF>
</x:xmpmeta>
                                                                                                    
                                                                                                    
                                                                                                    
                                                                                                    
                                                                                                    
                                                                                                    
                                                                                                    
                                                                                                    
                                                                                                    
                                                                                                    
                                                                                                    
                                                                                                    
                                                                                                    
                                                                                                    
                                                                                                    
                                                                                                    
                                                                                                    
                                                                                                    
                                                                                                    
                                                                                                    
                           
<?xpacket end="w"?></metadata>
<defs>
    <style>
      .cls-1 {
        fill: #fff;
        fill-rule: evenodd;
      }
    </style>
  </defs>
  <path id="regular" class="cls-1" d="M355.072,200.616A138.539,138.539,0,0,1,390,292.761C390,369.66,327.544,432,250.5,432S111,369.66,111,292.761c0-72.575,55.632-132.171,126.651-138.646l12.814-31.657c4.189-.378,8.429-0.582,12.717-0.582a139.791,139.791,0,0,1,37.781,5.172,53.79,53.79,0,0,0,.264-28.68c-6.9-27.223.991-43.355,24.458-52.441s22.555-.542,25.364,7.233S357.1,68.075,342.9,71.244s-17.5,7.181-12.682,20.8c3.628,10.243,3.269,31.319-1.711,46.025a140.059,140.059,0,0,1,39.339,31ZM341.8,233.4c-0.811-1.21-1.651-2.4-2.509-3.575-0.081-.11-0.159-0.221-0.24-0.331q-1.239-1.685-2.544-3.317-0.2-.246-0.395-0.491-1.3-1.617-2.663-3.183c-0.1-.115-0.2-0.227-0.3-0.341q-1.326-1.509-2.706-2.97c-0.09-.095-0.179-0.193-0.27-0.289-0.926-.972-1.876-1.923-2.838-2.861-0.2-.2-0.409-0.4-0.616-0.6a108.919,108.919,0,0,0-10.28-8.723l11.472-28.34a108.77,108.77,0,0,0-56.567-21.742L259.67,185.477q-4.092-.308-8.264-0.31c-0.736,0-1.466.021-2.2,0.035-0.712.014-1.423,0.031-2.132,0.059-0.231.009-.461,0.023-0.692,0.034q-2.1.095-4.17,0.269c-0.283.024-.567,0.044-0.849,0.069-0.628.058-1.253,0.126-1.879,0.194q-0.631.069-1.261,0.143-0.878.107-1.749,0.225c-0.484.066-.965,0.139-1.446,0.212-0.528.079-1.058,0.156-1.583,0.243q-1.4.231-2.777,0.5c-0.437.084-.871,0.178-1.306,0.268-0.593.122-1.186,0.245-1.775,0.377-0.445.1-.889,0.2-1.332,0.307q-0.9.213-1.791,0.441A108.611,108.611,0,1,0,341.8,233.4h0Z"/>
</svg>
