<svg xmlns="http://www.w3.org/2000/svg" width="100" height="100" viewBox="0 0 500 500">
  <metadata><?xpacket begin="﻿" id="W5M0MpCehiHzreSzNTczkc9d"?>
<x:xmpmeta xmlns:x="adobe:ns:meta/" x:xmptk="Adobe XMP Core 5.6-c142 79.160924, 2017/07/13-01:06:39        ">
   <rdf:RDF xmlns:rdf="http://www.w3.org/1999/02/22-rdf-syntax-ns#">
      <rdf:Description rdf:about=""/>
   </rdf:RDF>
</x:xmpmeta>
                                                                                                    
                                                                                                    
                                                                                                    
                                                                                                    
                                                                                                    
                                                                                                    
                                                                                                    
                                                                                                    
                                                                                                    
                                                                                                    
                                                                                                    
                                                                                                    
                                                                                                    
                                                                                                    
                                                                                                    
                                                                                                    
                                                                                                    
                                                                                                    
                                                                                                    
                                                                                                    
                           
<?xpacket end="w"?></metadata>
<defs>
    <style>
      .cls-1 {
        fill: #fff;
        fill-rule: evenodd;
      }
    </style>
  </defs>
  <path id="filled" class="cls-1" d="M390,460H110a15,15,0,0,1-15-15V55a15,15,0,0,1,15-15H296a9.928,9.928,0,0,1,5.837,2.149l101.01,101.01A10.354,10.354,0,0,1,405,149V445A15,15,0,0,1,390,460ZM166.583,273A7.6,7.6,0,0,0,159,280.62V392.38a7.6,7.6,0,0,0,7.583,7.62H333.417A7.6,7.6,0,0,0,341,392.38V280.62a7.6,7.6,0,0,0-7.583-7.62H166.583ZM293,61a15,15,0,0,0-15,15v76a15,15,0,0,0,15,15h76a15,15,0,0,0,15-15Zm27.272,320.712H179.728a2.534,2.534,0,0,1-2.528-2.54V293.828a2.534,2.534,0,0,1,2.528-2.54H320.272a2.534,2.534,0,0,1,2.528,2.54v85.344A2.534,2.534,0,0,1,320.272,381.712ZM281.455,332.5a5.458,5.458,0,0,0-8.424,0l-12.917,14.71-23.026-26.222a5.458,5.458,0,0,0-8.424,0L190.013,365H310Z"/>
</svg>
