<svg xmlns="http://www.w3.org/2000/svg" width="100" height="100" viewBox="0 0 500 500">
  <metadata><?xpacket begin="﻿" id="W5M0MpCehiHzreSzNTczkc9d"?>
<x:xmpmeta xmlns:x="adobe:ns:meta/" x:xmptk="Adobe XMP Core 5.6-c142 79.160924, 2017/07/13-01:06:39        ">
   <rdf:RDF xmlns:rdf="http://www.w3.org/1999/02/22-rdf-syntax-ns#">
      <rdf:Description rdf:about=""/>
   </rdf:RDF>
</x:xmpmeta>
                                                                                                    
                                                                                                    
                                                                                                    
                                                                                                    
                                                                                                    
                                                                                                    
                                                                                                    
                                                                                                    
                                                                                                    
                                                                                                    
                                                                                                    
                                                                                                    
                                                                                                    
                                                                                                    
                                                                                                    
                                                                                                    
                                                                                                    
                                                                                                    
                                                                                                    
                                                                                                    
                           
<?xpacket end="w"?></metadata>
<defs>
    <style>
      .cls-1 {
        fill-rule: evenodd;
      }
    </style>
  </defs>
  <path id="filled" class="cls-1" d="M408.036,268.46H374.625A125.95,125.95,0,0,1,270.466,374.1v31.923A12.978,12.978,0,0,1,257.488,419H244.511a12.977,12.977,0,0,1-12.977-12.977V374.372A125.947,125.947,0,0,1,125.642,268.46H93.991a12.977,12.977,0,0,1-12.977-12.977V242.506a12.977,12.977,0,0,1,12.977-12.977h31.934A125.946,125.946,0,0,1,231.534,125.358V91.977A12.977,12.977,0,0,1,244.511,79h12.977a12.978,12.978,0,0,1,12.978,12.977V125.63a125.954,125.954,0,0,1,103.88,103.9h33.69a12.977,12.977,0,0,1,12.977,12.977v12.977A12.977,12.977,0,0,1,408.036,268.46Zm-49.388-99.58a136.166,136.166,0,0,0-27.528-27.528L348.268,124.2a12.976,12.976,0,0,1,18.352,0l9.176,9.176a12.976,12.976,0,0,1,0,18.352Zm-216.267-.992-16.16-16.16a12.976,12.976,0,0,1,0-18.352L135.4,124.2a12.978,12.978,0,0,1,18.353,0l16.413,16.413A136.153,136.153,0,0,0,142.381,167.888Zm-0.76,162.962a136.227,136.227,0,0,0,27.529,27.529L153.732,373.8a12.976,12.976,0,0,1-18.352,0L126.2,364.62a12.976,12.976,0,0,1,0-18.352Zm217.766-1.013,16.427,16.427a12.978,12.978,0,0,1,0,18.352l-9.177,9.176a12.976,12.976,0,0,1-18.352,0l-16.173-16.173A136.179,136.179,0,0,0,359.387,329.837Z"/>
</svg>
