<svg xmlns="http://www.w3.org/2000/svg" width="100" height="100" viewBox="0 0 500 500">
  <metadata><?xpacket begin="﻿" id="W5M0MpCehiHzreSzNTczkc9d"?>
<x:xmpmeta xmlns:x="adobe:ns:meta/" x:xmptk="Adobe XMP Core 5.6-c142 79.160924, 2017/07/13-01:06:39        ">
   <rdf:RDF xmlns:rdf="http://www.w3.org/1999/02/22-rdf-syntax-ns#">
      <rdf:Description rdf:about=""/>
   </rdf:RDF>
</x:xmpmeta>
                                                                                                    
                                                                                                    
                                                                                                    
                                                                                                    
                                                                                                    
                                                                                                    
                                                                                                    
                                                                                                    
                                                                                                    
                                                                                                    
                                                                                                    
                                                                                                    
                                                                                                    
                                                                                                    
                                                                                                    
                                                                                                    
                                                                                                    
                                                                                                    
                                                                                                    
                                                                                                    
                           
<?xpacket end="w"?></metadata>
<defs>
    <style>
      .cls-1 {
        fill-rule: evenodd;
      }
    </style>
  </defs>
  <path id="regular" class="cls-1" d="M409,272H376.02a126.767,126.767,0,0,1-21.168,50.739l23.427,23.428a15,15,0,0,1,0,21.213l-9.9,9.9a15,15,0,0,1-21.213,0l-23.428-23.427A126.767,126.767,0,0,1,273,375.02V408a15,15,0,0,1-15,15H244a15,15,0,0,1-15-15V375.186a126.789,126.789,0,0,1-51.171-20.943L155.475,376.6a14.98,14.98,0,0,1-21.186,0l-9.886-9.886a14.98,14.98,0,0,1,0-21.186l22.179-22.179A126.76,126.76,0,0,1,124.98,272H93a15,15,0,0,1-15-15V243a15,15,0,0,1,15-15h31.814a126.8,126.8,0,0,1,21.34-51.733l-22.433-22.434a15,15,0,0,1,0-21.213l9.9-9.9a15,15,0,0,1,21.213,0l22.434,22.433A126.8,126.8,0,0,1,229,123.814V92a15,15,0,0,1,15-15h14a15,15,0,0,1,15,15v31.98a126.76,126.76,0,0,1,51.346,21.6l23.211-23.211a14.98,14.98,0,0,1,21.185,0l9.887,9.887a14.98,14.98,0,0,1,0,21.185l-23.386,23.386A126.789,126.789,0,0,1,376.186,228H409a15,15,0,0,1,15,15v14A15,15,0,0,1,409,272Zm-54.762,88.309a5,5,0,0,0,7.071-7.071l-17.19-17.19q-3.4,3.672-7.071,7.071Zm-212.887-7.722a4.994,4.994,0,0,0,7.062,7.062l16.06-16.06q-3.687-3.372-7.106-7.018ZM148.47,140.4a5,5,0,0,0-7.072,7.072l15.487,15.486q3.4-3.672,7.071-7.071Zm212.5,6.69a4.994,4.994,0,0,0-7.062-7.062l-16.341,16.341q3.648,3.412,7.018,7.106ZM402,245H357.9a107.092,107.092,0,0,0-16.817-54.01l0,0q-1.14-1.788-2.349-3.526l-0.122-.174q-1.1-1.577-2.253-3.11c-0.159-.211-0.32-0.419-0.48-0.629q-0.982-1.29-2-2.548c-0.243-.3-0.486-0.6-0.732-0.892q-0.936-1.128-1.9-2.23a108.612,108.612,0,0,0-7.768-8q-1.268-1.177-2.571-2.318c-0.386-.336-0.778-0.664-1.168-1-0.574-.487-1.151-0.971-1.734-1.446q-0.988-.8-2-1.581-0.448-.35-0.9-0.7-1.291-.976-2.612-1.919l-0.347-.246A107.746,107.746,0,0,0,256,141.174V99a5,5,0,0,0-10,0v42.1a107.051,107.051,0,0,0-55.646,17.89q-1.34.889-2.652,1.816c-0.34.24-.677,0.482-1.014,0.727q-1.065.769-2.109,1.567c-0.5.382-1,.766-1.5,1.156s-0.964.773-1.443,1.164c-0.648.53-1.294,1.063-1.929,1.607-0.3.261-.6,0.527-0.9,0.791a108.767,108.767,0,0,0-9.99,9.99c-0.264.3-.53,0.6-0.791,0.9-0.544.635-1.077,1.281-1.607,1.929-0.391.479-.781,0.957-1.164,1.443s-0.774.994-1.156,1.5q-0.8,1.046-1.567,2.109c-0.245.337-.487,0.674-0.727,1.014q-0.927,1.313-1.816,2.652A107.051,107.051,0,0,0,142.1,245H101a5,5,0,0,0,0,10h41.174a107.746,107.746,0,0,0,19.51,56.137l0.246,0.347q0.939,1.322,1.919,2.612,0.345,0.453.7,0.9,0.78,1.008,1.581,2c0.475,0.583.959,1.16,1.446,1.734,0.331,0.39.659,0.782,1,1.168q1.14,1.3,2.318,2.571a108.612,108.612,0,0,0,8,7.768q1.1,0.966,2.23,1.9c0.3,0.246.593,0.489,0.892,0.732q1.258,1.02,2.548,2c0.21,0.16.418,0.321,0.629,0.48q1.536,1.152,3.11,2.253l0.174,0.122q1.738,1.207,3.526,2.349l0,0A107.092,107.092,0,0,0,246,356.9V400a5,5,0,0,0,10,0V356.826a107.6,107.6,0,0,0,54.067-18.105c0.738-.5,1.472-0.993,2.2-1.5,0.525-.372,1.044-0.752,1.562-1.132s1.018-.749,1.521-1.131q1.029-.783,2.039-1.591,0.43-.342.856-0.689c0.809-.661,1.611-1.329,2.4-2.012l0.341-.3a108.652,108.652,0,0,0,10.38-10.38c0.1-.114.2-0.227,0.3-0.341,0.683-.789,1.351-1.591,2.012-2.4q0.346-.426.689-0.856,0.808-1.01,1.591-2.039c0.382-.5.757-1.011,1.131-1.521s0.76-1.037,1.132-1.562c0.511-.725,1.009-1.459,1.5-2.2A107.6,107.6,0,0,0,357.826,255H402A5,5,0,0,0,402,245Z"/>
</svg>
